<svg xmlns="http://www.w3.org/2000/svg" xmlns:xlink="http://www.w3.org/1999/xlink" width="311.824" height="267.663" viewBox="0 0 311.824 267.663">
  <defs>
    <clipPath id="clip-path">
      <rect id="Rectángulo_401345" data-name="Rectángulo 401345" width="311.824" height="267.663" fill="none"/>
    </clipPath>
  </defs>
  <g id="Grupo_1099404" data-name="Grupo 1099404" clip-path="url(#clip-path)">
    <path id="Trazado_873411" data-name="Trazado 873411" d="M200.205,1.637C172.424,6.2,161.142,20.953,135.271,41.475,69.26,93.841,40.826,58.819,22.814,103.344s19.732,110,104.709,74.764c47.717-19.785,118.389,59.347,165.365,13.9,64.432-62.341,21.238-209.09-92.683-190.368" transform="translate(-11.068 0)" fill="#f8fbf9"/>
    <path id="Trazado_873412" data-name="Trazado 873412" d="M298.947,151.37s2.036-2.663,1.133-7.721l-.086-.053c-4.939,1.413-6.436,4.413-6.436,4.413a2.606,2.606,0,0,0-1.695-2.087c-1.113.836-1.4,2.706-1.47,3.611l.029.036s-.18,13.067-2.691,10.5,1.075-12.435,1.075-12.435l.048.057a8.74,8.74,0,0,0-1.072-4.785s-1.6-.075-3.269,3.01c0,0,.3-3.8-1.487-5.37,0,0-2.135.6-2.352,2.476,0,0-1.6-3.947-7.715-6.225l-.114.059c-1.643,6.317.673,9.891.673,9.891-1.662-.9-3.378.506-3.378.506.264,2.366,3.546,4.3,3.546,4.3-3.482-.406-4.716,1.336-4.716,1.336,1.039,2.183,4.69,3.329,4.69,3.329s9.844,3.662,10.171,7.235-9.745-4.753-9.745-4.753-2.57-1.981-3.893-1.567a2.605,2.605,0,0,0,.706,2.594s-3.309-.535-7.339,2.652l-.007.1c3.581,3.684,6.931,3.585,6.931,3.585a2.606,2.606,0,0,0-1.038,2.48c1.7.788,4.341-.632,4.341-.632-1.695,2.178-.395,2.926-.395,2.926a6.214,6.214,0,0,0,3.37-.579,13.405,13.405,0,0,1,11.958.338l.123.067a2.56,2.56,0,0,0,3.746-2.164q.007-.158.017-.319a11.077,11.077,0,0,1,6.027-9.17,7.262,7.262,0,0,0,3.236-2.871s-.591-1.117-3.348-1.012c0,0,2.694-1.316,3.046-3.157a2.605,2.605,0,0,0-2.62-.6" transform="translate(-158.42 -82.229)" fill="#bed99d"/>
    <path id="Trazado_873413" data-name="Trazado 873413" d="M376.065,225.039s2.991,1.01,7.387-1.829l.026-.106c-2.629-4.384-5.783-4.727-5.783-4.727a3.135,3.135,0,0,0,1.457-2.49c-1.068-.79-2.859-.357-3.709-.082l-.024.043s-10.156,4.9-8.326,1.818,10.792-1.279,10.792-1.279l-.043.061a8.741,8.741,0,0,0,4.348-2.269s-.34-1.569-3.751-2.383c0,0,3.746-.689,4.806-2.82,0,0-1.128-1.908-3-1.635,0,0,3.4-2.562,4.027-9.058l-.087-.095c-6.527.039-9.383,3.2-9.383,3.2.44-1.838-1.359-3.133-1.359-3.133-2.218.865-3.24,4.534-3.24,4.534-.5-3.47-2.505-4.212-2.505-4.212-1.841,1.566-2.009,5.388-2.009,5.388s1.374,9.218-1.24,10.376c-1.792.794-1.282-1.448-.45-3.646A9.528,9.528,0,0,0,362.309,201a10.738,10.738,0,0,0-1.832-1.661c-2.843,2.271-2.667,4.685-2.244,7.112-.943-.917-2.535-.219-2.535-.219-.44,1.713,1.38,3.636,1.38,3.636-2.368-.88-2.842.471-2.842.471a4.91,4.91,0,0,0,1.155,2.8c2.334,2.884,2.3,5.824,1.3,9.913-.011.045-.248,2.791,2,2.365.1-.02.65,0,.755-.018,3.84-.786,6.929-.525,9.519,2.257a6.118,6.118,0,0,0,3.506,2.127s.866-1.017.025-3.727c0,0,1.934,2.182,3.717,1.828,0,0,.768-1.72-.153-2.844" transform="translate(-212.929 -119.129)" fill="#bed99d"/>
    <path id="Trazado_873414" data-name="Trazado 873414" d="M259.031,210.426s-1.368-2.845-6.47-4.006l-.094.056c-1.3,4.944.659,7.44.659,7.44a3.136,3.136,0,0,0-2.8.7c.181,1.316,1.742,2.294,2.533,2.71l.048-.012s10.6,3.839,7.118,4.686-8.456-6.827-8.456-6.827l.074-.012a8.74,8.74,0,0,0-4.661-1.525s-.885,1.34.916,4.348c0,0-3.11-2.2-5.376-1.468,0,0-.576,2.141.925,3.287,0,0-4.21-.643-9.294,3.449l-.008.128c4.589,4.641,8.844,4.479,8.844,4.479-1.622.969-1.291,3.162-1.291,3.162,2.168.982,5.507-.85,5.507-.85-2.13,2.786-1.263,4.736-1.263,4.736,2.407.223,5.258-2.328,5.258-2.328s5.635-7.424,8.289-6.363c1.82.727-.14,1.928-2.295,2.869a9.529,9.529,0,0,0-5.751,7.981,10.745,10.745,0,0,0,.092,2.471c3.611.448,5.215-1.366,6.655-3.364,0,1.316,1.615,1.967,1.615,1.967,1.533-.882,1.637-3.528,1.637-3.528,1.025,2.309,2.323,1.7,2.323,1.7a4.912,4.912,0,0,0,1.194-2.782c.432-3.684,2.557-5.718,6.18-7.86.04-.024,2.17-1.773.294-3.083-.087-.06-.452-.468-.541-.528-3.245-2.2-5.218-4.59-5.036-8.387a6.118,6.118,0,0,0-.928-4s-1.333.092-2.684,2.587c0,0,.21-2.908-1.289-3.936,0,0-1.766.653-1.928,2.1" transform="translate(-140.744 -124.077)" fill="#bed99d"/>
    <path id="Trazado_873415" data-name="Trazado 873415" d="M302.545,166.461c18.7,34.554,22.6,42.644,24.353,62.171" transform="translate(-181.857 -100.058)" fill="none" stroke="#80b569" stroke-linecap="round" stroke-linejoin="round" stroke-width="2.558"/>
    <path id="Trazado_873416" data-name="Trazado 873416" d="M357.778,263.363s.622-7.831,6.3-13.158" transform="translate(-215.058 -150.396)" fill="none" stroke="#80b569" stroke-linecap="round" stroke-linejoin="round" stroke-width="2.558"/>
    <path id="Trazado_873417" data-name="Trazado 873417" d="M290.812,245.657s15.781-1.987,24.63,8.96" transform="translate(-174.805 -147.578)" fill="none" stroke="#80b569" stroke-linecap="round" stroke-linejoin="round" stroke-width="2.558"/>
    <path id="Trazado_873418" data-name="Trazado 873418" d="M289.094,214.378a6.117,6.117,0,0,0-.928-3.995s-1.332.091-2.683,2.587c0,0,.21-2.908-1.29-3.936,0,0-1.766.653-1.928,2.1,0,0-1.368-2.845-6.469-4.005-1.193,3.51.666,7.215.666,7.215s-.931-.755-3.493,1.073c0,0,1.373,2.561,3.769,2.593" transform="translate(-164.079 -124.501)" fill="none" stroke="#80b569" stroke-linecap="round" stroke-linejoin="round" stroke-width="2.099"/>
    <path id="Trazado_873419" data-name="Trazado 873419" d="M403.059,241.067c.12-.03,4.232-2.028,4.765-2.287a2.741,2.741,0,0,1,.447,1.808" transform="translate(-242.276 -143.529)" fill="none" stroke="#80b569" stroke-linecap="round" stroke-linejoin="round" stroke-width="2.099"/>
    <circle id="Elipse_11535" data-name="Elipse 11535" cx="3.06" cy="3.06" r="3.06" transform="translate(250.647 58.79) rotate(-9.218)" fill="none" stroke="#28401d" stroke-linecap="round" stroke-linejoin="round" stroke-width="1.923"/>
    <circle id="Elipse_11536" data-name="Elipse 11536" cx="3.06" cy="3.06" r="3.06" transform="translate(110.875 0.673)" fill="none" stroke="#28401d" stroke-linecap="round" stroke-linejoin="round" stroke-width="1.923"/>
    <circle id="Elipse_11537" data-name="Elipse 11537" cx="3.06" cy="3.06" r="3.06" transform="translate(10.479 171.642)" fill="none" stroke="#28401d" stroke-linecap="round" stroke-linejoin="round" stroke-width="1.923"/>
    <path id="Trazado_873420" data-name="Trazado 873420" d="M294.944,356.973H274.034a10.489,10.489,0,0,1-10.458-10.458V313.693a10.489,10.489,0,0,1,10.458-10.459h20.909A10.489,10.489,0,0,1,305.4,313.693v32.822a10.489,10.489,0,0,1-10.458,10.458" transform="translate(-158.434 -182.272)" fill="#446337"/>
    <path id="Trazado_873421" data-name="Trazado 873421" d="M304.653,294.079H280.8a3.038,3.038,0,1,1,0-6.077h23.858a3.038,3.038,0,1,1,0,6.077" transform="translate(-166.958 -173.116)" fill="#28401d"/>
    <path id="Trazado_873422" data-name="Trazado 873422" d="M276.61,350.585c0,6.774-5.836,12.266-13.034,12.266V338.319c7.2,0,13.034,5.491,13.034,12.266" transform="translate(-158.434 -203.361)" fill="#fff"/>
    <path id="Trazado_873423" data-name="Trazado 873423" d="M422.525,69.921l-18.512,63.812-22.92,43.891,7.844-42.283s11.3-39.552,33.587-65.42" transform="translate(-229.073 -42.029)" fill="#789e4c"/>
    <path id="Trazado_873424" data-name="Trazado 873424" d="M368.767,49.943s-13.826,126.885-32.81,177.3l-8.739,3.246S343.37,90.082,368.767,49.943" transform="translate(-196.688 -30.02)" fill="#789e4c"/>
    <path id="Trazado_873425" data-name="Trazado 873425" d="M338.8,241.922l65.908-170.1s-24.358,15.838-52.137,99.516c-24.585,74.057-26.446,83.651-26.446,83.651Z" transform="translate(-196.031 -43.17)" fill="#789e4c"/>
    <path id="Trazado_873426" data-name="Trazado 873426" d="M393.89,155.963s-31.2,69.473-43.787,109.952" transform="translate(-210.444 -93.748)" fill="none" stroke="#537a43" stroke-linecap="round" stroke-linejoin="round" stroke-width="2.669"/>
    <path id="Trazado_873427" data-name="Trazado 873427" d="M402.72,198.316s-4.993,34.225-6.018,42.851" transform="translate(-238.455 -119.206)" fill="none" stroke="#537a43" stroke-linecap="round" stroke-linejoin="round" stroke-width="2.669"/>
    <path id="Trazado_873428" data-name="Trazado 873428" d="M456.849,254.352c-4.969-9.126-9.882-19.5-10.848-31.549l-11,.061-10.948.062c-.853,12.055-5.718,22.453-10.6,31.625a57.709,57.709,0,0,0-6.567,27.365l56.785-.26a57.72,57.72,0,0,0-6.825-27.3" transform="translate(-244.577 -133.925)" fill="#fff"/>
    <path id="Trazado_873429" data-name="Trazado 873429" d="M456.849,301.891l-43.394.2a57.709,57.709,0,0,0-6.567,27.365l.8,40.05a10.837,10.837,0,0,0,10.933,10.568l33.686-.154a10.834,10.834,0,0,0,10.832-10.64l.531-40.084a57.72,57.72,0,0,0-6.825-27.3" transform="translate(-244.577 -181.464)" fill="#fff"/>
    <path id="Trazado_873430" data-name="Trazado 873430" d="M465.256,220.538,442.4,220.49a3.946,3.946,0,0,1-3.926-3.942l0-.789a3.946,3.946,0,0,1,3.943-3.926l22.859.048a3.946,3.946,0,0,1,3.926,3.943l0,.789a3.946,3.946,0,0,1-3.942,3.926" transform="translate(-263.562 -127.331)" fill="#a0cc76"/>
    <path id="Trazado_873431" data-name="Trazado 873431" d="M354.748,625.278c0,6.29-41.563,11.389-92.835,11.389s-92.835-5.1-92.835-11.389,41.563-11.389,92.835-11.389,92.835,5.1,92.835,11.389" transform="translate(-101.632 -369.004)" fill="#feedda"/>
    <rect id="Rectángulo_401344" data-name="Rectángulo 401344" width="127.365" height="117.998" transform="translate(94.081 138.655)" fill="#f9a545"/>
    <path id="Trazado_873432" data-name="Trazado 873432" d="M280.355,328.028l9.92-12.98,10.916,12.98c0,6.745-20.835,6.745-20.835,0" transform="translate(-168.519 -189.373)" fill="#f9a545"/>
    <path id="Trazado_873433" data-name="Trazado 873433" d="M235.846,328.028l9.92-12.98,10.916,12.98c0,6.745-20.835,6.745-20.835,0" transform="translate(-141.765 -189.373)" fill="#f9a545"/>
    <path id="Trazado_873434" data-name="Trazado 873434" d="M324.864,328.028l9.92-12.98,10.916,12.98c0,6.745-20.835,6.745-20.835,0" transform="translate(-195.273 -189.373)" fill="#f9a545"/>
    <path id="Trazado_873435" data-name="Trazado 873435" d="M369.373,328.028l9.92-12.98,10.916,12.98c0,6.745-20.835,6.745-20.835,0" transform="translate(-222.027 -189.373)" fill="#f9a545"/>
    <path id="Trazado_873436" data-name="Trazado 873436" d="M413.882,328.028l9.92-12.98,10.916,12.98c0,6.745-20.835,6.745-20.835,0" transform="translate(-248.781 -189.373)" fill="#f9a545"/>
    <path id="Trazado_873437" data-name="Trazado 873437" d="M458.391,328.028l9.92-12.98,10.916,12.98c0,6.745-20.835,6.745-20.835,0" transform="translate(-275.535 -189.373)" fill="#f9a545"/>
    <path id="Trazado_873438" data-name="Trazado 873438" d="M502.9,328.028l9.92-12.98,10.916,12.98c0,6.745-20.835,6.745-20.835,0" transform="translate(-302.289 -189.373)" fill="#f9a545"/>
    <path id="Trazado_873439" data-name="Trazado 873439" d="M501.928,475.216l-16.906-20.267-18.4,19.921V363.61" transform="translate(-280.482 -218.563)" fill="none" stroke="#663a24" stroke-linecap="round" stroke-linejoin="round" stroke-width="1.558"/>
    <line id="Línea_583" data-name="Línea 583" x2="0.101" y2="51.116" transform="translate(203.691 177.407)" fill="none" stroke="#663a24" stroke-linecap="round" stroke-linejoin="round" stroke-width="1.558"/>
    <path id="Trazado_873440" data-name="Trazado 873440" d="M333.3,463.409a23.931,23.931,0,1,1-23.931-23.93,23.93,23.93,0,0,1,23.931,23.93" transform="translate(-171.577 -264.167)" fill="#fff"/>
    <path id="Trazado_873441" data-name="Trazado 873441" d="M345.888,463.742s.454,10.105-5.474,16.952-15.995,7.844-15.995,7.844-.454-10.105,5.474-16.952,15.995-7.844,15.995-7.844" transform="translate(-195.001 -278.752)" fill="#7fbf36"/>
    <line id="Línea_584" data-name="Línea 584" y1="28.594" x2="24.831" transform="translate(126.056 184.99)" fill="none" stroke="#66992b" stroke-linecap="round" stroke-linejoin="round" stroke-width="2.138"/>
    <line id="Línea_585" data-name="Línea 585" x2="20.437" transform="translate(180.173 93.252)" fill="none" stroke="#28401d" stroke-linecap="round" stroke-linejoin="round" stroke-width="1.59"/>
    <path id="Trazado_873442" data-name="Trazado 873442" d="M653.314,287.667a78.611,78.611,0,0,1,13.331,6.734c3.954,2.5,7.949,5.737,8.951,10.3.579,2.639.069,5.378.022,8.079s.53,5.682,2.659,7.346c-4.293-3.6-11.251-1.977-15.729-5.345-2.478-1.864-3.729-4.946-4.375-7.978s-.806-6.166-1.677-9.141a12.34,12.34,0,0,0-5.406-7.456c.665-.731,1.33-1.462,2.01-2.18.006.053.013.106.214-.362" transform="translate(-391.365 -172.914)" fill="#663a24" fill-rule="evenodd"/>
    <path id="Trazado_873443" data-name="Trazado 873443" d="M537.1,416.778l-.5,3.709a3.13,3.13,0,0,1-1.022,1.921l-2.268,2.016a1.514,1.514,0,0,1-2.418-.584l.892-4.627a4.713,4.713,0,0,1,1.71-2.722l1.5-1.214Z" transform="translate(-319.118 -249.619)" fill="#d45d39"/>
    <path id="Trazado_873444" data-name="Trazado 873444" d="M597,304.958a42.819,42.819,0,0,0-4.2,1.256,7.983,7.983,0,0,0-4.072,2.511C587.54,310.361,572,335.006,572,335.006l21.451-3.389Z" transform="translate(-343.824 -183.308)" fill="#b9c4ad" fill-rule="evenodd"/>
    <path id="Trazado_873445" data-name="Trazado 873445" d="M635.25,270.573s-4.275,1.626-1.592,6.13l5.457-1.939Z" transform="translate(-380.355 -162.639)" fill="#663a24" fill-rule="evenodd"/>
    <path id="Trazado_873446" data-name="Trazado 873446" d="M531.216,644.291c0,2.61,16.076,4.726,35.907,4.726s35.906-2.116,35.906-4.726-16.076-4.725-35.906-4.725-35.907,2.116-35.907,4.725" transform="translate(-319.31 -384.438)" fill="#dbe8cc" fill-rule="evenodd"/>
    <path id="Trazado_873447" data-name="Trazado 873447" d="M604.284,522.066s8.7-27.922,5.638-39.49l6.12-37.843-14.494,4.81-1.62,72.752Z" transform="translate(-360.611 -267.326)" fill="#d45d39" fill-rule="evenodd"/>
    <path id="Trazado_873448" data-name="Trazado 873448" d="M661.889,624.072l-1.793-9.117,6.716-1.442-.333,10.856Z" transform="translate(-396.779 -368.778)" fill="#d45d39" fill-rule="evenodd"/>
    <path id="Trazado_873449" data-name="Trazado 873449" d="M586.386,636.03l-3.808,2.725c-.751.674-4.8,1.982-4.8,1.982-.421.837.351,1.277,1.012,1.387l11.851-.248s2.748-.568.45-5.841c-2.179.952-4.184,1.634-4.707-.006" transform="translate(-347.227 -382.313)" fill="#4a2a1a" fill-rule="evenodd"/>
    <path id="Trazado_873450" data-name="Trazado 873450" d="M652.99,636.133l-3.658,2.725a23.283,23.283,0,0,1-3.544,1.982c-.4.836.382,1.277,1.046,1.387l10.638-.248s2.885-.575.458-5.847c-1.136,1.109-4.089,2.413-4.941,0" transform="translate(-388.113 -382.375)" fill="#4a2a1a" fill-rule="evenodd"/>
    <path id="Trazado_873451" data-name="Trazado 873451" d="M594.942,450.873l-1.425,35.407-1.862,33.039h11.051s.055-5.96.633-7.851,5.122-19.829,2.778-28.082l7.908-33.609Z" transform="translate(-355.639 -270.358)" fill="#6fad75" fill-rule="evenodd"/>
    <path id="Trazado_873452" data-name="Trazado 873452" d="M614.5,477.672l6.563-27.9-6.629.358-3.94,19.857a69.731,69.731,0,0,0-2,15.516c.22,8.955-1.215,26.3-1.178,27.82.126,5.106-4.119,5.991-4.119,5.991h6.545s.055-5.96.633-7.851c.505-1.65,4.029-15.516,3.361-24.506a30.641,30.641,0,0,1,.761-9.289" transform="translate(-362.576 -270.357)" fill="#5f9464" fill-rule="evenodd"/>
    <path id="Trazado_873453" data-name="Trazado 873453" d="M631.521,385.307l-26.479,1.829c-4.494,1.482-5.146,24.985-5.146,24.985l15.748.783c8.023-.136,18.791,7.661,18.9-4.989.142-17.074-3.019-22.607-3.019-22.607" transform="translate(-360.593 -231.605)" fill="#6fad75" fill-rule="evenodd"/>
    <path id="Trazado_873454" data-name="Trazado 873454" d="M606.142,306.313l5.35-2.329,5.166-.6,2.6.1,9.861,3.439a7.25,7.25,0,0,1,3.593,9l-.224,11.167c-.819,9.908,0,16.48-.266,23.9-13.983,5.193-31.684,4.4-36.1-2.011.744-17.539,3.212-31.374,10.022-42.66" transform="translate(-358.323 -182.359)" fill="#b9c4ad" fill-rule="evenodd"/>
    <path id="Trazado_873455" data-name="Trazado 873455" d="M633.3,302.942s-3.1,7.675,2.168,8.013,8.153-7.641,8.153-7.641l-3.848-1.71Z" transform="translate(-380.125 -181.292)" fill="#d45d39"/>
    <path id="Trazado_873456" data-name="Trazado 873456" d="M640.729,286.444l-.692,6.746a2.26,2.26,0,0,0,.935,2.077,2.222,2.222,0,0,0,2.256.186l.695-.336a2.921,2.921,0,0,0,1.643-2.632c0-2.875-.007-8.111-.007-8.111Z" transform="translate(-384.714 -170.934)" fill="#d45d39" fill-rule="evenodd"/>
    <path id="Trazado_873457" data-name="Trazado 873457" d="M640.763,294.557l-.059,2.231,2.284-1.7Z" transform="translate(-385.122 -177.056)" fill="#c24a27" fill-rule="evenodd"/>
    <path id="Trazado_873458" data-name="Trazado 873458" d="M641.937,275.56a1.967,1.967,0,0,0-1.236-2.484l-3.553-1.18a2.074,2.074,0,0,0-2.461,1.256,21.291,21.291,0,0,0-1.452,5.616,2.383,2.383,0,0,0,1.373,2.615c1.09.362,4.7.4,5.66-1.471a28.623,28.623,0,0,0,1.669-4.353" transform="translate(-380.619 -163.38)" fill="#d45d39" fill-rule="evenodd"/>
    <path id="Trazado_873459" data-name="Trazado 873459" d="M645.059,277.688a4.66,4.66,0,0,0,2.232-2.912c.322-1.287.5-2.885-.219-3.843-1.81-2.424-4.514-4.029-8.089-1.877,0,0,.716,4.464,5.52,8.949Z" transform="translate(-384.087 -161.121)" fill="#663a24" fill-rule="evenodd"/>
    <path id="Trazado_873460" data-name="Trazado 873460" d="M651.124,288.13a1.474,1.474,0,0,1-2.031.445,1.508,1.508,0,0,1-.047-2.1,1.474,1.474,0,0,1,2.031-.446,1.509,1.509,0,0,1,.048,2.1" transform="translate(-389.897 -171.784)" fill="#d45d39" fill-rule="evenodd"/>
    <path id="Trazado_873461" data-name="Trazado 873461" d="M634.884,287.667l1.785.552s-.411,1.222-1.238.854-.547-1.406-.547-1.406" transform="translate(-381.597 -172.914)" fill="#fff" fill-rule="evenodd"/>
    <path id="Trazado_873462" data-name="Trazado 873462" d="M658.646,441.662l-1.328,31.721s3.344,14.06-.353,37.847l-9.9-.177L643.7,470.311l-2.5-33.32Z" transform="translate(-385.42 -262.672)" fill="#6fad75" fill-rule="evenodd"/>
    <path id="Trazado_873463" data-name="Trazado 873463" d="M559.006,352.664s.31-4.686-5.591-4.6a67.972,67.972,0,0,0-10.41.942s5.366,5.144,8.638,6.771Z" transform="translate(-326.396 -209.221)" fill="#537a43"/>
    <path id="Trazado_873464" data-name="Trazado 873464" d="M589.431,353.482c.481-.29,2.334,4.9,11.547-3.982a31.9,31.9,0,0,0-9.2-1.869c-2.675-.02-6.747.817-7.26,4.293Z" transform="translate(-351.352 -208.958)" fill="#537a43"/>
    <path id="Trazado_873465" data-name="Trazado 873465" d="M584.667,331.346c-.707,2.823-2.23,10.475-2.23,10.475l-2.178-.18a47.246,47.246,0,0,1,.351-10.753c.1-.487.418-.82.778-.8l2.762.18c.387.025.645.563.517,1.075" transform="translate(-348.693 -198.415)" fill="#537a43"/>
    <path id="Trazado_873466" data-name="Trazado 873466" d="M520.981,363.8c2.6-3.84,6-5.448,10.7-5.148,1.928.123,6.163.9,9.034,1.466a17.11,17.11,0,0,0,5.925.115c3.069-.479,7.562-1.187,8.94-1.439,4.632-.847,8.087,1.4,10.641,5.274,7.4,11.483-.816,26.723-12.874,29.966-4.082,1.1-14.5,1.459-19.851-.118-11.227-3.309-20.056-18.722-12.518-30.116" transform="translate(-311.471 -215.562)" fill="#d1603a"/>
    <path id="Trazado_873467" data-name="Trazado 873467" d="M556.536,354.535s-5.969-.036-8.508,4.557a35.974,35.974,0,0,0-3.119,7.024l7.768-2.035a14.038,14.038,0,0,0,5.56-2.839,8.951,8.951,0,0,0,1.878-2.116c1.376-2.284.407-4.516-3.578-4.591" transform="translate(-327.54 -213.108)" fill="#537a43"/>
    <path id="Trazado_873468" data-name="Trazado 873468" d="M587.312,354.651s5.969.034,8.454,4.658a35.992,35.992,0,0,1,3.036,7.06l-7.744-2.127a14.039,14.039,0,0,1-5.526-2.9,8.947,8.947,0,0,1-1.853-2.138c-1.349-2.3-.353-4.521,3.633-4.548" transform="translate(-350.504 -213.178)" fill="#537a43"/>
    <path id="Trazado_873469" data-name="Trazado 873469" d="M570.234,364.954a12.026,12.026,0,0,0-5.564-4.865c9.376,11.3-6.716,40.877-32.6,30.725-1.852-.726-4.85-3.271-7.22-6.8,2.783,5.123,7.464,9.253,12.663,10.785,5.351,1.576,15.768,1.215,19.851.118,12.058-3.243,20.276-18.483,12.874-29.966" transform="translate(-315.481 -216.447)" fill="#ba5634"/>
    <path id="Trazado_873470" data-name="Trazado 873470" d="M558.64,354.847s3.722-3.609,8.234-2.294" transform="translate(-335.794 -211.744)" fill="none" stroke="#3d5931" stroke-linecap="round" stroke-linejoin="round" stroke-width="1.41"/>
    <path id="Trazado_873471" data-name="Trazado 873471" d="M595.754,356.2s-4.211-2.782-8.272-2.068" transform="translate(-353.131 -212.795)" fill="none" stroke="#3d5931" stroke-linecap="round" stroke-linejoin="round" stroke-width="1.41"/>
    <path id="Trazado_873472" data-name="Trazado 873472" d="M583.394,359.161a5.363,5.363,0,0,1-.226-3.722" transform="translate(-350.397 -213.652)" fill="none" stroke="#3d5931" stroke-linecap="round" stroke-linejoin="round" stroke-width="1.41"/>
    <path id="Trazado_873473" data-name="Trazado 873473" d="M624.012,422.343l-.5,3.709a3.13,3.13,0,0,1-1.023,1.921l-2.268,2.016a1.514,1.514,0,0,1-2.418-.584l.892-4.627a4.716,4.716,0,0,1,1.71-2.722l1.5-1.214Z" transform="translate(-371.357 -252.964)" fill="#d45d39"/>
    <path id="Trazado_873474" data-name="Trazado 873474" d="M653.523,336.4l-.76,1.76-3.327,13.355-2.974,3.7" transform="translate(-388.583 -202.21)" fill="none" stroke="#768a81" stroke-linecap="round" stroke-linejoin="round" stroke-width="1.283"/>
    <path id="Trazado_873475" data-name="Trazado 873475" d="M627.219,404.933l-5.991,8.928,4.03.771,6.036-4.538Z" transform="translate(-373.416 -243.402)" fill="#d45d39"/>
    <path id="Trazado_873476" data-name="Trazado 873476" d="M627.737,355.317l5.021,5.266,14.873-16.53,3.889-11.724c2.06-7.563,2.458-10.938-.862-15.525L649,316.358l-9.752,24.282Z" transform="translate(-377.328 -190.16)" fill="#b9c4ad"/>
    <path id="Trazado_873477" data-name="Trazado 873477" d="M645.679,389.419l12.59-12.653,2.706-7.324" transform="translate(-388.113 -222.068)" fill="none" stroke="#768a81" stroke-linecap="round" stroke-linejoin="round" stroke-width="1.283"/>
    <line id="Línea_586" data-name="Línea 586" x1="0.731" y2="4.681" transform="translate(246.752 132.37)" fill="none" stroke="#768a81" stroke-linecap="round" stroke-linejoin="round" stroke-width="1.283"/>
    <path id="Trazado_873478" data-name="Trazado 873478" d="M190.929,228.535l1.486-3.4a3.1,3.1,0,0,0,.121-2.153l-.886-2.871a1.5,1.5,0,0,0-2.353-.741l-1.626,4.383a4.663,4.663,0,0,0,.049,3.184l.65,1.8Z" transform="translate(-112.653 -131.67)" fill="#a3472c"/>
    <path id="Trazado_873479" data-name="Trazado 873479" d="M191.994,234.192s6.714,11.546,10.46,18.955c3.9,7.712-7.993,8.707-9.066,3.427-.442-2.174-3.959-19.18-3.959-19.18Z" transform="translate(-113.864 -140.771)" fill="#a3472c" fill-rule="evenodd"/>
    <path id="Trazado_873480" data-name="Trazado 873480" d="M99.328,95.5c3.335,9.354-2.194,17.494.078,26.642,2.612,10.515,24.112,22.034,9.4,29.982-9.762,5.275-15.519-12.823-23.129-16.969-9.532-5.193-18.636-2.119-28.912-5.025,2.787-9.544,9.929-11.268,19.21-7.452-7.56-6.537-15.912-22.351-5.134-25.019,9.538-2.362,13.612,14.417,19.84,22.011,2.546-7.769,3.541-16.192,1.677-24.13l6.967-.039" transform="translate(-34.123 -57.401)" fill="#446337"/>
    <path id="Trazado_873481" data-name="Trazado 873481" d="M45.912,154.353l2.257-1.837a10.7,10.7,0,0,0-13.507-16.6L32.4,137.753a10.7,10.7,0,1,0,13.507,16.6" transform="translate(-17.113 -80.263)" fill="#537a43"/>
    <path id="Trazado_873482" data-name="Trazado 873482" d="M17.442,142.936,19.7,141.1A10.7,10.7,0,0,0,6.191,124.5l-2.257,1.837a10.7,10.7,0,0,0,13.507,16.6" transform="translate(0 -73.4)" fill="#537a43"/>
    <path id="Trazado_873483" data-name="Trazado 873483" d="M30.435,176.713l2.257-1.837a10.7,10.7,0,0,0-13.507-16.6l-2.257,1.837a10.7,10.7,0,0,0,13.507,16.6" transform="translate(-7.81 -93.703)" fill="#537a43"/>
    <path id="Trazado_873484" data-name="Trazado 873484" d="M87.232,90.046l2.257-1.837a10.7,10.7,0,0,0-13.507-16.6l-2.257,1.837a10.7,10.7,0,0,0,13.507,16.6" transform="translate(-41.95 -41.608)" fill="#537a43"/>
    <path id="Trazado_873485" data-name="Trazado 873485" d="M58.762,78.629l2.257-1.837a10.7,10.7,0,0,0-13.507-16.6l-2.257,1.837a10.7,10.7,0,0,0,13.507,16.6" transform="translate(-24.837 -34.746)" fill="#537a43"/>
    <path id="Trazado_873486" data-name="Trazado 873486" d="M33.463,95.816l2.257-1.837a10.7,10.7,0,0,0-13.507-16.6l-2.257,1.837a10.7,10.7,0,0,0,13.507,16.6" transform="translate(-9.63 -45.077)" fill="#537a43"/>
    <path id="Trazado_873487" data-name="Trazado 873487" d="M64.963,122.591l2.257-1.837a10.7,10.7,0,1,0-13.507-16.6l-2.257,1.837a10.7,10.7,0,0,0,13.507,16.6" transform="translate(-28.565 -61.171)" fill="#537a43"/>
    <path id="Trazado_873488" data-name="Trazado 873488" d="M124.366,81.447l2.257-1.837a10.7,10.7,0,0,0-13.507-16.6l-2.257,1.837a10.7,10.7,0,1,0,13.507,16.6" transform="translate(-64.271 -36.439)" fill="#537a43"/>
    <path id="Trazado_873489" data-name="Trazado 873489" d="M164.93,83.021l2.257-1.837a10.732,10.732,0,0,0,1.546-15.054h0a10.732,10.732,0,0,0-15.054-1.546l-2.257,1.837a10.7,10.7,0,0,0,13.507,16.6" transform="translate(-88.654 -37.386)" fill="#537a43"/>
    <path id="Trazado_873490" data-name="Trazado 873490" d="M143.906,52.325l2.257-1.837a10.7,10.7,0,0,0-13.507-16.6L130.4,35.725a10.7,10.7,0,1,0,13.507,16.6" transform="translate(-76.016 -18.934)" fill="#537a43"/>
    <path id="Trazado_873491" data-name="Trazado 873491" d="M93.937,50.007l2.257-1.837a10.7,10.7,0,0,0-13.507-16.6L80.43,33.407a10.7,10.7,0,0,0,13.507,16.6" transform="translate(-45.981 -17.541)" fill="#537a43"/>
    <path id="Trazado_873492" data-name="Trazado 873492" d="M45.77,57.62l2.257-1.837a10.7,10.7,0,0,0-13.507-16.6L32.262,41.02A10.7,10.7,0,0,0,45.77,57.62" transform="translate(-17.027 -22.117)" fill="#537a43"/>
    <path id="Trazado_873493" data-name="Trazado 873493" d="M50.561,73.552A12.093,12.093,0,1,0,38.866,61.073,12.093,12.093,0,0,0,50.561,73.552" transform="translate(-23.358 -29.677)" fill="#598248"/>
    <path id="Trazado_873494" data-name="Trazado 873494" d="M87.82,65.057A12.093,12.093,0,1,0,76.125,52.578,12.093,12.093,0,0,0,87.82,65.057" transform="translate(-45.754 -24.571)" fill="#598248"/>
    <path id="Trazado_873495" data-name="Trazado 873495" d="M58.4,114.741a1.147,1.147,0,1,0-1.109-1.183,1.147,1.147,0,0,0,1.109,1.183" transform="translate(-34.437 -67.592)" fill="#6a9c55"/>
    <path id="Trazado_873496" data-name="Trazado 873496" d="M174.337,72.873a1.147,1.147,0,1,0-1.109-1.183,1.146,1.146,0,0,0,1.109,1.183" transform="translate(-104.126 -42.425)" fill="#6a9c55"/>
    <path id="Trazado_873497" data-name="Trazado 873497" d="M104.792,58.079a1.147,1.147,0,1,0-1.109-1.183,1.146,1.146,0,0,0,1.109,1.183" transform="translate(-62.323 -33.533)" fill="#6a9c55"/>
    <path id="Trazado_873498" data-name="Trazado 873498" d="M147.255,91.245a1.147,1.147,0,1,0-1.109-1.183,1.146,1.146,0,0,0,1.109,1.183" transform="translate(-87.847 -53.469)" fill="#6a9c55"/>
    <path id="Trazado_873499" data-name="Trazado 873499" d="M42.636,187.336a1.147,1.147,0,1,0-1.109-1.183,1.146,1.146,0,0,0,1.109,1.183" transform="translate(-24.961 -111.228)" fill="#6a9c55"/>
    <path id="Trazado_873500" data-name="Trazado 873500" d="M11.709,150.1a1.147,1.147,0,1,0-1.109-1.183,1.146,1.146,0,0,0,1.109,1.183" transform="translate(-6.371 -88.847)" fill="#6a9c55"/>
    <path id="Trazado_873501" data-name="Trazado 873501" d="M67.738,149.044a1.147,1.147,0,1,0-1.109-1.183,1.147,1.147,0,0,0,1.109,1.183" transform="translate(-40.05 -88.211)" fill="#6a9c55"/>
    <path id="Trazado_873502" data-name="Trazado 873502" d="M59.7,65.948a1.147,1.147,0,1,0-1.109-1.183A1.146,1.146,0,0,0,59.7,65.948" transform="translate(-35.218 -38.263)" fill="#6a9c55"/>
    <path id="Trazado_873503" data-name="Trazado 873503" d="M111.195,166.764s-4.7-1.664-6.271-3.14" transform="translate(-63.069 -98.353)" fill="none" stroke="#28401d" stroke-linecap="round" stroke-linejoin="round" stroke-width="1.701"/>
    <line id="Línea_587" data-name="Línea 587" y1="3.387" x2="0.939" transform="translate(56.127 60.639)" fill="none" stroke="#28401d" stroke-linecap="round" stroke-linejoin="round" stroke-width="1.701"/>
    <path id="Trazado_873504" data-name="Trazado 873504" d="M33.264,201.308,30.28,199.1A3.1,3.1,0,0,1,29.1,197.29l-.661-2.93a1.5,1.5,0,0,1,1.67-1.815l3.593,2.991a4.661,4.661,0,0,1,1.544,2.786l.332,1.884Z" transform="translate(-17.073 -115.729)" fill="#a3472c"/>
    <path id="Trazado_873505" data-name="Trazado 873505" d="M36.6,206.866s-.071,13.355.372,21.646c.461,8.63,11.268,3.569,9.567-1.544-.7-2.1-6.12-18.6-6.12-18.6Z" transform="translate(-21.997 -124.346)" fill="#a3472c" fill-rule="evenodd"/>
    <path id="Trazado_873506" data-name="Trazado 873506" d="M143.246,644.606c0,3.158-18.06,5.718-40.339,5.718s-40.339-2.56-40.339-5.718,18.06-5.718,40.339-5.718,40.339,2.56,40.339,5.718" transform="translate(-37.609 -384.031)" fill="#dbe8cc" fill-rule="evenodd"/>
    <path id="Trazado_873507" data-name="Trazado 873507" d="M167.828,514.845s-8.92-30.9-4.65-43.126L154.089,429.8l11.432,10.045,7.807,75.3Z" transform="translate(-92.622 -258.351)" fill="#a3472c" fill-rule="evenodd"/>
    <path id="Trazado_873508" data-name="Trazado 873508" d="M191.452,639.945l2.894,2.825c.784.7,4.987,2.055,4.987,2.055.442.867-.355,1.324-1.04,1.438l-12.287-.257s-2.853-.589-.506-6.055c2.265.986,5.421,1.693,5.951-.006" transform="translate(-110.946 -384.666)" fill="#4a2a1a" fill-rule="evenodd"/>
    <path id="Trazado_873509" data-name="Trazado 873509" d="M154.892,426.852l10.327,80.16h-14.3s-.452-6.189-1.176-8.154S143.116,478.266,145,469.7l-10.424-34.9Z" transform="translate(-80.893 -256.577)" fill="#537a43" fill-rule="evenodd"/>
    <path id="Trazado_873510" data-name="Trazado 873510" d="M144.748,481.663l-10.423-34.9,6.9.372,7.633,25.558a57.581,57.581,0,0,1,2.336,14.252c.365,9.3,4.485,22.261,5.082,23.882.725,1.964,1.177,8.154,1.177,8.154h-6.785s-.452-6.189-1.177-8.154-6.623-20.592-4.739-29.162" transform="translate(-80.742 -268.544)" fill="#4c703e" fill-rule="evenodd"/>
    <path id="Trazado_873511" data-name="Trazado 873511" d="M93.272,377.643l26.712,2.035c4.345,1.6,2.609,26.645,2.609,26.645l-17.564.814c-8.16-.17-17.811,6.229-18.826-7.367-1.16-15.542,7.069-22.127,7.069-22.127" transform="translate(-51.748 -226.998)" fill="#537a43" fill-rule="evenodd"/>
    <path id="Trazado_873512" data-name="Trazado 873512" d="M105.614,618.277c.028.028.056.056.39.353.236,3.4,1.043,4.664,1.278,8.065,1.469.051,2.368,2.227,3.839,2.25.415.007-.215-1.866.115-2.144l2.134-9.257Z" transform="translate(-63.484 -371.202)" fill="#a3472c"/>
    <path id="Trazado_873513" data-name="Trazado 873513" d="M104.793,404.058c.236,29.428.472,58.87-.292,88.694a84.967,84.967,0,0,0-11.99-.454s.05-5.274-.021-6.027c-1.71-17.975-3.834-20.55-3.629-34.452-1.339-20.065-3.358-33.837-3.129-50.137,7.043.575,11.915,1.972,18.966,2.726l.31.039c.1.084.207.168-.213-.389" transform="translate(-51.522 -241.448)" fill="#537a43"/>
    <path id="Trazado_873514" data-name="Trazado 873514" d="M112.2,638.074a29.451,29.451,0,0,1,.947,5.784,1.534,1.534,0,0,1-.575,1.105,1.851,1.851,0,0,1-1.241.473l-2.561-.1a1.394,1.394,0,0,1-.967-.393l-.483-.5c-.806-.834-.464-1.762-.022-3.068a27.4,27.4,0,0,0,.768-2.887,3.864,3.864,0,0,1,4.135-.416" transform="translate(-64.219 -383.295)" fill="#3d2213" fill-rule="evenodd"/>
    <path id="Trazado_873515" data-name="Trazado 873515" d="M88.773,416.09s16.672-1.077,21.043-1.1l-21.134-5.5a51.919,51.919,0,0,0,.091,6.6" transform="translate(-53.265 -246.142)" fill="#728f3b" fill-rule="evenodd"/>
    <path id="Trazado_873516" data-name="Trazado 873516" d="M108.753,290.956l-10.906-2.863-2.884-.1-13.315,3.269c-3.8,1.553-9.052,7.728-7.895,11.729l4.823,10.876c-1.038,10.93,1,19.665.921,28.65a3.385,3.385,0,0,0,2.73,3.339c10.961,2.121,31.088,3.884,36-2.338.222-10.143-2.034-30.7-3.151-39.989-1.043-8.669-3.069-6.22-6.323-12.567" transform="translate(-44.235 -173.107)" fill="#b9c4ad" fill-rule="evenodd"/>
    <path id="Trazado_873517" data-name="Trazado 873517" d="M104.3,371.2s-22.011-23.737-20-44.264l-2.543,5.561s.569,25.553,0,34.93c0,0,7.94,4.455,22.539,3.773" transform="translate(-49.144 -196.517)" fill="#a8b39e" fill-rule="evenodd"/>
    <path id="Trazado_873518" data-name="Trazado 873518" d="M143.385,267.488a18.755,18.755,0,0,0,1.776,1.538c.53.42-.325,1.669-.96,1.539s-1.708-1.969-1.708-1.969Z" transform="translate(-85.651 -160.785)" fill="#a3472c" fill-rule="evenodd"/>
    <path id="Trazado_873519" data-name="Trazado 873519" d="M129.142,272.507l-1.826,6.665a2.4,2.4,0,0,1-1.865,1.633,3.065,3.065,0,0,1-2.632-.645l-.658-.572a2.72,2.72,0,0,1-.846-3.1l3.147-7.708Z" transform="translate(-72.809 -161.561)" fill="#a3472c" fill-rule="evenodd"/>
    <path id="Trazado_873520" data-name="Trazado 873520" d="M136.338,280.986l-.8,2.142L133.5,280.1Z" transform="translate(-80.247 -168.366)" fill="#8c3d25" fill-rule="evenodd"/>
    <path id="Trazado_873521" data-name="Trazado 873521" d="M125.577,262.584a2,2,0,0,1,1.275-2.512l3.618-1.17a2.106,2.106,0,0,1,2.489,1.3,21.609,21.609,0,0,1,1.43,5.714,2.419,2.419,0,0,1-1.415,2.644c-1.109.359-5.278-.735-6.239-2.638a16.169,16.169,0,0,1-1.157-3.334" transform="translate(-75.426 -155.57)" fill="#a3472c" fill-rule="evenodd"/>
    <path id="Trazado_873522" data-name="Trazado 873522" d="M121.857,266.522c-.85,0-3.32-3.351-2.434-6.357a5.134,5.134,0,0,1,.726-1.607c1.857-2.447,3.624-3.381,7.239-1.168a26.6,26.6,0,0,1-.717,4.781A9.275,9.275,0,0,1,125,265.181a3.7,3.7,0,0,1-2.836,1.337Z" transform="translate(-71.67 -153.964)" fill="#663a24" fill-rule="evenodd"/>
    <path id="Trazado_873523" data-name="Trazado 873523" d="M133.389,272.158a1.5,1.5,0,0,0,2.059.468,1.532,1.532,0,0,0,.065-2.131,1.5,1.5,0,0,0-2.059-.468,1.532,1.532,0,0,0-.065,2.131" transform="translate(-79.942 -162.165)" fill="#a3472c" fill-rule="evenodd"/>
    <path id="Trazado_873524" data-name="Trazado 873524" d="M123.478,250.7c-2.443-1.586-3.792-1.01-4.533.295a.767.767,0,0,1-.518.4.992.992,0,0,1-.414-.073,2.394,2.394,0,0,0-2.923,3.135.944.944,0,0,0-.856.523,4.267,4.267,0,0,0,1.2,5.154,2.486,2.486,0,0,0,1.7.85,2.015,2.015,0,0,0,1.616-1.668,5.638,5.638,0,0,0-.211-2.456,6.507,6.507,0,0,1-.284-2.454,2.11,2.11,0,0,1,1.471-1.816,3.863,3.863,0,0,1,1.665.2,1.944,1.944,0,0,0,1.627-.168c.558-.432.459-1.712.46-1.922" transform="translate(-68.422 -150.116)" fill="#663a24"/>
    <path id="Trazado_873525" data-name="Trazado 873525" d="M120.711,260.174c.821-.331.426-3.1.009-3.877a1.784,1.784,0,0,0,1.658-1.764c.775,1.007,2.127.144,2.366-.5-.03.468.475.768.906.954a4.42,4.42,0,0,0,2.08-.225c.483-.2-.084-1.991-.28-2.5a2.134,2.134,0,0,0-1.062-1.188,1.54,1.54,0,0,0-1.549.137,3.942,3.942,0,0,1-1.951.61,9.584,9.584,0,0,0-2.573.918,14.09,14.09,0,0,0-2.418,2.1c-.723,1.168.03,2.893.034,3.4a1.315,1.315,0,0,0,.748,1.2c.461.192,1.341.365,1.584-.075.012,0,.591.83.448.817" transform="translate(-70.679 -150.832)" fill="#663a24"/>
    <path id="Trazado_873526" data-name="Trazado 873526" d="M135.182,266.894c.56,2.1-.153,2.741,1.137,5.148a3.354,3.354,0,0,0,2.764,1.577c1.043-.034,1.7-.6,1.724-1.494a11.122,11.122,0,0,0-.567-2.585c-.216-.388-.6-.275-1.651.337-.239.139-.515.306-.774.207a.864.864,0,0,1-.414-.539l-1.693-4.221c-.128.594-.257,1.187-.359,1.79.008.03.016.059-.166-.22" transform="translate(-81.257 -159.484)" fill="#663a24"/>
    <path id="Trazado_873527" data-name="Trazado 873527" d="M145.385,277.528l-.842.082s.076,1.188.776.859c.148-.07.066-.941.066-.941" transform="translate(-86.884 -166.82)" fill="#fff" fill-rule="evenodd"/>
    <path id="Trazado_873528" data-name="Trazado 873528" d="M33.939,225.686,34.357,241a12.71,12.71,0,0,0,2.475,7.2l16.183,21.953,11.269-19.416-5.25-1.592a9.334,9.334,0,0,1-3.384-1.86l-9.3-8.014-4.662-16.057Z" transform="translate(-20.4 -134.167)" fill="#b9c4ad"/>
    <path id="Trazado_873529" data-name="Trazado 873529" d="M147.861,265.216l19.222-3.128-2.64-12.38,6.9-2.123s11.684,18.251,6.9,22.2-18.53,9.455-18.53,9.455Z" transform="translate(-88.878 -148.821)" fill="#b9c4ad"/>
    <line id="Línea_588" data-name="Línea 588" x1="3.26" y1="5.884" transform="translate(67.926 123.596)" fill="none" stroke="#768a81" stroke-linecap="round" stroke-linejoin="round" stroke-width="1.079"/>
    <line id="Línea_589" data-name="Línea 589" x2="2.501" y2="5.814" transform="translate(41.991 124.541)" fill="none" stroke="#768a81" stroke-linecap="round" stroke-linejoin="round" stroke-width="1.079"/>
  </g>
</svg>
