<svg xmlns="http://www.w3.org/2000/svg" width="66.264" height="68.662" viewBox="0 0 66.264 68.662">
  <g id="air-pollution_9318811" transform="translate(-12 -8.001)">
    <g id="Grupo_1101792" data-name="Grupo 1101792" transform="translate(24.037 52.236)">
      <g id="Grupo_1101782" data-name="Grupo 1101782" transform="translate(25.759)">
        <path id="Trazado_873991" data-name="Trazado 873991" d="M75.768,79.874a.644.644,0,0,1-.249-.05l-4.334-1.816a.649.649,0,0,1-.435-.6.632.632,0,0,1,.63-.643h.025a.649.649,0,0,1,.249.05l4.362,1.828a.643.643,0,0,1-.248,1.236Z" transform="translate(-70.75 -76.76)" fill="#f9a545"/>
      </g>
      <g id="Grupo_1101783" data-name="Grupo 1101783" transform="translate(33.015 3.036)">
        <path id="Trazado_873992" data-name="Trazado 873992" d="M88.18,85.076a.631.631,0,0,1-.249-.05l-5.507-2.31a.643.643,0,1,1,.5-1.186l5.507,2.31a.643.643,0,0,1-.249,1.236Z" transform="translate(-82.03 -81.48)" fill="#f9a545"/>
      </g>
      <g id="Grupo_1101784" data-name="Grupo 1101784" transform="translate(2.309 22.575)">
        <path id="Trazado_873993" data-name="Trazado 873993" d="M71.845,113.137h-36.9a.643.643,0,0,1,0-1.287h36.9a.643.643,0,0,1,0,1.287Z" transform="translate(-34.3 -111.85)" fill="#f9a545"/>
      </g>
      <g id="Grupo_1101785" data-name="Grupo 1101785" transform="translate(3.056 0.211)">
        <path id="Trazado_873994" data-name="Trazado 873994" d="M36.1,84.308a.644.644,0,0,1-.367-1.173,7.929,7.929,0,0,1,1.387-.764L49.6,77.139a.643.643,0,0,1,.5,1.186l-12.468,5.23a6.608,6.608,0,0,0-1.157.637.641.641,0,0,1-.366.115Z" transform="translate(-35.46 -77.088)" fill="#f9a545"/>
      </g>
      <g id="Grupo_1101786" data-name="Grupo 1101786" transform="translate(0 9.409)">
        <path id="Trazado_873995" data-name="Trazado 873995" d="M31.354,93.846a.666.666,0,0,1-.15-.017.643.643,0,0,1-.476-.775,7.442,7.442,0,0,1,.414-1.26.643.643,0,0,1,1.241.232v.006a.629.629,0,0,1-.055.259,6.244,6.244,0,0,0-.349,1.062.645.645,0,0,1-.626.494Z" transform="translate(-30.711 -91.385)" fill="#f9a545"/>
      </g>
      <g id="Grupo_1101787" data-name="Grupo 1101787" transform="translate(41 6.916)">
        <path id="Trazado_873996" data-name="Trazado 873996" d="M96.4,90.514a.644.644,0,0,1-.564-.333,6.587,6.587,0,0,0-1.2-1.565.643.643,0,0,1,.894-.926,7.856,7.856,0,0,1,1.435,1.87.642.642,0,0,1-.253.874.633.633,0,0,1-.309.08Z" transform="translate(-94.44 -87.51)" fill="#f9a545"/>
      </g>
      <g id="Grupo_1101788" data-name="Grupo 1101788" transform="translate(35.382 9.161)">
        <path id="Trazado_873997" data-name="Trazado 873997" d="M89.106,93.38a.641.641,0,0,1-.3-.077l-1.729-.93-.417.223a.643.643,0,0,1-.607-1.135l.721-.386a.644.644,0,0,1,.608,0L89.41,92.17a.644.644,0,0,1-.3,1.21Z" transform="translate(-85.708 -91)" fill="#f9a545"/>
      </g>
      <g id="Grupo_1101789" data-name="Grupo 1101789" transform="translate(7.418 14.309)">
        <path id="Trazado_873998" data-name="Trazado 873998" d="M64.384,104.147a.65.65,0,0,1-.3-.077l-6.881-3.7-6.881,3.7a.647.647,0,0,1-.609,0l-7.128-3.834a.643.643,0,1,1,.609-1.133l6.823,3.67,6.881-3.7a.647.647,0,0,1,.609,0l6.881,3.7,5.138-2.757a.643.643,0,0,1,.609,1.134l-5.443,2.921a.65.65,0,0,1-.3.076Z" transform="translate(-42.24 -99.002)" fill="#f9a545"/>
      </g>
      <g id="Grupo_1101790" data-name="Grupo 1101790" transform="translate(7.359 9.161)">
        <path id="Trazado_873999" data-name="Trazado 873999" d="M64.351,96.147a.65.65,0,0,1-.3-.077l-6.881-3.7-6.881,3.7a.647.647,0,0,1-.609,0L42.55,92.24a.641.641,0,0,1-.039-1.171l.013-.006a.648.648,0,0,1,.581.014l6.875,3.7,6.881-3.7a.647.647,0,0,1,.609,0l6.881,3.7,4.406-2.365a.643.643,0,0,1,.609,1.134L64.656,96.07a.65.65,0,0,1-.3.077Z" transform="translate(-42.149 -91)" fill="#f9a545"/>
      </g>
      <g id="Grupo_1101791" data-name="Grupo 1101791" transform="translate(3.46 9.882)">
        <path id="Trazado_874000" data-name="Trazado 874000" d="M36.734,94.784a.643.643,0,0,1-.306-1.209l2.56-1.377A.643.643,0,1,1,39.6,93.33l-2.56,1.377A.637.637,0,0,1,36.734,94.784Z" transform="translate(-36.089 -92.12)" fill="#f9a545"/>
      </g>
    </g>
    <g id="Grupo_1101793" data-name="Grupo 1101793" transform="translate(40.784 50.431)">
      <path id="Trazado_874001" data-name="Trazado 874001" d="M62.029,81h-.264a4.983,4.983,0,0,1-4.222-2.312A4.8,4.8,0,0,1,56.8,76.7a4,4,0,0,1-.058-.734v-1.2a.643.643,0,0,1,1.287,0v1.2a2.974,2.974,0,0,0,.041.527,3.575,3.575,0,0,0,.554,1.486,3.708,3.708,0,0,0,3.143,1.725h.264a3.761,3.761,0,0,0,3.087-1.627,3.514,3.514,0,0,0,.527-1.187,3,3,0,0,0,.1-.515.552.552,0,0,1,.005-.064,2.713,2.713,0,0,0,.019-.346V74.6a.643.643,0,0,1,1.287-.006v1.377a3.953,3.953,0,0,1-.027.484.149.149,0,0,1,0,.018h0a4.144,4.144,0,0,1-.138.745,4.762,4.762,0,0,1-.714,1.6A5.048,5.048,0,0,1,62.029,81Z" transform="translate(-56.741 -73.954)" fill="#f9a545"/>
    </g>
    <g id="Grupo_1101794" data-name="Grupo 1101794" transform="translate(57.654 55.837)">
      <path id="Trazado_874002" data-name="Trazado 874002" d="M92.13,103.183a9.627,9.627,0,0,1-4.46-1.2,3.976,3.976,0,0,1-1.644-1.667c-1.082-2.064-3.538-7.284-2.979-11.179a1.53,1.53,0,0,1,1.16-1.271,1.567,1.567,0,0,1,1.65.609.645.645,0,0,1,.082.154l1.332,3.681.611-7.726a1.882,1.882,0,0,1,.821-1.3,1.851,1.851,0,0,1,2.858,1.657l.154,2.846,1.593-4.422a1.531,1.531,0,0,1,2.919.919l-1.458,5.39,2.693-3.969a1.338,1.338,0,0,1,1.678-.416,1.332,1.332,0,0,1,.6,1.787l-2.348,5.115,1.873-1.725a1.334,1.334,0,0,1,1.436-.165,1.323,1.323,0,0,1,.441,2.01l-3.914,5.448c-.268.757-2.043,5.425-5.092,5.425ZM84.587,89.106a.322.322,0,0,0-.076.009.234.234,0,0,0-.19.2c-.506,3.524,1.821,8.446,2.845,10.4a2.69,2.69,0,0,0,1.112,1.131A8.345,8.345,0,0,0,92.13,101.9c1.929,0,3.472-3.349,3.9-4.64a.641.641,0,0,1,.087-.172l3.989-5.55.008-.083L96.8,94.474a.906.906,0,0,1-1.159.012.89.89,0,0,1-.226-1.087l3.157-6.878-.01-.079L94.51,92.347a.894.894,0,0,1-1.6-.718l2.075-7.678a.245.245,0,0,0-.169-.3h0a.245.245,0,0,0-.3.152l-2.248,6.244a.894.894,0,0,1-1.737-.316l-.258-4.759a.682.682,0,0,1,0-.089.564.564,0,0,0-1.118-.143l-.633,8.049a.607.607,0,0,1-.011.075,1.232,1.232,0,0,1-2.211.474.624.624,0,0,1-.082-.154l-1.454-4.014a.259.259,0,0,0-.179-.066Zm12,4.83-.008.019A.126.126,0,0,0,96.584,93.936Zm-5.526-4.325a.167.167,0,0,0-.006.016Z" transform="translate(-82.965 -82.356)" fill="#f9a545"/>
    </g>
    <g id="Grupo_1101795" data-name="Grupo 1101795" transform="translate(14.765 55.837)">
      <path id="Trazado_874003" data-name="Trazado 874003" d="M25.594,103.183c-3.05,0-4.824-4.667-5.092-5.424l-3.934-5.474a1.3,1.3,0,0,1-.239-1.086,1.324,1.324,0,0,1,2.086-.773l1.923,1.765L17.98,87.058a1.331,1.331,0,0,1,2.265-1.375l2.712,4L21.5,84.287a1.531,1.531,0,0,1,2.919-.919L26.01,87.79l.154-2.845a1.851,1.851,0,0,1,3.672-.42l.618,7.785,1.332-3.681a.646.646,0,0,1,.082-.154,1.564,1.564,0,0,1,1.649-.609,1.529,1.529,0,0,1,1.16,1.271c.559,3.9-1.9,9.117-2.979,11.179a3.979,3.979,0,0,1-1.644,1.668,9.638,9.638,0,0,1-4.459,1.2Zm-8-11.769c.007.008.012.111.018.12l3.989,5.55a.642.642,0,0,1,.088.172c.432,1.291,1.975,4.64,3.9,4.64a8.345,8.345,0,0,0,3.851-1.049,2.7,2.7,0,0,0,1.112-1.132c1.024-1.951,3.351-6.872,2.845-10.4a.233.233,0,0,0-.19-.2.279.279,0,0,0-.255.059L31.5,93.188a.624.624,0,0,1-.082.154,1.232,1.232,0,0,1-2.211-.474.607.607,0,0,1-.011-.075l-.641-8.108a.575.575,0,0,0-.685-.393.564.564,0,0,0-.425.6.674.674,0,0,1,0,.088l-.258,4.758a.894.894,0,0,1-1.743.3l-2.243-6.229a.245.245,0,0,0-.3-.152h0a.247.247,0,0,0-.17.3l2.072,7.658a.894.894,0,0,1-1.581.761L19.2,86.431c0,.006-.051.085-.048.091l3.167,6.9a.895.895,0,0,1-1.347,1.1Zm3.553,2.539c0,.008.007.015.011.023ZM26.66,89.6l.005.015A.1.1,0,0,0,26.66,89.6Zm-3.926-6.565h.006Z" transform="translate(-16.298 -82.357)" fill="#f9a545"/>
    </g>
    <g id="Grupo_1101796" data-name="Grupo 1101796" transform="translate(30.271 34.186)">
      <path id="Trazado_874004" data-name="Trazado 874004" d="M43.442,56.327a1.761,1.761,0,0,1-.755-.176c-1.4-.661-2.286-3.124-2.286-4.529a.664.664,0,0,1,0-.071c.2-1.821.834-2.779,1.87-2.848l.05.641-.006.643c-.181.014-.49.461-.63,1.669.016,1.105.79,2.971,1.551,3.332a.434.434,0,0,0,.407,0l.032-.259c0-.01,0-.019,0-.029l.277-2.22a.643.643,0,0,1,1.276.16l-.273,2.2c0,.01,0,.019,0,.028l-.071.573a.642.642,0,0,1-.231.419,1.914,1.914,0,0,1-1.213.469Z" transform="translate(-40.4 -48.703)" fill="#f9a545"/>
    </g>
    <g id="Grupo_1101797" data-name="Grupo 1101797" transform="translate(32.883 36.446)">
      <path id="Trazado_874005" data-name="Trazado 874005" d="M57.369,68.778c-.1,0-.206,0-.32-.007a2.592,2.592,0,0,1-.293-.014,9.526,9.526,0,0,1-2.429-.473l-.127-.046c-.152-.055-.309-.111-.47-.174a11.266,11.266,0,0,1-1.027-.479,10.236,10.236,0,0,1-1.309-.822c-.111-.078-.228-.165-.351-.267-.16-.127-.335-.27-.5-.418s-.34-.308-.511-.478a12.546,12.546,0,0,1-.937-1.025c-.066-.08-.134-.163-.2-.252a16.446,16.446,0,0,1-1.135-1.644.628.628,0,0,1-.032-.058A24.349,24.349,0,0,1,45.144,56.2a.444.444,0,0,1-.011-.049c-.259-1.04-.483-2.111-.664-3.183a.673.673,0,0,1-.009-.107.644.644,0,0,1,1.283-.077c.177,1.042.4,2.082.647,3.093a.374.374,0,0,1,.009.039,22.926,22.926,0,0,0,2.452,6.089.469.469,0,0,1,.03.056,15.084,15.084,0,0,0,1.02,1.469c.062.081.122.152.181.225a11.374,11.374,0,0,0,.849.928c.156.156.307.295.457.427s.312.264.465.385c.1.087.195.154.29.221a9.1,9.1,0,0,0,1.158.729,9.907,9.907,0,0,0,.91.425c.141.057.282.106.419.155l.115.041a8.2,8.2,0,0,0,2.094.407c.089.007.162.013.236.013a5.2,5.2,0,0,0,.9-.03c.271-.035.5-.071.735-.114.152-.03.3-.059.454-.1l.029-.006.032-.009c.127-.028.248-.058.363-.092L60,67.021a2.117,2.117,0,0,0,.279-.094.68.68,0,0,1,.1-.038c.1-.036.2-.071.293-.113.181-.071.347-.142.505-.218.2-.09.369-.178.54-.273l.264-.151a8.316,8.316,0,0,0,1.111-.779c.147-.123.3-.249.436-.382.069-.063.125-.113.175-.168a6.824,6.824,0,0,0,.5-.527c.087-.094.152-.17.212-.246a11.513,11.513,0,0,0,1.031-1.46,13.906,13.906,0,0,0,.938-1.922.644.644,0,0,1,1.194.481,15.164,15.164,0,0,1-1.028,2.1,12.574,12.574,0,0,1-1.135,1.609c-.068.087-.157.191-.253.295a7.126,7.126,0,0,1-.548.574,2.641,2.641,0,0,1-.213.205c-.145.139-.315.283-.487.427a9.6,9.6,0,0,1-1.293.906l-.276.158c-.208.115-.41.219-.626.317-.174.084-.369.168-.565.244-.118.05-.252.1-.394.149l-.008,0a3.364,3.364,0,0,1-.323.115l-.078.022-.4.117c-.137.041-.286.077-.442.113a.5.5,0,0,1-.1.023c-.152.036-.306.066-.464.1-.261.048-.518.089-.789.122a4.916,4.916,0,0,1-.789.051Z" transform="translate(-44.46 -52.215)" fill="#f9a545"/>
    </g>
    <g id="Grupo_1101798" data-name="Grupo 1101798" transform="translate(55.619 36.784)">
      <path id="Trazado_874006" data-name="Trazado 874006" d="M80.444,58.994a.643.643,0,0,1-.625-.795,23.285,23.285,0,0,0,.45-2.41c.113-.775.193-1.594.241-2.441a.643.643,0,1,1,1.284.072c-.049.885-.133,1.742-.251,2.546a24.457,24.457,0,0,1-.474,2.535A.644.644,0,0,1,80.444,58.994Z" transform="translate(-79.801 -52.741)" fill="#f9a545"/>
    </g>
    <g id="Grupo_1101802" data-name="Grupo 1101802" transform="translate(34.658 35.314)">
      <g id="Grupo_1101799" data-name="Grupo 1101799" transform="translate(0 2.621)">
        <path id="Trazado_874007" data-name="Trazado 874007" d="M50.109,59.4a.644.644,0,0,1-.546-.3l-2.245-3.583a.644.644,0,1,1,1.09-.684l2.245,3.583a.645.645,0,0,1-.2.887A.636.636,0,0,1,50.109,59.4Z" transform="translate(-47.219 -54.53)" fill="#f9a545"/>
      </g>
      <g id="Grupo_1101800" data-name="Grupo 1101800" transform="translate(17.936)">
        <path id="Trazado_874008" data-name="Trazado 874008" d="M75.743,57.947a.643.643,0,0,1-.582-.915l2.886-6.182a.643.643,0,0,1,1.235.246V51.1a.641.641,0,0,1-.06.272l-2.9,6.2a.644.644,0,0,1-.584.371Z" transform="translate(-75.1 -50.456)" fill="#f9a545"/>
      </g>
      <g id="Grupo_1101801" data-name="Grupo 1101801" transform="translate(1.422 4.51)">
        <path id="Trazado_874009" data-name="Trazado 874009" d="M59.049,70.656c-1.85,0-6.217-.637-9.527-6.108a.645.645,0,0,1,.008-.68,4.5,4.5,0,0,0,.677-3.881.643.643,0,0,1,.6-.828,19.847,19.847,0,0,0,7.657-1.641.653.653,0,0,1,.509,0,19.862,19.862,0,0,0,7.658,1.641.643.643,0,0,1,.6.828,4.729,4.729,0,0,0,1.04,4.4.643.643,0,0,1,.042.718A10.886,10.886,0,0,1,59.931,70.6a5.655,5.655,0,0,1-.882.058ZM50.827,64.21c3.74,5.863,8.706,5.149,8.922,5.114A9.636,9.636,0,0,0,67,64.807a6.022,6.022,0,0,1-1.168-4.389,21.02,21.02,0,0,1-7.105-1.611,21.023,21.023,0,0,1-7.1,1.611,5.8,5.8,0,0,1-.793,3.792Z" transform="translate(-49.43 -57.466)" fill="#f9a545"/>
      </g>
    </g>
    <g id="Grupo_1101803" data-name="Grupo 1101803" transform="translate(30.38 17.731)">
      <path id="Trazado_874010" data-name="Trazado 874010" d="M45.968,44.809a.662.662,0,0,1-.19-.028,4.663,4.663,0,0,1-.542-.217,5.45,5.45,0,0,1-.982-.621,6.6,6.6,0,0,1-1.04-1.054c-.015-.019-.029-.039-.042-.059a10.782,10.782,0,0,1-1.343-2.272.6.6,0,0,1-.041-.078,16.1,16.1,0,0,1-.953-2.914,7.78,7.78,0,0,1,.6-5.588c1.576-3.24,5.122-5.8,10.54-7.606,5.084-1.7,9.166-1.66,12.13.106a8.63,8.63,0,0,1,3.778,4.815,3.715,3.715,0,0,1,2.579.416,3.088,3.088,0,0,1,1.3,2.452.644.644,0,1,1-1.282.12,1.876,1.876,0,0,0-.724-1.493,2.941,2.941,0,0,0-2.137-.118.636.636,0,0,1-.533-.057.642.642,0,0,1-.3-.441,7.423,7.423,0,0,0-3.357-4.6c-2.628-1.554-6.344-1.548-11.047.02-5.078,1.693-8.371,4.031-9.79,6.949a6.454,6.454,0,0,0-.526,4.64.656.656,0,0,1,.025.091,14.912,14.912,0,0,0,.846,2.619c.014.023.026.047.038.072a9.483,9.483,0,0,0,1.244,2.114.576.576,0,0,1,.041.057,5.287,5.287,0,0,0,.8.8,4.2,4.2,0,0,0,.456.316l.96-4.3a.641.641,0,0,1,.74-.493c.094.017,9.5,1.617,17.128-1.651a.646.646,0,0,1,.787.231,11.843,11.843,0,0,1,.844,1.615l.136.32c.16.365.333.8.518,1.3.024.062.05.137.077.214l.051.145c.06.16.121.335.181.517,0,.014.009.028.012.042.062.178.123.363.185.56.016.048.033.1.049.148a9.748,9.748,0,0,0,1.259-1.963c.044-.092.065-.134.087-.173.078-.164.177-.375.277-.6.059-.126.1-.24.149-.36.063-.148.116-.279.164-.409a28.2,28.2,0,0,0,.961-3.024.643.643,0,1,1,1.244.327,29.447,29.447,0,0,1-1,3.151c-.051.14-.113.292-.176.438-.048.127-.106.271-.17.408-.1.228-.205.455-.312.675l-.614-.209.584.27c-.019.04-.039.08-.06.118a10.319,10.319,0,0,1-1.6,2.4c-.055.058-.093.1-.126.127-.067.066-.129.122-.187.173l-.061.055a2.511,2.511,0,0,1-.457.32.643.643,0,0,1-.909-.409c-.05-.185-.1-.363-.16-.542-.054-.195-.109-.358-.163-.521-.066-.21-.129-.4-.191-.578a.439.439,0,0,1-.017-.057c-.05-.151-.1-.3-.151-.431l-.062-.174c-.021-.06-.041-.12-.064-.178-.179-.487-.342-.894-.5-1.25l-.136-.32c-.183-.407-.344-.722-.467-.95-6.807,2.71-14.513,1.918-16.723,1.611l-1,4.489a.645.645,0,0,1-.628.5Z" transform="translate(-40.57 -23.125)" fill="#f9a545"/>
    </g>
    <g id="Grupo_1101804" data-name="Grupo 1101804" transform="translate(12 22.328)">
      <path id="Trazado_874011" data-name="Trazado 874011" d="M21.952,41.715A5.165,5.165,0,0,1,17.879,39.9a6.706,6.706,0,0,1-1.285.125c-2.576,0-4.593-1.4-4.593-3.184,0-1.634,1.7-2.944,3.964-3.15a3.746,3.746,0,0,1,6.551-2.138c.207-.032.425-.059.657-.081a.644.644,0,1,1,.121,1.282,8.579,8.579,0,0,0-.917.131.643.643,0,0,1-.656-.262,2.459,2.459,0,0,0-4.483,1.4c0,.068.005.142.01.214a.674.674,0,0,1-.172.5.658.658,0,0,1-.469.217c-1.806,0-3.32.867-3.32,1.891s1.514,1.9,3.307,1.9a5.44,5.44,0,0,0,1.4-.184.644.644,0,0,1,.714.286,3.8,3.8,0,0,0,3.246,1.59c1.98,0,3.59-1.229,3.59-2.741a1.907,1.907,0,0,0-.061-.5.643.643,0,0,1,.535-.806c2.176-.294,3.477-1.146,3.477-1.8,0-.532-.923-1.272-2.685-1.655a.644.644,0,1,1,.274-1.258c2.315.5,3.7,1.593,3.7,2.912,0,1.375-1.53,2.508-3.953,2.972,0,.044,0,.09,0,.135,0,2.219-2.187,4.026-4.876,4.026Z" transform="translate(-12 -30.271)" fill="#f9a545"/>
    </g>
    <g id="Grupo_1101805" data-name="Grupo 1101805" transform="translate(60.083 40.227)">
      <path id="Trazado_874012" data-name="Trazado 874012" d="M96.075,70.9A2.21,2.21,0,0,1,93.9,69.09a2.656,2.656,0,0,1-2.262-2.622c0-.014,0-.028,0-.042-2.531-.131-4.9-1.03-4.9-2.634,0-1.547,2.191-2.4,4.46-2.6,0-.025,0-.051,0-.076A3.27,3.27,0,0,1,94.116,58.1a.644.644,0,1,1,.236,1.265,2.046,2.046,0,0,0-1.868,1.748,1.325,1.325,0,0,0,.084.455.643.643,0,0,1-.587.863c-2.559.071-3.955.934-3.955,1.357,0,.481,1.617,1.364,4.259,1.364h.122a.643.643,0,0,1,.6.87,1.253,1.253,0,0,0-.08.443,1.365,1.365,0,0,0,1.364,1.364.925.925,0,0,0,.142-.017.643.643,0,0,1,.738.735.917.917,0,1,0,1.823.144.892.892,0,0,0-.016-.135.643.643,0,0,1,.686-.751c.151.013.282.024.418.024,1.583,0,2.921-.931,2.921-2.033a1.363,1.363,0,0,0-.091-.494.643.643,0,0,1,.383-.839c.9-.322,1.489-.935,1.489-1.562,0-.983-1.338-1.814-2.921-1.814a4.172,4.172,0,0,0-1.57.3.643.643,0,0,1-.877-.484,1.677,1.677,0,0,0-.652-1.021.643.643,0,0,1,.794-1.013,3.124,3.124,0,0,1,.9,1.11,5.568,5.568,0,0,1,1.405-.179c2.359,0,4.207,1.362,4.207,3.1a2.933,2.933,0,0,1-1.8,2.544,2.769,2.769,0,0,1,.023.351c0,1.788-1.8,3.251-4.049,3.317A2.207,2.207,0,0,1,96.075,70.9Z" transform="translate(-86.74 -58.092)" fill="#f9a545"/>
    </g>
    <g id="Grupo_1101806" data-name="Grupo 1101806" transform="translate(48.117 35.873)">
      <path id="Trazado_874013" data-name="Trazado 874013" d="M71.041,54.869a.654.654,0,0,1-.156-.019l-2.257-.564a.643.643,0,0,1-.132-1.2l3.386-1.693a.643.643,0,0,1,.576,1.151l-1.83.915.57.143a.643.643,0,0,1-.156,1.267Z" transform="translate(-68.14 -51.325)" fill="#f9a545"/>
    </g>
    <g id="Grupo_1101807" data-name="Grupo 1101807" transform="translate(54.325 23.834)">
      <path id="Trazado_874014" data-name="Trazado 874014" d="M78.434,36.342a.659.659,0,0,1-.157-.019.643.643,0,0,1-.468-.78A3.212,3.212,0,0,1,80.576,32.8a4.1,4.1,0,0,1,3.159.287,3.088,3.088,0,0,1,1.3,2.452.644.644,0,0,1-1.282.12,1.876,1.876,0,0,0-.724-1.493,2.941,2.941,0,0,0-2.137-.118.644.644,0,0,1-.2.033c-.114,0-1.212.089-1.634,1.771a.644.644,0,0,1-.623.487Z" transform="translate(-77.79 -32.611)" fill="#f9a545"/>
    </g>
    <g id="Grupo_1101808" data-name="Grupo 1101808" transform="translate(53.76 29.488)">
      <path id="Trazado_874015" data-name="Trazado 874015" d="M79.812,50.2a.644.644,0,0,1-.619-.467,21.749,21.749,0,0,0-2.175-5.463.643.643,0,0,1,1.071-.714,20.421,20.421,0,0,1,2.051,4.849c.7-.812,1.889-2.652,2.9-6.526a.644.644,0,0,1,1.246.324c-1.7,6.521-3.933,7.8-4.182,7.927a.629.629,0,0,1-.288.069Z" transform="translate(-76.911 -41.4)" fill="#f9a545"/>
    </g>
    <g id="Grupo_1101809" data-name="Grupo 1101809" transform="translate(38.524 35.872)">
      <path id="Trazado_874016" data-name="Trazado 874016" d="M55,54.868a.643.643,0,0,1-.155-1.267l.57-.143-1.83-.915a.643.643,0,0,1,.576-1.151l3.386,1.693a.643.643,0,0,1-.132,1.2l-2.257.564A.629.629,0,0,1,55,54.868Z" transform="translate(-53.228 -51.324)" fill="#f9a545"/>
    </g>
    <g id="Grupo_1101811" data-name="Grupo 1101811" transform="translate(55.664 34.185)">
      <g id="Grupo_1101810" data-name="Grupo 1101810" transform="translate(0 0)">
        <path id="Trazado_874017" data-name="Trazado 874017" d="M81.853,56.327a1.911,1.911,0,0,1-1.213-.469.645.645,0,0,1-.231-.418l-.534-4.272a.654.654,0,1,1,1.3-.014l.479,3.836a.431.431,0,0,0,.407,0c.761-.361,1.535-2.228,1.551-3.333-.138-1.19-.44-1.646-.659-1.673a.643.643,0,0,1,.161-1.276c.985.124,1.585,1.081,1.781,2.845a.644.644,0,0,1,0,.071c0,1.405-.891,3.868-2.286,4.529a1.768,1.768,0,0,1-.756.176Z" transform="translate(-79.87 -48.702)" fill="#f9a545"/>
      </g>
    </g>
    <g id="Grupo_1101812" data-name="Grupo 1101812" transform="translate(41.346 43.773)">
      <path id="Trazado_874018" data-name="Trazado 874018" d="M64.465,64.892H58.258a.643.643,0,0,1,0-1.287h6.207a.643.643,0,0,1,0,1.287Z" transform="translate(-57.615 -63.605)" fill="#f9a545"/>
    </g>
    <g id="Grupo_1101813" data-name="Grupo 1101813" transform="translate(41.346 47.159)">
      <path id="Trazado_874019" data-name="Trazado 874019" d="M64.465,70.155H58.258a.643.643,0,0,1,0-1.287h6.207a.643.643,0,0,1,0,1.287Z" transform="translate(-57.615 -68.868)" fill="#f9a545"/>
    </g>
    <g id="Grupo_1101816" data-name="Grupo 1101816" transform="translate(24.095 9.478)">
      <g id="Grupo_1101814" data-name="Grupo 1101814" transform="translate(1.774)">
        <path id="Trazado_874020" data-name="Trazado 874020" d="M34.2,17.047a.634.634,0,0,1-.213-.037.643.643,0,0,1-.394-.82l1.916-5.464a.643.643,0,1,1,1.213.426l-1.915,5.464a.645.645,0,0,1-.607.43Z" transform="translate(-33.558 -10.296)" fill="#f9a545"/>
      </g>
      <g id="Grupo_1101815" data-name="Grupo 1101815" transform="translate(0 1.773)">
        <path id="Trazado_874021" data-name="Trazado 874021" d="M36.907,16.256a.634.634,0,0,1-.213-.037L31.23,14.3a.643.643,0,1,1,.427-1.213l5.464,1.916a.643.643,0,0,1-.214,1.25Z" transform="translate(-30.8 -13.053)" fill="#f9a545"/>
      </g>
    </g>
    <g id="Grupo_1101818" data-name="Grupo 1101818" transform="translate(71.954 26.015)">
      <g id="Grupo_1101817" data-name="Grupo 1101817">
        <path id="Trazado_874022" data-name="Trazado 874022" d="M108.58,42.416a.643.643,0,0,1-.073-1.282,1.929,1.929,0,1,0-2.056-2.494.643.643,0,0,1-1.23-.378,3.213,3.213,0,1,1,3.433,4.15.571.571,0,0,1-.074,0Z" transform="translate(-105.193 -36.001)" fill="#f9a545"/>
      </g>
    </g>
    <g id="Grupo_1101820" data-name="Grupo 1101820" transform="translate(12.381 43.92)">
      <g id="Grupo_1101819" data-name="Grupo 1101819">
        <path id="Trazado_874023" data-name="Trazado 874023" d="M14.885,69.843a.644.644,0,0,1-.579-.923,2.892,2.892,0,0,0-1.348-3.864h0a.643.643,0,1,1,.559-1.159,2.863,2.863,0,0,0,2.457.025.643.643,0,1,1,.542,1.167,4.137,4.137,0,0,1-1.267.358,4.2,4.2,0,0,1,.4.838,4.156,4.156,0,0,1,.208.91,4.155,4.155,0,0,1,1.016-.457.643.643,0,0,1,.365,1.234,2.84,2.84,0,0,0-1.771,1.505l0,0A.639.639,0,0,1,14.885,69.843Z" transform="translate(-12.592 -63.832)" fill="#f9a545"/>
      </g>
    </g>
    <g id="Grupo_1101821" data-name="Grupo 1101821" transform="translate(60.893 15.078)">
      <path id="Trazado_874024" data-name="Trazado 874024" d="M88.644,23.5a.7.7,0,0,1-.081-.005.643.643,0,0,1-.558-.719l.405-3.217a.643.643,0,1,1,1.276.161l-.405,3.217A.643.643,0,0,1,88.644,23.5Z" transform="translate(-88 -19.001)" fill="#f9a545"/>
    </g>
    <g id="Grupo_1101822" data-name="Grupo 1101822" transform="translate(61.633 8.002)">
      <path id="Trazado_874025" data-name="Trazado 874025" d="M89.794,13.636a.7.7,0,0,1-.081-.005.643.643,0,0,1-.558-.719L89.7,8.563a.643.643,0,1,1,1.276.161l-.547,4.349a.643.643,0,0,1-.638.563Z" transform="translate(-89.15 -8.002)" fill="#f9a545"/>
    </g>
    <g id="Grupo_1101823" data-name="Grupo 1101823" transform="translate(62.823 13.147)">
      <path id="Trazado_874026" data-name="Trazado 874026" d="M91.643,23.077a.643.643,0,0,1-.455-1.1l5.79-5.79a.643.643,0,1,1,.91.91l-5.79,5.79A.642.642,0,0,1,91.643,23.077Z" transform="translate(-91 -16)" fill="#f9a545"/>
    </g>
    <g id="Grupo_1101824" data-name="Grupo 1101824" transform="translate(69.848 18.293)">
      <path id="Trazado_874027" data-name="Trazado 874027" d="M102.563,26.425a.643.643,0,0,1-.155-1.267l4.555-1.139a.643.643,0,1,1,.311,1.247l-4.555,1.139A.624.624,0,0,1,102.563,26.425Z" transform="translate(-101.92 -23.999)" fill="#f9a545"/>
    </g>
    <g id="Grupo_1101825" data-name="Grupo 1101825" transform="translate(64.11 20.186)">
      <path id="Trazado_874028" data-name="Trazado 874028" d="M93.642,28.909a.644.644,0,0,1-.155-1.268l2.734-.682a.644.644,0,1,1,.311,1.249L93.8,28.89A.687.687,0,0,1,93.642,28.909Z" transform="translate(-92.999 -26.941)" fill="#f9a545"/>
    </g>
    <g id="Grupo_1101827" data-name="Grupo 1101827" transform="translate(25.909 49.171)">
      <g id="Grupo_1101826" data-name="Grupo 1101826">
        <path id="Trazado_874029" data-name="Trazado 874029" d="M34.552,73.925a.966.966,0,0,0,0-1.93A.966.966,0,0,0,34.552,73.925Z" transform="translate(-33.62 -71.995)" fill="#f9a545"/>
      </g>
    </g>
    <g id="Grupo_1101829" data-name="Grupo 1101829" transform="translate(66.14 34.443)">
      <g id="Grupo_1101828" data-name="Grupo 1101828" transform="translate(0 0)">
        <path id="Trazado_874030" data-name="Trazado 874030" d="M97.087,51.032a.966.966,0,0,0,0-1.93A.966.966,0,0,0,97.087,51.032Z" transform="translate(-96.155 -49.102)" fill="#f9a545"/>
      </g>
    </g>
    <g id="Grupo_1101831" data-name="Grupo 1101831" transform="translate(36.977 14.155)">
      <g id="Grupo_1101830" data-name="Grupo 1101830">
        <path id="Trazado_874031" data-name="Trazado 874031" d="M51.756,19.5a.966.966,0,0,0,0-1.93A.966.966,0,0,0,51.756,19.5Z" transform="translate(-50.824 -17.567)" fill="#f9a545"/>
      </g>
    </g>
    <g id="Grupo_1101833" data-name="Grupo 1101833" transform="translate(53.46 13.069)">
      <g id="Grupo_1101832" data-name="Grupo 1101832">
        <path id="Trazado_874032" data-name="Trazado 874032" d="M77.378,17.808a.966.966,0,0,0,0-1.93A.966.966,0,0,0,77.378,17.808Z" transform="translate(-76.446 -15.878)" fill="#f9a545"/>
      </g>
    </g>
    <g id="Grupo_1101835" data-name="Grupo 1101835" transform="translate(24.116 36.978)">
      <g id="Grupo_1101834" data-name="Grupo 1101834" transform="translate(0 0)">
        <path id="Trazado_874033" data-name="Trazado 874033" d="M31.765,54.973a.966.966,0,0,0,0-1.93A.966.966,0,0,0,31.765,54.973Z" transform="translate(-30.833 -53.043)" fill="#f9a545"/>
      </g>
    </g>
  </g>
</svg>
