<svg id="flask_653383" xmlns="http://www.w3.org/2000/svg" width="67.77" height="67.77" viewBox="0 0 67.77 67.77">
  <g id="Grupo_1101837" data-name="Grupo 1101837" transform="translate(0)">
    <g id="Grupo_1101836" data-name="Grupo 1101836">
      <path id="Trazado_874034" data-name="Trazado 874034" d="M82.234,301.117a13.117,13.117,0,1,0-13.117,13.117A13.131,13.131,0,0,0,82.234,301.117ZM69.117,312.047a10.931,10.931,0,1,1,10.931-10.931A10.943,10.943,0,0,1,69.117,312.047Z" transform="translate(-48.349 -248.65)" fill="#f9a545"/>
      <path id="Trazado_874035" data-name="Trazado 874035" d="M99.612,328.25a3.259,3.259,0,0,0-1.162-2l2.743-4.862-1.058-.5a8.721,8.721,0,0,0-7.5,0l-1.058.5,2.743,4.862a3.259,3.259,0,0,0-1.162,2l-5.576.056.093,1.167a8.667,8.667,0,0,0,3.749,6.493l.965.666,2.835-4.8a3.212,3.212,0,0,0,1.159.223,3.247,3.247,0,0,0,1.16-.222l2.835,4.8.965-.666a8.663,8.663,0,0,0,3.749-6.493l.093-1.167Zm-7.859,5.161a6.5,6.5,0,0,1-1.047-1.359,6.43,6.43,0,0,1-.654-1.586l3.46-.034Zm4.632-3.545a1.093,1.093,0,1,1,1.093-1.093A1.094,1.094,0,0,1,96.385,329.867Zm0-4.411-1.7-3.014a6.482,6.482,0,0,1,3.4,0Zm5.681,6.6a6.522,6.522,0,0,1-1.048,1.36l-1.759-2.98,3.46.034A6.436,6.436,0,0,1,102.066,332.052Z" transform="translate(-75.617 -276.307)" fill="#f9a545"/>
      <path id="Trazado_874036" data-name="Trazado 874036" d="M61.212,54.653A6.542,6.542,0,0,0,48.82,51.709,5.4,5.4,0,0,0,47,51.374a5.468,5.468,0,0,0-1.182.137,6.557,6.557,0,0,0-4.488-5.3,5.332,5.332,0,0,0-2.3-5.985,6.3,6.3,0,0,0,.319-1.973,6.52,6.52,0,0,0-1.208-3.78,6.516,6.516,0,0,0,1.73-2.307,6.391,6.391,0,0,0,2.757.622,6.565,6.565,0,0,0,6.558-6.558,6.5,6.5,0,0,0-.46-2.4,6.553,6.553,0,0,0-3.912-11.814,6.531,6.531,0,0,0-8.389-6.288,6.53,6.53,0,0,0-8.218-3.089A6.552,6.552,0,0,0,16.4,6.558c0,.033.008.064.009.1a6.541,6.541,0,0,0-3.791,10.833h-.59a3.283,3.283,0,0,0-3.279,3.279v2.186a3.283,3.283,0,0,0,3.279,3.279v8.293L.5,59.874a5.587,5.587,0,0,0,5.085,7.9H35.951a5.54,5.54,0,0,0,3.691-1.426,6.544,6.544,0,0,0,9-.806,6.536,6.536,0,0,0,8.742,1,6.557,6.557,0,1,0,3.826-11.882ZM17.489,8.745a4.377,4.377,0,0,1,4.372,4.372h2.186a6.563,6.563,0,0,0-5.457-6.458c0-.034-.009-.067-.009-.1a4.365,4.365,0,0,1,7.743-2.772,6.539,6.539,0,0,0-2.278,4.958h2.186a4.372,4.372,0,1,1,4.372,4.372V15.3a6.51,6.51,0,0,0,6.486-7.478,4.33,4.33,0,0,1,1.165-.174,4.377,4.377,0,0,1,4.372,4.372,4.308,4.308,0,0,1-.128,1l-.4,1.718,1.718-.4a4.358,4.358,0,0,1,3.771,7.614,6.539,6.539,0,0,0-4.957-2.277v2.186a4.372,4.372,0,1,1,0,8.745,4.312,4.312,0,0,1-2.7-.963L38.5,28.51,38.175,30.3a4.342,4.342,0,0,1-1.588,2.617,6.51,6.51,0,0,0-3.8-1.22v2.186a4.377,4.377,0,0,1,4.372,4.372,4.314,4.314,0,0,1-.5,1.985L36.1,41.327l1.138.436a3.273,3.273,0,0,1-1.17,6.332,3.135,3.135,0,0,1-.415-.057L29.513,34.527V26.234a3.283,3.283,0,0,0,3.279-3.279V20.768a3.283,3.283,0,0,0-3.279-3.279H17.489a4.372,4.372,0,1,1,0-8.745ZM35.952,65.584H5.584A3.4,3.4,0,0,1,2.49,60.779L14.21,35V26.234h8.745V24.047H12.024a1.094,1.094,0,0,1-1.093-1.093V20.768a1.094,1.094,0,0,1,1.093-1.093H29.513a1.094,1.094,0,0,1,1.093,1.093v2.186a1.094,1.094,0,0,1-1.093,1.093H25.14v2.186h2.186V35L39.045,60.778a3.4,3.4,0,0,1-3.093,4.806Zm25.26,0a4.346,4.346,0,0,1-3.061-1.256l-.765-.752-.765.752a4.368,4.368,0,0,1-7.433-3.116H47a6.5,6.5,0,0,0,.431,2.316,4.376,4.376,0,0,1-3.71,2.056,4.332,4.332,0,0,1-2.759-.983,5.48,5.48,0,0,0,.072-4.728l-4.388-9.651a5.425,5.425,0,0,0,3.664-2,4.363,4.363,0,0,1,3.41,4.248c0,.01,0,.02,0,.03a5.438,5.438,0,0,0-2.185,4.343h2.186a3.279,3.279,0,0,1,6.558,0h2.186a5.437,5.437,0,0,0-1.776-4.006,4.364,4.364,0,0,1,8.335,1.82c0,.134-.027.265-.039.4a6.564,6.564,0,0,0-4.333,6.162h2.186a4.372,4.372,0,1,1,4.372,4.372Z" transform="translate(0 0)" fill="#f9a545"/>
    </g>
  </g>
</svg>
