<svg xmlns="http://www.w3.org/2000/svg" width="89.194" height="77.655" viewBox="0 0 89.194 77.655">
  <g id="sardine_12294257" transform="translate(-4 -7.622)">
    <path id="Trazado_874045" data-name="Trazado 874045" d="M93.182,60.493c.027-.038,0-36.618.009-36.663,0-10.528-22.977-16.208-44.6-16.208S4,13.3,4,23.831L4,60.458a7.832,7.832,0,0,0,1.924,4.982c0,.01,0,3.623,0,3.632C5.807,74.508,13,79.785,24.245,82.427a1.6,1.6,0,0,0,.4-3.134C14.626,76.5,8.774,73.006,9.111,68.3c16.3,11.107,62.673,11.113,78.974-.005v.773c0,.012.006.021.006.032C87.3,80.057,50.007,84.7,31.041,80.666a1.593,1.593,0,0,0-.538,3.139c18.09,4.054,61.026-.07,60.766-14.787V65.43a7.835,7.835,0,0,0,1.912-4.937ZM48.6,10.807c24.4,0,41.41,6.864,41.41,13.023S73,36.854,48.6,36.854,7.185,29.99,7.185,23.831,24.192,10.807,48.6,10.807ZM7.187,60.451c-.007-.006,0-30.286,0-30.293,7.036,6.456,24.629,9.881,41.41,9.881s34.374-3.425,41.41-9.881c0,.026,0,30.271-.006,30.293,0,6.162-17,13.028-41.4,13.028S7.187,66.614,7.187,60.452Z" transform="translate(0 0)" fill="#fff"/>
    <path id="Trazado_874046" data-name="Trazado 874046" d="M45.057,32.212a119.348,119.348,0,0,0,14.625-.873,1.592,1.592,0,1,0-.392-3.16c-14.754,2.458-45.452-.542-46.135-6.48,0-2.986,12.427-7.325,31.9-7.325s31.9,4.339,31.9,7.326c0,1.037-2.373,3.5-11.353,5.417a1.593,1.593,0,1,0,.663,3.117c6.33-1.35,13.875-3.926,13.875-8.534C80.017,7.728,10.1,7.728,9.97,21.7c0,6.9,17.652,10.513,35.087,10.513Z" transform="translate(3.538 2.133)" fill="#fff"/>
    <path id="Trazado_874047" data-name="Trazado 874047" d="M56.28,32.067a29.37,29.37,0,0,0-26.413,4.122,9.18,9.18,0,0,0-12.482-1.039,1.6,1.6,0,0,0,.145,2.686,15.711,15.711,0,0,1,4,3.291c2.036,2.932-1.218,5.191-3.9,6.445a1.6,1.6,0,0,0-.156,2.8c2.66,1.632,8.4,3.294,12.46-.986a33.971,33.971,0,0,0,6.833,3.626,27.431,27.431,0,0,0,5.108,1.454,1.593,1.593,0,1,0,.582-3.133,24.185,24.185,0,0,1-4.518-1.285,28.924,28.924,0,0,1-7.253-4.072,1.6,1.6,0,0,0-2.333.314,5.793,5.793,0,0,1-6.449,2.458A12.3,12.3,0,0,0,23.667,47.2c3.307-3.549,1.292-8.214-2.252-10.567,3.935-1.21,6.62,2.23,6.956,2.691a1.6,1.6,0,0,0,2.335.277,26.206,26.206,0,0,1,20.413-5.537c.7.1,1.376.232,2.033.391a13.824,13.824,0,0,0,0,16.347,23.4,23.4,0,0,1-4.434.834,1.593,1.593,0,0,0,.138,3.179,24.123,24.123,0,0,0,13.706-5.419C68.83,43.09,64,34.506,56.28,32.067ZM60.4,47.049a15.065,15.065,0,0,1-4.179,2.6c-3.509-4.69-3.5-9.227.038-14.131a12.132,12.132,0,0,1,4.66,3.448,6.114,6.114,0,0,1-.518,8.083Z" transform="translate(7.542 13.617)" fill="#fff"/>
    <path id="Trazado_874048" data-name="Trazado 874048" d="M51.771,18.391A1.592,1.592,0,0,0,50.179,16.8H44.416a1.593,1.593,0,1,0,0,3.185h5.763a1.592,1.592,0,0,0,1.593-1.593Z" transform="translate(23.01 5.439)" fill="#fff"/>
  </g>
</svg>
