<svg xmlns="http://www.w3.org/2000/svg" width="58.124" height="58.124" viewBox="0 0 58.124 58.124">
  <g id="lacteos" transform="translate(0)">
    <g id="Grupo_1102202" data-name="Grupo 1102202" transform="translate(0.698 0.927)">
      <g id="Grupo_1102166" data-name="Grupo 1102166" transform="translate(32.508 12.223)">
        <g id="Grupo_1102165" data-name="Grupo 1102165">
          <path id="Trazado_875428" data-name="Trazado 875428" d="M316.517,115.833v43.992H292.5l10.881-43.985Z" transform="translate(-292.5 -115.833)" fill="#e3edf6"/>
        </g>
      </g>
      <g id="Grupo_1102168" data-name="Grupo 1102168" transform="translate(25.824 12.221)">
        <g id="Grupo_1102167" data-name="Grupo 1102167">
          <path id="Trazado_875429" data-name="Trazado 875429" d="M233.625,133.629v-17.81l18.8.009v43.985H241.742Z" transform="translate(-233.625 -115.819)" fill="#b6e6fa"/>
        </g>
      </g>
      <g id="Grupo_1102170" data-name="Grupo 1102170" transform="translate(3.616 20.53)">
        <g id="Grupo_1102169" data-name="Grupo 1102169">
          <path id="Trazado_875430" data-name="Trazado 875430" d="M60.257,189.006l-.05,14.884-11.12,2.666-3.609.865-5.716,1.37L38,209.213v-9.208a1.69,1.69,0,0,0,0-3.381v-7.619h5.057c0,.027,0,.055,0,.083a3.49,3.49,0,0,0,6.981,0c0-.028,0-.056,0-.083Z" transform="translate(-38 -189.006)" fill="#fde31d"/>
        </g>
      </g>
      <g id="Grupo_1102172" data-name="Grupo 1102172" transform="translate(25.65 12.222)">
        <g id="Grupo_1102171" data-name="Grupo 1102171">
          <path id="Trazado_875431" data-name="Trazado 875431" d="M232.1,115.825h2.6v18.439h-2.6Z" transform="translate(-232.097 -115.825)" fill="#8ad8f6"/>
        </g>
      </g>
      <g id="Grupo_1102174" data-name="Grupo 1102174" transform="translate(3.616 34.404)">
        <g id="Grupo_1102173" data-name="Grupo 1102173">
          <path id="Trazado_875432" data-name="Trazado 875432" d="M49.088,314.9l-3.609.865a3.339,3.339,0,0,0-2.373-1.134,3.577,3.577,0,0,0-2.773,1.6,6.253,6.253,0,0,0-.57.9L38,317.558v-3.85a6.751,6.751,0,0,1,5.106-2.483A7.164,7.164,0,0,1,49.088,314.9Z" transform="translate(-38 -311.226)" fill="#f7d700"/>
        </g>
      </g>
      <g id="Grupo_1102177" data-name="Grupo 1102177" transform="translate(3.616 20.557)">
        <g id="Grupo_1102176" data-name="Grupo 1102176">
          <g id="Grupo_1102175" data-name="Grupo 1102175">
            <path id="Trazado_875433" data-name="Trazado 875433" d="M40.554,195.172v-3.367l.019-2.554H38v7.619a1.69,1.69,0,0,1,0,3.381v9.208l2.554-.612v-6.9a4.24,4.24,0,0,0,0-6.775Z" transform="translate(-38 -189.251)" fill="#f7d700"/>
          </g>
        </g>
      </g>
      <g id="Grupo_1102179" data-name="Grupo 1102179" transform="translate(45.474 5.374)">
        <g id="Grupo_1102178" data-name="Grupo 1102178">
          <path id="Trazado_875434" data-name="Trazado 875434" d="M411.831,55.5l5.109,6.59H406.722Z" transform="translate(-406.722 -55.5)" fill="#e3edf6"/>
        </g>
      </g>
      <g id="Grupo_1102181" data-name="Grupo 1102181" transform="translate(26.743 4.397)">
        <g id="Grupo_1102180" data-name="Grupo 1102180">
          <path id="Trazado_875435" data-name="Trazado 875435" d="M260.453,54.466H241.722l5.392-6.836,9.077-.73,9.361.73Z" transform="translate(-241.722 -46.9)" fill="#e3edf6"/>
        </g>
      </g>
      <g id="Grupo_1102183" data-name="Grupo 1102183" transform="translate(26.402 5.127)">
        <g id="Grupo_1102182" data-name="Grupo 1102182" transform="translate(0 0)">
          <path id="Trazado_875436" data-name="Trazado 875436" d="M247.348,53.326l-5.018,6.836h-3.61l5.392-6.836Z" transform="translate(-238.72 -53.326)" fill="#c5d9ec"/>
        </g>
      </g>
      <g id="Grupo_1102185" data-name="Grupo 1102185" transform="translate(31.852)">
        <g id="Grupo_1102184" data-name="Grupo 1102184">
          <path id="Trazado_875437" data-name="Trazado 875437" d="M286.722,13.237V8.166h18.722v5.127Z" transform="translate(-286.722 -8.166)" fill="#b6e6fa"/>
        </g>
      </g>
      <g id="Grupo_1102187" data-name="Grupo 1102187" transform="translate(2.85 29.725)">
        <g id="Grupo_1102186" data-name="Grupo 1102186">
          <path id="Trazado_875438" data-name="Trazado 875438" d="M66.991,284.537H31.25c.292-4.132,2.836-7.363,5.932-7.363a4.436,4.436,0,0,1,.888.091,10.509,10.509,0,0,1,.495-2.47c.937-2.824,3.015-4.788,5.429-4.788,2.382,0,4.435,1.912,5.39,4.675a10.487,10.487,0,0,1,.531,2.567c.019,0,.039,0,.058.009a10.489,10.489,0,0,1,.5-2.469c.938-2.821,3.014-4.782,5.425-4.782,2.382,0,4.435,1.911,5.39,4.674a10.506,10.506,0,0,1,.531,2.561c2.028.352,3.736,2.1,4.6,4.51A10.458,10.458,0,0,1,66.991,284.537Z" transform="translate(-31.25 -270.006)" fill="#ffebd3"/>
        </g>
      </g>
      <g id="Grupo_1102189" data-name="Grupo 1102189" transform="translate(9.843 34.386)">
        <g id="Grupo_1102188" data-name="Grupo 1102188">
          <path id="Trazado_875439" data-name="Trazado 875439" d="M115.893,311.076a16.361,16.361,0,0,1,.65,2.861,5.326,5.326,0,0,0-4.841,2.149,10.167,10.167,0,0,0-1.859,5.162,11.247,11.247,0,0,0-1.636-5,4.994,4.994,0,0,0-8.739.045,11.5,11.5,0,0,0-1.615,4.952,10.492,10.492,0,0,0-1.373-4.459,6.156,6.156,0,0,0-3.625-2.814,12.8,12.8,0,0,1,.25-2.447c.095-.464.288-.31.69-.191a8.161,8.161,0,0,1,.954.35,8.333,8.333,0,0,1,1.745,1.036c.144.111,1.5,1.253,1.4,1.385a7.4,7.4,0,0,1,11.915,0,7.95,7.95,0,0,1,6.077-3.047l0,.013Z" transform="translate(-92.854 -311.063)" fill="#ffd7a5"/>
        </g>
      </g>
      <path id="Trazado_875440" data-name="Trazado 875440" d="M49.826,401.007H9v3.349l2.484.1v1.481a7.79,7.79,0,0,0,1.469,4.607,5.37,5.37,0,0,0,4.274,2.422c2.669,0,4.935-2.368,5.743-5.658h.655c.808,3.29,3.074,5.658,5.743,5.658s4.935-2.368,5.743-5.658h.653c.808,3.29,3.075,5.658,5.743,5.658a5.369,5.369,0,0,0,4.275-2.422,7.791,7.791,0,0,0,1.469-4.607v-1.458l2.574-.122Z" transform="translate(-8.676 -356.41)" fill="#fcad42"/>
      <g id="Grupo_1102191" data-name="Grupo 1102191" transform="translate(0 44.37)">
        <g id="Grupo_1102190" data-name="Grupo 1102190">
          <path id="Trazado_875441" data-name="Trazado 875441" d="M6.149,399.006H8.662v3.349H6.149Z" transform="translate(-6.149 -399.006)" fill="#f69500"/>
        </g>
      </g>
      <g id="Grupo_1102193" data-name="Grupo 1102193" transform="translate(3.086 41.758)">
        <g id="Grupo_1102192" data-name="Grupo 1102192">
          <path id="Trazado_875442" data-name="Trazado 875442" d="M33.333,376.006H68.777v2.525H33.333Z" transform="translate(-33.333 -376.006)" fill="#ffd7a5"/>
        </g>
      </g>
      <g id="Grupo_1102195" data-name="Grupo 1102195" transform="translate(2.513 47.719)">
        <g id="Grupo_1102194" data-name="Grupo 1102194">
          <path id="Trazado_875443" data-name="Trazado 875443" d="M64.269,428.508v2.239c-.605,3.64-3.008,6.358-5.882,6.358-2.6,0-4.807-2.22-5.657-5.333h-.714c-.807,3.217-3.058,5.533-5.709,5.533s-4.9-2.316-5.71-5.533h-.711c-.85,3.113-3.061,5.333-5.657,5.333-2.992,0-5.475-2.949-5.947-6.817v-1.78H30.71l.093,1.31c.213,2.985,1.942,4.99,3.424,4.99s3.21-2.006,3.424-4.99l.093-1.31h5.045l.092,1.31c.215,2.985,1.942,4.99,3.425,4.99s3.209-2.006,3.424-4.99l.092-1.31h5.046l.093,1.31c.213,2.985,1.942,4.99,3.424,4.99s3.21-2.006,3.424-4.99l.093-1.31Z" transform="translate(-28.282 -428.508)" fill="#f69500"/>
        </g>
      </g>
      <g id="Grupo_1102197" data-name="Grupo 1102197" transform="translate(31.852)">
        <g id="Grupo_1102196" data-name="Grupo 1102196">
          <path id="Trazado_875444" data-name="Trazado 875444" d="M286.722,8.166h2.529V13.2h-2.529Z" transform="translate(-286.722 -8.166)" fill="#8ad8f6"/>
        </g>
      </g>
      <g id="Grupo_1102199" data-name="Grupo 1102199" transform="translate(35.371 53.678)">
        <g id="Grupo_1102198" data-name="Grupo 1102198">
          <path id="Trazado_875445" data-name="Trazado 875445" d="M319.23,481.006h7.685v2.564h-9.192Z" transform="translate(-317.723 -481.006)" fill="#8ad8f6"/>
        </g>
      </g>
      <g id="Grupo_1102201" data-name="Grupo 1102201" transform="translate(44.516 53.678)">
        <g id="Grupo_1102200" data-name="Grupo 1102200">
          <path id="Trazado_875446" data-name="Trazado 875446" d="M398.278,481.006h11.948v2.564H398.278Z" transform="translate(-398.278 -481.006)" fill="#c5d9ec"/>
        </g>
      </g>
    </g>
    <g id="Grupo_1102203" data-name="Grupo 1102203" transform="translate(0)">
      <path id="Trazado_875447" data-name="Trazado 875447" d="M451.332,497.238h1.706V498.9h-1.706Z" transform="translate(-400.095 -440.79)"/>
      <path id="Trazado_875448" data-name="Trazado 875448" d="M52.162,6.141V0H31.7V6.044l-6.039,7.484v7.231H15.471s0,.918,0,.934a2.644,2.644,0,0,1-5.287,0c0-.017.036-.934.036-.934H3.412v9.323h.853a.839.839,0,1,1,0,1.678H3.412V41.82a11.024,11.024,0,0,0-.7,2.782H0v5.052H2.631c-.331,3.891,2.586,8.529,6.607,8.469,2.552,0,4.885-1.872,6.082-4.771,1.2,2.9,3.53,4.771,6.082,4.771s4.884-1.872,6.081-4.77c1.141,2.763,3.316,4.592,5.727,4.757H49.531V56.448H46.2V13.668H56.418v42.78H54.649V58.11h3.475V13.528ZM28.187,31.659a4.356,4.356,0,0,1,3.337,1.786,8.211,8.211,0,0,1,1.616,3.687c-2.481.1-4.63,1.924-5.759,4.637a7.45,7.45,0,0,0-4.2-4.335c.5-3.3,2.583-5.774,5-5.774Zm5.175,7.169c2.4,0,4.5,2.479,5,5.774h-10C28.862,41.306,30.957,38.828,33.361,38.828Zm-11.96,0c2.4,0,4.5,2.479,5,5.774h-10C16.9,41.306,19,38.828,21.4,38.828ZM15.421,41.77a7.467,7.467,0,0,0-4.162-4.324c.367-2.721,2.216-5.759,5.005-5.787,2.345,0,4.373,2.321,4.952,5.471C18.719,37.217,16.554,39.043,15.421,41.77Zm-10.3-8.454a2.541,2.541,0,0,0,0-4.791V22.462H8.546a4.352,4.352,0,0,0,8.563,0h8.552v8.125a6.892,6.892,0,0,0-2.2,1.868,9.136,9.136,0,0,0-1.232,2.113,9.133,9.133,0,0,0-1.232-2.113,6.043,6.043,0,0,0-4.729-2.5c-3.277,0-6.039,3.027-6.683,7.173a5.853,5.853,0,0,0-4.463,2.013V33.316ZM9.44,38.828c2.4,0,4.5,2.479,5,5.774h-10C4.941,41.306,7.036,38.828,9.44,38.828ZM33.564,56.42c-2.114,0-4.064-1.9-4.852-4.728H26.254c-.788,2.828-2.738,4.728-4.852,4.728s-4.064-1.9-4.852-4.728H14.09C13.3,54.52,11.352,56.42,9.238,56.42c-3.093,0-5.182-3.8-4.9-6.766h17.9v-1.7H1.706V46.305H41.015v1.646H23.941v1.7H38.465a7.3,7.3,0,0,1-1.307,4.692A4.529,4.529,0,0,1,33.564,56.42Zm10.931.028H37.568a8.712,8.712,0,0,0,2.6-6.794h2.55V44.6H40.086c-.464-3.631-2.53-6.452-5.185-7.249-.647-4.573-3.745-7.878-7.534-7.331V13.668H44.495v42.78Zm1.3-44.483h-16.6l4.057-5.134H41v-1.7H33.406V1.7h17.05V5.128h-7.75v1.7h7.214Zm2.188,0,3.339-4.152,3.339,4.152Z" transform="translate(0)"/>
      <path id="Trazado_875449" data-name="Trazado 875449" d="M444.542,151.184h1.706v35.671h-1.706Z" transform="translate(-394.076 -134.021)"/>
      <path id="Trazado_875450" data-name="Trazado 875450" d="M168.224,217.673a2.543,2.543,0,1,0-2.547-2.542A2.548,2.548,0,0,0,168.224,217.673Zm0-3.382a.839.839,0,1,1-.841.839A.841.841,0,0,1,168.224,214.291Z" transform="translate(-146.869 -188.454)"/>
      <path id="Trazado_875451" data-name="Trazado 875451" d="M255,135.356h1.706v1.7H255Z" transform="translate(-226.052 -119.99)"/>
      <path id="Trazado_875452" data-name="Trazado 875452" d="M284.972,135.356h1.706v1.7h-1.706Z" transform="translate(-252.621 -119.99)"/>
    </g>
  </g>
</svg>
