<svg xmlns="http://www.w3.org/2000/svg" width="55.834" height="55.833" viewBox="0 0 55.834 55.833">
  <g id="warning_4732868" transform="translate(-6.27 -6.25)">
    <g id="Grupo_1102207" data-name="Grupo 1102207" transform="translate(6.27 6.25)">
      <g id="Grupo_1102206" data-name="Grupo 1102206">
        <g id="Grupo_1102205" data-name="Grupo 1102205">
          <path id="Trazado_875453" data-name="Trazado 875453" d="M12.046,10.1V9.107A2.857,2.857,0,0,1,14.9,6.25h.061a2.857,2.857,0,0,1,2.857,2.857V10.1H31.3V9.107A2.857,2.857,0,0,1,34.156,6.25h.061a2.857,2.857,0,0,1,2.857,2.857V10.1H50.552V9.107A2.857,2.857,0,0,1,53.409,6.25h.061a2.858,2.858,0,0,1,2.857,2.857V10.1h1.91A3.993,3.993,0,0,1,62.1,14.208V57.977a3.993,3.993,0,0,1-3.866,4.107h-48.1A3.993,3.993,0,0,1,6.27,57.977V14.208A3.993,3.993,0,0,1,10.135,10.1Z" transform="translate(-6.27 -6.25)" fill-rule="evenodd"/>
          <path id="Trazado_875454" data-name="Trazado 875454" d="M62.42,45.359H57.074A2.355,2.355,0,0,1,54.719,43V40.013a.43.43,0,0,0-.43-.43H18.568a.43.43,0,0,0-.429.43V43a2.355,2.355,0,0,1-2.355,2.355H10.437V75.907a2.069,2.069,0,0,0,1.94,2.182h48.1a2.07,2.07,0,0,0,1.94-2.182Z" transform="translate(-8.512 -24.181)" fill="#f4f4f4" fill-rule="evenodd"/>
          <path id="Trazado_875455" data-name="Trazado 875455" d="M69.446,47.262H65.53a3.77,3.77,0,0,1-3.771-3.771V41.938a.43.43,0,0,0-.43-.43H27.1v-1.5a.43.43,0,0,1,.429-.43H63.255a.43.43,0,0,1,.43.43V43a2.355,2.355,0,0,0,2.355,2.355h5.346V75.907a2.07,2.07,0,0,1-1.94,2.182h-1.94a2.07,2.07,0,0,0,1.94-2.182Z" transform="translate(-17.477 -24.181)" fill="#dedede" fill-rule="evenodd"/>
          <path id="Trazado_875456" data-name="Trazado 875456" d="M62.42,32.227v-11.3a2.07,2.07,0,0,0-1.94-2.182H58.57v.993A2.858,2.858,0,0,1,55.712,22.6h-.061a2.857,2.857,0,0,1-2.857-2.857V18.75H39.316v.993A2.857,2.857,0,0,1,36.459,22.6H36.4a2.857,2.857,0,0,1-2.857-2.857V18.75H20.063v.993A2.857,2.857,0,0,1,17.206,22.6h-.061a2.857,2.857,0,0,1-2.857-2.857V18.75H12.377a2.069,2.069,0,0,0-1.94,2.182v11.3h5.346a.43.43,0,0,0,.43-.43V28.806a2.355,2.355,0,0,1,2.355-2.355H54.289a2.355,2.355,0,0,1,2.355,2.355V31.8a.43.43,0,0,0,.43.43Z" transform="translate(-8.512 -12.974)" fill="#f45258" fill-rule="evenodd"/>
          <path id="Trazado_875457" data-name="Trazado 875457" d="M117.019,20.932a2.329,2.329,0,0,0-1.5-2.182H117a2.07,2.07,0,0,1,1.94,2.182v11.3h-1.925Z" transform="translate(-65.036 -12.974)" fill="#ea4b51" fill-rule="evenodd"/>
          <path id="Trazado_875458" data-name="Trazado 875458" d="M63.368,15.261V11.349a.932.932,0,0,0-.932-.932h-.061a.932.932,0,0,0-.932.932v3.912a.932.932,0,0,0,.932.932h.061A.932.932,0,0,0,63.368,15.261Zm-19.253,0V11.349a.932.932,0,0,0-.932-.932h-.061a.932.932,0,0,0-.932.932v3.912a.932.932,0,0,0,.932.932h.061A.932.932,0,0,0,44.115,15.261Zm-19.253,0V11.349a.932.932,0,0,0-.932-.932h-.061a.932.932,0,0,0-.932.932v3.912a.932.932,0,0,0,.932.932h.061A.933.933,0,0,0,24.862,15.261Z" transform="translate(-15.236 -8.492)" fill="#939393" fill-rule="evenodd"/>
          <path id="Trazado_875459" data-name="Trazado 875459" d="M62.069,10.528a.932.932,0,0,0-.626.881v3.912a.663.663,0,1,0,1.252,0V11.408A.932.932,0,0,0,62.069,10.528Zm-19.253,0a.933.933,0,0,0-.626.881v3.912a.932.932,0,0,0,.626.88.931.931,0,0,0,.626-.88V11.408A.932.932,0,0,0,42.816,10.528Zm-19.253,0a.932.932,0,0,0-.626.881v3.912a.931.931,0,0,0,.626.88.933.933,0,0,0,.626-.88V11.408A.933.933,0,0,0,23.563,10.528Z" transform="translate(-15.236 -8.551)" fill="#acacac" fill-rule="evenodd"/>
        </g>
      </g>
    </g>
    <path id="Trazado_875460" data-name="Trazado 875460" d="M50.7,54.619a.962.962,0,0,0-1.68,0L35.539,78.685a.963.963,0,0,0,.84,1.433H63.333a.962.962,0,0,0,.84-1.433Z" transform="translate(-15.679 -25.754)" fill-rule="evenodd"/>
    <path id="Trazado_875461" data-name="Trazado 875461" d="M52.889,60.473,64.724,81.607H41.054Z" transform="translate(-18.711 -29.168)" fill="#ffd462" fill-rule="evenodd"/>
    <path id="Trazado_875462" data-name="Trazado 875462" d="M64.657,62.131l.929-1.658L77.42,81.607H75.564Z" transform="translate(-31.408 -29.168)" fill="#f1ca62" fill-rule="evenodd"/>
    <path id="Trazado_875463" data-name="Trazado 875463" d="M64.583,95.407v1.176a.963.963,0,0,0,1.925,0V95.407a.963.963,0,1,0-1.925,0Z" transform="translate(-31.368 -47.442)" fill-rule="evenodd"/>
    <path id="Trazado_875464" data-name="Trazado 875464" d="M64.583,73.416V80.69a.963.963,0,0,0,1.925,0V73.416a.963.963,0,0,0-1.925,0Z" transform="translate(-31.368 -35.613)" fill-rule="evenodd"/>
  </g>
</svg>
