<svg xmlns="http://www.w3.org/2000/svg" width="65" height="65" viewBox="0 0 65 65">
  <g id="Grupo_1102221" data-name="Grupo 1102221" transform="translate(-663.051 -7247)">
    <g id="Grupo_1102211" data-name="Grupo 1102211" transform="translate(663.051 7247)">
      <circle id="Elipse_11559" data-name="Elipse 11559" cx="32.5" cy="32.5" r="32.5" fill="#5f6e62"/>
    </g>
    <g id="chicken_1702810" transform="translate(672.292 7262.64)">
      <path id="Trazado_875574" data-name="Trazado 875574" d="M327.667,28.935,324.475,32a1.385,1.385,0,0,1-2.217-.28l-1.582-2.78a3.687,3.687,0,0,0-.332-.584,3.291,3.291,0,0,0-1.764-1.291,3.753,3.753,0,0,0-4.508,2.779A3.981,3.981,0,0,0,315,33.8l4.212,5.593a2.312,2.312,0,0,0,3.64.051l4.653-5.178a1.514,1.514,0,0,1,2.234-.128l1.025,1.289c.184.231.542.023.485-.282l-1.016-5.47a1.508,1.508,0,0,0-2.57-.743Zm0,0" transform="translate(-285.38 -24.492)" fill="#ffc1b8"/>
      <path id="Trazado_875575" data-name="Trazado 875575" d="M332.044,30.32a1.668,1.668,0,0,0-2.161.212l-2.294,2.206c-.816.785-1.932,2.3-3.217,1.815a2.343,2.343,0,0,1-1.056-1.06c-.914-1.493-1.65-3.5-3.185-4.477a3.182,3.182,0,0,0-2.363-.451c-.513.11-1.911.69-2.014,1.3a.1.1,0,0,1,0-.017,3.754,3.754,0,0,1,4.509-2.779,3.193,3.193,0,0,1,1,.5,3.4,3.4,0,0,1,.765.791,3.7,3.7,0,0,1,.333.584l1.582,2.78a1.385,1.385,0,0,0,2.217.279l3.192-3.07a1.508,1.508,0,0,1,2.57.743Zm0,0" transform="translate(-287.067 -24.492)" fill="#ffb3a8"/>
      <path id="Trazado_875576" data-name="Trazado 875576" d="M10.6,28.935,13.793,32a1.385,1.385,0,0,0,2.217-.28l1.582-2.78a3.686,3.686,0,0,1,.332-.584,3.291,3.291,0,0,1,1.765-1.291A3.753,3.753,0,0,1,24.2,29.85a3.981,3.981,0,0,1-.933,3.952L19.051,39.4a2.312,2.312,0,0,1-3.64.051L10.758,34.27a1.514,1.514,0,0,0-2.234-.128L7.5,35.431c-.183.231-.542.023-.485-.282l1.016-5.47a1.508,1.508,0,0,1,2.57-.743Zm0,0" transform="translate(-6.371 -24.492)" fill="#ffc1b8"/>
      <path id="Trazado_875577" data-name="Trazado 875577" d="M16.949,30.32a1.668,1.668,0,0,1,2.161.212L21.4,32.738c.816.785,1.932,2.3,3.217,1.815a2.343,2.343,0,0,0,1.056-1.06c.914-1.493,1.65-3.5,3.185-4.477a3.183,3.183,0,0,1,2.363-.451c.513.11,1.911.69,2.015,1.3a.152.152,0,0,0,0-.017,3.754,3.754,0,0,0-4.509-2.779,3.2,3.2,0,0,0-1,.5,3.405,3.405,0,0,0-.765.791,3.7,3.7,0,0,0-.333.584l-1.582,2.78A1.385,1.385,0,0,1,22.831,32l-3.192-3.07a1.508,1.508,0,0,0-2.57.743Zm0,0" transform="translate(-15.409 -24.492)" fill="#ffb3a8"/>
      <path id="Trazado_875578" data-name="Trazado 875578" d="M291.491,358.477a48,48,0,0,1,3.81,3.259,1.871,1.871,0,1,0,1.2-3.546c-.063-.021-.126-.038-.188-.053l1.033-3.064-2.408-.811-1.03,3.056-.042-.016A1.871,1.871,0,0,0,291.491,358.477Zm0,0" transform="translate(-264.919 -322.077)" fill="#e7e7e7"/>
      <path id="Trazado_875579" data-name="Trazado 875579" d="M336.149,363.6c-.063-.021-.125-.038-.188-.053l1.033-3.064-.8-.271-.6,1.8-.419,1.262a1.764,1.764,0,0,0-.154.826c.084.445.708.452,1.011.688a1.4,1.4,0,0,1,.293,1.55,1.869,1.869,0,0,1-.66.906,1.871,1.871,0,0,0,.484-3.64Zm0,0" transform="translate(-304.572 -327.482)" fill="#cecece"/>
      <path id="Trazado_875580" data-name="Trazado 875580" d="M311.766,208.078c1.094-3.247,4.328-5.088,7.223-4.112s4.354,4.4,3.26,7.646a6.546,6.546,0,0,1-3.149,3.753,4.776,4.776,0,0,0-2.4,2.69.538.538,0,0,1-.7.3l-3.355-1.131a.538.538,0,0,1-.374-.66,4.777,4.777,0,0,0-.278-3.591,6.548,6.548,0,0,1-.234-4.894Zm0,0" transform="translate(-283.111 -185.198)" fill="#ffc1b8"/>
      <path id="Trazado_875581" data-name="Trazado 875581" d="M362.836,212.594a6.552,6.552,0,0,1-3.15,3.753,4.775,4.775,0,0,0-2.395,2.69.511.511,0,0,1-.5.332.615.615,0,0,1-.2-.033l-.51-.172c-.077-.026-.017-.167,0-.213A6.72,6.72,0,0,1,357.1,217.3a6.851,6.851,0,0,1,1.488-1.645c.2-.148.406-.292.605-.443a5.131,5.131,0,0,0,1.1-1.054,8.888,8.888,0,0,0,1.428-4.83,4.571,4.571,0,0,0-2.752-4.545,4.926,4.926,0,0,1,.611.164c2.895.976,4.354,4.4,3.26,7.645Zm0,0" transform="translate(-323.697 -186.181)" fill="#ffb3a8"/>
      <path id="Trazado_875582" data-name="Trazado 875582" d="M154.313,357.3l-.042.015-1.03-3.056-2.408.812,1.033,3.064a1.9,1.9,0,0,0-.188.053,1.871,1.871,0,1,0,2.315,2.516,1.871,1.871,0,1,0,.32-3.4Zm0,0" transform="translate(-136.74 -322.074)" fill="#e7e7e7"/>
      <path id="Trazado_875583" data-name="Trazado 875583" d="M150.5,365.966a1.872,1.872,0,0,0,1.661,1.271,1.87,1.87,0,0,1-.66-.907,1.4,1.4,0,0,1,.294-1.55c.3-.236.927-.243,1.011-.688a1.759,1.759,0,0,0-.154-.826L152.234,362l-.6-1.8-.8.271,1.033,3.064c-.063.015-.125.032-.188.053a1.871,1.871,0,0,0-1.176,2.37Zm0,0" transform="translate(-136.739 -327.483)" fill="#cecece"/>
      <path id="Trazado_875584" data-name="Trazado 875584" d="M88.057,208.078c-1.094-3.247-4.328-5.088-7.223-4.112s-4.354,4.4-3.26,7.646a6.548,6.548,0,0,0,3.149,3.753,4.776,4.776,0,0,1,2.4,2.69.538.538,0,0,0,.7.3l3.355-1.131a.538.538,0,0,0,.374-.66,4.777,4.777,0,0,1,.278-3.591,6.547,6.547,0,0,0,.234-4.894Zm0,0" transform="translate(-70.196 -185.198)" fill="#ffc1b8"/>
      <path id="Trazado_875585" data-name="Trazado 875585" d="M77.572,212.594a6.552,6.552,0,0,0,3.15,3.753,4.777,4.777,0,0,1,2.4,2.69.511.511,0,0,0,.5.332.614.614,0,0,0,.2-.033l.51-.172c.06-.02.029-.105.023-.147a2.03,2.03,0,0,0-.335-.666c-.191-.314-.4-.619-.608-.919a7.005,7.005,0,0,0-1.427-1.662c-.217-.163-.439-.319-.657-.481a5.412,5.412,0,0,1-1.2-1.131,8.889,8.889,0,0,1-1.428-4.83,4.571,4.571,0,0,1,2.752-4.545,4.924,4.924,0,0,0-.611.164c-2.894.976-4.354,4.4-3.26,7.645Zm0,0" transform="translate(-70.194 -186.181)" fill="#ffb3a8"/>
      <path id="Trazado_875586" data-name="Trazado 875586" d="M157.851,14.463c-.447-3.725-2.2-5.627-3.747-6.591a5.873,5.873,0,0,0-5.175-.527,5.4,5.4,0,0,0-.853.407,1.423,1.423,0,0,1-1.452,0,5.416,5.416,0,0,0-.854-.407,5.873,5.873,0,0,0-5.175.527c-1.544.964-3.3,2.865-3.747,6.591a28.762,28.762,0,0,0-.281,6.208c.161,1.707.332,3.416.645,5.1.878,4.74,4.01,6.938,8.315,7.576a13.407,13.407,0,0,0,3.58.031,14.8,14.8,0,0,0,2.773-.587c3.171-1.026,5.038-3.914,5.618-7.081.306-1.668.474-3.356.634-5.043a28.759,28.759,0,0,0-.282-6.207Zm0,0" transform="translate(-124.092 -6.34)" fill="#ffc1b8"/>
      <path id="Trazado_875587" data-name="Trazado 875587" d="M253.7,20.67c-.159,1.687-.328,3.375-.633,5.043-.58,3.167-2.448,6.056-5.619,7.082a14.84,14.84,0,0,1-2.772.586,13.54,13.54,0,0,1-3.065.034c.1-.01.205-.021.308-.034a14.832,14.832,0,0,0,2.773-.586c3.171-1.026,5.038-3.915,5.619-7.082.306-1.668.474-3.356.633-5.043a28.809,28.809,0,0,0-.282-6.208c-.447-3.725-2.2-5.626-3.747-6.59a5.9,5.9,0,0,0-1.749-.734,5.889,5.889,0,0,1,4.506.734c1.544.964,3.3,2.865,3.746,6.59A28.673,28.673,0,0,1,253.7,20.67Zm0,0" transform="translate(-219.659 -6.34)" fill="#ffb3a8"/>
      <path id="Trazado_875588" data-name="Trazado 875588" d="M46.5,10.54,45.483,5.07c0-.012,0-.024-.007-.036a2.143,2.143,0,0,0-3.63-1.05l-3.192,3.07a.829.829,0,0,1-.688.246.735.735,0,0,1-.535-.382L35.863,4.162a4.356,4.356,0,0,0-.377-.657,3.913,3.913,0,0,0-2.1-1.537,3.852,3.852,0,0,0-1.859-.08,7.851,7.851,0,0,0-1.173-.9A6.539,6.539,0,0,0,24.613.409a6.075,6.075,0,0,0-.953.455.787.787,0,0,1-.8,0A6.09,6.09,0,0,0,21.9.409a6.54,6.54,0,0,0-5.736.583,7.834,7.834,0,0,0-1.172.9,3.855,3.855,0,0,0-1.86.081,3.912,3.912,0,0,0-2.1,1.536,4.361,4.361,0,0,0-.377.657L9.085,6.918A.735.735,0,0,1,8.55,7.3a.83.83,0,0,1-.688-.246L4.67,3.984a2.179,2.179,0,0,0-2.129-.561,2.18,2.18,0,0,0-1.5,1.612c0,.012-.006.024-.008.036L.017,10.54a.957.957,0,0,0,.54,1.05.88.88,0,0,0,1.069-.256l1-1.257A.8.8,0,0,1,3.2,9.853a.992.992,0,0,1,.709.349L6.93,13.56a.636.636,0,0,0,.947-.851L4.86,9.352a2.251,2.251,0,0,0-1.624-.771A2.073,2.073,0,0,0,1.7,9.2c-.016.017-.032.034-.046.053l-.136.17.762-4.1a.906.906,0,0,1,.614-.677.911.911,0,0,1,.893.256L6.98,7.971a2.091,2.091,0,0,0,1.753.588,2.007,2.007,0,0,0,1.459-1.012l1.582-2.78a.524.524,0,0,0,.026-.051,3.1,3.1,0,0,1,.275-.483A2.654,2.654,0,0,1,13.5,3.189a2.52,2.52,0,0,1,.424-.086,10.406,10.406,0,0,0-1.8,4.943,29.563,29.563,0,0,0-.283,6.343c.013.144.027.286.041.429a1.634,1.634,0,0,1-2.009.032.636.636,0,1,0-.728,1.044,3.03,3.03,0,0,0,1.735.559,2.843,2.843,0,0,0,1.143-.24c.061.563.126,1.114.2,1.661a5.574,5.574,0,0,0-1.791.29c-3.223,1.086-4.864,4.878-3.66,8.452a7.229,7.229,0,0,0,3.46,4.116,4.149,4.149,0,0,1,2.084,2.328,1.122,1.122,0,0,0,.624.668,1.217,1.217,0,0,0,.478.1,1.252,1.252,0,0,0,.271-.031l.638,1.892a2.509,2.509,0,0,0,1.2,4.708,2.513,2.513,0,0,0,1.986-.976,2.508,2.508,0,1,0,.433-4.921l-.648-1.922a1.224,1.224,0,0,0,.555-.506,1.121,1.121,0,0,0,.092-.909,4.15,4.15,0,0,1,.249-3.114,6.583,6.583,0,0,0,.4-1.084,14.061,14.061,0,0,0,2.74.676,13.421,13.421,0,0,0,1.969.143,14.808,14.808,0,0,0,1.781-.109,15.367,15.367,0,0,0,2.853-.6,6.532,6.532,0,0,0,.369.975,4.15,4.15,0,0,1,.249,3.114,1.123,1.123,0,0,0,.092.909,1.225,1.225,0,0,0,.555.506L28.563,34.5A2.508,2.508,0,1,0,29,39.419a2.508,2.508,0,1,0,3.191-3.732l.638-1.892a1.255,1.255,0,0,0,.271.031,1.207,1.207,0,0,0,.477-.1,1.121,1.121,0,0,0,.624-.668,4.151,4.151,0,0,1,2.084-2.328c.145-.075.289-.157.429-.242a.637.637,0,1,0-.667-1.085c-.113.07-.23.135-.346.2a5.437,5.437,0,0,0-2.663,2.929l-2.816-.949-.408-.137a5.438,5.438,0,0,0-.346-3.944,5.342,5.342,0,0,1-.334-.912,9.664,9.664,0,0,0,4.9-7.1c.021-.113.039-.226.059-.338a4.341,4.341,0,0,1,1.583.222c2.557.862,3.841,3.93,2.86,6.839a6.315,6.315,0,0,1-.595,1.275.636.636,0,1,0,1.086.665,7.593,7.593,0,0,0,.715-1.534c1.2-3.574-.437-7.365-3.66-8.452a5.577,5.577,0,0,0-1.792-.29c.076-.548.142-1.1.2-1.663a2.819,2.819,0,0,0,1.016.238l.125,0A3.13,3.13,0,0,0,37.95,15.38L42.6,10.2a.992.992,0,0,1,.709-.35.8.8,0,0,1,.578.224l1,1.257a.881.881,0,0,0,1.069.257.958.958,0,0,0,.54-1.051ZM32.15,38.28a1.234,1.234,0,0,1-2.3.1.637.637,0,0,0-.9-.3,1.235,1.235,0,1,1-.206-2.244l.023.009a.636.636,0,0,0,.82-.395l.827-2.453,1.2.4-.83,2.461a.636.636,0,0,0,.463.824,1.208,1.208,0,0,1,.125.035,1.235,1.235,0,0,1,.776,1.564Zm-14.4-2.442.031-.011a1.235,1.235,0,1,1-.213,2.246.636.636,0,0,0-.9.3,1.235,1.235,0,1,1-1.4-1.695.637.637,0,0,0,.463-.824L14.9,33.4l.6-.2.6-.2.827,2.452a.637.637,0,0,0,.821.4Zm-.7-8.339a5.434,5.434,0,0,0-.346,3.944L13.483,32.53A5.436,5.436,0,0,0,10.819,29.6,5.949,5.949,0,0,1,7.982,26.21c-.981-2.909.3-5.977,2.86-6.839a4.337,4.337,0,0,1,1.389-.227c.064,0,.128,0,.193,0q.035.2.072.4a9.107,9.107,0,0,0,4.925,6.906,5.368,5.368,0,0,1-.367,1.044ZM33.407,14.27c-.168,1.776-.331,3.376-.626,4.988-.6,3.27-2.539,5.734-5.188,6.591a14.093,14.093,0,0,1-2.654.56,12.785,12.785,0,0,1-3.41-.029c-4.479-.663-7.025-2.974-7.782-7.062-.3-1.628-.467-3.249-.637-5.048a28.6,28.6,0,0,1,.28-6.072,8.108,8.108,0,0,1,3.452-6.126,5.3,5.3,0,0,1,2.8-.8,5.147,5.147,0,0,1,1.815.328,4.815,4.815,0,0,1,.753.359,2.059,2.059,0,0,0,2.1,0,4.793,4.793,0,0,1,.753-.359,5.259,5.259,0,0,1,4.613.471A8.109,8.109,0,0,1,33.127,8.2a28.6,28.6,0,0,1,.28,6.071ZM44.862,9.254a.6.6,0,0,0-.046-.053,2.073,2.073,0,0,0-1.536-.62,2.252,2.252,0,0,0-1.624.771L37,14.529a1.845,1.845,0,0,1-1.441.647,1.56,1.56,0,0,1-.93-.357q.021-.213.041-.43a29.609,29.609,0,0,0-.283-6.343,10.413,10.413,0,0,0-1.8-4.943,2.524,2.524,0,0,1,.424.086,2.649,2.649,0,0,1,1.423,1.045,3.04,3.04,0,0,1,.275.483c.008.017.017.034.026.051l1.582,2.78a2.007,2.007,0,0,0,1.459,1.012,2.092,2.092,0,0,0,1.753-.588L42.728,4.9a.872.872,0,0,1,1.507.421L45,9.424Zm0,0" transform="translate(0 0)"/>
    </g>
  </g>
</svg>
