<svg xmlns="http://www.w3.org/2000/svg" width="65" height="65" viewBox="0 0 65 65">
  <g id="Grupo_1102245" data-name="Grupo 1102245" transform="translate(-663.051 -7247)">
    <g id="Grupo_1102211" data-name="Grupo 1102211" transform="translate(663.051 7247)">
      <circle id="Elipse_11559" data-name="Elipse 11559" cx="32.5" cy="32.5" r="32.5" fill="#5f6e62"/>
    </g>
    <g id="fish_856108" transform="translate(670.839 7227.287)">
      <path id="Trazado_875640" data-name="Trazado 875640" d="M136,376.124a8.1,8.1,0,0,0,4.321,5.658.636.636,0,0,0,.912-.674l-.571-3.429-.227-1.4-3.917-.712-.486.194Z" transform="translate(-122.789 -310.198)" fill="#e2c675"/>
      <path id="Trazado_875641" data-name="Trazado 875641" d="M8,178.99l5.491-6.407a18.051,18.051,0,0,1,9.566-5.817l1.932-.455a18.043,18.043,0,0,1,15.4,3.474l5.682,4.051,3.885-2.331a1.341,1.341,0,0,1,2.3.652,24.709,24.709,0,0,1,.034,12.557c-.287,1.053-1.493,1.967-2.331,1.267l-3.885-2.331-3.925,1.309a13.7,13.7,0,0,0-1.44.585,26.148,26.148,0,0,1-9.722,2.376,28.715,28.715,0,0,1-11.463-1.574l-1.917-.677A22.067,22.067,0,0,1,8,178.99Z" transform="translate(-7.221 -120.834)" fill="#f9d467"/>
      <path id="Trazado_875642" data-name="Trazado 875642" d="M18.876,193.388l-.269-.42a18.027,18.027,0,0,0-5.117,4.118L8,203.49a22.067,22.067,0,0,0,9.608,6.682l1.917.677c.221.078.446.145.669.217l.239-.583c1.914-4.305,1.339-13.375-1.554-17.094Z" transform="translate(-7.221 -145.333)" fill="#e2c675"/>
      <circle id="Elipse_11601" data-name="Elipse 11601" cx="1.554" cy="1.554" r="1.554" transform="translate(7.77 54.558)" fill="#c3922e"/>
      <path id="Trazado_875643" data-name="Trazado 875643" d="M44.249,163.106a2.12,2.12,0,0,0-1.988.514l-3.375,2.024-5.233-3.734a18.82,18.82,0,0,0-16.066-3.624l-1.932.455a18.7,18.7,0,0,0-9.978,6.071L.187,171.22a.777.777,0,0,0-.007,1,22.851,22.851,0,0,0,9.946,6.915l1.917.676c.162.058.327.107.49.162a8.807,8.807,0,0,0,4.649,5.87,1.413,1.413,0,0,0,2.027-1.5l-.5-3.025a29.294,29.294,0,0,0,3.125.173q.991,0,1.986-.066a26.911,26.911,0,0,0,10-2.447,12.634,12.634,0,0,1,1.357-.552l3.586-1.2,3.533,2.12a1.8,1.8,0,0,0,1.7.29,2.931,2.931,0,0,0,1.83-1.992,25.362,25.362,0,0,0-.034-12.966,2.187,2.187,0,0,0-1.533-1.581Zm-31.726,15.23-1.88-.664A21.3,21.3,0,0,1,1.8,171.725l5.058-5.9a17.2,17.2,0,0,1,4.27-3.6c2.7,3.653,3.091,12.2,1.4,16.109Zm1.8,2.176q1.382.366,2.788.594a.625.625,0,0,0,0,.066l.524,3.151a7.255,7.255,0,0,1-3.312-3.805Zm30-3.27a1.4,1.4,0,0,1-.8.918.263.263,0,0,1-.287-.044.712.712,0,0,0-.1-.069l-3.885-2.331a.777.777,0,0,0-.646-.071l-3.925,1.309a14.1,14.1,0,0,0-1.522.617,25.426,25.426,0,0,1-9.445,2.305A27.758,27.758,0,0,1,14,178.81c1.8-4.338,1.385-13.169-1.49-17.312a17.345,17.345,0,0,1,3.505-1.243l1.932-.455a17.167,17.167,0,0,1,10.365.777,17.344,17.344,0,0,1,4.4,2.577L38.4,167.21a.777.777,0,0,0,.855.033l3.885-2.331a.794.794,0,0,0,.149-.117.584.584,0,0,1,.566-.183.65.65,0,0,1,.433.491,24.109,24.109,0,0,1,.03,12.144Z" transform="translate(0 -113.569)"/>
      <path id="Trazado_875644" data-name="Trazado 875644" d="M74.329,256.248a2.331,2.331,0,1,0,2.331,2.331A2.331,2.331,0,0,0,74.329,256.248Zm0,3.108a.777.777,0,1,1,.777-.777A.777.777,0,0,1,74.329,259.356Z" transform="translate(-65.005 -202.467)"/>
      <path id="Trazado_875645" data-name="Trazado 875645" d="M186.558,220.713a3.584,3.584,0,0,0-1.321-4.336.777.777,0,1,0-.863,1.293,2.026,2.026,0,0,1,.562,2.807.777.777,0,0,0,.215,1.078h0a2.026,2.026,0,0,1,.562,2.807.777.777,0,0,0,.215,1.078h0a2.026,2.026,0,0,1,.562,2.807.777.777,0,1,0,1.293.862,3.584,3.584,0,0,0-.445-4.512,3.586,3.586,0,0,0-.78-3.885Z" transform="translate(-166.154 -166.351)"/>
      <path id="Trazado_875646" data-name="Trazado 875646" d="M237.71,220.713a3.584,3.584,0,0,0-1.321-4.336.777.777,0,1,0-.863,1.293,2.026,2.026,0,0,1,.562,2.807.777.777,0,0,0,.215,1.078h0a2.026,2.026,0,0,1,.562,2.807.777.777,0,0,0,.215,1.078h0a2.026,2.026,0,0,1,.562,2.807.777.777,0,1,0,1.293.862,3.584,3.584,0,0,0-.445-4.512,3.586,3.586,0,0,0-.78-3.885Z" transform="translate(-212.338 -166.351)"/>
      <path id="Trazado_875647" data-name="Trazado 875647" d="M288.862,220.713a3.582,3.582,0,0,0-1.321-4.336.777.777,0,0,0-.863,1.293,2.026,2.026,0,0,1,.562,2.807.777.777,0,0,0,.215,1.078h0a2.026,2.026,0,0,1,.562,2.807.777.777,0,0,0,.215,1.078h0a2.026,2.026,0,0,1,.562,2.807.777.777,0,1,0,1.293.862,3.584,3.584,0,0,0-.445-4.512,3.586,3.586,0,0,0-.78-3.885Z" transform="translate(-258.522 -166.351)"/>
      <path id="Trazado_875648" data-name="Trazado 875648" d="M408.765,251.354a.777.777,0,0,0,.43-.131l2.331-1.554a.777.777,0,1,0-.863-1.293l-2.331,1.554a.777.777,0,0,0,.432,1.424Z" transform="translate(-368.361 -195.243)"/>
      <path id="Trazado_875649" data-name="Trazado 875649" d="M411.106,288.248h-2.331a.777.777,0,0,0,0,1.554h2.331a.777.777,0,1,0,0-1.554Z" transform="translate(-368.37 -231.359)"/>
      <path id="Trazado_875650" data-name="Trazado 875650" d="M411.341,321.061l-2.331-.777a.778.778,0,1,0-.491,1.476l2.331.777a.778.778,0,0,0,.491-1.476Z" transform="translate(-368.36 -260.248)"/>
      <path id="Trazado_875651" data-name="Trazado 875651" d="M160.156,41.042a.777.777,0,0,0,1.407.66q.011-.024.02-.048l.337-.786a5.2,5.2,0,0,0-.078-4.131,3.68,3.68,0,0,1-.048-2.843l.336-.786a.777.777,0,0,0-1.407-.66c-.007.016-.014.032-.02.048l-.336.786a5.2,5.2,0,0,0,.078,4.131,3.68,3.68,0,0,1,.048,2.843Z" transform="translate(-144.439 0)"/>
      <path id="Trazado_875652" data-name="Trazado 875652" d="M232.156,41.042a.777.777,0,0,0,1.407.66q.011-.024.02-.048l.337-.786a5.2,5.2,0,0,0-.078-4.131,3.68,3.68,0,0,1-.048-2.843l.336-.786a.777.777,0,0,0-1.407-.66q-.011.024-.021.048l-.336.786a5.2,5.2,0,0,0,.078,4.131,3.68,3.68,0,0,1,.048,2.843Z" transform="translate(-209.446 0)"/>
      <path id="Trazado_875653" data-name="Trazado 875653" d="M304.156,41.043a.777.777,0,1,0,1.407.66q.011-.024.02-.048l.337-.786a5.2,5.2,0,0,0-.078-4.131,3.68,3.68,0,0,1-.048-2.843l.336-.786a.777.777,0,1,0-1.407-.66q-.011.024-.02.048l-.336.786a5.194,5.194,0,0,0,.078,4.131,3.68,3.68,0,0,1,.048,2.843Z" transform="translate(-274.453 0)"/>
    </g>
  </g>
</svg>
