<svg xmlns="http://www.w3.org/2000/svg" width="87" height="87" viewBox="0 0 87 87">
  <g id="Grupo_1101884" data-name="Grupo 1101884" transform="translate(-1248.333 -433)">
    <g id="Grupo_1099416" data-name="Grupo 1099416" transform="translate(33 4)">
      <g id="Trazado_874164" data-name="Trazado 874164" transform="translate(1215.333 429)" fill="#f9a545">
        <path d="M 43.5 84.5 C 37.96393203735352 84.5 32.59478759765625 83.41632080078125 27.54171943664551 81.27903747558594 C 22.65975952148438 79.21414947509766 18.27479934692383 76.25756072998047 14.50862693786621 72.49137115478516 C 10.74244022369385 68.72519683837891 7.785853385925293 64.34024047851562 5.720960140228271 59.45827865600586 C 3.583679914474487 54.40521240234375 2.5 49.03606796264648 2.5 43.5 C 2.5 37.96393203735352 3.583679914474487 32.59478759765625 5.720960140228271 27.54171943664551 C 7.785853385925293 22.65975952148438 10.74244022369385 18.27479934692383 14.50862693786621 14.50862693786621 C 18.27479934692383 10.74244022369385 22.65975952148438 7.785853385925293 27.54171943664551 5.720960140228271 C 32.59478759765625 3.583679914474487 37.96393203735352 2.5 43.5 2.5 C 49.03606796264648 2.5 54.40521240234375 3.583679914474487 59.45827865600586 5.720960140228271 C 64.34024047851562 7.785853385925293 68.72519683837891 10.74244022369385 72.49137115478516 14.50862693786621 C 76.25756072998047 18.27479934692383 79.21414947509766 22.65975952148438 81.27903747558594 27.54171943664551 C 83.41632080078125 32.59478759765625 84.5 37.96393203735352 84.5 43.5 C 84.5 49.03606796264648 83.41632080078125 54.40521240234375 81.27903747558594 59.45827865600586 C 79.21414947509766 64.34024047851562 76.25756072998047 68.72519683837891 72.49137115478516 72.49137115478516 C 68.72519683837891 76.25756072998047 64.34024047851562 79.21414947509766 59.45827865600586 81.27903747558594 C 54.40521240234375 83.41632080078125 49.03606796264648 84.5 43.5 84.5 Z" stroke="none"/>
        <path d="M 43.5 5 C 38.30033874511719 5 33.25884628295898 6.017242431640625 28.51559829711914 8.023460388183594 C 23.93164443969727 9.962326049804688 19.81378173828125 12.73899841308594 16.27638244628906 16.27638244628906 C 12.73899841308594 19.81378173828125 9.962326049804688 23.93164443969727 8.023460388183594 28.51559829711914 C 6.017242431640625 33.25884628295898 5 38.30033874511719 5 43.5 C 5 48.69966125488281 6.017242431640625 53.74115371704102 8.023460388183594 58.48439788818359 C 9.962326049804688 63.06835174560547 12.73899841308594 67.18621826171875 16.27638244628906 70.72361755371094 C 19.81378173828125 74.26100158691406 23.93164443969727 77.03767395019531 28.51559829711914 78.97653961181641 C 33.25884628295898 80.98275756835938 38.30033874511719 82 43.5 82 C 48.69966125488281 82 53.74115371704102 80.98275756835938 58.48439788818359 78.97653961181641 C 63.06835174560547 77.03767395019531 67.18621826171875 74.26100158691406 70.72361755371094 70.72361755371094 C 74.26100158691406 67.18621826171875 77.03767395019531 63.06835174560547 78.97653961181641 58.48439788818359 C 80.98275756835938 53.74115371704102 82 48.69966125488281 82 43.5 C 82 38.30033874511719 80.98275756835938 33.25884628295898 78.97653961181641 28.51559829711914 C 77.03767395019531 23.93164443969727 74.26100158691406 19.81378173828125 70.72361755371094 16.27638244628906 C 67.18621826171875 12.73899841308594 63.06835174560547 9.962326049804688 58.48439788818359 8.023460388183594 C 53.74115371704102 6.017242431640625 48.69966125488281 5 43.5 5 M 43.5 0 C 67.52438354492188 0 87 19.47561645507812 87 43.5 C 87 67.52438354492188 67.52438354492188 87 43.5 87 C 19.47561645507812 87 0 67.52438354492188 0 43.5 C 0 19.47561645507812 19.47561645507812 0 43.5 0 Z" stroke="none" fill="#fff"/>
      </g>
    </g>
    <g id="smoothie_3414315" transform="translate(1270.97 452.786)">
      <path id="Trazado_874165" data-name="Trazado 874165" d="M4,14H21.585v5.862H4Z" transform="translate(-1.069 -3.475)" fill="#d2f3fd"/>
      <path id="Trazado_874166" data-name="Trazado 874166" d="M8.395,18.68A.733.733,0,0,0,7.611,18L4,18.259v1.469l3.716-.265a.733.733,0,0,0,.679-.783Z" transform="translate(-1.069 -4.543)" fill="#b9e4f2"/>
      <path id="Trazado_874167" data-name="Trazado 874167" d="M16.68,17.219a.733.733,0,0,0,.051,1.464l.053,0,8.008-.572V16.639Z" transform="translate(-4.276 -4.18)" fill="#b9e4f2"/>
      <rect id="Rectángulo_401506" data-name="Rectángulo 401506" width="21.982" height="29.309" rx="4" transform="translate(0.733 16.387)" fill="#fadcad"/>
      <path id="Trazado_874168" data-name="Trazado 874168" d="M26.457,22H24.969a3.65,3.65,0,0,1,1.488,2.931V48.378a3.65,3.65,0,0,1-1.488,2.931h1.488a2.931,2.931,0,0,0,2.931-2.931V24.931A2.931,2.931,0,0,0,26.457,22Z" transform="translate(-6.674 -5.613)" fill="#f5c27b"/>
      <path id="Trazado_874169" data-name="Trazado 874169" d="M13.5,2V5.664L17.164,2Z" transform="translate(-3.608 -0.267)" fill="#bae650"/>
      <path id="Trazado_874170" data-name="Trazado 874170" d="M13.5,17.793l3.664-3.664V9L13.5,12.664Z" transform="translate(-3.608 -2.138)" fill="#bae650"/>
      <path id="Trazado_874171" data-name="Trazado 874171" d="M13.5,10.793l3.664-3.664V2L13.5,5.664Z" transform="translate(-3.608 -0.267)" fill="#fff"/>
      <path id="Trazado_874172" data-name="Trazado 874172" d="M13.5,38.793l3.664-3.664V30L13.5,33.664Z" transform="translate(-3.608 -7.751)" fill="#fff"/>
      <path id="Trazado_874173" data-name="Trazado 874173" d="M13.5,52.793l3.664-3.664V44L13.5,47.664Z" transform="translate(-3.608 -11.493)" fill="#fff"/>
      <path id="Trazado_874174" data-name="Trazado 874174" d="M17.164,54.664V51L13.5,54.664Z" transform="translate(-3.608 -13.364)" fill="#bae650"/>
      <path id="Trazado_874175" data-name="Trazado 874175" d="M13.5,45.793l3.664-3.664V37L13.5,40.664Z" transform="translate(-3.608 -9.622)" fill="#bae650"/>
      <path id="Trazado_874176" data-name="Trazado 874176" d="M13.5,31.793l3.664-3.664V23L13.5,26.664Z" transform="translate(-3.608 -5.88)" fill="#bae650"/>
      <path id="Trazado_874177" data-name="Trazado 874177" d="M13.5,24.793l3.664-3.664V16L13.5,19.664Z" transform="translate(-3.608 -4.009)" fill="#fff"/>
      <path id="Trazado_874178" data-name="Trazado 874178" d="M12.628,30.829l-1.274-.478A13.9,13.9,0,0,0,1,30.59V50.374A2.931,2.931,0,0,0,3.931,53.3h16.12a2.931,2.931,0,0,0,2.931-2.931V30.59a13.9,13.9,0,0,1-10.354.239Z" transform="translate(-0.267 -7.608)" fill="#f5c27b"/>
      <path id="Trazado_874179" data-name="Trazado 874179" d="M22.982,32.276V51.124a2.931,2.931,0,0,1-2.931,2.931H3.931A2.931,2.931,0,0,1,1,51.124v-.381A40.218,40.218,0,0,0,22.982,32.276Z" transform="translate(-0.267 -8.359)" fill="#ecaf5b"/>
      <path id="Trazado_874180" data-name="Trazado 874180" d="M26.457,50.783a3.65,3.65,0,0,1-1.488,2.931h1.488a2.927,2.927,0,0,0,2.931-2.931V31a13.871,13.871,0,0,1-2.931.875Z" transform="translate(-6.674 -8.018)" fill="#ecaf5b"/>
      <path id="Trazado_874181" data-name="Trazado 874181" d="M24,14h2.931v5.862H24Z" transform="translate(-6.415 -3.475)" fill="#b9e4f2"/>
      <path id="Trazado_874182" data-name="Trazado 874182" d="M24,16.849v1.469l2.931-.209v-1.47Z" transform="translate(-6.415 -4.18)" fill="#a5d9f0"/>
      <circle id="Elipse_11585" data-name="Elipse 11585" cx="14.654" cy="14.654" r="14.654" transform="translate(16.853 16.387)" fill="#bae650"/>
      <path id="Trazado_874183" data-name="Trazado 874183" d="M46.55,45.55A14.654,14.654,0,0,1,27.2,46.762,14.654,14.654,0,1,0,47.762,26.2,14.654,14.654,0,0,1,46.55,45.55Z" transform="translate(-7.271 -6.736)" fill="#a0d12d"/>
      <path id="Trazado_874184" data-name="Trazado 874184" d="M52.664,38H49.733a.733.733,0,0,0,0,1.465h2.931a.733.733,0,1,0,0-1.465Z" transform="translate(-13.097 -9.889)"/>
      <g id="Grupo_1101883" data-name="Grupo 1101883" transform="translate(5.129 27.378)">
        <circle id="Elipse_11586" data-name="Elipse 11586" cx="0.733" cy="0.733" r="0.733" transform="translate(5.862 12.456)" fill="#fadcad"/>
        <circle id="Elipse_11587" data-name="Elipse 11587" cx="0.733" cy="0.733" r="0.733" transform="translate(7.694 4.396)" fill="#fadcad"/>
        <circle id="Elipse_11588" data-name="Elipse 11588" cx="0.733" cy="0.733" r="0.733" fill="#fadcad"/>
      </g>
      <path id="Trazado_874185" data-name="Trazado 874185" d="M42.388,20.161a15.286,15.286,0,0,0-8.713-4.33,6.747,6.747,0,0,0-.815-3.671,9.506,9.506,0,0,0,3.39-.99.733.733,0,1,0-.693-1.291,9.731,9.731,0,0,1-8.1,0,.733.733,0,1,0-.693,1.291,10.068,10.068,0,0,0,4.367,1.049A5.119,5.119,0,0,1,32.218,15.7a15.371,15.371,0,0,0-9,2.391,3.67,3.67,0,0,0-1.97-2.121V13.51l.785-.056a.733.733,0,0,0-.1-1.462l-.68.049V10.525a.733.733,0,0,0-.733-.733H14.288V1.733A.733.733,0,0,0,13.555,1H9.892a.733.733,0,0,0-.733.733v8.06H2.931a.733.733,0,0,0-.733.733V13.4l-.785.056a.733.733,0,0,0,.052,1.464l.053,0,.68-.049v1.094A3.666,3.666,0,0,0,0,19.318V42.765a3.668,3.668,0,0,0,3.664,3.664h16.12A3.654,3.654,0,0,0,23.216,44,15.383,15.383,0,0,0,42.388,20.161Zm-28.1-8.9h5.5v.888l-5.5.392Zm0,2.75,5.5-.392v2.039h-5.5Zm0,3.112h5.5a2.2,2.2,0,0,1,2.164,1.874,14.717,14.717,0,0,0-3.731,4.328,13.336,13.336,0,0,1-3.928-.293ZM10.624,2.465h1.162L10.624,3.627Zm0,3.234,2.2-2.2V6.558l-2.2,2.2Zm0,5.129,2.2-2.2v3.057l-2.2,2.2Zm0,5.129,2.2-2.2v3.057l-2.2,2.2Zm0,5.129,2.2-2.2v3.057l-.484.484-.994-.373c-.237-.089-.48-.155-.72-.231Zm-6.961-6.32,2.983-.213a.733.733,0,0,0-.1-1.462L3.664,13.3V11.258h5.5v4.4h-5.5Zm-2.2,4.551a2.2,2.2,0,0,1,2.2-2.2h5.5v4.32a14.512,14.512,0,0,0-7.694.486ZM19.783,44.963H3.664a2.2,2.2,0,0,1-2.2-2.2V23.489a13.094,13.094,0,0,1,9.364-.061l1.274.478a14.663,14.663,0,0,0,5.132.922c.072,0,.144-.01.216-.011a15.278,15.278,0,0,0,4.5,18.272,2.2,2.2,0,0,1-2.165,1.873Zm21.568-4.078a13.833,13.833,0,0,1-4.328,2.926L34.312,41.1V37.563l2.376-2.376a.733.733,0,1,0-1.036-1.036l-2.073,2.073-1.554-1.555A.733.733,0,1,0,30.989,35.7l1.858,1.858v3.109H29.435a.733.733,0,1,0,0,1.465h3.841l2.235,2.235A13.894,13.894,0,0,1,17.768,28.926h2.814L22.957,31.3a.733.733,0,1,0,1.036-1.036l-2.072-2.073,1.166-1.167a.733.733,0,1,0-1.036-1.036l-1.47,1.47H18.071A13.819,13.819,0,0,1,21.663,21.2c.306-.306.626-.589.953-.86l2.545,2.545a.732.732,0,0,0,.518.215h4.145a.733.733,0,1,0,0-1.465H25.981L23.8,19.449a13.906,13.906,0,0,1,7.708-2.323c.146,0,.291.016.437.021a4.872,4.872,0,0,1-.98,1.679.733.733,0,1,0,1.086.983,6.32,6.32,0,0,0,1.388-2.534,13.9,13.9,0,0,1,7.913,23.61Z"/>
    </g>
  </g>
</svg>
