<svg xmlns="http://www.w3.org/2000/svg" width="87" height="87" viewBox="0 0 87 87">
  <g id="Grupo_1101877" data-name="Grupo 1101877" transform="translate(-955.333 -165)">
    <g id="Trazado_874102" data-name="Trazado 874102" transform="translate(955.333 165)" fill="#869a8a">
      <path d="M 43.5 84.5 C 37.96393203735352 84.5 32.59478759765625 83.41632080078125 27.54171943664551 81.27903747558594 C 22.65975952148438 79.21414947509766 18.27479934692383 76.25756072998047 14.50862693786621 72.49137115478516 C 10.74244022369385 68.72519683837891 7.785853385925293 64.34024047851562 5.720960140228271 59.45827865600586 C 3.583679914474487 54.40521240234375 2.5 49.03606796264648 2.5 43.5 C 2.5 37.96393203735352 3.583679914474487 32.59478759765625 5.720960140228271 27.54171943664551 C 7.785853385925293 22.65975952148438 10.74244022369385 18.27479934692383 14.50862693786621 14.50862693786621 C 18.27479934692383 10.74244022369385 22.65975952148438 7.785853385925293 27.54171943664551 5.720960140228271 C 32.59478759765625 3.583679914474487 37.96393203735352 2.5 43.5 2.5 C 49.03606796264648 2.5 54.40521240234375 3.583679914474487 59.45827865600586 5.720960140228271 C 64.34024047851562 7.785853385925293 68.72519683837891 10.74244022369385 72.49137115478516 14.50862693786621 C 76.25756072998047 18.27479934692383 79.21414947509766 22.65975952148438 81.27903747558594 27.54171943664551 C 83.41632080078125 32.59478759765625 84.5 37.96393203735352 84.5 43.5 C 84.5 49.03606796264648 83.41632080078125 54.40521240234375 81.27903747558594 59.45827865600586 C 79.21414947509766 64.34024047851562 76.25756072998047 68.72519683837891 72.49137115478516 72.49137115478516 C 68.72519683837891 76.25756072998047 64.34024047851562 79.21414947509766 59.45827865600586 81.27903747558594 C 54.40521240234375 83.41632080078125 49.03606796264648 84.5 43.5 84.5 Z" stroke="none"/>
      <path d="M 43.5 5 C 38.30033874511719 5 33.25884628295898 6.017242431640625 28.51559829711914 8.023460388183594 C 23.93164443969727 9.962326049804688 19.81378173828125 12.73899841308594 16.27638244628906 16.27638244628906 C 12.73899841308594 19.81378173828125 9.962326049804688 23.93164443969727 8.023460388183594 28.51559829711914 C 6.017242431640625 33.25884628295898 5 38.30033874511719 5 43.5 C 5 48.69966125488281 6.017242431640625 53.74115371704102 8.023460388183594 58.48439788818359 C 9.962326049804688 63.06835174560547 12.73899841308594 67.18621826171875 16.27638244628906 70.72361755371094 C 19.81378173828125 74.26100158691406 23.93164443969727 77.03767395019531 28.51559829711914 78.97653961181641 C 33.25884628295898 80.98275756835938 38.30033874511719 82 43.5 82 C 48.69966125488281 82 53.74115371704102 80.98275756835938 58.48439788818359 78.97653961181641 C 63.06835174560547 77.03767395019531 67.18621826171875 74.26100158691406 70.72361755371094 70.72361755371094 C 74.26100158691406 67.18621826171875 77.03767395019531 63.06835174560547 78.97653961181641 58.48439788818359 C 80.98275756835938 53.74115371704102 82 48.69966125488281 82 43.5 C 82 38.30033874511719 80.98275756835938 33.25884628295898 78.97653961181641 28.51559829711914 C 77.03767395019531 23.93164443969727 74.26100158691406 19.81378173828125 70.72361755371094 16.27638244628906 C 67.18621826171875 12.73899841308594 63.06835174560547 9.962326049804688 58.48439788818359 8.023460388183594 C 53.74115371704102 6.017242431640625 48.69966125488281 5 43.5 5 M 43.5 0 C 67.52438354492188 0 87 19.47561645507812 87 43.5 C 87 67.52438354492188 67.52438354492188 87 43.5 87 C 19.47561645507812 87 0 67.52438354492188 0 43.5 C 0 19.47561645507812 19.47561645507812 0 43.5 0 Z" stroke="none" fill="#fff"/>
    </g>
    <g id="food_12401281" transform="translate(972.17 157.167)">
      <g id="Grupo_1101874" data-name="Grupo 1101874" transform="translate(0.781 28.319)">
        <g id="Grupo_1101873" data-name="Grupo 1101873">
          <g id="Grupo_1101869" data-name="Grupo 1101869" transform="translate(3.324)">
            <g id="Grupo_1101861" data-name="Grupo 1101861" transform="translate(24.992 3.145)">
              <path id="Trazado_874102-2" data-name="Trazado 874102" d="M280.26,70.821l.012.115.113-.024a6.578,6.578,0,0,1,1.382-.148.45.45,0,0,1,.449.449v1.8l.16-.1a11.3,11.3,0,0,1,10.473-.9c.011-.168.018-.338.018-.509,0-3.459-2.3-6.262-5.136-6.262a4.417,4.417,0,0,0-2.507.8,4.418,4.418,0,0,0-2.507-.8,4.617,4.617,0,0,0-3.344,1.512A18.287,18.287,0,0,1,280.26,70.821Z" transform="translate(-279.374 -65.241)" fill="#fe646f"/>
              <g id="Grupo_1101860" data-name="Grupo 1101860" transform="translate(6.801)">
                <path id="Trazado_874103" data-name="Trazado 874103" d="M346.227,65.239a4.282,4.282,0,0,0-1.558.3,6.2,6.2,0,0,1,3.569,5.665,11.3,11.3,0,0,1,3.106.812c.011-.168.018-.338.018-.509C351.363,68.043,349.063,65.239,346.227,65.239Z" transform="translate(-344.669 -65.239)" fill="#fd4755"/>
              </g>
            </g>
            <g id="Grupo_1101863" data-name="Grupo 1101863" transform="translate(27.835 8.929)">
              <path id="Trazado_874104" data-name="Trazado 874104" d="M306.673,129.131h17.28a11.44,11.44,0,0,0-17.28-6.5Z" transform="translate(-306.673 -120.767)" fill="#8bc727"/>
              <g id="Grupo_1101862" data-name="Grupo 1101862" transform="translate(0 0.16)">
                <path id="Trazado_874105" data-name="Trazado 874105" d="M311.048,125.991c0-1.067-.678-1.067-.678-2.135a1.948,1.948,0,0,1,.039-.4,11.371,11.371,0,0,0-3.736,1.585v6.5h3.907a2.125,2.125,0,0,0,.468-1.28c0-1.067-.678-1.067-.678-2.134s.678-1.067.678-2.135Z" transform="translate(-306.673 -123.337)" fill="#97d729"/>
                <path id="Trazado_874106" data-name="Trazado 874106" d="M385.171,129.231a2.117,2.117,0,0,1-.466,1.277h4.52a2.125,2.125,0,0,0,.468-1.28c0-1.067-.678-1.067-.678-2.134s.678-1.068.678-2.135a1.907,1.907,0,0,0-.045-.423,11.383,11.383,0,0,0-5.086-2.232,1.822,1.822,0,0,0-.069.521c0,1.068.678,1.068.678,2.135s-.678,1.068-.678,2.135S385.171,128.163,385.171,129.231Z" transform="translate(-376.388 -122.304)" fill="#97d729"/>
              </g>
            </g>
            <g id="Grupo_1101864" data-name="Grupo 1101864" transform="translate(0 10.99)">
              <path id="Trazado_874107" data-name="Trazado 874107" d="M53.073,142.245a4.667,4.667,0,0,0-3.505-1.687,4.417,4.417,0,0,0-2.507.8,4.418,4.418,0,0,0-2.507-.8c-2.836,0-5.136,2.8-5.136,6.262,0,.013,0,.027,0,.04H53.073Z" transform="translate(-39.418 -140.558)" fill="#fe646f"/>
              <path id="Trazado_874108" data-name="Trazado 874108" d="M50.739,142.142v2.8a1.041,1.041,0,0,1-1.042,1.042H39.764a7.465,7.465,0,0,0-.346,2.258c0,.013,0,.027,0,.04H53.073v-4.615A4.921,4.921,0,0,0,50.739,142.142Z" transform="translate(-39.418 -141.977)" fill="#fd4755"/>
            </g>
            <g id="Grupo_1101868" data-name="Grupo 1101868" transform="translate(13.551)">
              <g id="Grupo_1101865" data-name="Grupo 1101865" transform="translate(1.946 0)">
                <path id="Trazado_874109" data-name="Trazado 874109" d="M193.363,50.245h.208a6.547,6.547,0,0,1,5.143-6.385c-.515-5.039-2.669-8.819-5.247-8.819s-4.732,3.78-5.247,8.819A6.546,6.546,0,0,1,193.363,50.245Z" transform="translate(-188.22 -35.04)" fill="#ffe177"/>
              </g>
              <g id="Grupo_1101866" data-name="Grupo 1101866" transform="translate(4.942)">
                <path id="Trazado_874110" data-name="Trazado 874110" d="M222.063,44.939a6.51,6.51,0,0,1,2.418-1.081c-.515-5.039-2.669-8.819-5.247-8.819a3.259,3.259,0,0,0-2.252,1.027C219.4,36.675,221.375,40.224,222.063,44.939Z" transform="translate(-216.982 -35.039)" fill="#ffd15b"/>
              </g>
              <g id="Grupo_1101867" data-name="Grupo 1101867" transform="translate(0 8.564)">
                <path id="Trazado_874111" data-name="Trazado 874111" d="M176.726,126v-2.087a6.64,6.64,0,0,0-6.64-6.64.553.553,0,0,0-.553.553V126h7.194Z" transform="translate(-169.532 -117.271)" fill="#97d729"/>
                <path id="Trazado_874112" data-name="Trazado 874112" d="M174.379,132.41v3.811a1.041,1.041,0,0,1-1.042,1.042h-3.806v2.3h7.194v-2.087A6.625,6.625,0,0,0,174.379,132.41Z" transform="translate(-169.532 -130.833)" fill="#8bc727"/>
                <path id="Trazado_874113" data-name="Trazado 874113" d="M245.8,126v-8.174a.553.553,0,0,0-.553-.553,6.64,6.64,0,0,0-6.64,6.64V126H245.8Z" transform="translate(-231.408 -117.27)" fill="#97d729"/>
                <path id="Trazado_874114" data-name="Trazado 874114" d="M245.242,117.271a6.64,6.64,0,0,0-1.8.249v5.138A1.041,1.041,0,0,1,242.4,123.7h-3.793c0,.07-.005.14-.005.211V126H245.8v-8.174A.553.553,0,0,0,245.242,117.271Z" transform="translate(-231.408 -117.271)" fill="#8bc727"/>
              </g>
            </g>
          </g>
          <path id="Trazado_874115" data-name="Trazado 874115" d="M31,294.1H77.868v5.572H31Z" transform="translate(-28.552 -267.119)" fill="#ea9b58"/>
          <path id="Trazado_874116" data-name="Trazado 874116" d="M445.5,294.1h3.7v5.572h-3.7Z" transform="translate(-399.882 -267.119)" fill="#d88a55"/>
          <path id="Trazado_874117" data-name="Trazado 874117" d="M58.221,209.967H8.542A1.041,1.041,0,0,1,7.5,208.926v-7.814a1.041,1.041,0,0,1,1.042-1.042h49.68a1.041,1.041,0,0,1,1.042,1.042v7.814A1.042,1.042,0,0,1,58.221,209.967Z" transform="translate(-7.5 -182.882)" fill="#f6a96c"/>
          <g id="Grupo_1101870" data-name="Grupo 1101870" transform="translate(48.065 17.188)">
            <path id="Trazado_874118" data-name="Trazado 874118" d="M471.656,200.07H469v9.9h2.656a1.041,1.041,0,0,0,1.042-1.042v-7.814A1.042,1.042,0,0,0,471.656,200.07Z" transform="translate(-469 -200.07)" fill="#ea9b58"/>
          </g>
          <path id="Trazado_874119" data-name="Trazado 874119" d="M58.221,356.492H8.542A1.041,1.041,0,0,1,7.5,355.451v-7.814A1.041,1.041,0,0,1,8.542,346.6h49.68a1.041,1.041,0,0,1,1.042,1.042v7.814A1.041,1.041,0,0,1,58.221,356.492Z" transform="translate(-7.5 -314.146)" fill="#f6a96c"/>
          <path id="Trazado_874120" data-name="Trazado 874120" d="M58.221,346.6H55.565v5.77a1.041,1.041,0,0,1-1.042,1.042H7.5v2.044a1.041,1.041,0,0,0,1.042,1.042h49.68a1.041,1.041,0,0,0,1.042-1.042v-7.814A1.041,1.041,0,0,0,58.221,346.6Z" transform="translate(-7.5 -314.146)" fill="#ea9b58"/>
          <g id="Grupo_1101872" data-name="Grupo 1101872" transform="translate(11.118 20.972)">
            <path id="Trazado_874121" data-name="Trazado 874121" d="M126.214,237.954l-11.466,18.47a3.292,3.292,0,0,0,2.8,5.029h22.932a3.292,3.292,0,0,0,2.8-5.029l-11.466-18.47A3.293,3.293,0,0,0,126.214,237.954Z" transform="translate(-114.247 -236.398)" fill="#ffe177"/>
            <path id="Trazado_874122" data-name="Trazado 874122" d="M131.855,237.954a3.3,3.3,0,0,0-4.539-1.062l11.829,19.055a1.562,1.562,0,0,1-1.327,2.386H114.3a3.294,3.294,0,0,0,3.292,3.12h22.932a3.292,3.292,0,0,0,2.8-5.029Z" transform="translate(-114.295 -236.398)" fill="#ffd15b"/>
            <g id="Grupo_1101871" data-name="Grupo 1101871" transform="translate(13.131 6.464)">
              <path id="Trazado_874123" data-name="Trazado 874123" d="M243.068,306.685h-2.224a.521.521,0,0,1-.521-.521v-7.183a.521.521,0,0,1,.521-.521h2.224a.521.521,0,0,1,.521.521v7.183A.521.521,0,0,1,243.068,306.685Z" transform="translate(-240.323 -298.461)" fill="#fe646f"/>
              <path id="Trazado_874124" data-name="Trazado 874124" d="M243.068,409.719h-2.224a.521.521,0,0,1-.521-.521v-2.224a.521.521,0,0,1,.521-.521h2.224a.521.521,0,0,1,.521.521V409.2A.521.521,0,0,1,243.068,409.719Z" transform="translate(-240.323 -395.206)" fill="#fe646f"/>
            </g>
          </g>
        </g>
      </g>
      <g id="Grupo_1101875" data-name="Grupo 1101875" transform="translate(0 27.538)">
        <path id="Trazado_874125" data-name="Trazado 874125" d="M248.973,97.047a.781.781,0,1,0,0-1.562h-.131a.781.781,0,0,0,0,1.562Z" transform="translate(-222.225 -88.408)"/>
        <path id="Trazado_874126" data-name="Trazado 874126" d="M213.8,97.047a.781.781,0,0,0,0-1.562h-.131a.781.781,0,0,0,0,1.562Z" transform="translate(-190.714 -88.408)"/>
        <path id="Trazado_874127" data-name="Trazado 874127" d="M230.13,69.409a.781.781,0,0,0,0-1.562H230a.781.781,0,0,0,0,1.562Z" transform="translate(-205.345 -63.649)"/>
        <path id="Trazado_874128" data-name="Trazado 874128" d="M236.349,290.961h-2.224a1.3,1.3,0,0,0-1.3,1.3v7.182a1.3,1.3,0,0,0,1.3,1.3h2.224a1.3,1.3,0,0,0,1.3-1.3v-7.182A1.3,1.3,0,0,0,236.349,290.961Zm-.26,8.224h-1.7v-6.662h1.7Z" transform="translate(-208.574 -263.525)"/>
        <path id="Trazado_874129" data-name="Trazado 874129" d="M236.349,398.954h-2.224a1.3,1.3,0,0,0-1.3,1.3v2.224a1.3,1.3,0,0,0,1.3,1.3h2.224a1.3,1.3,0,0,0,1.3-1.3v-2.224A1.3,1.3,0,0,0,236.349,398.954Zm-.26,3.265h-1.7v-1.7h1.7Z" transform="translate(-208.574 -360.271)"/>
        <path id="Trazado_874130" data-name="Trazado 874130" d="M35.885,224.085h-.1a.781.781,0,1,0,0,1.562h.1a.781.781,0,1,0,0-1.562Z" transform="translate(-31.355 -203.615)"/>
        <path id="Trazado_874131" data-name="Trazado 874131" d="M35.885,256.085h-.1a.781.781,0,0,0,0,1.562h.1a.781.781,0,0,0,0-1.562Z" transform="translate(-31.355 -232.282)"/>
        <path id="Trazado_874132" data-name="Trazado 874132" d="M461.781,225.647h.1a.781.781,0,0,0,0-1.562h-.1a.781.781,0,0,0,0,1.562Z" transform="translate(-412.987 -203.615)"/>
        <path id="Trazado_874133" data-name="Trazado 874133" d="M461.781,257.647h.1a.781.781,0,0,0,0-1.562h-.1a.781.781,0,0,0,0,1.562Z" transform="translate(-412.987 -232.282)"/>
        <path id="Trazado_874134" data-name="Trazado 874134" d="M35.781,372.172h.1a.781.781,0,0,0,0-1.562h-.1a.781.781,0,0,0,0,1.562Z" transform="translate(-31.355 -334.879)"/>
        <path id="Trazado_874135" data-name="Trazado 874135" d="M35.885,402.61h-.1a.781.781,0,0,0,0,1.562h.1a.781.781,0,0,0,0-1.562Z" transform="translate(-31.355 -363.546)"/>
        <path id="Trazado_874136" data-name="Trazado 874136" d="M461.781,372.172h.1a.781.781,0,0,0,0-1.562h-.1a.781.781,0,0,0,0,1.562Z" transform="translate(-412.987 -334.879)"/>
        <path id="Trazado_874137" data-name="Trazado 874137" d="M461.781,404.172h.1a.781.781,0,0,0,0-1.562h-.1a.781.781,0,0,0,0,1.562Z" transform="translate(-412.987 -363.546)"/>
        <path id="Trazado_874138" data-name="Trazado 874138" d="M51.5,56.186a1.825,1.825,0,0,0,1.823-1.823V46.549A1.825,1.825,0,0,0,51.5,44.726H49.759a12.256,12.256,0,0,0-6.389-7.116c-.053-3.83-2.685-6.927-5.914-6.927a5.069,5.069,0,0,0-1.726.308v-1.7a.781.781,0,0,0-1.562,0v1.7a5.069,5.069,0,0,0-1.726-.308,5.213,5.213,0,0,0-2.93.925,11.312,11.312,0,0,0-.611-1.2c-1.1-1.851-2.535-2.87-4.05-2.87a4.678,4.678,0,0,0-3.781,2.447.781.781,0,1,0,1.3.867A3.351,3.351,0,0,1,24.85,29.1c1.952,0,3.781,3.119,4.376,7.357a7.458,7.458,0,0,0-4.376,3.758,7.457,7.457,0,0,0-4.376-3.758A18.13,18.13,0,0,1,21,33.969a.781.781,0,1,0-1.5-.432,19.6,19.6,0,0,0-.554,2.6c-.241-.024-.484-.036-.731-.036a1.336,1.336,0,0,0-1.334,1.334v1.818a5.15,5.15,0,0,0-2.62-.727,5.069,5.069,0,0,0-1.726.308v-1.7a.781.781,0,0,0-1.562,0v1.7a5.068,5.068,0,0,0-1.726-.308,5.45,5.45,0,0,0-4.215,2.1,7.607,7.607,0,0,0-1.657,4.1H1.823A1.825,1.825,0,0,0,0,46.548v7.815a1.825,1.825,0,0,0,1.823,1.823h.625v3.8H1.823A1.825,1.825,0,0,0,0,61.81v7.814a1.825,1.825,0,0,0,1.823,1.823h9.313a4.1,4.1,0,0,0,.5,1.587,4.024,4.024,0,0,0,3.56,2.093H38.129a4.024,4.024,0,0,0,3.56-2.093,4.1,4.1,0,0,0,.5-1.587H51.5a1.825,1.825,0,0,0,1.823-1.823V61.81A1.825,1.825,0,0,0,51.5,59.987h-.625v-3.8ZM45.564,41.549a3.945,3.945,0,0,0,.207-.355,10.773,10.773,0,0,1,2.32,3.533H46a2.889,2.889,0,0,0,.026-.394,2.5,2.5,0,0,0-.461-1.486,1.076,1.076,0,0,1,0-1.3Zm-1.319,2.135a.99.99,0,0,1,.217.648.914.914,0,0,1-.071.394H41.478a2.889,2.889,0,0,0,.026-.392,2.5,2.5,0,0,0-.461-1.486,1.077,1.077,0,0,1,0-1.3,2.628,2.628,0,0,0,0-2.973c-.047-.075-.086-.137-.118-.2a10.456,10.456,0,0,1,1.32.444.778.778,0,0,0,.083.033,10.629,10.629,0,0,1,2.135,1.209.991.991,0,0,1-.217.645,2.626,2.626,0,0,0,0,2.973ZM30.081,33.129a3.684,3.684,0,0,1,2.36-.883,3.612,3.612,0,0,1,2.066.661.781.781,0,0,0,.882,0,3.612,3.612,0,0,1,2.066-.661c2.2,0,4.03,2.072,4.315,4.75a12.251,12.251,0,0,0-8.945.718v-.276A1.336,1.336,0,0,0,31.491,36.1c-.247,0-.491.013-.732.036A19.292,19.292,0,0,0,30.081,33.129Zm9.644,10.557a.99.99,0,0,1,.217.648.913.913,0,0,1-.071.392h-2.8a2.889,2.889,0,0,0,.026-.394,2.5,2.5,0,0,0-.461-1.486,1.076,1.076,0,0,1,0-1.3,2.627,2.627,0,0,0,0-2.973,1.2,1.2,0,0,1-.193-.4,10.685,10.685,0,0,1,1.759-.147c.359,0,.715.02,1.067.054a2.5,2.5,0,0,0,.457,1.333,1.077,1.077,0,0,1,0,1.3,2.627,2.627,0,0,0,0,2.972Zm-4.408,0a.99.99,0,0,1,.217.648.911.911,0,0,1-.072.394H32.825v-5.24a10.615,10.615,0,0,1,2.1-.94,2.649,2.649,0,0,0,.394.868,1.077,1.077,0,0,1,0,1.3,2.626,2.626,0,0,0,0,2.972Zm-4.054-6.014v7.057H25.632v-1.2A5.866,5.866,0,0,1,31.263,37.669Zm-12.825,0a5.866,5.866,0,0,1,5.631,5.855v1.2H18.438Zm-9.2,2.421a3.612,3.612,0,0,1,2.066.661.781.781,0,0,0,.882,0,3.612,3.612,0,0,1,2.066-.661,3.8,3.8,0,0,1,2.62,1.114v3.522H4.94c.326-2.619,2.138-4.636,4.3-4.636ZM4.01,56.186h6.614a.781.781,0,1,0,0-1.562h-8.8a.261.261,0,0,1-.26-.26V46.549a.261.261,0,0,1,.26-.26H51.5a.261.261,0,0,1,.26.26v7.814a.261.261,0,0,1-.26.26H32.724l-2.6-4.189a4.073,4.073,0,0,0-6.922,0l-2.6,4.189H14.269a.781.781,0,1,0,0,1.562h5.363l-2.36,3.8H4.01ZM1.562,69.624V61.81a.261.261,0,0,1,.26-.26H16.3L11.736,68.9a4.159,4.159,0,0,0-.445.979H1.823a.261.261,0,0,1-.26-.26Zm38.761,2.65a2.481,2.481,0,0,1-2.195,1.291H15.2a2.511,2.511,0,0,1-2.134-3.836l11.466-18.47a2.511,2.511,0,0,1,4.267,0l11.466,18.47A2.48,2.48,0,0,1,40.323,72.274Zm8.992-12.287H44.993a.781.781,0,0,0,0,1.562H51.5a.261.261,0,0,1,.26.26v7.814a.261.261,0,0,1-.26.26H42.035a4.157,4.157,0,0,0-.445-.979l-4.566-7.356h4.325a.781.781,0,0,0,0-1.562H36.053l-2.36-3.8H49.315Z" transform="translate(0 -27.538)"/>
      </g>
    </g>
  </g>
</svg>
