<svg id="reshot-icon-dishes-TBDKN36ULZ" xmlns="http://www.w3.org/2000/svg" width="41.428" height="41.428" viewBox="0 0 41.428 41.428">
  <path id="Trazado_873628" data-name="Trazado 873628" d="M254.019,8.285v.785a.786.786,0,0,1-.788.785H253.1l-.261,7.282a1.569,1.569,0,0,1-.406,1l-1.039,1.146-1.681,27.695a.787.787,0,0,1-.786.738h-11.9a.787.787,0,0,1-.786-.741l-1.578-27.692-1.1-1.134a1.569,1.569,0,0,1-.444-1.045l-.23-7.246h-.123a.786.786,0,0,1-.788-.785V8.285a.786.786,0,0,1,.788-.785h20.477A.786.786,0,0,1,254.019,8.285Z" transform="translate(-213.198 -6.893)" fill="#c1e9fd"/>
  <path id="Trazado_873629" data-name="Trazado 873629" d="M254.019,8.286v.785a.786.786,0,0,1-.788.785H253.1l-.261,7.282a1.569,1.569,0,0,1-.406,1l-1.039,1.146-1.681,27.695a.787.787,0,0,1-.786.738h-2.466a.787.787,0,0,0,.786-.738l1.681-27.695,1.039-1.146a1.57,1.57,0,0,0,.406-1l.208-5.809a1.421,1.421,0,0,0-1.42-1.472H232.755a.786.786,0,0,1-.788-.785V8.286a.786.786,0,0,1,.788-.785h20.477A.786.786,0,0,1,254.019,8.286Z" transform="translate(-213.198 -6.894)" fill="#a4e0f7"/>
  <path id="Trazado_873630" data-name="Trazado 873630" d="M20.889,13.649V14.7a6.149,6.149,0,0,1-6.149,6.149h-1.09A6.149,6.149,0,0,1,7.5,14.7V7.5h7.239A6.149,6.149,0,0,1,20.889,13.649Z" transform="translate(-6.893 -6.893)" fill="#8eb55e"/>
  <path id="Trazado_873631" data-name="Trazado 873631" d="M21.676,183.322a14.138,14.138,0,1,1,14.176-14.138A14.157,14.157,0,0,1,21.676,183.322Z" transform="translate(-6.893 -142.501)" fill="#f9e1a2"/>
  <path id="Trazado_873632" data-name="Trazado 873632" d="M84.3,240.275a8.64,8.64,0,1,1,8.663-8.64A8.651,8.651,0,0,1,84.3,240.275Z" transform="translate(-69.513 -204.953)" fill="#eacc8f"/>
  <path id="Trazado_873633" data-name="Trazado 873633" d="M182.108,231.637a8.651,8.651,0,0,1-8.663,8.64c-.275,0-.546-.013-.815-.038a8.637,8.637,0,0,0,0-17.2c.268-.025.54-.038.815-.038A8.651,8.651,0,0,1,182.108,231.637Z" transform="translate(-158.662 -204.954)" fill="#d8b77c"/>
  <path id="Trazado_873634" data-name="Trazado 873634" d="M32.192,37.343a.607.607,0,0,1-.582-.631L32.4,17.077a.607.607,0,0,1,1.213.049l-.788,19.636a.607.607,0,0,1-.606.582ZM40.033,0H19.557a1.4,1.4,0,0,0-1.394,1.392v.785A1.4,1.4,0,0,0,19.09,3.49l.214,6.739a2.171,2.171,0,0,0,.616,1.449l.946.972.035.606a14.746,14.746,0,0,0-6.118-1.317,14.936,14.936,0,0,0-1.84.114L10.822,9.937v-3a.607.607,0,1,0-1.214,0V8.727L7.776,6.9V4.692a.607.607,0,0,0-1.214,0v1L3.241,2.376a.607.607,0,1,0-.857.859L5.719,6.562H4.429a.607.607,0,1,0,0,1.214H6.936L8.747,9.582H6.619a.607.607,0,1,0,0,1.214H9.964l1.517,1.513A14.749,14.749,0,1,0,26.823,35.23l.061,1.531a.607.607,0,1,0,1.213-.049l-.134-3.354a14.7,14.7,0,0,0-.587-14.4c0-.012,0-.023,0-.035l-.066-1.84a.607.607,0,0,0-1.213.044l0,.071a14.95,14.95,0,0,0-1.194-1.256.607.607,0,0,0-.83.886,13.386,13.386,0,0,1,4.277,9.861A13.551,13.551,0,1,1,22.62,15.636a.607.607,0,0,0,.7-.991q-.569-.4-1.167-.746L22.1,13h9.641a.607.607,0,0,0,0-1.214H21.716l-.926-.951a.96.96,0,0,1-.273-.64l-.211-6.62H34.472a.607.607,0,1,0,0-1.214H19.557a.18.18,0,0,1-.181-.179V1.392a.18.18,0,0,1,.181-.179H40.033a.18.18,0,0,1,.181.179v.785a.18.18,0,0,1-.181.179h-3.2a.607.607,0,1,0,0,1.214h2.437l-.238,6.653a.963.963,0,0,1-.249.612l-1.039,1.146a.607.607,0,0,0-.156.371L35.908,40.046a.18.18,0,0,1-.18.168h-11.9a.18.18,0,0,1-.18-.168.607.607,0,1,0-1.212.069,1.394,1.394,0,0,0,1.392,1.313h11.9a1.4,1.4,0,0,0,1.392-1.308l1.668-27.482.9-.988a2.178,2.178,0,0,0,.563-1.383l.243-6.773a1.4,1.4,0,0,0,.939-1.316V1.392A1.4,1.4,0,0,0,40.033,0ZM5.159,14.41a.607.607,0,1,0,.262-1.185A5.4,5.4,0,0,1,1.214,7.99V1.214h6.8a5.377,5.377,0,0,1,5.379,5.362V7.99a5.327,5.327,0,0,1-.353,1.915.607.607,0,1,0,1.133.435A6.533,6.533,0,0,0,14.6,7.99V6.576A6.592,6.592,0,0,0,8.01,0H.607A.607.607,0,0,0,0,.607V7.99a6.582,6.582,0,0,0,5.159,6.42ZM17.543,31.042a.607.607,0,1,0,.781.929,6.71,6.71,0,0,0,0-10.575.607.607,0,0,0-.781.929,5.5,5.5,0,0,1,0,8.717Zm-7.3,2.28a.607.607,0,0,0-.683,1,9.251,9.251,0,1,0-1.691-1.48.607.607,0,0,0,.9-.81,8.053,8.053,0,1,1,1.47,1.287Z"/>
</svg>
