<svg xmlns="http://www.w3.org/2000/svg" xmlns:xlink="http://www.w3.org/1999/xlink" width="295" height="405" viewBox="0 0 295 405">
  <defs>
    <clipPath id="clip-path">
      <rect id="Rectángulo_401507" data-name="Rectángulo 401507" width="295" height="405" transform="translate(1125.051 3871)" fill="#fff" stroke="#707070" stroke-width="1"/>
    </clipPath>
    <clipPath id="clip-path-2">
      <rect id="Rectángulo_401302" data-name="Rectángulo 401302" width="32.302" height="27.979" fill="#5f6e62"/>
    </clipPath>
    <clipPath id="clip-path-3">
      <rect id="Rectángulo_401302-2" data-name="Rectángulo 401302" width="27.777" height="24.06" transform="translate(0 0)" fill="#5f6e62"/>
    </clipPath>
    <clipPath id="clip-path-4">
      <rect id="Rectángulo_401302-3" data-name="Rectángulo 401302" width="35.67" height="30.896" transform="translate(0)" fill="#5f6e62"/>
    </clipPath>
    <clipPath id="clip-path-5">
      <rect id="Rectángulo_401348" data-name="Rectángulo 401348" width="270.724" height="485.714" fill="none"/>
    </clipPath>
    <clipPath id="clip-path-6">
      <path id="Trazado_873616" data-name="Trazado 873616" d="M143.661,155.472H2.1c-1.159,0-2.1-2.609-2.1-5.826V5.826C0,2.609.939,0,2.1,0H143.661c1.159,0,2.1,2.609,2.1,5.826V149.646C145.759,152.864,144.82,155.472,143.661,155.472Z" fill="#297929" stroke="#707070" stroke-width="1"/>
    </clipPath>
    <radialGradient id="radial-gradient" cx="0.5" cy="0.5" r="0.5" gradientUnits="objectBoundingBox">
      <stop offset="0" stop-color="#fff" stop-opacity="0"/>
      <stop offset="1" stop-color="#f9a545"/>
    </radialGradient>
  </defs>
  <g id="Enmascarar_grupo_1098693" data-name="Enmascarar grupo 1098693" transform="translate(-1125.051 -3871)" clip-path="url(#clip-path)">
    <g id="Grupo_1099414" data-name="Grupo 1099414" transform="translate(934.218 1403.809)">
      <g id="Grupo_1099412" data-name="Grupo 1099412" transform="translate(5 669.703)">
        <ellipse id="Elipse_11526" data-name="Elipse 11526" cx="125" cy="125.5" rx="125" ry="125.5" transform="translate(230.781 1834.297)" fill="#dcc366"/>
        <path id="Rectángulo_401329" data-name="Rectángulo 401329" d="M200,0h55a0,0,0,0,1,0,0V453a0,0,0,0,1,0,0H0a0,0,0,0,1,0,0V200A200,200,0,0,1,200,0Z" transform="translate(194.781 1815.297)" fill="#5f6e62"/>
        <g id="Grupo_1099382" data-name="Grupo 1099382" transform="translate(272.853 2163.358)">
          <path id="Trazado_873222" data-name="Trazado 873222" d="M-11400.342-11385.93s37.675-73.634,108.865-89.175" transform="translate(11400.342 11489.822)" fill="none" stroke="#869a8a" stroke-width="2"/>
          <g id="Grupo_1099331" data-name="Grupo 1099331" transform="translate(69.682 58.81) rotate(130)">
            <g id="Grupo_1099328" data-name="Grupo 1099328" transform="translate(0 0)" clip-path="url(#clip-path-2)">
              <path id="Trazado_873219" data-name="Trazado 873219" d="M31.068,27.045s-20.9-38.059-29.85-23.88c0,0-10.448,14.179,29.85,23.88" transform="translate(1.233 0.628)" fill="#5f6e62"/>
              <path id="Trazado_873220" data-name="Trazado 873220" d="M23.85,18.649c-3.239-3.007-7.963-7.433-11.313-10.216C8.627,5.276,4.694,1.9,0,0L.075.022C.269.075.455.134.642.2.709.224.784.254.866.284c4.552,1.507,8.448,4.6,12.149,7.574A97.978,97.978,0,0,1,23.85,18.649" transform="translate(8.452 9.025)" fill="#5f6e62"/>
              <path id="Trazado_873221" data-name="Trazado 873221" d="M32.179,27.979l-.821-.2C19.049,24.818,3.714,19.472.564,10.835A8.272,8.272,0,0,1,1.3,3.317C2.721,1.058,4.567-.069,6.755,0,16.876.313,31.17,26.139,31.774,27.239ZM6.567.747c-1.861,0-3.386.98-4.656,2.991a7.673,7.673,0,0,0-.64,6.86c1.664,4.531,8.137,11,29.427,16.254C28.234,22.539,15.5,1.017,6.732.749l-.165,0" transform="translate(0 0.001)" fill="#5f6e62"/>
            </g>
          </g>
          <g id="Grupo_1099332" data-name="Grupo 1099332" transform="matrix(0.309, 0.951, -0.951, 0.309, 52.035, 22.063)">
            <g id="Grupo_1099328-2" data-name="Grupo 1099328" transform="translate(0 0)" clip-path="url(#clip-path-3)">
              <path id="Trazado_873219-2" data-name="Trazado 873219" d="M26.716,23.256S8.748-9.471,1.048,2.721c0,0-8.984,12.192,25.668,20.535" transform="translate(1.06 0.54)" fill="#5f6e62"/>
              <path id="Trazado_873220-2" data-name="Trazado 873220" d="M20.509,16.036c-2.785-2.586-6.847-6.391-9.728-8.785C7.418,4.537,4.036,1.636,0,0L.064.019c.167.045.327.1.488.154C.61.193.674.218.744.244,4.659,1.54,8.009,4.2,11.191,6.757a84.253,84.253,0,0,1,9.318,9.279" transform="translate(7.268 7.76)" fill="#5f6e62"/>
              <path id="Trazado_873221-2" data-name="Trazado 873221" d="M27.672,24.059l-.706-.169C16.381,21.341,3.194,16.744.485,9.317a7.113,7.113,0,0,1,.63-6.465A5.26,5.26,0,0,1,5.809,0c8.7.266,20.994,22.475,21.513,23.42ZM5.647.642a4.664,4.664,0,0,0-4,2.572,6.6,6.6,0,0,0-.551,5.9c1.431,3.9,7,9.462,25.3,13.977C24.279,19.382,13.33.875,5.789.644l-.142,0" transform="translate(0 0.001)" fill="#5f6e62"/>
            </g>
          </g>
          <g id="Grupo_1099333" data-name="Grupo 1099333" transform="matrix(-0.616, 0.788, -0.788, -0.616, 119.181, 19.022)">
            <g id="Grupo_1099328-3" data-name="Grupo 1099328" transform="translate(0 0)" clip-path="url(#clip-path-4)">
              <path id="Trazado_873219-3" data-name="Trazado 873219" d="M34.307,29.864S11.234-12.162,1.345,3.495c0,0-11.537,15.657,32.962,26.369" transform="translate(1.361 0.693)" fill="#5f6e62"/>
              <path id="Trazado_873220-3" data-name="Trazado 873220" d="M26.336,20.593c-3.576-3.321-8.793-8.207-12.493-11.281C9.526,5.826,5.183,2.1,0,0L.082.025C.3.082.5.148.709.222.783.247.865.28.956.313,5.983,1.978,10.284,5.4,14.371,8.677A108.191,108.191,0,0,1,26.336,20.593" transform="translate(9.333 9.965)" fill="#5f6e62"/>
              <path id="Trazado_873221-3" data-name="Trazado 873221" d="M35.534,30.9l-.906-.218C21.035,27.4,4.1,21.5.622,11.965a9.135,9.135,0,0,1,.808-8.3C3,1.168,5.043-.076,7.46,0c11.176.342,26.959,28.86,27.626,30.074ZM7.252.824c-2.055,0-3.739,1.082-5.141,3.3A8.473,8.473,0,0,0,1.4,11.7c1.838,5,8.985,12.151,32.495,17.948C31.177,24.889,17.117,1.123,7.434.827l-.182,0" transform="translate(0 0.001)" fill="#5f6e62"/>
            </g>
          </g>
        </g>
      </g>
      <g id="Grupo_1099411" data-name="Grupo 1099411" transform="translate(215.058 2452.505)">
        <g id="Grupo_1099410" data-name="Grupo 1099410" transform="translate(0 -0.001)" clip-path="url(#clip-path-5)">
          <path id="Trazado_873530" data-name="Trazado 873530" d="M253.442,120.22c-9.723,1.691-18.6,0-27.9-4.65-12.388-6.194-29.171-32.342-15.22-52s2.329-21.5,6.342-34.878C222.369,9.667,238.223,2.057,262.32.155s27.636,14.279,38.048,11.415c8.455-2.325,15.22,0,23.252,5.073,15.374,9.71,9.724,20.927,11.626,30.439s7.8,10.9,6.976,20.293c-1.9,21.561-13.323,20.046-14.6,30.7-9.5-5.965-18.77-14.872-47.55-9.77s-26.635,31.918-26.635,31.918" transform="translate(-160.004 0.001)" fill="#fff"/>
          <path id="Trazado_873531" data-name="Trazado 873531" d="M335.155,223.589c-5.707-1.9-12.145-1.262-18.029-5.464-8.878-6.342-10.146-.634-10.146-.634s0,6.341,8.244,7.61,12.049-1.9,14.585-.634,5.346-.877,5.346-.877" transform="translate(-239.542 -167.87)" fill="#d2d2d8"/>
          <path id="Trazado_873532" data-name="Trazado 873532" d="M334.193,271.694s-1.268-.634-7.61,1.268S312,270.425,312.632,274.23s6.976,5.707,12.049,4.439,9.512-6.976,9.512-6.976" transform="translate(-243.925 -211.928)" fill="#d2d2d8"/>
          <path id="Trazado_873533" data-name="Trazado 873533" d="M216.22,304.965a.668.668,0,0,0,.28-.362,8.94,8.94,0,0,1,.62-1.4q-.494.889-.9,1.764" transform="translate(-168.72 -236.592)" fill="#d2d2d8"/>
          <path id="Trazado_873534" data-name="Trazado 873534" d="M231.336,128.213c5.073-4.439,4.439-8.878,1.9-17.122-2.288-7.435-2-10.23-.987-17.685a39.222,39.222,0,0,0-3.452,8.173c-4.013,13.377,7.609,15.22-6.342,34.878a32.728,32.728,0,0,0-1.854,2.922c1.909-3.444,6.319-7.3,10.732-11.166" transform="translate(-172.141 -72.886)" fill="#d2d2d8"/>
          <path id="Trazado_873535" data-name="Trazado 873535" d="M420.987,111.562c-.634-5.073-8.244-20.293-20.293-17.122-6.939,1.826,0,5.073,6.975,6.342s13.317,10.781,13.317,10.781" transform="translate(-310.426 -73.357)" fill="#d2d2d8"/>
          <path id="Trazado_873536" data-name="Trazado 873536" d="M396.06,142.992s0-6.342-8.244-9.512-15.219-1.268-14.585,1.9,3.171,1.9,9.512,2.536,13.317,5.073,13.317,5.073" transform="translate(-291.207 -102.885)" fill="#d2d2d8"/>
          <path id="Trazado_873537" data-name="Trazado 873537" d="M279.794,422.159c-1.268,1.9.687,15.427-7.61,18.39-8.315,2.97-16.075.932-28.488-7.153,3.934,8.494,13.7,14.434,21.512,16.665,10.148,2.9,12.683-3.8,18.992,5.448,0,0,1.644-6.242,11.6-11.864-6.873-9.566-16-21.487-16-21.487" transform="translate(-190.161 -329.417)" fill="#d2d2d8"/>
          <path id="Trazado_873538" data-name="Trazado 873538" d="M760.965,154.254c-.957-4.788,1.057-10.569-1.058-16.911a47.332,47.332,0,0,1-5.918,12.472c-6.341,9.512-1.9,6.341-1.268,12.683l2.537,3.17a14.73,14.73,0,0,1,11.238.631c-1.7-3.438-4.365-6.219-5.531-12.046" transform="translate(-585.722 -107.171)" fill="#d2d2d8"/>
          <path id="Trazado_873539" data-name="Trazado 873539" d="M556.1,87.709c-5.073-4.439-12.5-9.362-8.244-10.78,3.8-1.268,8.244,1.268,9.512,3.8s6.342,11.415,6.342,11.415-.739-7.347.634-10.781c2.537-6.342,8.244-6.342,11.415-5.073s-1.268,5.073-4.439,8.878a46.991,46.991,0,0,1-7.61,6.976Z" transform="translate(-426.512 -59.016)" fill="#d2d2d8"/>
          <path id="Trazado_873540" data-name="Trazado 873540" d="M677.465,330.632c.924-7.723,7.181-9.056,11.277-17.424-4.77-1.28-6.59-9.337-10.632-15.176L657.183,299.3l-3.8,8.244s0,7.328.032,12.324c11.659,1.647,17.807,6.841,24.055,10.763" transform="translate(-509.842 -232.56)" fill="#d2d2d8"/>
          <path id="Trazado_873541" data-name="Trazado 873541" d="M409.7,644.247s-9.055-12.7,12.377-18.037c16.4-4.086,50.144-4.8,59.565,3.477,6.811,5.985.331,17.957-11.134,22.81s-51.339,7.28-60.809-8.25" transform="translate(-318.211 -486.335)" fill="#d2d2d8"/>
          <path id="Trazado_873542" data-name="Trazado 873542" d="M426.014,569.16s4.984,18.927,1.992,27.177-5.482,11.647-4.983,16.016,14.953,20.868,35.887,20.868S494.8,611.867,494.8,611.867s-5.982-17.472-6.48-25.722,1.994-20.868,1.994-20.868c-13.956,10.676-17.943,11.162-32.9,11.647-11.468.374-31.4-7.764-31.4-7.764" transform="translate(-330.042 -441.095)" fill="#6a453c"/>
          <path id="Trazado_873543" data-name="Trazado 873543" d="M45.427,702.332a19.532,19.532,0,0,1,2.622-4c5.737-6.291,16.409-13.757,24.055-16.892,9.471-3.882,33.4-12.132,40.375-14.559s10.467-3.4,10.467-6.794a57.138,57.138,0,0,1,1.993-15.126c2.493-4.367,8.89-6.877,8.89-6.877l.081.891a13.9,13.9,0,0,0-6.147,3.964c-1.711,1.954-1.721,4.683-.829,5.985,1.994,2.911,18.443,8.251,23.426,9.221s8.972,1.942,9.969,7.766,1,17.47,1,17.47l7.477-4.368s-.5-11.648,0-14.559,2.991-5.339,7.975-7.766,17.275-7.459,19.938-9.706c4.985-4.206,1.878-7.867-1.776-9.16-1.234-.437-1.048-1.111-1.048-1.111s7.144,1.616,7.809,7.359c.45,3.888,1.495,12.617,1.495,12.617s5.982,5.825,10.966,8.736,30.9,12.134,40.873,15.53,16.624,7.451,20.435,11.163a10.655,10.655,0,0,1,2.992,4.367s-17.945,12.135-21.932,20.384a71.971,71.971,0,0,0-12.959,33.487c-2.493,20.384-1.495,64.063,2.493,85.416s11.464,84.445,12.461,100.947,2.492,45.652,2.492,45.652H65.125s-.5-58.757,3.49-81.081S83.568,847.42,85.562,831.4s-.5-55.57-4.984-75.223C74.6,729.973,50.91,703.3,45.427,702.332" transform="translate(-35.447 -496.837)" fill="#fff"/>
          <path id="Trazado_873544" data-name="Trazado 873544" d="M154.462,1224.275c.5-10.675-1.993-21.838,3.987-33.486s27.913-28.633,30.406-37.854,6.481-32.032,5.483-41.252-4.486-18.443-7.975-20.869-4.983-1.456-9.968-4.853-10.966-20.384-16.947-26.693-1.5,5.34,2.492,14.075a42.609,42.609,0,0,1,3.987,16.016c-2.428,5.819-7.376,9.594-12.614,12.039,2.581,20.311,3.665,46.141,2.147,58.331-1.994,16.016-12.959,47.563-16.947,69.887s-3.49,81.081-3.49,81.081H152.4c-.447-11.982,1.7-78.6,2.061-86.421" transform="translate(-105.345 -825.161)" fill="#d2d2d8"/>
          <path id="Trazado_873545" data-name="Trazado 873545" d="M522.235,1239.4c-1-16.5-8.474-79.593-12.461-100.947s-4.986-65.033-2.492-85.417a74.859,74.859,0,0,1,9.611-28.431c-.2.085-.417.177-.64.283-12.461,5.824-19.438,26.693-23.924,37.369s-9.969,16.016-24.923,20.384-33.894-4.854-47.353-7.281-34.892,6.309-34.892,6.309-5.98,15.046,3.99,15.046,94.205,19.413,105.669,37.855,13.957,29.6,18.941,72.312c3.914,33.549,5.484,67.492,6.48,78.17h4.487s-1.5-29.153-2.492-45.652" transform="translate(-299.16 -799.515)" fill="#d2d2d8"/>
          <path id="Trazado_873546" data-name="Trazado 873546" d="M444.786,1025.327a6.233,6.233,0,1,1-6.231-6.066,6.15,6.15,0,0,1,6.231,6.066" transform="translate(-337.35 -795.346)" fill="#5c7177"/>
          <path id="Trazado_873547" data-name="Trazado 873547" d="M673.944,1025.327a6.233,6.233,0,1,1-6.231-6.066,6.151,6.151,0,0,1,6.231,6.066" transform="translate(-516.165 -795.346)" fill="#5c7177"/>
          <path id="Trazado_873548" data-name="Trazado 873548" d="M442.515,1244.037a6.233,6.233,0,1,1-6.231-6.067,6.15,6.15,0,0,1,6.231,6.067" transform="translate(-335.578 -966.009)" fill="#5c7177"/>
          <path id="Trazado_873549" data-name="Trazado 873549" d="M673.944,1248.454a6.233,6.233,0,1,1-6.231-6.065,6.151,6.151,0,0,1,6.231,6.065" transform="translate(-516.165 -969.456)" fill="#5c7177"/>
          <path id="Trazado_873550" data-name="Trazado 873550" d="M440.25,1714.593a6.233,6.233,0,1,1-6.231-6.067,6.152,6.152,0,0,1,6.231,6.067" transform="translate(-333.811 -1333.191)" fill="#5c7177"/>
          <path id="Trazado_873551" data-name="Trazado 873551" d="M671.679,1719.009a6.233,6.233,0,1,1-6.231-6.065,6.152,6.152,0,0,1,6.231,6.065" transform="translate(-514.399 -1336.638)" fill="#5c7177"/>
          <path id="Trazado_873552" data-name="Trazado 873552" d="M359.332,981.149c-.412,0-.747.4-.747,0,0-.116.017-35.692,1.5-52.994,1.411-16.493,6.975-96.556,6.975-115.929,0-18.106-1.971-53.163-3.981-70.777-.139-1.206-.286-2.451-.433-3.717-1.033-8.788-2.2-18.748-1.522-24.815a8.943,8.943,0,0,1,4.22-6.928c9.354-6.158,42.909-26.129,47.023-28.574-.353-2.912-1.591-15.3,2.3-18.612,2.3-1.956,8.588-4.951,14.672-7.846a115.674,115.674,0,0,0,11.314-5.794c2.226-1.5,3.178-3.156,2.755-4.791-.479-1.845-2.961-3.471-5.371-3.73.02-.466.051-.83.082-1.5,3.039.328,6.107,2.435,6.738,4.869.338,1.3.35,3.85-3.352,6.345A115.4,115.4,0,0,1,430,652.264c-5.718,2.721-12.2,5.8-14.345,7.634-3.022,2.574-2.284,13.723-1.744,17.8a.728.728,0,0,1-.353.715c-.375.222-37.484,22.27-47.375,28.781a7.493,7.493,0,0,0-3.571,5.88c-.663,5.9.5,15.78,1.52,24.492.149,1.267.3,2.512.433,3.721,2.015,17.655,3.991,52.791,3.991,70.938,0,19.407-5.568,99.544-6.98,116.051-1.474,17.236-1.493,52.756-1.493,52.872,0,.4-.335,0-.748,0" transform="translate(-279.81 -495.614)" fill="#5c7177"/>
          <path id="Trazado_873553" data-name="Trazado 873553" d="M443.113,688.058h-.027a.739.739,0,0,1-.721-.755c.021-.545.048-1.127.072-1.742.282-6.469.752-17.292-3.482-20.074-2.023-1.33-6.993-2.676-12.253-4.1-9.264-2.511-18.842-5.108-19.95-9.174-1.771-6.5,8.5-10.29,8.915-10.438.031.515.094.94.156,1.516-.088.032-9.048,3.327-7.626,8.55.89,3.259,10.878,5.967,18.906,8.143,5.614,1.522,10.465,2.838,12.69,4.3,4.924,3.236,4.453,14.131,4.139,21.341-.027.611-.052,1.192-.07,1.735a.742.742,0,0,1-.749.7" transform="translate(-317.235 -500.784)" fill="#5c7177"/>
          <path id="Trazado_873554" data-name="Trazado 873554" d="M351.606,1405.391s27.662-3.276,40-3.276,37.381-.729,44.11-3.639,13.084,21.474,13.084,21.474-22.8,14.195-29.158,18.562a131.163,131.163,0,0,1-63.175,21.839c-33.642,2.548-20.933-51.685-4.859-54.959" transform="translate(-261.623 -1091.065)" fill="#96594b"/>
          <path id="Trazado_873555" data-name="Trazado 873555" d="M419.644,1491.811c6.355-4.367,29.158-18.562,29.158-18.562s-.773-2.968-2.067-6.709a173.559,173.559,0,0,1-44.661,17.629c-26.459,6.078-55.755,4.559-66.639,3.683-1.146,13.832,4.006,27.086,21.033,25.8a131.158,131.158,0,0,0,63.176-21.839" transform="translate(-261.627 -1144.365)" fill="#874f45"/>
          <path id="Trazado_873556" data-name="Trazado 873556" d="M270.049,1293.744s20.56-8.735,40.746-8.735,45.232,7.28,54.2,9.464a143.029,143.029,0,0,0,14.953,2.911s-1.495,21.475-.375,31.665,4.861,32.029,4.861,32.029-13.457,3.277-37.382-14.194-33.268-22.931-44.857-28.753c-6.618-3.326-28.036-1.82-28.036-1.82s-8.972-14.923-4.113-22.567" transform="translate(-209.597 -1002.714)" fill="#96594b"/>
          <path id="Trazado_873557" data-name="Trazado 873557" d="M391.266,1441.185s-3.739-21.837-4.861-32.029c-.132-1.217-.228-2.6-.3-4.079-21.669.354-59.445-12.568-79.326-16.3-10.149-1.906-22.4-.945-29.425-.092a50.659,50.659,0,0,0,3.632,7.737s21.418-1.506,28.036,1.82c11.589,5.822,20.934,11.283,44.857,28.753s37.382,14.193,37.382,14.193" transform="translate(-216.428 -1082.821)" fill="#874f45"/>
          <path id="Trazado_873558" data-name="Trazado 873558" d="M12.6,916.91s-4.86,4.367-5.981,9.1-1.869,42.22-2.243,48.044.374,18.926,0,30.938c-.3,9.569-5.607,41.493-4.112,48.771s8.6,20.746,30.654,27.3,39.25,8.736,44.484,10.191,21.68,2.911,21.68,2.911,2.991-10.19,5.234-22.2,2.992-34.213,2.992-34.213-11.965-6.915-17.571-8.008-20.185-2.548-20.185-2.548a130.3,130.3,0,0,0-1.869-15.288c-1.5-8.007-1.121-10.19-1.121-10.19s4.86-8.007,5.234-14.195-9.72-17.107-12.71-26.207-5.234-14.923-10.841-21.474S20.45,915.453,12.6,916.91" transform="translate(0 -715.414)" fill="#fff"/>
          <path id="Trazado_873559" data-name="Trazado 873559" d="M84.5,1566.261c-8.953.666-24.259,6.338-35.888,9.1a23.576,23.576,0,0,1-16.834-2.378c4.673,5.438,12.181,10.894,23.938,14.386,22.053,6.55,39.25,8.736,44.484,10.191s21.68,2.911,21.68,2.911,2.991-10.19,5.234-22.2c.659-3.528,1.188-7.935,1.608-12.4-6.224-.117-31.881-.528-44.222.391" transform="translate(-24.798 -1221.723)" fill="#d2d2d8"/>
          <path id="Trazado_873560" data-name="Trazado 873560" d="M38.252,1606.037c4.73,4.9,11.886,9.668,22.516,12.826,22.053,6.55,39.25,8.736,44.484,10.191s21.68,2.911,21.68,2.911,1.035-3.526,2.343-8.874c-13.783.175-44.053-5.123-68.507-10.413a136.49,136.49,0,0,1-22.516-6.641" transform="translate(-29.849 -1253.217)" fill="#d2d2d8"/>
          <path id="Trazado_873561" data-name="Trazado 873561" d="M930.019,991.291c-1-6.795,0-30.576,1-41.252S937,928.2,942.479,918.978c6.494-10.92,17.447-30.576,22.929-30.09s10.467,16.016,11.464,21.354,9.47,54.356,10.468,59.695,5.982,40.282,7.477,45.619,1.993,13.59-2.492,19.413-39.378,2.911-52.337-10.677-9.969-33-9.969-33" transform="translate(-725.387 -693.607)" fill="#fff"/>
          <path id="Trazado_873562" data-name="Trazado 873562" d="M820.31,1192.78s8.473-16.5,14.953-25.722,7.478-10.192,13.958-15.045,15.452-11.163,16.946-8.735-1.129,5.909-2.99,7.766-9.969,7.279-11.963,10.677a57.385,57.385,0,0,0-3.49,7.279,124.9,124.9,0,0,1,8.972-10.677c3.49-3.4,6.481-4.367,9.471-6.309s10.468-5.824,10.965-3.4-2.99,5.823-5.98,7.764-8.973,7.28-10.966,10.192l-4.986,7.28s7.977-8.25,10.967-10.676,4.864-2.794,7.356-4.251,9.794-3.424,8.1-.117c-2.99,5.824-7.974,8.251-10.966,10.678s-8.473,8.251-8.473,8.251,4.985-1.457,6.979-3.4,8.473-7.281,8.473-4.368a11.834,11.834,0,0,1-3.986,8.251c-2.493,2.427-8.972,8.25-8.972,8.25s-36.387.486-44.362,6.309" transform="translate(-640.101 -891.699)" fill="#96594b"/>
          <path id="Trazado_873563" data-name="Trazado 873563" d="M732.1,1323.591s-3.49,16.016-4.487,24.266-2.492,30.575-1.495,36.4,3.987,22.811,3.987,22.811,10.965-2.426,17.944-4.368,26.418-5.339,31.9-5.824,27.415-6.794,33.895-9.221,14.953-9.221,17.944-13.1,5.98-11.647,4.485-17.957-9.968-18.442-19.937-26.692-24.423-10.192-24.423-10.192-14.954,3.883-24.923,3.883-32.4-.97-34.89,0" transform="translate(-566.345 -1029.79)" fill="#fff"/>
          <path id="Trazado_873564" data-name="Trazado 873564" d="M816.334,1494.688c-8.971,1.942-33.893,2.427-53.333,1.942-15.37-.383-31.052.142-36.943.381-.328,6.909-.415,13.364.058,16.12,1,5.825,3.987,22.811,3.987,22.811s10.965-2.427,17.944-4.369,26.418-5.339,31.9-5.824,27.415-6.794,33.895-9.221,14.953-9.221,17.944-13.1,6.414-12.248,4.919-18.558c-3.488,6.31-11.4,7.881-20.371,9.822" transform="translate(-566.343 -1158.665)" fill="#d2d2d8"/>
          <path id="Trazado_873565" data-name="Trazado 873565" d="M377.069,415.745s-1.022-4.545-4.093-3.977-3.48,3.031-3.275,5.3,2.047,5.87,3.275,9.847.742,6.818,1.086,8.537a1.82,1.82,0,0,0,2.189,1.689l2.456-3.408a18.687,18.687,0,0,1-1.638-8.522c.2-4.924,0-9.469,0-9.469" transform="translate(-288.449 -321.271)" fill="#a06251"/>
          <path id="Trazado_873566" data-name="Trazado 873566" d="M385.543,430.384s-1.229-3.787-2.661-3.787-1.841.844-1.841,2.462a13.044,13.044,0,0,0,1.227,5.113s0-3.409,1.026-2.651a4.366,4.366,0,0,1,1.227,4.544c-.614,1.7,1.637,3.977,1.637,3.977Z" transform="translate(-297.333 -332.88)" fill="#6a453c"/>
          <path id="Trazado_873567" data-name="Trazado 873567" d="M745.1,413.158s1.023-4.546,4.094-3.977,3.479,3.03,3.275,5.3-2.048,5.869-3.275,9.847-.81,6.767-1.218,8.471a2.254,2.254,0,0,1-2.058,1.754l-2.456-3.408a18.671,18.671,0,0,0,1.638-8.522c-.205-4.923,0-9.468,0-9.468" transform="translate(-580.135 -319.252)" fill="#a06251"/>
          <path id="Trazado_873568" data-name="Trazado 873568" d="M750.6,427.8s1.227-3.788,2.66-3.788,1.843.844,1.843,2.462a13.024,13.024,0,0,1-1.228,5.113s0-3.409-1.025-2.651a4.362,4.362,0,0,0-1.226,4.545c.614,1.7-1.638,3.976-1.638,3.976Z" transform="translate(-585.225 -330.863)" fill="#6a453c"/>
          <path id="Trazado_873569" data-name="Trazado 873569" d="M398.6,217.816c-3.216,3.835-6.754,15.908-6.447,20.736s1.535,22.725,1.535,28.122,0,16.476,3.685,23.576a62.779,62.779,0,0,0,12.791,17.233c2.829,2.619,10.642,12.352,22.925,12.12,15.044-.284,21.8-6.533,25.789-12.5,3.632-5.427,11.563-14.581,13.1-23.387,1.055-6.053-.307-20.736-.614-26.417s1.432-17.424.2-23.673-6.651-19.505-23.537-25.186-35.613-7.1-49.429,9.374" transform="translate(-305.987 -159.607)" fill="#a06251"/>
          <path id="Trazado_873570" data-name="Trazado 873570" d="M453.756,520.492a21.9,21.9,0,0,1-2.4,2.589,18.225,18.225,0,0,0-2.312,2.561,4.977,4.977,0,0,0-.7,1.433c-.12.456-.168,1.057-.252,1.593l-.471,3.348-.092.009a10.115,10.115,0,0,1-.354-3.435,6.8,6.8,0,0,1,.3-1.76,5.8,5.8,0,0,1,.965-1.577,19.031,19.031,0,0,1,2.6-2.478,21.755,21.755,0,0,0,2.645-2.332Z" transform="translate(-348.93 -406.108)" fill="#6a453c"/>
          <path id="Trazado_873571" data-name="Trazado 873571" d="M672.578,519.553q1.479,1.163,2.917,2.373a21.1,21.1,0,0,1,2.7,2.645,4.9,4.9,0,0,1,1.187,3.6,23.059,23.059,0,0,1-.858,3.537l-.091-.008a23.549,23.549,0,0,1,.029-3.587,5.357,5.357,0,0,0-.881-3.167,20.089,20.089,0,0,0-2.418-2.72q-1.3-1.328-2.651-2.612Z" transform="translate(-524.775 -405.416)" fill="#6a453c"/>
          <path id="Trazado_873572" data-name="Trazado 873572" d="M709.293,580.039c2.252-1.893,3.071-1.7,2.046,1.517-.6,1.885-2.033,2.563-2.864,4.355-.609,1.317-.614,5.112-2.01,4.942-1.469-2.293.579-8.921,2.828-10.814" transform="translate(-550.879 -451.667)" fill="#96594b"/>
          <path id="Trazado_873573" data-name="Trazado 873573" d="M449.444,605.815c-.779-1.8-.39-3.062-2.142-4.865s-4.236-3.858-3.116-5.585c.85-1.307,3.312,0,4.869,2.522s2.337,7.746,1.362,8.107-.972-.18-.972-.18" transform="translate(-346.387 -464.172)" fill="#96594b"/>
          <path id="Trazado_873574" data-name="Trazado 873574" d="M464.889,563.72s8.136,7.527,12.281,9.516,9.977,4.545,17.193,2.842,10.438-4.12,12.587-6.25,6.6-6.818,6.6-6.818-9.825,1.278-13.508,1.278c-1.85,0-14.584-.142-18.115,0s-11.513.711-12.434.711a11.977,11.977,0,0,1-4.605-1.279" transform="translate(-362.761 -439.326)" fill="#fff"/>
          <path id="Trazado_873575" data-name="Trazado 873575" d="M482.964,564.954c3.09,1.605,8.732,3.11,17.827,3.31,12.9.284,21.882-3.344,26.639-5.018.141-.149.226-.237.226-.237s-9.825,1.278-13.508,1.278c-1.85,0-14.584-.142-18.115,0S484.519,565,483.6,565a6.1,6.1,0,0,1-.635-.044" transform="translate(-376.865 -439.325)" fill="#c1c1c1"/>
          <path id="Trazado_873576" data-name="Trazado 873576" d="M474.076,573.844a15.088,15.088,0,0,1-2.085-6.452,12,12,0,0,1-1.883-.012,19.1,19.1,0,0,1-5.219-1.136,113.28,113.28,0,0,0,9.187,7.6" transform="translate(-362.761 -441.849)" fill="#3a2c27"/>
          <path id="Trazado_873577" data-name="Trazado 873577" d="M653.842,563.807a33.87,33.87,0,0,1-.379,6.623c.221-.2.434-.4.634-.6,2.149-2.13,6.6-6.818,6.6-6.818s-3.341.434-6.856.8" transform="translate(-509.908 -439.326)" fill="#3a2c27"/>
          <path id="Trazado_873578" data-name="Trazado 873578" d="M513.015,591.575a45.419,45.419,0,0,1-18.321-2.769,35.436,35.436,0,0,0,5.733,3.9c4.144,1.989,9.977,4.545,17.193,2.841s10.438-4.12,12.587-6.25c.38-.378.836-.838,1.324-1.335a54.446,54.446,0,0,1-18.516,3.608" transform="translate(-386.018 -458.8)" fill="#3a2c27"/>
          <path id="Trazado_873579" data-name="Trazado 873579" d="M464.889,562.674a15.652,15.652,0,0,0,5.219.71c2-.284,9.211-1.847,11.514-1.562a37.172,37.172,0,0,0,7.982.425,34.592,34.592,0,0,1,9.211-.425,60.163,60.163,0,0,0,9.209.425c2-.143,5.528-.284,5.528-.284l-5.987,1.7c-2,.569-10.9.852-13.815,1.137-2.075.2-8.136.426-10.9.284s-7.676-.71-10.593-.71-7.368-1.7-7.368-1.7" transform="translate(-362.761 -438.279)" fill="#894c40"/>
          <path id="Trazado_873580" data-name="Trazado 873580" d="M464.889,563.309s3.933,4.874,4.912,6.107c1.688,2.13,4.773,8.273,16.425,9.658,10.746,1.279,16.272-2.273,19.495-5.4,1.8-1.743,3.685-5.538,4.606-6.817s3.838-3.693,3.684-4.261-2.149,1.136-2.149,1.136-3.223,2.841-4.3,3.835-7.923,4.983-12.127,5.54c-5.373.71-10.132.71-14.123-.426-2.993-.852-8.136-3.836-9.671-4.829s-6.14-5.114-6.755-4.545" transform="translate(-362.761 -438.915)" fill="#a05d4b"/>
          <path id="Trazado_873581" data-name="Trazado 873581" d="M519.828,589.366c-2,1.562-5.956,3.532-15.35,3.693a19.9,19.9,0,0,1-14.123-5.114c-1.207-.969-3.046-2.285-4.634-3.4.129.163.248.311.335.422,1.688,2.13,4.773,8.272,16.425,9.658,10.746,1.279,16.272-2.273,19.495-5.4,1.8-1.743,3.685-5.538,4.606-6.817a42.33,42.33,0,0,1-6.755,6.959" transform="translate(-379.017 -454.462)" fill="#894c40"/>
          <path id="Trazado_873582" data-name="Trazado 873582" d="M575.994,518.843c1.535-.569,3.424-2.358,5.066-3.41,2-1.278,4.759-.852,4.912-.284s-1.689,1.136-3.07,1.42-6.907,2.273-6.907,2.273" transform="translate(-449.458 -401.549)" fill="#6a453c"/>
          <path id="Trazado_873583" data-name="Trazado 873583" d="M524.442,519.193a19.106,19.106,0,0,1-2.916-1.278c-1.228-.71-2.8-2.441-3.992-2.84-1.688-.569-3.224.141-3.07.709s1.228.852,2.763,1.136a14.716,14.716,0,0,1,3.989,1.563,14.012,14.012,0,0,0,3.225.71" transform="translate(-401.437 -401.758)" fill="#6a453c"/>
          <path id="Trazado_873584" data-name="Trazado 873584" d="M498.414,480.351c-.688.618-1.214,1.495-1.915,2.147a9.259,9.259,0,0,0-1.932,2.046,2.008,2.008,0,0,0-.1,1.893,5.018,5.018,0,0,0,1.953,2.1l-.018.056c-1.115.021-2.242-.264-2.6-.879a2.128,2.128,0,0,1-.307-2.841A7.264,7.264,0,0,1,496,482.366c.736-.525,1.74-1.41,2.415-2.015" transform="translate(-384.763 -374.826)" fill="#6a453c"/>
          <path id="Trazado_873585" data-name="Trazado 873585" d="M622.064,480.351c.689.618,1.215,1.495,1.916,2.147a9.3,9.3,0,0,1,1.932,2.046,2.008,2.008,0,0,1,.1,1.893,5.029,5.029,0,0,1-1.952,2.1l.017.056c1.116.021,2.243-.264,2.6-.879a2.129,2.129,0,0,0,.308-2.841,7.265,7.265,0,0,0-2.508-2.509c-.737-.525-1.741-1.41-2.415-2.015" transform="translate(-485.407 -374.826)" fill="#6a453c"/>
          <path id="Trazado_873586" data-name="Trazado 873586" d="M459.146,405.151c1.852-3.055,2.013-7.331-1.2-9.642-2.763-1.989-10.593-2.273-8.9-1.278s3.532,1.561,1.688,2.13-7.981-.569-10.744,1.7-3.224,4.261-1.382,5.966,9.824,2.273,12.894,1.7,6.447.568,5.834,1.7c-.312.581.6-.6.684-.7a12.916,12.916,0,0,0,1.13-1.586" transform="translate(-341.388 -307.189)" fill="#96594b"/>
          <path id="Trazado_873587" data-name="Trazado 873587" d="M597.038,396.438c-1.435,1.468-.921,3.977-.614,5.255a8.847,8.847,0,0,0,2.763,4.687s-1.227-2.131.461-1.988c5.6.471,10.578,2.368,16.308,1.292,1.985-.373,6.14-1.218,5.8-3.325-.312-1.944-2.7-4.232-5.685-5.353-3.192-1.2-6.354-1.438-4.451-3.124,1.414-1.255-7.155-.341-7.623-.243-2.306.487-5.3,1.1-6.96,2.8" transform="translate(-465.129 -306.841)" fill="#96594b"/>
          <path id="Trazado_873588" data-name="Trazado 873588" d="M441.134,414.08a11.733,11.733,0,0,1,3.531-3.977c1.995-1.136,5.41-1.426,7.981-.994a41.973,41.973,0,0,1,5.066,1.42,7.692,7.692,0,0,1,3.07,2.556c.686.953-.154,1.137-.154,1.137s-2.763-3.267-8.289-2.415-11.206,2.273-11.206,2.273" transform="translate(-344.224 -319.085)" fill="#a06251"/>
          <path id="Trazado_873589" data-name="Trazado 873589" d="M460.629,418.8c.154-.853-1.1-.666-2.763-1.42-1.562-.707-3.775-3.059-7.474-2.515-6.495.952-9.258,3.793-9.258,3.793a16.069,16.069,0,0,0,2.764,1.42c2.455.853,4.3,1.421,7.293.448a28.432,28.432,0,0,1,5.44-1.089c1.438-.218,3.844.215,4-.637" transform="translate(-344.224 -323.661)" fill="#fff"/>
          <path id="Trazado_873590" data-name="Trazado 873590" d="M466.748,414.864a23.22,23.22,0,0,0-4.365,1.059,4.048,4.048,0,0,0-.288,1.455,4.315,4.315,0,0,0,2.076,3.634,9.087,9.087,0,0,0,3.376-.487,20.822,20.822,0,0,1,3.312-.785,4.147,4.147,0,0,0,.754-2.361,4.085,4.085,0,0,0-.4-1.763,7.355,7.355,0,0,0-4.461-.752" transform="translate(-360.58 -323.662)"/>
          <path id="Trazado_873591" data-name="Trazado 873591" d="M468.1,425.472s-1.842-1.136-1.382-2.556c.417-1.283,1.075-.853,1.229-.426s-.307,2.556.154,2.982" transform="translate(-364.131 -329.342)" fill="#fff"/>
          <path id="Trazado_873592" data-name="Trazado 873592" d="M492.079,422.453a5.445,5.445,0,0,0-.153-2.13c-.307-.426.613-.852,1.227,0s-1.074,2.13-1.074,2.13" transform="translate(-383.81 -327.601)" fill="#fff"/>
          <path id="Trazado_873593" data-name="Trazado 873593" d="M460.463,417.6c.1-.463-.427-.615-.844-.709-.438-.107-.886-.206-1.323-.348a11.362,11.362,0,0,1-2.421-1.228,7.992,7.992,0,0,0-4.936-1.373,28.471,28.471,0,0,0-5.138,1.277,19.007,19.007,0,0,0-4.755,2.271l-.067-.058a11.493,11.493,0,0,1,4.482-3,18.5,18.5,0,0,1,5.429-1.166,8.584,8.584,0,0,1,5.244,1.7,10.816,10.816,0,0,0,2.261,1.343c.412.162.844.287,1.279.422a2.636,2.636,0,0,1,.639.271.559.559,0,0,1,.241.608Z" transform="translate(-344.103 -322.467)" fill="#2b1919"/>
          <path id="Trazado_873594" data-name="Trazado 873594" d="M441.088,432.31c.75.38,1.51.742,2.281,1.043.761.271,1.6.52,2.4.718a9.027,9.027,0,0,0,4.879.036,24.84,24.84,0,0,1,5.025-1.013c.426-.039.838-.109,1.279-.138s.863-.01,1.29,0,.852.022,1.274-.008c.386-.037.918-.084,1.023-.476l.06.009c-.107.462-.683.522-1.072.58-.429.05-.859.055-1.285.065s-.854.019-1.269.058-.838.134-1.257.191a24.44,24.44,0,0,0-4.923,1.167,8.483,8.483,0,0,1-5.2.076,19.864,19.864,0,0,1-2.41-.906,13.224,13.224,0,0,1-2.131-1.355Z" transform="translate(-344.162 -337.338)" fill="#2b1919"/>
          <path id="Trazado_873595" data-name="Trazado 873595" d="M628.223,414.725a11.75,11.75,0,0,0-3.531-3.977c-2-1.136-5.411-1.427-7.983-.994a41.853,41.853,0,0,0-5.065,1.421,7.7,7.7,0,0,0-3.071,2.556c-.686.953.154,1.136.154,1.136s2.764-3.266,8.29-2.414,11.206,2.272,11.206,2.272" transform="translate(-474.669 -319.589)" fill="#a06251"/>
          <path id="Trazado_873596" data-name="Trazado 873596" d="M610.185,419.442c-.154-.852,1.1-.666,2.764-1.42,1.561-.708,3.773-3.057,7.474-2.515,6.5.953,9.258,3.793,9.258,3.793a16.024,16.024,0,0,1-2.763,1.42c-2.457.852-4.3,1.421-7.3.449a28.4,28.4,0,0,0-5.439-1.089c-1.439-.217-3.844.215-4-.638" transform="translate(-476.127 -324.164)" fill="#fff"/>
          <path id="Trazado_873597" data-name="Trazado 873597" d="M639.549,415.508a23.316,23.316,0,0,1,4.365,1.06,4.037,4.037,0,0,1,.289,1.455,4.318,4.318,0,0,1-2.076,3.634,9.078,9.078,0,0,1-3.377-.487,20.869,20.869,0,0,0-3.312-.784,4.152,4.152,0,0,1-.754-2.362,4.1,4.1,0,0,1,.4-1.762,7.363,7.363,0,0,1,4.463-.754" transform="translate(-495.254 -324.165)"/>
          <path id="Trazado_873598" data-name="Trazado 873598" d="M666.833,426.119s1.841-1.136,1.381-2.556c-.415-1.283-1.074-.852-1.228-.426s.307,2.556-.153,2.983" transform="translate(-520.341 -329.846)" fill="#fff"/>
          <path id="Trazado_873599" data-name="Trazado 873599" d="M642.97,423.1a5.434,5.434,0,0,1,.154-2.13c.306-.426-.614-.852-1.229,0s1.075,2.13,1.075,2.13" transform="translate(-500.777 -328.106)" fill="#fff"/>
          <path id="Trazado_873600" data-name="Trazado 873600" d="M610.046,418.249c-.1-.463.427-.614.842-.708.437-.107.887-.206,1.326-.348a11.345,11.345,0,0,0,2.42-1.228,7.993,7.993,0,0,1,4.934-1.373,28.392,28.392,0,0,1,5.138,1.277,18.927,18.927,0,0,1,4.754,2.271l.068-.058a11.479,11.479,0,0,0-4.482-3,18.516,18.516,0,0,0-5.43-1.165,8.584,8.584,0,0,0-5.242,1.7,10.883,10.883,0,0,1-2.262,1.343c-.413.162-.843.287-1.277.421a2.591,2.591,0,0,0-.641.271.558.558,0,0,0-.24.607Z" transform="translate(-475.943 -322.974)" fill="#2b1919"/>
          <path id="Trazado_873601" data-name="Trazado 873601" d="M629.6,432.953c-.748.38-1.509.743-2.28,1.044-.762.272-1.6.52-2.4.717a9.015,9.015,0,0,1-4.88.037,24.909,24.909,0,0,0-5.024-1.013c-.427-.039-.837-.11-1.28-.137s-.862-.011-1.289,0-.852.023-1.273-.007c-.388-.036-.919-.085-1.023-.475l-.06.008c.107.462.682.523,1.071.581.429.049.858.054,1.285.066s.853.017,1.27.058.837.133,1.256.191a24.485,24.485,0,0,1,4.923,1.167,8.473,8.473,0,0,0,5.2.076,20.08,20.08,0,0,0,2.409-.906A13.434,13.434,0,0,0,629.637,433Z" transform="translate(-476.067 -337.84)" fill="#2b1919"/>
          <path id="Trazado_873602" data-name="Trazado 873602" d="M452.284,441.4a15.333,15.333,0,0,1-4.2,1.554,31.815,31.815,0,0,1-4.473.748c-1.514.132-3.037.141-4.527.134a8.59,8.59,0,0,0-4.3.685l-.04-.041a4.022,4.022,0,0,1,2.047-.958,15.45,15.45,0,0,1,2.279-.253c1.521-.067,3.011.05,4.5-.02a31.558,31.558,0,0,0,4.438-.571,15.213,15.213,0,0,0,4.237-1.326Z" transform="translate(-339.241 -344.397)" fill="#6a453c"/>
          <path id="Trazado_873603" data-name="Trazado 873603" d="M468.094,449.157a22.075,22.075,0,0,1-5.275,1.879,9.575,9.575,0,0,1-2.856.206,11.675,11.675,0,0,1-2.789-.52l.013-.055,2.8.008a17.558,17.558,0,0,0,2.744-.084,25.343,25.343,0,0,0,5.335-1.484Z" transform="translate(-356.74 -350.445)" fill="#6a453c"/>
          <path id="Trazado_873604" data-name="Trazado 873604" d="M622.239,443.433a15.325,15.325,0,0,0,4.2,1.553,31.778,31.778,0,0,0,4.474.748c1.513.133,3.036.141,4.526.135a8.6,8.6,0,0,1,4.3.684l.038-.042a4.016,4.016,0,0,0-2.047-.958,15.469,15.469,0,0,0-2.277-.253c-1.522-.068-3.012.05-4.5-.021a31.427,31.427,0,0,1-4.437-.57,15.209,15.209,0,0,1-4.237-1.327Z" transform="translate(-485.543 -345.98)" fill="#6a453c"/>
          <path id="Trazado_873605" data-name="Trazado 873605" d="M629.933,451.189a21.991,21.991,0,0,0,5.274,1.88,9.627,9.627,0,0,0,2.857.2,11.645,11.645,0,0,0,2.788-.52l-.013-.055-2.8.007a17.479,17.479,0,0,1-2.743-.084,25.29,25.29,0,0,1-5.335-1.483Z" transform="translate(-491.547 -352.03)" fill="#6a453c"/>
          <path id="Trazado_873606" data-name="Trazado 873606" d="M425.765,368.092c.614-1.846.766-4.4,3.223-5.824s8.136-4.261,11.973-4.545,6.448,0,7.83,1.7,2.456,1.42,1.689,3.409,1.074,3.267-2.764,2.556-8.081-1.823-11.359-1.42c-2.3.284-6.755,1.42-8.289,2.7a6.15,6.15,0,0,1-2.3,1.42" transform="translate(-332.232 -279.062)" fill="#3e2625"/>
          <path id="Trazado_873607" data-name="Trazado 873607" d="M451.253,371.818c.632-1.637.007-1.748-1-2.681a9.5,9.5,0,0,0-.535,1.686c-.307,1.136-1.075.853-2.456.71a21.188,21.188,0,0,1-3.531-.994c-.614-.142-2.3.142-3.684-.142s-2.3-.141-2.3.994-3.378.285-4.913.427-1.842.994-2.764,1.846A45.01,45.01,0,0,0,426.757,377a7.859,7.859,0,0,0,2.084-1.349c1.534-1.28,5.986-2.415,8.289-2.7,3.278-.4,7.522.71,11.359,1.42s2-.568,2.764-2.556" transform="translate(-333.005 -288.043)" fill="#2b1919"/>
          <path id="Trazado_873608" data-name="Trazado 873608" d="M625.655,365.509c-.614-1.847-.768-4.4-3.224-5.824s-8.136-4.261-11.973-4.544-6.448,0-7.83,1.7-2.455,1.421-1.688,3.409-1.075,3.266,2.762,2.556,8.083-1.825,11.36-1.42c2.3.284,6.754,1.42,8.29,2.7a6.151,6.151,0,0,0,2.3,1.421" transform="translate(-468.724 -277.047)" fill="#3e2625"/>
          <path id="Trazado_873609" data-name="Trazado 873609" d="M600.943,369.228c-.633-1.636-.009-1.748,1-2.682a9.365,9.365,0,0,1,.535,1.689c.308,1.135,1.076.851,2.458.709a21.192,21.192,0,0,0,3.529-.995c.614-.142,2.3.142,3.684-.142s2.3-.142,2.3.994,3.378.284,4.913.426,1.843.994,2.763,1.846a45.009,45.009,0,0,1,3.311,3.338,7.79,7.79,0,0,1-2.083-1.349c-1.535-1.279-5.987-2.415-8.289-2.7-3.277-.4-7.523.71-11.36,1.42s-2-.568-2.762-2.556" transform="translate(-468.727 -286.022)" fill="#2b1919"/>
          <path id="Trazado_873610" data-name="Trazado 873610" d="M389.335,230.151a3.727,3.727,0,0,1,1.045,1.893c.208,1.136.98,3.03,1.815,1.894s.9-5.871.9-8.9,1.881-6.25,2.3-7.954.625-3.788,1.461-8.712,2.3-7.952,6.058-10.983,5.428-3.786,8.353-4.544,13.367-1.137,16.29-.379,5.011.19,7.518-.568,10.44-1.136,13.993,1.136,8.563,7.575,10.232,11.552,2.716,9.089,3.97,12.687,1.46,4.923,2.714,7.385,1.674,2.652,1.674,4.545a50.461,50.461,0,0,0,.831,6.249,22.176,22.176,0,0,1,1.464-3.219c.626-.946,1.044-1.7,1.044-1.7s-1.67-8.522-1.67-11.931a36.3,36.3,0,0,0-1.253-9.09c-.416-.946-.419-3.787-.836-4.923s-2.507-7.766-3.132-9.279-4.176-4.923-5.221-5.683-4.178-5.491-5.849-6.059-7.308-1.516-9.188-2.272a10.4,10.4,0,0,0-4.179-.758c-.833,0-.834-.569-3.132-.946s-6.682-1.137-8.561-.758-2.508.946-3.343.946h-.835c-2.087,0-7.309,1.516-8.98,1.7s-3.132-.756-4.178.947-1.253,2.085-2.507,2.462-1.462-.379-2.087.379-3.97,4.734-4.8,4.734-2.3-.38-2.506.948-.419.756-1.253,1.514a4.275,4.275,0,0,0-1.463,2.083c-.207.759-2.087,3.977-2.714,5.3a13.474,13.474,0,0,0-1.253,3.788c-.207,1.326-1.042-1.513-1.042,2.273a23.368,23.368,0,0,1-.42,5.871,11.582,11.582,0,0,0-.626,2.84,9.123,9.123,0,0,1-.209,2.463c-.209.756-.418,5.869-.627,6.817a5.542,5.542,0,0,0,.209,2.651,20.206,20.206,0,0,1,0,3.6" transform="translate(-303.574 -139.464)" fill="#3e2625"/>
          <path id="Trazado_873611" data-name="Trazado 873611" d="M561.2,686.355c-2.485-.135-7.369.757-6.96-1.515s4.1-5.3,8.6-4.924,6.96,1.135,7.779,2.651-2.457,4.167-9.415,3.787" transform="translate(-432.465 -530.524)" fill="#96594b"/>
          <path id="Trazado_873612" data-name="Trazado 873612" d="M425.3,471.2c-2.958.322-9.413.759-11.87,4.167s-2.866,7.574.817,8.711,6.55-4.171,10.235-5.3c6.395-1.967,7.778-8.334.818-7.576" transform="translate(-321.129 -367.635)" fill="#a56556"/>
          <path id="Trazado_873613" data-name="Trazado 873613" d="M653.408,471.2c2.958.322,9.415.759,11.871,4.167s2.866,7.574-.819,8.711-6.55-4.171-10.234-5.3c-6.395-1.967-7.779-8.334-.819-7.576" transform="translate(-506.25 -367.635)" fill="#a56556"/>
          <path id="Trazado_873614" data-name="Trazado 873614" d="M379.508,199.063a35.3,35.3,0,0,1-5.443-12.736c-1.162-6.772,0-26.417,13.856-40.167s40.317-14.772,54.074-8.775S464.959,158,463.969,177.013a59.241,59.241,0,0,1-4.926,18.537,97,97,0,0,0-3.6-17.256c-3.29-10.859-12.472-27.057-42.253-24.18-26.491,2.56-34.378,36.893-33.687,44.948" transform="translate(-291.623 -104.484)" fill="#fff"/>
          <path id="Trazado_873615" data-name="Trazado 873615" d="M384.962,147.829c-13.855,13.748-12.964,32.815-11.8,39.585a35.337,35.337,0,0,0,5.443,12.736c-.527-6.148,4.775-29.4,19.077-39.371-.347-6.244-.992-15.13,3.893-19.224,5.149-4.316,15.577-5.761,22.587-6.239-12.832-.357-30.068,3.454-39.2,12.512" transform="translate(-290.717 -105.572)" fill="#d2d2d8"/>
        </g>
      </g>
      <g id="Enmascarar_grupo_1098681" data-name="Enmascarar grupo 1098681" transform="translate(199.98 2730.528)" clip-path="url(#clip-path-6)">
        <path id="Sustracción_21" data-name="Sustracción 21" d="M105.015,210.031A105.789,105.789,0,0,1,83.851,207.9,104.453,104.453,0,0,1,46.3,192.1a105.318,105.318,0,0,1-38.047-46.2A104.524,104.524,0,0,1,2.133,126.18a106.046,106.046,0,0,1,0-42.328A104.453,104.453,0,0,1,17.935,46.3a105.322,105.322,0,0,1,46.2-38.048A104.471,104.471,0,0,1,83.851,2.134a106.027,106.027,0,0,1,42.328,0,104.44,104.44,0,0,1,37.551,15.8,105.327,105.327,0,0,1,38.048,46.2A104.477,104.477,0,0,1,207.9,83.852a106.027,106.027,0,0,1,0,42.328,104.432,104.432,0,0,1-15.8,37.551,105.315,105.315,0,0,1-46.2,38.047,104.493,104.493,0,0,1-19.712,6.119A105.782,105.782,0,0,1,105.015,210.031Zm0-168.1A63.529,63.529,0,0,0,92.3,43.208,62.75,62.75,0,0,0,69.74,52.7,63.276,63.276,0,0,0,46.883,80.458,62.776,62.776,0,0,0,43.206,92.3a63.7,63.7,0,0,0,0,25.43A62.75,62.75,0,0,0,52.7,140.29a63.271,63.271,0,0,0,27.758,22.858A62.746,62.746,0,0,0,92.3,166.824a63.7,63.7,0,0,0,25.43,0,62.744,62.744,0,0,0,22.559-9.493,63.273,63.273,0,0,0,22.857-27.758,62.758,62.758,0,0,0,3.676-11.843,63.7,63.7,0,0,0,0-25.43,62.739,62.739,0,0,0-9.493-22.559,63.271,63.271,0,0,0-27.757-22.858,62.793,62.793,0,0,0-11.843-3.676A63.528,63.528,0,0,0,105.015,41.926Z" transform="translate(133.838 217.958) rotate(180)" fill="url(#radial-gradient)"/>
      </g>
    </g>
  </g>
</svg>
