<svg xmlns="http://www.w3.org/2000/svg" width="399.5" height="327.959" viewBox="0 0 399.5 327.959">
  <g id="Grupo_1101613" data-name="Grupo 1101613" transform="translate(10057.309 12178.917)">
    <path id="Trazado_873411" data-name="Trazado 873411" d="M256.938,2.148c-36.451,5.99-51.254,25.344-85.2,52.271C85.128,123.127,47.82,77.176,24.187,135.6s25.89,144.326,137.386,98.1c62.608-25.959,155.336,77.868,216.972,18.233,84.54-81.8,27.866-274.342-121.607-249.777" transform="translate(-10075.723 -12178.917)" fill="#f8fbf9"/>
    <g id="Grupo_1101612" data-name="Grupo 1101612" transform="translate(-10027.46 -12159.914)">
      <g id="Grupo_1101548" data-name="Grupo 1101548" transform="translate(13.027 0)">
        <g id="Grupo_1101546" data-name="Grupo 1101546" transform="translate(0 72.227)">
          <g id="Grupo_1101543" data-name="Grupo 1101543">
            <path id="Trazado_873675" data-name="Trazado 873675" d="M117.839,155.672c-3.619-4.232-10.522-7.094-18.446-7.094s-14.827,2.862-18.446,7.094A16.567,16.567,0,0,0,65.48,172.2v83.761a16.567,16.567,0,0,0,15.467,16.529c3.619,4.232,10.522,7.094,18.446,7.094s14.826-2.862,18.446-7.094a16.568,16.568,0,0,0,15.468-16.529V172.2A16.568,16.568,0,0,0,117.839,155.672Z" transform="translate(-63.923 -148.578)" fill="#add8b7"/>
            <g id="Grupo_1101542" data-name="Grupo 1101542" transform="translate(0 24.216)">
              <rect id="Rectángulo_401378" data-name="Rectángulo 401378" width="71.543" height="5.011" rx="1.41" fill="#e5f9ea"/>
              <rect id="Rectángulo_401379" data-name="Rectángulo 401379" width="71.543" height="5.011" rx="1.41" transform="translate(0 77.566)" fill="#e5f9ea"/>
            </g>
          </g>
          <g id="Grupo_1101545" data-name="Grupo 1101545" transform="translate(76.869)">
            <path id="Trazado_873676" data-name="Trazado 873676" d="M213,155.672c-3.619-4.232-10.522-7.094-18.446-7.094s-14.827,2.862-18.446,7.094A16.568,16.568,0,0,0,160.637,172.2v83.761A16.568,16.568,0,0,0,176.1,272.492c3.619,4.232,10.522,7.094,18.446,7.094s14.826-2.862,18.446-7.094a16.568,16.568,0,0,0,15.468-16.529V172.2A16.568,16.568,0,0,0,213,155.672Z" transform="translate(-158.779 -148.578)" fill="#add8b7"/>
            <g id="Grupo_1101544" data-name="Grupo 1101544" transform="translate(0 24.216)">
              <rect id="Rectángulo_401380" data-name="Rectángulo 401380" width="71.543" height="5.011" rx="1.41" fill="#e5f9ea"/>
              <path id="Rectángulo_401381" data-name="Rectángulo 401381" d="M1.411,0H70.133a1.41,1.41,0,0,1,1.41,1.41V3.6a1.41,1.41,0,0,1-1.41,1.41H1.41A1.41,1.41,0,0,1,0,3.6V1.411A1.411,1.411,0,0,1,1.411,0Z" transform="translate(0 77.566)" fill="#e5f9ea"/>
            </g>
          </g>
        </g>
        <g id="Grupo_1101547" data-name="Grupo 1101547" transform="translate(0 0)">
          <path id="Trazado_873677" data-name="Trazado 873677" d="M104.306,97.617l-5.88-17.64a.724.724,0,0,0-.687-.5h-3.61a.725.725,0,0,1-.688-.5l-1.122-3.363a.724.724,0,0,0-.687-.5H87.889a.725.725,0,0,1-.724-.725V60.241a.725.725,0,0,0-.725-.725H83.213a.725.725,0,0,0-.724.725V74.4a.725.725,0,0,1-.725.725H78.021a.725.725,0,0,0-.688.5l-1.122,3.363a.724.724,0,0,1-.687.5h-3.61a.725.725,0,0,0-.688.5l-5.88,17.64a.725.725,0,0,1-.688.5h-.374a.725.725,0,0,0-.724.725v2.929a.725.725,0,0,0,.724.725h41.082a.725.725,0,0,0,.725-.725V98.838a.725.725,0,0,0-.725-.725h-.374A.724.724,0,0,1,104.306,97.617Z" transform="translate(-63.561 -59.516)" fill="#add8b7"/>
          <path id="Trazado_873678" data-name="Trazado 873678" d="M169.267,97.617l-5.88-17.64a.724.724,0,0,0-.688-.5h-3.61a.724.724,0,0,1-.687-.5l-1.122-3.363a.725.725,0,0,0-.688-.5H152.85a.725.725,0,0,1-.725-.725V60.241a.725.725,0,0,0-.724-.725h-3.227a.725.725,0,0,0-.725.725V74.4a.725.725,0,0,1-.724.725h-3.743a.724.724,0,0,0-.687.5l-1.122,3.363a.724.724,0,0,1-.688.5h-3.61a.724.724,0,0,0-.687.5l-5.88,17.64a.724.724,0,0,1-.687.5h-.374a.725.725,0,0,0-.725.725v2.929a.725.725,0,0,0,.725.725h41.082a.725.725,0,0,0,.724-.725V98.838a.725.725,0,0,0-.724-.725h-.374A.726.726,0,0,1,169.267,97.617Z" transform="translate(-75.84 -59.516)" fill="#add8b7"/>
          <path id="Trazado_873679" data-name="Trazado 873679" d="M234.229,97.617l-5.88-17.64a.725.725,0,0,0-.688-.5h-3.61a.726.726,0,0,1-.688-.5l-1.121-3.363a.725.725,0,0,0-.688-.5h-3.743a.725.725,0,0,1-.725-.725V60.241a.725.725,0,0,0-.724-.725h-3.227a.725.725,0,0,0-.725.725V74.4a.725.725,0,0,1-.725.725h-3.743a.726.726,0,0,0-.688.5l-1.121,3.363a.725.725,0,0,1-.688.5h-3.61a.726.726,0,0,0-.688.5l-5.88,17.64a.724.724,0,0,1-.688.5h-.373a.725.725,0,0,0-.725.725v2.929a.725.725,0,0,0,.725.725h41.082a.725.725,0,0,0,.724-.725V98.838a.725.725,0,0,0-.724-.725h-.374A.725.725,0,0,1,234.229,97.617Z" transform="translate(-88.12 -59.516)" fill="#add8b7"/>
        </g>
      </g>
      <g id="Grupo_1101590" data-name="Grupo 1101590" transform="translate(133.179 0)">
        <g id="Grupo_1101552" data-name="Grupo 1101552" transform="translate(66.199 240.528)">
          <rect id="Rectángulo_401382" data-name="Rectángulo 401382" width="129.072" height="60.736" rx="4.144" transform="translate(0 7.692)" fill="#5b2f4e"/>
          <g id="Grupo_1101550" data-name="Grupo 1101550" transform="translate(41.328 5.322)">
            <path id="Trazado_873680" data-name="Trazado 873680" d="M415.554,396.124H395.392V387.21h20.162a5.7,5.7,0,0,0,5.692-5.692v-18.85h8.915v18.85A14.624,14.624,0,0,1,415.554,396.124Z" transform="translate(-353.964 -362.668)" fill="#7c2c2a"/>
            <rect id="Rectángulo_401383" data-name="Rectángulo 401383" width="55.197" height="32.031" rx="1.774" transform="translate(0 12.44)" fill="#7c2c2a"/>
            <g id="Grupo_1101549" data-name="Grupo 1101549" transform="translate(2.999 10.99)">
              <rect id="Rectángulo_401384" data-name="Rectángulo 401384" width="2.894" height="36.018" rx="1.447" fill="#edcab2"/>
              <rect id="Rectángulo_401385" data-name="Rectángulo 401385" width="2.894" height="36.018" rx="1.447" transform="translate(5.788)" fill="#edcab2"/>
              <rect id="Rectángulo_401386" data-name="Rectángulo 401386" width="2.894" height="36.018" rx="1.447" transform="translate(11.576)" fill="#edcab2"/>
              <rect id="Rectángulo_401387" data-name="Rectángulo 401387" width="2.894" height="36.018" rx="1.447" transform="translate(17.365)" fill="#edcab2"/>
              <rect id="Rectángulo_401388" data-name="Rectángulo 401388" width="2.894" height="36.018" rx="1.447" transform="translate(23.153)" fill="#edcab2"/>
              <rect id="Rectángulo_401389" data-name="Rectángulo 401389" width="2.894" height="36.018" rx="1.447" transform="translate(28.941)" fill="#edcab2"/>
              <rect id="Rectángulo_401390" data-name="Rectángulo 401390" width="2.894" height="36.018" rx="1.447" transform="translate(34.729)" fill="#edcab2"/>
              <rect id="Rectángulo_401391" data-name="Rectángulo 401391" width="2.894" height="36.018" rx="1.447" transform="translate(40.517)" fill="#edcab2"/>
              <rect id="Rectángulo_401392" data-name="Rectángulo 401392" width="2.894" height="36.018" rx="1.447" transform="translate(46.305)" fill="#edcab2"/>
            </g>
          </g>
          <rect id="Rectángulo_401393" data-name="Rectángulo 401393" width="122.587" height="7.692" rx="2.768" transform="translate(3.242)" fill="#e88069"/>
          <g id="Grupo_1101551" data-name="Grupo 1101551" transform="translate(8.542 27.503)">
            <rect id="Rectángulo_401394" data-name="Rectángulo 401394" width="21.634" height="3.812" fill="#8ab295"/>
            <rect id="Rectángulo_401395" data-name="Rectángulo 401395" width="21.634" height="3.812" transform="translate(0 5.914)" fill="#8ab295"/>
            <rect id="Rectángulo_401396" data-name="Rectángulo 401396" width="21.634" height="3.812" transform="translate(0 11.828)" fill="#8ab295"/>
            <rect id="Rectángulo_401397" data-name="Rectángulo 401397" width="21.634" height="3.812" transform="translate(0 17.742)" fill="#8ab295"/>
            <rect id="Rectángulo_401398" data-name="Rectángulo 401398" width="21.634" height="3.812" transform="translate(0 23.656)" fill="#8ab295"/>
          </g>
        </g>
        <g id="Grupo_1101571" data-name="Grupo 1101571" transform="translate(0 0)">
          <path id="Trazado_873681" data-name="Trazado 873681" d="M247.912,164.794c-8.278,1.178-16.792,1.014-24.792,3.534a13.522,13.522,0,0,0-5.245,2.724,6.47,6.47,0,0,0-2.19,5.47c.272,1.9,1.591,3.481,1.95,5.365.43,2.256-.581,4.54-1.82,6.439s-2.749,3.649-3.533,5.8a10.667,10.667,0,0,0,1.874,10.139,11.759,11.759,0,0,0,9.209,4.128c2.456-.041,5.1-.966,6.378-3.167,1.025-1.769.971-3.977.844-6.042q-.412-6.712-1.394-13.369c-.538-3.653-.989-8,1.633-10.466,2.314-2.177,5.828-1.735,8.936-1.774,7.5-.095,14.406-3.748,20.531-8,1.547-1.074,8.514-5,7.905-7.258-.685-2.544-6.487,2.378-7.952,3.055A44.077,44.077,0,0,1,247.912,164.794Z" transform="translate(-211.718 -78.055)" fill="#e05a53"/>
          <g id="Grupo_1101553" data-name="Grupo 1101553" transform="translate(18.603 67.934)">
            <path id="Trazado_873682" data-name="Trazado 873682" d="M238.362,178.992l49.427-18.185V143.284l-51.328,18.884a2.753,2.753,0,0,0-1.8,2.585v11.655A2.754,2.754,0,0,0,238.362,178.992Z" transform="translate(-234.657 -143.284)" fill="#5b2f4e"/>
            <path id="Trazado_873683" data-name="Trazado 873683" d="M242.424,177.412a.093.093,0,0,1-.032-.18l45.778-16.842a.094.094,0,0,1,.119.055.091.091,0,0,1-.055.118l-45.779,16.842A.1.1,0,0,1,242.424,177.412Z" transform="translate(-236.108 -146.517)" fill="#edcab2"/>
          </g>
          <g id="Grupo_1101568" data-name="Grupo 1101568" transform="translate(66.199 56.021)">
            <rect id="Rectángulo_401399" data-name="Rectángulo 401399" width="129.072" height="92.253" rx="2.167" fill="#e88069"/>
            <g id="Grupo_1101558" data-name="Grupo 1101558" transform="translate(57.796 21.405)">
              <rect id="Rectángulo_401400" data-name="Rectángulo 401400" width="43.493" height="49.443" rx="2.854" fill="#fff"/>
              <g id="Grupo_1101557" data-name="Grupo 1101557" transform="translate(6.74 5.933)">
                <g id="Grupo_1101554" data-name="Grupo 1101554">
                  <rect id="Rectángulo_401401" data-name="Rectángulo 401401" width="7.496" height="38.252" rx="1.473" fill="#e88069"/>
                  <rect id="Rectángulo_401402" data-name="Rectángulo 401402" width="7.496" height="19.464" rx="1.473" transform="translate(0 18.788)" fill="#7c2c2a"/>
                </g>
                <g id="Grupo_1101555" data-name="Grupo 1101555" transform="translate(11.202)">
                  <rect id="Rectángulo_401403" data-name="Rectángulo 401403" width="7.496" height="38.252" rx="1.473" fill="#e88069"/>
                  <rect id="Rectángulo_401404" data-name="Rectángulo 401404" width="7.496" height="28.963" rx="1.473" transform="translate(0 9.289)" fill="#7c2c2a"/>
                </g>
                <g id="Grupo_1101556" data-name="Grupo 1101556" transform="translate(22.403)">
                  <rect id="Rectángulo_401405" data-name="Rectángulo 401405" width="7.496" height="38.252" rx="1.473" fill="#e88069"/>
                  <rect id="Rectángulo_401406" data-name="Rectángulo 401406" width="7.496" height="24.235" rx="1.473" transform="translate(0 14.017)" fill="#7c2c2a"/>
                </g>
              </g>
            </g>
            <g id="Grupo_1101566" data-name="Grupo 1101566" transform="translate(8.827 21.602)">
              <g id="Grupo_1101559" data-name="Grupo 1101559" transform="translate(4.219)">
                <rect id="Rectángulo_401407" data-name="Rectángulo 401407" width="5.338" height="5.338" rx="1.173" fill="#5b2f4e"/>
                <rect id="Rectángulo_401408" data-name="Rectángulo 401408" width="5.338" height="5.338" rx="1.173" transform="translate(7.448)" fill="#fff"/>
                <rect id="Rectángulo_401409" data-name="Rectángulo 401409" width="5.338" height="5.338" rx="1.173" transform="translate(15.002)" fill="#e05a53"/>
                <rect id="Rectángulo_401410" data-name="Rectángulo 401410" width="5.338" height="5.338" rx="1.173" transform="translate(22.556)" fill="#8ab295"/>
                <rect id="Rectángulo_401411" data-name="Rectángulo 401411" width="5.338" height="5.338" rx="1.173" transform="translate(30.111)" fill="#fff"/>
              </g>
              <g id="Grupo_1101561" data-name="Grupo 1101561" transform="translate(0.304 33.649)">
                <circle id="Elipse_11548" data-name="Elipse 11548" cx="7.3" cy="7.3" r="7.3" transform="translate(0.858 0.858)" fill="#fff"/>
                <g id="Grupo_1101560" data-name="Grupo 1101560" transform="translate(5.3 4.065)">
                  <path id="Trazado_873684" data-name="Trazado 873684" d="M317.438,201.773l-3.688,3.613,1.323.933,2.564-4.391A.127.127,0,0,0,317.438,201.773Z" transform="translate(-311.634 -201.735)" fill="#5b2f4e"/>
                  <path id="Trazado_873685" data-name="Trazado 873685" d="M316.858,206.117A2.858,2.858,0,1,1,314,203.258,2.858,2.858,0,0,1,316.858,206.117Z" transform="translate(-311.141 -202.023)" fill="#5b2f4e"/>
                  <path id="Trazado_873686" data-name="Trazado 873686" d="M315.784,206.443a1.459,1.459,0,1,1-1.459-1.459A1.458,1.458,0,0,1,315.784,206.443Z" transform="translate(-311.467 -202.349)" fill="#e05a53"/>
                </g>
                <path id="Trazado_873687" data-name="Trazado 873687" d="M314.8,212.248a.094.094,0,0,1-.093-.088.1.1,0,0,1,.087-.1,5.525,5.525,0,0,0,4.246-2.377,5.036,5.036,0,0,0,.734-4.308.092.092,0,0,1,.061-.116.093.093,0,0,1,.116.061,5.218,5.218,0,0,1-.758,4.468,5.709,5.709,0,0,1-4.387,2.458Z" transform="translate(-306.515 -198.336)" fill="#301225"/>
                <path id="Trazado_873688" data-name="Trazado 873688" d="M312.764,213.039a8.158,8.158,0,1,1,8.158-8.158A8.167,8.167,0,0,1,312.764,213.039Zm0-14.6a6.442,6.442,0,1,0,6.442,6.443A6.45,6.45,0,0,0,312.764,198.438Z" transform="translate(-304.606 -196.723)" fill="#e05a53"/>
              </g>
              <g id="Grupo_1101563" data-name="Grupo 1101563" transform="translate(22.844 33.649)">
                <circle id="Elipse_11549" data-name="Elipse 11549" cx="7.3" cy="7.3" r="7.3" transform="translate(0.858 0.858)" fill="#fff"/>
                <g id="Grupo_1101562" data-name="Grupo 1101562" transform="translate(5.3 4.065)">
                  <path id="Trazado_873689" data-name="Trazado 873689" d="M345.232,201.773l-3.687,3.613,1.323.933,2.564-4.391A.127.127,0,0,0,345.232,201.773Z" transform="translate(-339.428 -201.735)" fill="#5b2f4e"/>
                  <path id="Trazado_873690" data-name="Trazado 873690" d="M344.652,206.117a2.858,2.858,0,1,1-2.859-2.859A2.858,2.858,0,0,1,344.652,206.117Z" transform="translate(-338.935 -202.023)" fill="#5b2f4e"/>
                  <path id="Trazado_873691" data-name="Trazado 873691" d="M343.578,206.443a1.459,1.459,0,1,1-1.459-1.459A1.458,1.458,0,0,1,343.578,206.443Z" transform="translate(-339.261 -202.349)" fill="#e05a53"/>
                </g>
                <path id="Trazado_873692" data-name="Trazado 873692" d="M342.592,212.248a.093.093,0,0,1-.092-.088.094.094,0,0,1,.087-.1,5.524,5.524,0,0,0,4.245-2.377,5.036,5.036,0,0,0,.735-4.308.092.092,0,0,1,.061-.116.094.094,0,0,1,.116.061,5.221,5.221,0,0,1-.758,4.468,5.711,5.711,0,0,1-4.387,2.458Z" transform="translate(-334.309 -198.336)" fill="#301225"/>
                <path id="Trazado_873693" data-name="Trazado 873693" d="M340.558,213.039a8.158,8.158,0,1,1,8.158-8.158A8.167,8.167,0,0,1,340.558,213.039Zm0-14.6A6.442,6.442,0,1,0,347,204.881,6.45,6.45,0,0,0,340.558,198.438Z" transform="translate(-332.4 -196.723)" fill="#e05a53"/>
              </g>
              <g id="Grupo_1101565" data-name="Grupo 1101565" transform="translate(0 10.628)">
                <path id="Trazado_873694" data-name="Trazado 873694" d="M324.352,169.77c-9.858,0-17.938,7.018-18.684,15.932a1.3,1.3,0,0,0,1.359,1.348h34.651a1.3,1.3,0,0,0,1.359-1.348C342.291,176.788,334.21,169.77,324.352,169.77Z" transform="translate(-304.502 -168.608)" fill="#fff"/>
                <path id="Trazado_873695" data-name="Trazado 873695" d="M340.764,185.22a.13.13,0,0,1-.132-.117c-.607-6.807-7.272-12.137-15.176-12.137S310.889,178.3,310.283,185.1a.138.138,0,0,1-.144.117.131.131,0,0,1-.121-.139c.618-6.937,7.4-12.371,15.439-12.371s14.822,5.434,15.441,12.371a.131.131,0,0,1-.122.139Z" transform="translate(-305.325 -169.164)" fill="#301225"/>
                <g id="Grupo_1101564" data-name="Grupo 1101564" transform="translate(12.451 11.259)">
                  <path id="Trazado_873696" data-name="Trazado 873696" d="M326.983,182.664c-4.086,0-7.4,3.055-7.4,6.823h14.8C334.383,185.719,331.07,182.664,326.983,182.664Z" transform="translate(-319.584 -182.304)" fill="#5b2f4e"/>
                  <path id="Trazado_873697" data-name="Trazado 873697" d="M341.52,182.237l-12.414,3.331,1.749,3.617,10.985-6.287A.368.368,0,0,0,341.52,182.237Z" transform="translate(-321.384 -182.221)" fill="#5b2f4e"/>
                  <path id="Trazado_873698" data-name="Trazado 873698" d="M327.846,186.871a3.564,3.564,0,0,0-3.7,3.411h7.4A3.564,3.564,0,0,0,327.846,186.871Z" transform="translate(-320.447 -183.1)" fill="#e05a53"/>
                </g>
                <path id="Trazado_873699" data-name="Trazado 873699" d="M341.407,187.94H306.756a2.575,2.575,0,0,1-1.9-.82,2.329,2.329,0,0,1-.622-1.786c.8-9.531,9.514-17,19.843-17s19.044,7.466,19.842,17a2.332,2.332,0,0,1-.622,1.786A2.576,2.576,0,0,1,341.407,187.94ZM324.082,170.66c-9.131,0-16.83,6.53-17.527,14.868a.234.234,0,0,0,.2.089h34.651a.224.224,0,0,0,.2-.094C340.911,177.19,333.212,170.66,324.082,170.66Z" transform="translate(-304.231 -168.337)" fill="#e05a53"/>
              </g>
            </g>
            <g id="Grupo_1101567" data-name="Grupo 1101567" transform="translate(0 6.676)">
              <rect id="Rectángulo_401412" data-name="Rectángulo 401412" width="129.072" height="6.535" fill="#edcab2"/>
              <rect id="Rectángulo_401413" data-name="Rectángulo 401413" width="129.072" height="6.535" transform="translate(0 72.366)" fill="#edcab2"/>
            </g>
            <path id="Trazado_873700" data-name="Trazado 873700" d="M446.6,206.551a1.115,1.115,0,0,1-1.114-1.115V134.645a1.114,1.114,0,0,1,2.229,0v70.791A1.115,1.115,0,0,1,446.6,206.551Z" transform="translate(-322.104 -129.528)" fill="#fff" style="mix-blend-mode: soft-light;isolation: isolate"/>
          </g>
          <g id="Grupo_1101569" data-name="Grupo 1101569" transform="translate(85.626)">
            <path id="Trazado_873701" data-name="Trazado 873701" d="M317.3,67.639V96.88a4.558,4.558,0,0,0,1.865,3.678L326,105.565H346.59l6.834-5.007a4.558,4.558,0,0,0,1.865-3.678V67.639a8.123,8.123,0,0,0-8.123-8.123H325.425A8.123,8.123,0,0,0,317.3,67.639Z" transform="translate(-317.302 -59.516)" fill="#add8b7"/>
            <path id="Rectángulo_401414" data-name="Rectángulo 401414" d="M2.143,0H23.033a2.144,2.144,0,0,1,2.144,2.144V7.829a2.143,2.143,0,0,1-2.143,2.143H2.143A2.143,2.143,0,0,1,0,7.829V2.143A2.143,2.143,0,0,1,2.143,0Z" transform="translate(6.406 46.049)" fill="#5b2f4e"/>
            <path id="Trazado_873702" data-name="Trazado 873702" d="M353.425,104.519a4.559,4.559,0,0,0,1.864-3.678v-17.3c-2.785,1.156-5.507,2.761-8.475,3.241-3.579.579-7.208-.53-10.578-1.866-4.141-1.641-8.207-3.666-12.62-4.28a15.956,15.956,0,0,0-5.886.252c-.144.035-.285.085-.429.125v19.83a4.558,4.558,0,0,0,1.865,3.678L326,109.526H346.59Z" transform="translate(-317.302 -63.478)" fill="#e05a53"/>
            <path id="Trazado_873703" data-name="Trazado 873703" d="M322.492,98.261a1.115,1.115,0,0,1-1.114-1.114V66.632a1.114,1.114,0,0,1,2.229,0V97.147A1.114,1.114,0,0,1,322.492,98.261Z" transform="translate(-318.072 -60.651)" fill="#fff" style="mix-blend-mode: soft-light;isolation: isolate"/>
          </g>
          <g id="Grupo_1101570" data-name="Grupo 1101570" transform="translate(137.855)">
            <path id="Trazado_873704" data-name="Trazado 873704" d="M381.7,67.639V96.88a4.558,4.558,0,0,0,1.865,3.678l6.835,5.007h20.588l6.835-5.007a4.559,4.559,0,0,0,1.864-3.678V67.639a8.122,8.122,0,0,0-8.123-8.123H389.829A8.123,8.123,0,0,0,381.7,67.639Z" transform="translate(-381.705 -59.516)" fill="#add8b7"/>
            <path id="Rectángulo_401415" data-name="Rectángulo 401415" d="M2.144,0H23.033a2.143,2.143,0,0,1,2.143,2.143V7.829a2.144,2.144,0,0,1-2.144,2.144H2.143A2.143,2.143,0,0,1,0,7.829V2.144A2.144,2.144,0,0,1,2.144,0Z" transform="translate(6.406 46.049)" fill="#5b2f4e"/>
            <path id="Trazado_873705" data-name="Trazado 873705" d="M417.828,104.519a4.559,4.559,0,0,0,1.864-3.678v-17.3c-2.785,1.156-5.507,2.761-8.474,3.241-3.58.579-7.208-.53-10.578-1.866-4.142-1.641-8.208-3.666-12.62-4.28a15.956,15.956,0,0,0-5.886.252c-.144.035-.285.085-.429.125v19.83a4.558,4.558,0,0,0,1.865,3.678l6.835,5.007h20.588Z" transform="translate(-381.705 -63.478)" fill="#b79070"/>
            <path id="Trazado_873706" data-name="Trazado 873706" d="M386.477,98.261a1.115,1.115,0,0,1-1.114-1.114V66.632a1.114,1.114,0,1,1,2.229,0V97.147A1.114,1.114,0,0,1,386.477,98.261Z" transform="translate(-382.396 -60.651)" fill="#fff" style="mix-blend-mode: soft-light;isolation: isolate"/>
          </g>
        </g>
        <g id="Grupo_1101585" data-name="Grupo 1101585" transform="translate(73.215 148.274)">
          <rect id="Rectángulo_401416" data-name="Rectángulo 401416" width="81.941" height="92.253" rx="15.848" fill="#add8b7"/>
          <g id="Grupo_1101573" data-name="Grupo 1101573" transform="translate(6.742 38.962)">
            <path id="Trazado_873707" data-name="Trazado 873707" d="M311.568,304.436a1.679,1.679,0,0,0-1.088,2.357c2.446,5.065,10.858,18.235,29.848,11.23s16.97-21.361,15.592-26.392a1.68,1.68,0,0,0-2.25-1.115A356.688,356.688,0,0,1,311.568,304.436Z" transform="translate(-310.312 -290.393)" fill="#8ab295"/>
            <path id="Trazado_873708" data-name="Trazado 873708" d="M332.141,310.831q.4,5.324.4,10.665-.736.045-1.443.045,0-5.342-.4-10.675C330.63,309.939,332.072,309.908,332.141,310.831Zm16.6-7.743c-.726-.566-1.715.484-.981,1.057a65.391,65.391,0,0,0,7.4,5q.372-.631.683-1.266A62.723,62.723,0,0,1,348.737,303.087Zm-32.06,12.526,6.224-6.635a.722.722,0,0,0-1.057-.982l-6.168,6.575C315.991,314.923,316.328,315.27,316.677,315.614Zm22.731-6.921a.721.721,0,0,0-1.38.417l3.28,10.446.036-.012c.453-.166.882-.341,1.31-.516Q341.031,313.86,339.408,308.693Zm-11.255,1.086c.268-.891-1.136-1.222-1.4-.337a80.873,80.873,0,0,1-3.932,10.4c.433.193.876.376,1.336.541A83.3,83.3,0,0,0,328.153,309.779ZM351,298.44c-.917-.109-1.2,1.306-.277,1.415l6.994.826c.032-.491.049-.975.048-1.443Zm-8.249,8.37a.722.722,0,0,0-.982,1.058L349.6,315.2q.6-.446,1.143-.905Z" transform="translate(-311.326 -291.913)" fill="#477a52"/>
            <path id="Trazado_873709" data-name="Trazado 873709" d="M314.5,304.1c3.32,5.678,11.753,16.287,26.152,10.435,13.355-5.428,12.963-16.572,11.483-22.859A356.546,356.546,0,0,1,314.5,304.1Z" transform="translate(-311.104 -290.635)" fill="#e05a53"/>
            <path id="Trazado_873710" data-name="Trazado 873710" d="M351.045,292.092c1.082,6.426.409,15.945-11.042,20.663-12.4,5.108-20.293-3.212-24.075-9.055-.476.131-.95.267-1.426.4,3.32,5.678,11.753,16.287,26.152,10.435,13.355-5.428,12.963-16.572,11.483-22.859C351.774,291.814,351.408,291.95,351.045,292.092Z" transform="translate(-311.104 -290.635)" fill="#e88069"/>
            <g id="Grupo_1101572" data-name="Grupo 1101572" transform="translate(14.024 7.8)">
              <path id="Trazado_873711" data-name="Trazado 873711" d="M328.858,307.118l-1.025.882a.656.656,0,0,0,.068,1.046h0a.656.656,0,0,0,.989-.362l.384-1.3A.259.259,0,0,0,328.858,307.118Z" transform="translate(-327.605 -301.343)" fill="#5b2f4e"/>
              <path id="Trazado_873712" data-name="Trazado 873712" d="M337.225,312.067l-.636,1.733a.9.9,0,0,0,.777,1.2h0a.9.9,0,0,0,.94-1.092l-.4-1.8A.353.353,0,0,0,337.225,312.067Z" transform="translate(-329.292 -302.247)" fill="#5b2f4e"/>
              <path id="Trazado_873713" data-name="Trazado 873713" d="M346.928,307.327l.736,1.073a.632.632,0,0,0,1.009.045h0a.632.632,0,0,0-.243-.985l-1.2-.5A.249.249,0,0,0,346.928,307.327Z" transform="translate(-331.249 -301.321)" fill="#5b2f4e"/>
              <path id="Trazado_873714" data-name="Trazado 873714" d="M351.2,300.51l1.182.78a.689.689,0,0,0,1.036-.369h0a.689.689,0,0,0-.65-.895l-1.417-.015A.272.272,0,0,0,351.2,300.51Z" transform="translate(-332.041 -300.012)" fill="#5b2f4e"/>
            </g>
            <path id="Trazado_873715" data-name="Trazado 873715" d="M334.433,316.049H334.4a17.617,17.617,0,0,1-13.461-6.5,1.114,1.114,0,1,1,1.684-1.46,15.491,15.491,0,0,0,11.834,5.73,1.115,1.115,0,0,1-.028,2.229Z" transform="translate(-312.27 -293.666)" fill="#fff" style="mix-blend-mode: soft-light;isolation: isolate"/>
          </g>
          <g id="Grupo_1101575" data-name="Grupo 1101575" transform="translate(34.336 8.12)">
            <path id="Trazado_873716" data-name="Trazado 873716" d="M347.262,252.54a1.144,1.144,0,0,0-1.679.551c-1.389,3.567-4.051,13.863,8.241,20.077s18.51-1.448,20.377-4.467a1.143,1.143,0,0,0-.487-1.638A242.454,242.454,0,0,1,347.262,252.54Z" transform="translate(-344.338 -252.362)" fill="#8ab295"/>
            <path id="Trazado_873717" data-name="Trazado 873717" d="M353.9,265.877q-2.466,2.668-5.125,5.145-.364-.345-.692-.7,2.659-2.479,5.131-5.151C353.646,264.711,354.33,265.414,353.9,265.877Zm11.552,4.678c-.054-.624-1.036-.63-.981,0a44.616,44.616,0,0,0,.942,6q.488-.107.948-.247A42.708,42.708,0,0,1,365.453,270.556Zm-21.1-10.166,6.191.025a.491.491,0,0,0,0-.981l-6.135-.025C344.377,259.728,344.36,260.057,344.351,260.39Zm13.984,8.116a.491.491,0,0,0-.848-.495l-3.683,6.477.022.011c.293.148.579.281.865.414Zm-5.758-5.1c.568-.28.082-1.133-.483-.855a55.1,55.1,0,0,1-7.006,2.864c.1.3.218.611.35.916A56.68,56.68,0,0,0,352.578,263.4Zm16.242,6.128c-.371-.508-1.208.007-.834.518l2.83,3.867c.259-.212.508-.427.74-.645Zm-7.995-.23a.491.491,0,0,0-.982,0l-.022,7.3c.333.061.66.111.98.15Z" transform="translate(-344.341 -253.694)" fill="#477a52"/>
            <path id="Trazado_873718" data-name="Trazado 873718" d="M349.312,253.566c-1.289,4.286-2.666,13.405,6.924,17.866,8.895,4.138,14.265-1.224,16.712-4.876A242.663,242.663,0,0,1,349.312,253.566Z" transform="translate(-345.106 -252.59)" fill="#e05a53"/>
            <path id="Trazado_873719" data-name="Trazado 873719" d="M372.232,266.207c-2.7,3.518-7.755,7.595-15.413,4.078-8.292-3.809-7.806-11.6-6.648-16.192-.286-.177-.573-.35-.859-.527-1.289,4.286-2.666,13.405,6.924,17.866,8.895,4.138,14.265-1.224,16.712-4.876C372.709,266.442,372.471,266.323,372.232,266.207Z" transform="translate(-345.106 -252.59)" fill="#e88069"/>
            <g id="Grupo_1101574" data-name="Grupo 1101574" transform="translate(8.245 6.843)">
              <path id="Trazado_873720" data-name="Trazado 873720" d="M355.915,260.9l-.913-.1a.447.447,0,0,0-.491.519h0a.447.447,0,0,0,.64.325l.823-.41A.176.176,0,0,0,355.915,260.9Z" transform="translate(-354.505 -260.8)" fill="#5b2f4e"/>
              <path id="Trazado_873721" data-name="Trazado 873721" d="M357.22,267.34l-1.158.487a.61.61,0,0,0-.239.945h0a.611.611,0,0,0,.98-.037l.71-1.036A.241.241,0,0,0,357.22,267.34Z" transform="translate(-354.729 -262.032)" fill="#5b2f4e"/>
              <path id="Trazado_873722" data-name="Trazado 873722" d="M364.3,269.892l-.194.865a.43.43,0,0,0,.446.523h0a.43.43,0,0,0,.378-.578l-.306-.83A.169.169,0,0,0,364.3,269.892Z" transform="translate(-356.318 -262.493)" fill="#5b2f4e"/>
              <path id="Trazado_873723" data-name="Trazado 873723" d="M369.719,268.861l.159.95a.469.469,0,0,0,.664.345h0a.468.468,0,0,0,.144-.738l-.649-.713A.185.185,0,0,0,369.719,268.861Z" transform="translate(-357.38 -262.283)" fill="#5b2f4e"/>
            </g>
            <path id="Trazado_873724" data-name="Trazado 873724" d="M364.931,273.626a12.121,12.121,0,0,1-2.382-.243,1.114,1.114,0,1,1,.437-2.185,8.881,8.881,0,0,0,8.278-2.51,1.114,1.114,0,0,1,1.525,1.625A11.251,11.251,0,0,1,364.931,273.626Z" transform="translate(-347.611 -255.391)" fill="#fff" style="mix-blend-mode: soft-light;isolation: isolate"/>
          </g>
          <g id="Grupo_1101580" data-name="Grupo 1101580" transform="translate(20.99 63.64)">
            <path id="Trazado_873725" data-name="Trazado 873725" d="M333.86,344.253h28.909a1.086,1.086,0,0,1,1.045.786l2.538,8.827H330.278l2.538-8.827A1.086,1.086,0,0,1,333.86,344.253Z" transform="translate(-328.334 -325.253)" fill="#5b2f4e"/>
            <g id="Grupo_1101579" data-name="Grupo 1101579">
              <g id="Grupo_1101576" data-name="Grupo 1101576" transform="translate(16.235)">
                <path id="Trazado_873726" data-name="Trazado 873726" d="M348.112,333.783l2.224,6.041h2.62l2.224-6.04a3.628,3.628,0,0,0,.041-2.316l-3.392-10.479c-.071-.221-.3-.221-.367,0l-3.392,10.479A3.625,3.625,0,0,0,348.112,333.783Z" transform="translate(-347.901 -320.824)" fill="#fff"/>
                <path id="Trazado_873727" data-name="Trazado 873727" d="M352.3,338.97a.093.093,0,0,1-.093-.092V324.205a.093.093,0,0,1,.186,0v14.672A.092.092,0,0,1,352.3,338.97Z" transform="translate(-348.715 -321.446)" fill="#301225"/>
              </g>
              <g id="Grupo_1101577" data-name="Grupo 1101577" transform="translate(0 0.35)">
                <path id="Trazado_873728" data-name="Trazado 873728" d="M337,339.906l-7.755-4.239a2.634,2.634,0,0,1-1.129-3.394,41.382,41.382,0,0,1,6.968-10.81.629.629,0,0,1,1.089.5l-.954,7.69a4.609,4.609,0,0,0,1.82,4.264l8.034,5.986Z" transform="translate(-327.881 -321.255)" fill="#fff"/>
                <path id="Trazado_873729" data-name="Trazado 873729" d="M341.967,339.427a.093.093,0,0,1-.045-.012c-.3-.168-7.322-4.133-7.9-5.665s1.9-10.2,2.009-10.568a.1.1,0,0,1,.114-.064.092.092,0,0,1,.064.114c-.025.09-2.564,8.981-2.014,10.453s7.741,5.527,7.813,5.567a.093.093,0,0,1-.045.174Z" transform="translate(-329.027 -321.607)" fill="#301225"/>
              </g>
              <g id="Grupo_1101578" data-name="Grupo 1101578" transform="translate(22.771 0.35)">
                <path id="Trazado_873730" data-name="Trazado 873730" d="M364.032,339.906l7.755-4.239a2.635,2.635,0,0,0,1.13-3.394,41.406,41.406,0,0,0-6.969-10.81.629.629,0,0,0-1.089.5l.955,7.69a4.609,4.609,0,0,1-1.82,4.264l-8.034,5.986Z" transform="translate(-355.96 -321.255)" fill="#fff"/>
                <path id="Trazado_873731" data-name="Trazado 873731" d="M363.234,339.464a.089.089,0,0,1-.076-.041.091.091,0,0,1,.024-.129c.062-.042,6.174-4.249,6.727-5.17.4-.669-1.465-6.76-2.816-10.691a.092.092,0,0,1,.058-.118.091.091,0,0,1,.118.057c.346,1.01,3.374,9.89,2.8,10.848s-6.528,5.053-6.782,5.227A.09.09,0,0,1,363.234,339.464Z" transform="translate(-357.317 -321.643)" fill="#301225"/>
              </g>
            </g>
          </g>
          <g id="Grupo_1101581" data-name="Grupo 1101581" transform="translate(56.174 43.302)">
            <path id="Trazado_873732" data-name="Trazado 873732" d="M386.1,300.983a10.238,10.238,0,0,1,6.841-5.207,1.261,1.261,0,0,1,1.507.94h0a1.259,1.259,0,0,1-1.239,1.538c-3.1,0-5.037,1.036-6.866,3.752Z" transform="translate(-374.069 -295.745)" fill="#5b2f4e"/>
            <path id="Trazado_873733" data-name="Trazado 873733" d="M384.138,300.707s-2.178-5.519-6.316-4.82c-4.942.834-9.289,12.96-4.448,15.546,3.43,1.832,5.661,1.092,5.661,1.092s.4,2.928,4.928,4.689c4.863,1.89,12.613-12.06,6.985-15.078C386.959,300,384.138,300.707,384.138,300.707Z" transform="translate(-371.265 -295.76)" fill="#e05a53"/>
            <path id="Trazado_873734" data-name="Trazado 873734" d="M374.335,305.228a1.115,1.115,0,0,1-1.047-1.5c1.313-3.59,3.387-5.655,6.163-6.135a1.115,1.115,0,0,1,.38,2.2c-1.961.339-3.416,1.877-4.448,4.7A1.116,1.116,0,0,1,374.335,305.228Z" transform="translate(-371.635 -296.092)" fill="#fff" style="mix-blend-mode: soft-light;isolation: isolate"/>
          </g>
          <g id="Grupo_1101582" data-name="Grupo 1101582" transform="translate(12.741 25.705)">
            <path id="Trazado_873735" data-name="Trazado 873735" d="M325.817,278.33a8.381,8.381,0,0,0-5.607-4.258,1.032,1.032,0,0,0-1.233.77h0a1.03,1.03,0,0,0,1.016,1.259,6.036,6.036,0,0,1,5.625,3.067Z" transform="translate(-317.944 -274.047)" fill="#5b2f4e"/>
            <path id="Trazado_873736" data-name="Trazado 873736" d="M324.892,278.1s1.78-4.521,5.169-3.953c4.048.679,7.617,10.606,3.656,12.727-2.808,1.5-4.635.9-4.635.9s-.322,2.4-4.032,3.845c-3.981,1.551-10.339-9.866-5.733-12.342A8.389,8.389,0,0,1,324.892,278.1Z" transform="translate(-317.71 -274.057)" fill="#e05a53"/>
            <path id="Trazado_873737" data-name="Trazado 873737" d="M320.663,287.741a1.115,1.115,0,0,1-.992-.6c-1.926-3.744-.337-5.568,1.335-6.441a1.114,1.114,0,1,1,1.03,1.976c-.86.448-1.6,1.084-.383,3.444a1.114,1.114,0,0,1-.99,1.624Z" transform="translate(-317.914 -275.28)" fill="#fff" style="mix-blend-mode: soft-light;isolation: isolate"/>
          </g>
          <g id="Grupo_1101583" data-name="Grupo 1101583" transform="translate(11.832 9.565)">
            <path id="Trazado_873738" data-name="Trazado 873738" d="M324.567,259.108a3.989,3.989,0,0,1-7.978,0c0-2.2,2.126-3.247,4.33-3.247S324.567,256.9,324.567,259.108Z" transform="translate(-316.589 -254.469)" fill="#5b2f4e"/>
            <path id="Trazado_873739" data-name="Trazado 873739" d="M320.256,255.289s-1.825-1.438-2.026-.634,1.252.99,1.252.99-1.484-.124-1.407.432,1.654.217,1.654.217-.633,1.006.062,1.129,1.066-.928,1.066-.928.619,1.067,1.067.758-.4-1.191-.4-1.191,1.221.48,1.237,0-1.345-.526-1.345-.526,1.933-.34,1.19-.834-1.748.355-1.748.355.31-.912-.2-.912S320.256,255.289,320.256,255.289Z" transform="translate(-316.869 -254.145)" fill="#8ab295"/>
            <path id="Trazado_873740" data-name="Trazado 873740" d="M319.644,262.715a1.106,1.106,0,0,1-.534-.137,3.179,3.179,0,0,1-1.7-2.343,1.115,1.115,0,0,1,2.2-.344.943.943,0,0,0,.57.732,1.115,1.115,0,0,1-.536,2.092Z" transform="translate(-316.741 -255.053)" fill="#fff" style="mix-blend-mode: soft-light;isolation: isolate"/>
          </g>
          <g id="Grupo_1101584" data-name="Grupo 1101584" transform="translate(65.803 28.891)">
            <path id="Trazado_873741" data-name="Trazado 873741" d="M389.839,285.933a3.99,3.99,0,1,1-5.421-5.855c1.617-1.5,3.827-.646,5.324.972S391.456,284.437,389.839,285.933Z" transform="translate(-383.139 -278.226)" fill="#5b2f4e"/>
            <path id="Trazado_873742" data-name="Trazado 873742" d="M390.222,279.938s-.184-2.315-.911-1.917.124,1.592.124,1.592-.917-1.173-1.273-.739.965,1.362.965,1.362-1.169.217-.787.812,1.406.152,1.406.152-.363,1.179.169,1.3.6-1.1.6-1.1.478,1.222.841.908-.529-1.345-.529-1.345,1.563,1.187,1.422.307-1.448-1.04-1.448-1.04.879-.393.533-.767S390.222,279.938,390.222,279.938Z" transform="translate(-384.077 -277.975)" fill="#8ab295"/>
            <path id="Trazado_873743" data-name="Trazado 873743" d="M385.112,284.173a1.163,1.163,0,0,1-.2-.018,1.116,1.116,0,0,1-.895-1.3,3.183,3.183,0,0,1,1.693-2.351,1.115,1.115,0,1,1,1.018,1.984.948.948,0,0,0-.518.771A1.115,1.115,0,0,1,385.112,284.173Z" transform="translate(-383.301 -278.43)" fill="#fff" style="mix-blend-mode: soft-light;isolation: isolate"/>
          </g>
          <path id="Trazado_873744" data-name="Trazado 873744" d="M394.725,314.31h-.02a1.115,1.115,0,0,1-1.095-1.135c.379-21.611.526-56.909-.69-59.628a4.847,4.847,0,0,0-4.927-2.712,1.115,1.115,0,0,1-.3-2.209,7.013,7.013,0,0,1,7.264,4.012c1.819,4.065.985,54.8.885,60.577A1.115,1.115,0,0,1,394.725,314.31Z" transform="translate(-318.014 -243.527)" fill="#fff" style="mix-blend-mode: soft-light;isolation: isolate"/>
        </g>
        <g id="Grupo_1101589" data-name="Grupo 1101589" transform="translate(167.586 148.274)">
          <g id="Grupo_1101586" data-name="Grupo 1101586" transform="translate(0 48.614)">
            <path id="Trazado_873745" data-name="Trazado 873745" d="M438.923,348.186H420.916a.932.932,0,0,0-.71.365l-1.473,1.765a1.849,1.849,0,0,0,0,2.211l1.473,1.764a.932.932,0,0,0,.71.365h18.008a.932.932,0,0,0,.71-.365l1.474-1.764a1.849,1.849,0,0,0,0-2.211l-1.474-1.765A.932.932,0,0,0,438.923,348.186Z" transform="translate(-418.366 -310.97)" fill="#b79070"/>
            <path id="Trazado_873746" data-name="Trazado 873746" d="M438.923,340.538H420.916a.932.932,0,0,0-.71.365l-1.473,1.764a1.849,1.849,0,0,0,0,2.211l1.473,1.764a.932.932,0,0,0,.71.365h18.008a.932.932,0,0,0,.71-.365l1.474-1.764a1.849,1.849,0,0,0,0-2.211l-1.474-1.764A.932.932,0,0,0,438.923,340.538Z" transform="translate(-418.366 -309.524)" fill="#b79070"/>
            <path id="Trazado_873747" data-name="Trazado 873747" d="M438.923,332.889H420.916a.932.932,0,0,0-.71.365l-1.473,1.765a1.848,1.848,0,0,0,0,2.21l1.473,1.765a.932.932,0,0,0,.71.365h18.008a.932.932,0,0,0,.71-.365l1.474-1.765a1.848,1.848,0,0,0,0-2.21l-1.474-1.765A.932.932,0,0,0,438.923,332.889Z" transform="translate(-418.366 -308.078)" fill="#b79070"/>
            <path id="Trazado_873748" data-name="Trazado 873748" d="M438.923,325.241H420.916a.932.932,0,0,0-.71.365l-1.473,1.764a1.849,1.849,0,0,0,0,2.211l1.473,1.764a.932.932,0,0,0,.71.365h18.008a.932.932,0,0,0,.71-.365l1.474-1.764a1.849,1.849,0,0,0,0-2.211l-1.474-1.764A.932.932,0,0,0,438.923,325.241Z" transform="translate(-418.366 -306.632)" fill="#b79070"/>
            <path id="Trazado_873749" data-name="Trazado 873749" d="M438.923,317.592H420.916a.932.932,0,0,0-.71.365l-1.473,1.765a1.849,1.849,0,0,0,0,2.211l1.473,1.764a.932.932,0,0,0,.71.365h18.008a.932.932,0,0,0,.71-.365l1.474-1.764a1.849,1.849,0,0,0,0-2.211l-1.474-1.765A.932.932,0,0,0,438.923,317.592Z" transform="translate(-418.366 -305.187)" fill="#b79070"/>
            <path id="Trazado_873750" data-name="Trazado 873750" d="M438.923,309.944H420.916a.932.932,0,0,0-.71.365l-1.473,1.764a1.849,1.849,0,0,0,0,2.211l1.473,1.764a.932.932,0,0,0,.71.365h18.008a.932.932,0,0,0,.71-.365l1.474-1.764a1.849,1.849,0,0,0,0-2.211l-1.474-1.764A.932.932,0,0,0,438.923,309.944Z" transform="translate(-418.366 -303.741)" fill="#b79070"/>
            <path id="Trazado_873751" data-name="Trazado 873751" d="M438.923,302.3H420.916a.932.932,0,0,0-.71.365l-1.473,1.765a1.849,1.849,0,0,0,0,2.211l1.473,1.764a.932.932,0,0,0,.71.365h18.008a.932.932,0,0,0,.71-.365l1.474-1.764a1.849,1.849,0,0,0,0-2.211l-1.474-1.765A.932.932,0,0,0,438.923,302.3Z" transform="translate(-418.366 -302.295)" fill="#b79070"/>
          </g>
          <g id="Grupo_1101587" data-name="Grupo 1101587">
            <path id="Rectángulo_401417" data-name="Rectángulo 401417" d="M0,0H23.361a0,0,0,0,1,0,0V45.4a3.211,3.211,0,0,1-3.211,3.211H3.211A3.211,3.211,0,0,1,0,45.4V0A0,0,0,0,1,0,0Z" fill="#5b2f4e"/>
            <path id="Trazado_873752" data-name="Trazado 873752" d="M442.993,282.115A1.114,1.114,0,0,1,441.879,281V248.707a1.114,1.114,0,0,1,2.229,0V281A1.114,1.114,0,0,1,442.993,282.115Z" transform="translate(-422.81 -243.341)" fill="#fff" style="mix-blend-mode: soft-light;isolation: isolate"/>
          </g>
          <g id="Grupo_1101588" data-name="Grupo 1101588" transform="translate(3.551 54.724)">
            <path id="Trazado_873753" data-name="Trazado 873753" d="M438.02,310.015H422.837a.093.093,0,1,1,0-.186H438.02a.093.093,0,1,1,0,.186Z" transform="translate(-422.744 -309.829)" fill="#301225"/>
            <path id="Trazado_873754" data-name="Trazado 873754" d="M438.02,317.663H422.837a.093.093,0,1,1,0-.186H438.02a.093.093,0,1,1,0,.186Z" transform="translate(-422.744 -311.275)" fill="#301225"/>
            <path id="Trazado_873755" data-name="Trazado 873755" d="M438.02,325.312H422.837a.093.093,0,1,1,0-.186H438.02a.093.093,0,1,1,0,.186Z" transform="translate(-422.744 -312.721)" fill="#301225"/>
            <path id="Trazado_873756" data-name="Trazado 873756" d="M438.02,332.96H422.837a.093.093,0,1,1,0-.186H438.02a.093.093,0,1,1,0,.186Z" transform="translate(-422.744 -314.166)" fill="#301225"/>
            <path id="Trazado_873757" data-name="Trazado 873757" d="M438.02,340.609H422.837a.093.093,0,1,1,0-.186H438.02a.093.093,0,1,1,0,.186Z" transform="translate(-422.744 -315.612)" fill="#301225"/>
            <path id="Trazado_873758" data-name="Trazado 873758" d="M438.02,348.258H422.837a.093.093,0,1,1,0-.186H438.02a.093.093,0,1,1,0,.186Z" transform="translate(-422.744 -317.058)" fill="#301225"/>
          </g>
        </g>
      </g>
      <g id="Grupo_1101611" data-name="Grupo 1101611" transform="translate(0 75.303)">
        <g id="Grupo_1101604" data-name="Grupo 1101604" transform="translate(0 0)">
          <g id="Grupo_1101595" data-name="Grupo 1101595" transform="translate(0 58.417)">
            <g id="Grupo_1101592" data-name="Grupo 1101592" transform="translate(14.16)">
              <path id="Trazado_873759" data-name="Trazado 873759" d="M154.7,228.451l24.34,160.883H144.208l-15.2-120.64,1.578-40.369Z" transform="translate(-77.065 -225.145)" fill="#5b2f4e"/>
              <path id="Trazado_873760" data-name="Trazado 873760" d="M119.206,277.547,103.115,389.175H64.957L96.234,225.027l22.248,1.746Z" transform="translate(-64.957 -224.522)" fill="#5b2f4e"/>
              <g id="Grupo_1101591" data-name="Grupo 1101591" transform="translate(3.592)">
                <path id="Trazado_873761" data-name="Trazado 873761" d="M129.806,233.61q-.985,0-1.968-.013l-.138,0c-.777-.013-1.58-.026-2.373-.052h-.03c-1.643-.05-3.154-.119-4.624-.21-.786-.047-1.554-.1-2.348-.161-4.323-.324-8.7-.847-13.01-1.557-.9-.141-1.883-.311-3.091-.534a.094.094,0,0,1-.075-.109.093.093,0,0,1,.108-.075c1.207.223,2.189.392,3.088.534,4.3.708,8.677,1.231,12.994,1.554.792.062,1.56.114,2.345.161,1.467.092,2.976.16,4.614.21h.031c.795.026,1.6.039,2.373.052l.137,0a151.588,151.588,0,0,0,15.52-.594c2.288-.205,4.55-.46,6.738-.757a.092.092,0,0,1,.1.08.094.094,0,0,1-.08.1c-2.19.3-4.455.551-6.731.757C138.906,233.407,134.347,233.61,129.806,233.61Z" transform="translate(-75.579 -225.631)" fill="#301225"/>
                <path id="Trazado_873762" data-name="Trazado 873762" d="M161.246,245.274a.075.075,0,0,1-.023,0,13.115,13.115,0,0,1-6.121-3.465,14.654,14.654,0,0,1-4.022-7.866.092.092,0,0,1,.075-.107.087.087,0,0,1,.107.075,14.471,14.471,0,0,0,3.97,7.765,12.936,12.936,0,0,0,6.036,3.417.093.093,0,0,1,.067.113A.092.092,0,0,1,161.246,245.274Z" transform="translate(-84.828 -226.186)" fill="#301225"/>
                <path id="Trazado_873763" data-name="Trazado 873763" d="M99.315,242.675a.093.093,0,0,1-.031-.181,14.555,14.555,0,0,0,4.253-2.337,15.933,15.933,0,0,0,5.175-7.528.1.1,0,0,1,.118-.061.094.094,0,0,1,.06.117,16.124,16.124,0,0,1-5.237,7.617,14.754,14.754,0,0,1-4.307,2.368A.1.1,0,0,1,99.315,242.675Z" transform="translate(-75.026 -225.946)" fill="#301225"/>
                <path id="Trazado_873764" data-name="Trazado 873764" d="M130.169,262.8h-.01a.092.092,0,0,1-.083-.1l2.956-28.731a.088.088,0,0,1,.1-.083.092.092,0,0,1,.083.1l-2.956,28.731A.092.092,0,0,1,130.169,262.8Z" transform="translate(-80.858 -226.196)" fill="#301225"/>
                <path id="Trazado_873765" data-name="Trazado 873765" d="M130.935,256.2a.089.089,0,0,1-.066-.027.093.093,0,0,1,0-.131,8.315,8.315,0,0,0,1.983-3.636,26.565,26.565,0,0,0,.726-4.209l1.623-13.854a.1.1,0,0,1,.1-.082.093.093,0,0,1,.081.1l-1.623,13.855a26.526,26.526,0,0,1-.732,4.238A8.5,8.5,0,0,1,131,256.17.091.091,0,0,1,130.935,256.2Z" transform="translate(-81.003 -226.267)" fill="#301225"/>
                <path id="Trazado_873766" data-name="Trazado 873766" d="M136.453,231.091a2.023,2.023,0,0,1-1.118,1.514,1.722,1.722,0,0,1-1.132.165,1.656,1.656,0,0,1-1.2-1.389,1.892,1.892,0,0,1,.737-1.738A1.688,1.688,0,0,1,136.453,231.091Z" transform="translate(-81.408 -225.333)" fill="#301225"/>
                <path id="Trazado_873767" data-name="Trazado 873767" d="M152.951,232.446a.092.092,0,0,1-.09-.069l-.026-.1a.093.093,0,0,1,.035-.1,24.319,24.319,0,0,0-.115-4.34.093.093,0,0,1,.082-.1c.047-.015.1.029.1.081a24.5,24.5,0,0,1,.1,4.543.093.093,0,0,1-.084.085Z" transform="translate(-85.145 -225.033)" fill="#301225"/>
                <path id="Trazado_873768" data-name="Trazado 873768" d="M149.8,232.558a.094.094,0,0,1-.093-.086l-.323-4.637a.093.093,0,0,1,.086-.1.106.106,0,0,1,.1.086l.323,4.637a.093.093,0,0,1-.086.1Z" transform="translate(-84.507 -225.034)" fill="#301225"/>
                <path id="Trazado_873769" data-name="Trazado 873769" d="M124.978,232.667h-.009a.093.093,0,0,1-.083-.1l.521-5.11a.093.093,0,0,1,.184.019l-.521,5.111A.092.092,0,0,1,124.978,232.667Z" transform="translate(-79.877 -224.965)" fill="#301225"/>
                <path id="Trazado_873770" data-name="Trazado 873770" d="M122.075,232.407h-.011a.093.093,0,0,1-.08-.1l.71-5.6a.093.093,0,1,1,.185.023l-.71,5.6A.093.093,0,0,1,122.075,232.407Z" transform="translate(-79.328 -224.823)" fill="#301225"/>
                <path id="Trazado_873771" data-name="Trazado 873771" d="M109.508,230.795H109.5a.093.093,0,0,1-.079-.1l.8-5.683a.089.089,0,0,1,.105-.079.093.093,0,0,1,.079.1l-.8,5.683A.093.093,0,0,1,109.508,230.795Z" transform="translate(-76.952 -224.502)" fill="#301225"/>
                <path id="Trazado_873772" data-name="Trazado 873772" d="M106.037,230.436a.084.084,0,0,1-.024,0,.093.093,0,0,1-.066-.114l1.555-5.846a.093.093,0,0,1,.18.048l-1.555,5.846A.094.094,0,0,1,106.037,230.436Z" transform="translate(-76.296 -224.404)" fill="#301225"/>
                <path id="Trazado_873773" data-name="Trazado 873773" d="M163.434,320.477a.091.091,0,0,1-.073-.036l-13.9-17.893c-4.141-5.329-8.424-10.839-12.549-16.377a.093.093,0,0,1,.019-.13.1.1,0,0,1,.13.019c4.124,5.536,8.406,11.046,12.547,16.373l13.9,17.893a.093.093,0,0,1-.074.15Z" transform="translate(-82.146 -236.052)" fill="#301225"/>
                <path id="Trazado_873774" data-name="Trazado 873774" d="M150.287,318.539a.094.094,0,0,1-.084-.054l-7-15.032a.092.092,0,0,1,.045-.123.091.091,0,0,1,.123.045l6.995,15.032a.093.093,0,0,1-.045.123A.1.1,0,0,1,150.287,318.539Z" transform="translate(-83.338 -239.321)" fill="#301225"/>
                <path id="Trazado_873775" data-name="Trazado 873775" d="M88.645,305.548a.092.092,0,0,1-.065-.159l27.876-26.815a.093.093,0,0,1,.129.134L88.709,305.522A.09.09,0,0,1,88.645,305.548Z" transform="translate(-73.009 -234.638)" fill="#301225"/>
                <path id="Trazado_873776" data-name="Trazado 873776" d="M99.66,310.521a.09.09,0,0,1-.069-.032.092.092,0,0,1,.007-.131,80.783,80.783,0,0,0,13.427-15.58.093.093,0,0,1,.156.1A80.969,80.969,0,0,1,99.722,310.5.09.09,0,0,1,99.66,310.521Z" transform="translate(-75.091 -237.699)" fill="#301225"/>
                <path id="Trazado_873777" data-name="Trazado 873777" d="M180.151,424.011h0l-31.348-.27a.092.092,0,0,1-.092-.093.094.094,0,0,1,.093-.092h0l31.349.27a.093.093,0,0,1,0,.186Z" transform="translate(-84.38 -262.048)" fill="#301225"/>
                <path id="Trazado_873778" data-name="Trazado 873778" d="M102.2,424.915h0l-32.725-.14a.093.093,0,0,1,0-.186h0l32.725.14a.093.093,0,0,1,0,.186Z" transform="translate(-69.386 -262.244)" fill="#301225"/>
              </g>
            </g>
            <g id="Grupo_1101593" data-name="Grupo 1101593" transform="translate(80.891 164.189)">
              <path id="Trazado_873779" data-name="Trazado 873779" d="M182.49,426.862l14.228,8.121a.956.956,0,0,1-.474,1.787H161.592a.961.961,0,0,1-.55-.174l-2.161-1.519a.956.956,0,0,0-1.177.06l-1.611,1.4a.952.952,0,0,1-.627.234H148.2a.956.956,0,0,1-.956-.956v-8.952Z" transform="translate(-147.242 -426.862)" fill="#301225"/>
            </g>
            <g id="Grupo_1101594" data-name="Grupo 1101594" transform="translate(0 164.653)">
              <path id="Trazado_873780" data-name="Trazado 873780" d="M99.815,427.435v8.487a.956.956,0,0,1-.956.956h-7.5a.956.956,0,0,1-.611-.221l-3.159-2.628a.956.956,0,0,0-1.139-.062L82.28,436.72a.957.957,0,0,1-.526.158h-33.3a.956.956,0,0,1-.467-1.791l13.669-7.652Z" transform="translate(-47.497 -427.435)" fill="#301225"/>
            </g>
          </g>
          <path id="Trazado_873781" data-name="Trazado 873781" d="M158.165,176.269s11.749-.976,17.447,5.116,3.127,27.045,3.127,27.045l4.569-12.581,14.632,1.505s2.545,51.806-22.318,50.864c-15.417-.585-14.924-36.571-14.924-36.571Z" transform="translate(-68.416 -156.877)" fill="#fff"/>
          <g id="Grupo_1101603" data-name="Grupo 1101603" transform="translate(26.216)">
            <g id="Grupo_1101596" data-name="Grupo 1101596" transform="translate(18.962 16.849)">
              <path id="Trazado_873782" data-name="Trazado 873782" d="M137.6,175.38l11.174.546,4.237,24.222-3.189,17.873s-23.041,4.374-46.621-2.649l12.157-42.225,13.53,1.483Z" transform="translate(-103.205 -173.147)" fill="#e05a53"/>
            </g>
            <g id="Grupo_1101600" data-name="Grupo 1101600" transform="translate(40.782)">
              <path id="Trazado_873783" data-name="Trazado 873783" d="M130.111,174.453l3.867.424,8.711.749,4.171.139c-.412,2.612-1.68,7.056-8.313,6.9S130.111,174.453,130.111,174.453Z" transform="translate(-130.111 -156.545)" fill="#edcab2"/>
              <path id="Trazado_873784" data-name="Trazado 873784" d="M143.125,175.674l-8.711-.749-1.995-.219c1.134,2.346,3.155,5.294,6.24,5.626,3.011.324,5.678-2.293,7.394-4.559Z" transform="translate(-130.547 -156.593)" fill="#aa434d"/>
              <g id="Grupo_1101599" data-name="Grupo 1101599" transform="translate(3.868)">
                <path id="Trazado_873785" data-name="Trazado 873785" d="M146.4,158.228s1.124.6,2.188,4.739,1.741,7.89-4.117,5.34a13.165,13.165,0,0,0-.885,4.092s-4.952,2.1-8.71-.749l5.493-11.192,3.512-3.074Z" transform="translate(-134.88 -153.318)" fill="#aa434d"/>
                <g id="Grupo_1101598" data-name="Grupo 1101598" transform="translate(8.243 7.335)">
                  <g id="Grupo_1101597" data-name="Grupo 1101597">
                    <path id="Trazado_873786" data-name="Trazado 873786" d="M145.137,163.46l-.019,0a.093.093,0,0,1-.071-.11,1.135,1.135,0,0,1,1.742-.7.091.091,0,0,1,.026.128.093.093,0,0,1-.129.025.951.951,0,0,0-1.457.586A.093.093,0,0,1,145.137,163.46Z" transform="translate(-145.044 -161.611)" fill="#301225"/>
                    <path id="Trazado_873787" data-name="Trazado 873787" d="M148.485,162.138a.094.094,0,0,1-.087-.127.936.936,0,0,1,1.521-.337.093.093,0,0,1,0,.131.091.091,0,0,1-.131,0,.75.75,0,0,0-1.219.27A.092.092,0,0,1,148.485,162.138Z" transform="translate(-145.677 -161.415)" fill="#301225"/>
                    <path id="Trazado_873788" data-name="Trazado 873788" d="M147.657,166.018a1.758,1.758,0,0,1-1.243-.461.093.093,0,0,1,0-.131.094.094,0,0,1,.131,0c.793.743,2.049.271,2.486.07a4.618,4.618,0,0,1-.738-.79.093.093,0,0,1,.06-.148l.69-.1a16.945,16.945,0,0,1-1.356-1.545.093.093,0,0,1,.147-.114,11.459,11.459,0,0,0,1.483,1.64.091.091,0,0,1,.042.1.092.092,0,0,1-.077.074l-.744.113a2.546,2.546,0,0,0,.715.689.093.093,0,0,1,.026.172A3.73,3.73,0,0,1,147.657,166.018Z" transform="translate(-145.298 -161.668)" fill="#301225"/>
                  </g>
                </g>
                <path id="Trazado_873789" data-name="Trazado 873789" d="M139.5,161.418a1.639,1.639,0,0,0,1.2-.163,1.444,1.444,0,0,0,.576-.99,4.141,4.141,0,0,0-.034-1.175,1.092,1.092,0,0,0,1.641-1.184,1.136,1.136,0,0,0,1.606-.585.984.984,0,0,0,1.663.2,1.008,1.008,0,0,0,.507.946,1.933,1.933,0,0,0,1.1.23,2.631,2.631,0,0,0,1.564-.548,1.7,1.7,0,0,0,.637-1.485,1.266,1.266,0,0,0-1.1-1.1,1.236,1.236,0,0,0-1.692-1.757,2.507,2.507,0,0,0-1.668-1.4,1.719,1.719,0,0,0-1.9.878,6.7,6.7,0,0,0-2.486-.736,1.965,1.965,0,0,0-1.2.182,1.176,1.176,0,0,0-.486,1.355,1.294,1.294,0,1,0-1.5,2.109,2.794,2.794,0,0,0-1.083.187.95.95,0,0,0-.592.857c.027.442.446.743.823.976a.816.816,0,0,0-.841.843.825.825,0,0,0,.633.7c.119.031.252.007.359.076.134.087.225.309.327.432A3.356,3.356,0,0,0,139.5,161.418Z" transform="translate(-135.137 -152.371)" fill="#301225"/>
                <path id="Trazado_873790" data-name="Trazado 873790" d="M139.182,160.97c1.139-.41,2.181,1.98,2.181,1.98l-1.819,1.191C137.907,163.988,138.044,161.379,139.182,160.97Z" transform="translate(-135.53 -153.987)" fill="#aa434d"/>
              </g>
            </g>
            <g id="Grupo_1101601" data-name="Grupo 1101601" transform="translate(0 16.589)">
              <path id="Trazado_873791" data-name="Trazado 873791" d="M122.939,174.145,109.372,301.462c-12.317.824-20.155-1.554-29.549-4.578,6.166-50.74,13.784-98.13,30.7-124.058Z" transform="translate(-79.823 -172.826)" fill="#fff"/>
            </g>
            <g id="Grupo_1101602" data-name="Grupo 1101602" transform="translate(54.944 18.907)">
              <path id="Trazado_873792" data-name="Trazado 873792" d="M147.574,175.685l3.54,129.161c5.854,3.479,22.188-2.611,28.821-4.348l-22.4-124.251Z" transform="translate(-147.574 -175.685)" fill="#fff"/>
              <path id="Trazado_873793" data-name="Trazado 873793" d="M170.319,234.593a.092.092,0,0,1-.092-.076l-8.041-44.6a.094.094,0,0,1,.075-.109.091.091,0,0,1,.109.075l8.041,44.6a.093.093,0,0,1-.075.108Z" transform="translate(-150.336 -178.354)" fill="#301225"/>
            </g>
          </g>
        </g>
        <g id="Grupo_1101608" data-name="Grupo 1101608" transform="translate(102.998 37.646)">
          <g id="Grupo_1101605" data-name="Grupo 1101605" transform="translate(0 10.398)">
            <path id="Trazado_873794" data-name="Trazado 873794" d="M246.275,232.08V219.271H183.993v12.146A15.49,15.49,0,0,0,174.5,245.7v145.26a7.711,7.711,0,0,0,7.712,7.711h64.457a7.711,7.711,0,0,0,7.711-7.711V245.7A15.484,15.484,0,0,0,246.275,232.08Z" transform="translate(-174.502 -213.06)" fill="#efaba5"/>
            <path id="Trazado_873795" data-name="Trazado 873795" d="M253.343,294.715a11.949,11.949,0,0,1-7.187-2.481,30.151,30.151,0,0,0-5.8-3.233c-4.2-1.894-8.951-4.6-9.867-9.749-.508-2.858.342-5.838,0-8.729-.823-6.923-7.917-10.782-9.359-17.566-1.045-4.911,1.144-9.854,2.277-14.739,1.159-4.994,1.217-10.232,1.268-15.406.025-2.5-.007-5.2-1.309-7.181-1.439-2.188-3.983-2.833-6.309-3.329-2.561-.546-5.228-1.088-7.738-.279-7.2,2.319-6.519,13.866-4.121,19.954,1.559,3.954,3.4,8.351,2.16,12.454-1.084,3.575-4.3,5.936-5.072,9.619-1.345,6.433,5.407,12.016,4.8,18.6-.357,3.9-3.177,6.776-5.8,9.238l-4.059,3.818a33.181,33.181,0,0,1-22.732,9.009h0v94.8a7.711,7.711,0,0,0,7.712,7.711h64.457a7.711,7.711,0,0,0,7.711-7.711v-94.8Z" transform="translate(-174.502 -211.612)" fill="#e88069"/>
            <path id="Trazado_873796" data-name="Trazado 873796" d="M248.857,235.108h-40.73a.093.093,0,1,1,0-.186h40.73a.093.093,0,0,1,0,.186Z" transform="translate(-180.84 -216.018)" fill="#301225"/>
          </g>
          <g id="Grupo_1101607" data-name="Grupo 1101607" transform="translate(5.042)">
            <rect id="Rectángulo_401418" data-name="Rectángulo 401418" width="71.18" height="21.618" rx="3.149" fill="#b79070"/>
            <g id="Grupo_1101606" data-name="Grupo 1101606" transform="translate(3.763 2.543)">
              <path id="Trazado_873797" data-name="Trazado 873797" d="M185.452,218.458a.093.093,0,0,1-.093-.093V202.02a.093.093,0,1,1,.186,0v16.344A.093.093,0,0,1,185.452,218.458Z" transform="translate(-185.359 -201.927)" fill="#301225"/>
              <path id="Trazado_873798" data-name="Trazado 873798" d="M193.278,218.458a.093.093,0,0,1-.093-.093V202.02a.093.093,0,1,1,.186,0v16.344A.093.093,0,0,1,193.278,218.458Z" transform="translate(-186.838 -201.927)" fill="#301225"/>
              <path id="Trazado_873799" data-name="Trazado 873799" d="M201.1,218.458a.093.093,0,0,1-.093-.093V202.02a.093.093,0,1,1,.186,0v16.344A.093.093,0,0,1,201.1,218.458Z" transform="translate(-188.318 -201.927)" fill="#301225"/>
              <path id="Trazado_873800" data-name="Trazado 873800" d="M208.93,218.458a.093.093,0,0,1-.093-.093V202.02a.093.093,0,1,1,.186,0v16.344A.093.093,0,0,1,208.93,218.458Z" transform="translate(-189.797 -201.927)" fill="#301225"/>
              <path id="Trazado_873801" data-name="Trazado 873801" d="M216.756,218.458a.093.093,0,0,1-.093-.093V202.02a.093.093,0,1,1,.186,0v16.344A.093.093,0,0,1,216.756,218.458Z" transform="translate(-191.276 -201.927)" fill="#301225"/>
              <path id="Trazado_873802" data-name="Trazado 873802" d="M224.583,218.458a.093.093,0,0,1-.093-.093V202.02a.093.093,0,1,1,.186,0v16.344A.093.093,0,0,1,224.583,218.458Z" transform="translate(-192.756 -201.927)" fill="#301225"/>
              <path id="Trazado_873803" data-name="Trazado 873803" d="M232.409,218.458a.093.093,0,0,1-.093-.093V202.02a.093.093,0,1,1,.186,0v16.344A.093.093,0,0,1,232.409,218.458Z" transform="translate(-194.235 -201.927)" fill="#301225"/>
              <path id="Trazado_873804" data-name="Trazado 873804" d="M240.235,218.458a.093.093,0,0,1-.093-.093V202.02a.093.093,0,1,1,.186,0v16.344A.093.093,0,0,1,240.235,218.458Z" transform="translate(-195.714 -201.927)" fill="#301225"/>
              <path id="Trazado_873805" data-name="Trazado 873805" d="M248.061,218.458a.093.093,0,0,1-.093-.093V202.02a.093.093,0,1,1,.186,0v16.344A.093.093,0,0,1,248.061,218.458Z" transform="translate(-197.194 -201.927)" fill="#301225"/>
              <path id="Trazado_873806" data-name="Trazado 873806" d="M255.887,218.458a.093.093,0,0,1-.093-.093V202.02a.093.093,0,1,1,.186,0v16.344A.093.093,0,0,1,255.887,218.458Z" transform="translate(-198.673 -201.927)" fill="#301225"/>
              <path id="Trazado_873807" data-name="Trazado 873807" d="M263.713,218.458a.093.093,0,0,1-.093-.093V202.02a.093.093,0,1,1,.186,0v16.344A.093.093,0,0,1,263.713,218.458Z" transform="translate(-200.152 -201.927)" fill="#301225"/>
            </g>
          </g>
          <path id="Trazado_873808" data-name="Trazado 873808" d="M263.32,324.87h-.014a1.115,1.115,0,0,1-1.1-1.128c.354-28.859.656-72.7.038-75.212-.639-2.362-3.674-5-4.789-5.814a1.114,1.114,0,0,1,1.314-1.8c.19.139,4.651,3.426,5.627,7.035.9,3.326.129,68.408.038,75.818A1.114,1.114,0,0,1,263.32,324.87Z" transform="translate(-190.096 -206.713)" fill="#fff" style="mix-blend-mode: soft-light;isolation: isolate"/>
        </g>
        <g id="Grupo_1101610" data-name="Grupo 1101610" transform="translate(32.161 16.519)">
          <path id="Trazado_873809" data-name="Trazado 873809" d="M194.692,265.569s18.751,1,18.879.4-4.34-1.34-4.34-1.34,5.561-.019,5.762-.608-5.306-1.027-5.234-1.041,4.858-.343,4.912-1-5.06-.526-5.06-.526,4.469-.777,4.4-1.2-4.808-.113-6.489-.138a4.3,4.3,0,0,1-1.5-.563s2.3-1.783,1.739-2.769c-1.515.76-4.444,2.52-5.567,2.242-.543-.135-4.214-2.389-4.214-2.389Z" transform="translate(-107.481 -188.599)" fill="#aa434d"/>
          <path id="Trazado_873810" data-name="Trazado 873810" d="M111.913,172.81s-16.273-1.251-22.365,6.8-7.97,79.026,90.061,82.074l.332-21.812-49.77-17.03Z" transform="translate(-87.154 -172.739)" fill="#fff"/>
          <g id="Grupo_1101609" data-name="Grupo 1101609" transform="translate(6.745 10.266)">
            <path id="Trazado_873811" data-name="Trazado 873811" d="M117.795,255.46a.087.087,0,0,1-.052-.016,65.921,65.921,0,0,1-22.261-24.789.093.093,0,1,1,.165-.084,65.764,65.764,0,0,0,22.2,24.719.092.092,0,0,1,.025.129A.094.094,0,0,1,117.795,255.46Z" transform="translate(-95.471 -193.927)" fill="#301225"/>
            <path id="Trazado_873812" data-name="Trazado 873812" d="M128.225,201.846a.092.092,0,0,1-.088-.061L122.2,185.525a.092.092,0,0,1,.055-.118.089.089,0,0,1,.119.055l5.933,16.26a.093.093,0,0,1-.055.119A.088.088,0,0,1,128.225,201.846Z" transform="translate(-100.523 -185.399)" fill="#301225"/>
            <path id="Trazado_873813" data-name="Trazado 873813" d="M170.326,244.913a.1.1,0,0,1-.03,0L149.219,237.7a.092.092,0,0,1-.058-.118.093.093,0,0,1,.118-.058l21.076,7.211a.092.092,0,0,1,.058.118A.091.091,0,0,1,170.326,244.913Z" transform="translate(-105.619 -195.25)" fill="#301225"/>
            <path id="Trazado_873814" data-name="Trazado 873814" d="M139.114,234.128a.1.1,0,0,1-.038-.008l-4.548-2.009a.093.093,0,1,1,.075-.169l4.549,2.008a.093.093,0,0,1-.038.178Z" transform="translate(-102.844 -194.195)" fill="#301225"/>
            <path id="Trazado_873815" data-name="Trazado 873815" d="M169.9,278.987l-.014,0a126.238,126.238,0,0,1-19.663-4.663.092.092,0,0,1-.059-.117.094.094,0,0,1,.117-.06,126.18,126.18,0,0,0,19.634,4.657.093.093,0,0,1-.015.184Z" transform="translate(-105.809 -202.173)" fill="#301225"/>
          </g>
        </g>
        <path id="Trazado_873816" data-name="Trazado 873816" d="M194.364,198.359l3.2-1.418a7.04,7.04,0,0,1,3.207-.6c1.379.071,3.625-.258,5.357.865s1.285,5.734.56,5.767-.791-2.735-.791-2.735-.422,2.6-1.153,2.439-.732-2.966-.732-2.966-.817,2.7-1.476,2.6-.791-3.2-.791-3.2-.495,2.837-.923,2.869-.936-2.609-1.482-3.493c0,0,.131,2.208-.725,2.043s-1.418-2.076-1.418-2.076Z" transform="translate(-75.258 -160.68)" fill="#aa434d"/>
      </g>
    </g>
  </g>
</svg>
