<svg xmlns="http://www.w3.org/2000/svg" width="62.648" height="62.77" viewBox="0 0 62.648 62.77">
  <g id="research_16688086" transform="translate(-4 -4)">
    <path id="Trazado_874037" data-name="Trazado 874037" d="M44.535,30.685a3.393,3.393,0,0,0-3.671,2.974,8.9,8.9,0,0,1-.285,1.249,6.15,6.15,0,0,1-1.21.268,3.374,3.374,0,1,0,.794,6.7,7.607,7.607,0,0,0,7.394-7.594A3.389,3.389,0,0,0,44.535,30.685Zm-4.423,8.948c-1.63.224-2.381-1.832-.384-2.243,2.458-.412,2.863-.816,3.34-3.318.126-.746.616-1.22,1.225-1.158.834.094,1.017.807,1.023,1.379a5.351,5.351,0,0,1-5.2,5.341Z" transform="translate(3.911 3.229)" fill="#f9a545"/>
    <path id="Trazado_874038" data-name="Trazado 874038" d="M37.07,21.734a1.122,1.122,0,0,0,.056,2.241l.058,0,1.239-.063a5.569,5.569,0,0,0,.909,1.926l-.828.916a1.121,1.121,0,0,0,1.664,1.5L41,27.334a5.522,5.522,0,0,0,2,.706l.063,1.245a1.121,1.121,0,0,0,2.24-.114l-.063-1.233a5.536,5.536,0,0,0,1.926-.915c.4.305,1.094,1.193,1.667,1.116a1.128,1.128,0,0,0,.751-1.953l-.916-.827a5.569,5.569,0,0,0,.708-2.008l1.239-.063a1.121,1.121,0,1,0-.114-2.239l-1.239.063a5.568,5.568,0,0,0-.909-1.926l.827-.916a1.121,1.121,0,0,0-1.664-1.5l-.826.915a5.473,5.473,0,0,0-2.009-.719l-.062-1.227a1.122,1.122,0,0,0-2.24.114l.063,1.233A5.537,5.537,0,0,0,40.52,18l-.916-.828a1.121,1.121,0,1,0-1.5,1.664l.916.827a5.568,5.568,0,0,0-.708,2.009l-1.239.063Zm4.278-1.476a3.364,3.364,0,0,1,4.993,4.507A3.364,3.364,0,0,1,41.348,20.258Z" transform="translate(3.878 1.295)" fill="#f9a545"/>
    <path id="Trazado_874039" data-name="Trazado 874039" d="M31.567,38.119a1.121,1.121,0,0,0-2.242,0A1.121,1.121,0,0,0,31.567,38.119Z" transform="translate(3.067 3.998)" fill="#f9a545"/>
    <path id="Trazado_874040" data-name="Trazado 874040" d="M49.112,28.892a1.121,1.121,0,0,0,0,2.242A1.121,1.121,0,0,0,49.112,28.892Z" transform="translate(5.329 3.014)" fill="#f9a545"/>
    <path id="Trazado_874041" data-name="Trazado 874041" d="M40.995,4a25.408,25.408,0,0,0-5.377.572,1.117,1.117,0,0,0-.951,1.11,1.142,1.142,0,0,0,1.367,1.095C50.422,3.5,64.718,15,64.538,29.785c.208,17.383-19,29.055-34.327,20.944a7.963,7.963,0,0,0-9.766,1.989l-2.383-2.383.587-.587a7.8,7.8,0,0,0,1.884-8.03,1.121,1.121,0,1,0-2.126.709,5.575,5.575,0,0,1-1.343,5.736l-.587.587-.393-.393L14.5,46.77a1.121,1.121,0,0,0-1.585,1.585l.791.791L5.641,57.212a5.6,5.6,0,0,0,7.926,7.926l8.064-8.064.793.793a1.121,1.121,0,0,0,1.585-1.585L22.03,54.3l.587-.587a5.6,5.6,0,0,1,6.563-1A25.916,25.916,0,0,0,40.995,55.57C75.19,54.161,75.2,5.415,40.995,4ZM11.982,63.554c-1.991,2.064-5.849.532-5.741-2.378A3.34,3.34,0,0,1,7.226,58.8l8.062-8.066,4.758,4.758Z" transform="translate(0.001 0)" fill="#f9a545"/>
    <path id="Trazado_874042" data-name="Trazado 874042" d="M23.534,40.609a1.121,1.121,0,0,0-1.8,1.331C33.9,58.346,60.123,49.756,60.177,29.3A21.353,21.353,0,0,0,36.756,8.108a1.121,1.121,0,0,0-1,1.228,1.1,1.1,0,0,0,1.229,1A19.106,19.106,0,0,1,57.935,29.3c-.05,18.3-23.514,25.988-34.4,11.307Z" transform="translate(2.119 0.483)" fill="#f9a545"/>
    <path id="Trazado_874043" data-name="Trazado 874043" d="M29.266,18.986H24.412a4.442,4.442,0,0,0-1.186-2.033l2.433-4.214a1.16,1.16,0,0,0-.408-1.533,10.467,10.467,0,0,0-10.28,0,1.16,1.16,0,0,0-.408,1.533l2.433,4.215a4.094,4.094,0,0,0-1.172,2.033H10.954a1.121,1.121,0,0,0-1.121,1.121,10.31,10.31,0,0,0,5.139,8.9A1.123,1.123,0,0,0,16.5,28.6s2.424-4.2,2.425-4.2a4.343,4.343,0,0,0,2.362,0l2.424,4.2a1.115,1.115,0,0,0,.974.567c3.555-1.335,5.67-5.349,5.7-9.053a1.121,1.121,0,0,0-1.121-1.121Zm-14.1,7.449a8.067,8.067,0,0,1-3-5.206h3.65a4.442,4.442,0,0,0,1.186,2.033l-1.832,3.173Zm6.86-5.223A2.209,2.209,0,0,1,18.2,19,2.209,2.209,0,0,1,22.023,21.211Zm-.739-5.381a4.338,4.338,0,0,0-2.354-.011l-1.823-3.158a8.284,8.284,0,0,1,6.008,0Zm3.774,10.6-1.832-3.174A4.1,4.1,0,0,0,24.4,21.228h3.664a8.067,8.067,0,0,1-3,5.206Z" transform="translate(0.706 0.709)" fill="#f9a545"/>
    <path id="Trazado_874044" data-name="Trazado 874044" d="M20.816,4A16.835,16.835,0,0,0,4,20.816C3.891,35.111,21.243,42.972,31.888,33.474l3.831,3.83a1.128,1.128,0,0,0,1.914-.793s0-15.7,0-15.7A16.835,16.835,0,0,0,20.816,4ZM35.391,33.805l-2.683-2.683a1.154,1.154,0,0,0-1.585,0c-9,9.155-24.965,2.541-24.88-10.306.8-19.333,28.35-19.33,29.148,0,0,0,0,12.989,0,12.989Z" fill="#f9a545"/>
  </g>
</svg>
