<svg xmlns="http://www.w3.org/2000/svg" width="62.767" height="62.77" viewBox="0 0 62.767 62.77">
  <g id="layer1" transform="translate(-2.117 -282.183)">
    <path id="circle1991" d="M17.808,288.533A15.692,15.692,0,1,0,33.5,304.225,15.712,15.712,0,0,0,17.808,288.533Zm0,2.615a13.031,13.031,0,0,1,5.9,1.412L19.5,296.767a1.312,1.312,0,0,0-.386.919v5.231a1.306,1.306,0,0,0,1.052,1.282l4.8.955-5.445,9.971-3.07-11.245a1.311,1.311,0,0,0-1.259-.963H10.951l-2.3-8.035a13.031,13.031,0,0,1,9.156-3.734Zm8.15,2.85a13.079,13.079,0,0,1-4.324,22.733l6.48-11.876a1.209,1.209,0,0,0,.156-.631,1.4,1.4,0,0,0-1.055-1.28l-5.483-1.1v-3.619Zm-19.3,3.41L8.7,304.585a1.305,1.305,0,0,0,1.262.948h4.232l3.2,11.748A13.054,13.054,0,0,1,6.658,297.408Z" transform="translate(0 25.033)" fill="#f9a545"/>
    <path id="path1995" d="M11.082,282.712a2.615,2.615,0,1,0,.679,5.141l2.837,2.84a10.418,10.418,0,0,0-1.87,3.813,2.616,2.616,0,1,0,0,5.181A10.42,10.42,0,0,0,14.6,303.5l-2.837,2.845a2.62,2.62,0,1,0,1.847,1.842l2.843-2.835a10.419,10.419,0,0,0,3.813,1.869,2.616,2.616,0,1,0,5.179,0,10.424,10.424,0,0,0,3.813-1.875L32.1,308.19a2.618,2.618,0,1,0,1.849-1.849L31.1,303.5a10.417,10.417,0,0,0,1.87-3.811,2.614,2.614,0,1,0,.34-5.206,2.623,2.623,0,0,0-.337.025,10.42,10.42,0,0,0-1.875-3.816l2.848-2.84A2.619,2.619,0,1,0,32.094,286l-2.84,2.848a10.416,10.416,0,0,0-3.813-1.872,2.616,2.616,0,1,0-5.179,0,10.416,10.416,0,0,0-3.813,1.872L13.605,286a2.6,2.6,0,0,0-2.523-3.287Zm11.769,6.538a7.816,7.816,0,0,1,5.43,2.179,1.308,1.308,0,0,0,.235.235,7.849,7.849,0,1,1-5.665-2.413Z" transform="translate(25.034 2.085)" fill="#f9a545"/>
    <path id="circle2005" d="M13.728,286.137a1.308,1.308,0,1,1-1.308-1.308A1.308,1.308,0,0,1,13.728,286.137Z" transform="translate(35.464 10.433)" fill="#f9a545"/>
    <path id="circle2007" d="M13.2,287.2a1.308,1.308,0,1,1-1.308-1.308A1.308,1.308,0,0,1,13.2,287.2Z" transform="translate(33.378 14.604)" fill="#f9a545"/>
    <path id="circle2009" d="M14.257,287.2a1.308,1.308,0,1,1-1.308-1.308A1.308,1.308,0,0,1,14.257,287.2Z" transform="translate(37.55 14.604)" fill="#f9a545"/>
    <path id="path2011" d="M24.362,284.3a24.843,24.843,0,0,0-18.307,8.066v-2.835a1.3,1.3,0,0,0-1.308-1.308,1.323,1.323,0,0,0-1.308,1.308v6.538a1.306,1.306,0,0,0,1.308,1.308h6.538a1.308,1.308,0,1,0,0-2.615H7.421a22.227,22.227,0,0,1,16.941-7.846,1.308,1.308,0,0,0,0-2.615Z" transform="translate(5.215 8.346)" fill="#f9a545"/>
    <path id="path2013" d="M21.823,289.063a1.3,1.3,0,0,0-1.308,1.308,22.232,22.232,0,0,1-7.846,16.943v-3.867a1.292,1.292,0,0,0-1.308-1.308,1.32,1.32,0,0,0-1.308,1.308v6.538a1.307,1.307,0,0,0,1.308,1.308H17.9a1.308,1.308,0,0,0,0-2.615H15.07a24.849,24.849,0,0,0,8.06-18.307,1.279,1.279,0,0,0-1.308-1.308Z" transform="translate(31.292 27.123)" fill="#f9a545"/>
    <path id="path2015" d="M22.685,282.183A35.2,35.2,0,0,0,5.79,288.129V284.8a1.279,1.279,0,0,0-1.308-1.308A1.31,1.31,0,0,0,3.175,284.8v6.538a1.309,1.309,0,0,0,1.308,1.308h6.538a1.308,1.308,0,1,0,0-2.615H7.693a32.549,32.549,0,0,1,15.2-5.231,1.261,1.261,0,0,0,1.208-1.308,1.28,1.28,0,0,0-1.412-1.308Z" transform="translate(4.172)" fill="#f9a545"/>
    <path id="path2017" d="M21.854,289.592a1.284,1.284,0,0,0-1.308,1.208A32.576,32.576,0,0,1,15.315,306v-3.336a1.281,1.281,0,0,0-1.308-1.308,1.3,1.3,0,0,0-1.308,1.308v6.538a1.316,1.316,0,0,0,1.308,1.308h6.538a1.308,1.308,0,1,0,0-2.615H17.218A35.23,35.23,0,0,0,23.161,291a1.312,1.312,0,0,0-1.308-1.41Z" transform="translate(41.723 29.208)" fill="#f9a545"/>
    <path id="circle2027" d="M10.024,287.2a1.308,1.308,0,1,1-1.308-1.308A1.308,1.308,0,0,1,10.024,287.2Z" transform="translate(20.861 14.604)" fill="#f9a545"/>
    <path id="circle2029" d="M4.732,289.841a1.308,1.308,0,1,1-1.308-1.307,1.308,1.308,0,0,1,1.308,1.307Z" transform="translate(0 25.035)" fill="#f9a545"/>
    <path id="circle2031" d="M13.2,290.37a1.308,1.308,0,1,1-1.308-1.308A1.308,1.308,0,0,1,13.2,290.37Z" transform="translate(33.378 27.121)" fill="#f9a545"/>
    <path id="circle2033" d="M10.553,295.662a1.308,1.308,0,1,1-1.308-1.308A1.308,1.308,0,0,1,10.553,295.662Z" transform="translate(22.948 47.983)" fill="#f9a545"/>
  </g>
</svg>
