<svg id="clock-with-clockwise_82280" xmlns="http://www.w3.org/2000/svg" width="83.879" height="83.879" viewBox="0 0 83.879 83.879">
  <path id="Trazado_874049" data-name="Trazado 874049" d="M71.6,12.284A41.94,41.94,0,0,0,12.284,71.6,41.94,41.94,0,0,0,71.6,12.284Zm-29.656,67.8A38.144,38.144,0,1,1,80.083,41.939,38.187,38.187,0,0,1,41.939,80.083Z" fill="#fff"/>
  <path id="Trazado_874050" data-name="Trazado 874050" d="M74.349,40a34.349,34.349,0,1,0,21.735,60.926,1.9,1.9,0,1,0-2.405-2.936,30.592,30.592,0,1,1,4.312-4.312,1.9,1.9,0,0,0,2.936,2.405A34.331,34.331,0,0,0,74.349,40Z" transform="translate(-32.409 -32.409)" fill="#fff"/>
  <path id="Trazado_874051" data-name="Trazado 874051" d="M140.682,134.393l8.262-8.262a4.934,4.934,0,0,0-6.978-6.978l-7.917,7.917-11.943-11.943a4.934,4.934,0,1,0-6.978,6.978l12.288,12.288a6.6,6.6,0,0,0,.791,2.813l-13.079,13.079a1.9,1.9,0,1,0,2.684,2.684l13.079-13.079a6.64,6.64,0,0,0,9.791-5.5Zm3.968-12.556a1.139,1.139,0,1,1,1.61,1.61l-6.782,6.782a6.7,6.7,0,0,0-1.61-1.61Zm-27.171-3.22a1.139,1.139,0,0,1,1.944-.805L130.23,128.62a6.7,6.7,0,0,0-1.61,1.61l-10.808-10.808A1.131,1.131,0,0,1,117.478,118.617Zm16.57,18.278a2.837,2.837,0,0,1-2-.828l-.007-.007-.007-.006a2.845,2.845,0,1,1,2.019.842Z" transform="translate(-92.109 -92.109)" fill="#fff"/>
  <path id="Trazado_874052" data-name="Trazado 874052" d="M84.744,211H81.9a1.9,1.9,0,1,0,0,3.8h2.847a1.9,1.9,0,1,0,0-3.8Z" transform="translate(-64.818 -170.958)" fill="#fff"/>
  <path id="Trazado_874053" data-name="Trazado 874053" d="M214.8,84.744V81.9a1.9,1.9,0,1,0-3.8,0v2.847a1.9,1.9,0,1,0,3.8,0Z" transform="translate(-170.958 -64.818)" fill="#fff"/>
  <path id="Trazado_874054" data-name="Trazado 874054" d="M333.642,212.9a1.9,1.9,0,0,0-1.9-1.9H328.9a1.9,1.9,0,0,0,0,3.8h2.847A1.9,1.9,0,0,0,333.642,212.9Z" transform="translate(-264.945 -170.958)" fill="#fff"/>
  <path id="Trazado_874055" data-name="Trazado 874055" d="M211,328.9v2.847a1.9,1.9,0,0,0,3.8,0V328.9a1.9,1.9,0,0,0-3.8,0Z" transform="translate(-170.958 -264.945)" fill="#fff"/>
</svg>
