<svg id="XMLID_1156_" xmlns="http://www.w3.org/2000/svg" width="85.692" height="85.692" viewBox="0 0 85.692 85.692">
  <g id="XMLID_416_" transform="translate(0)">
    <path id="XMLID_419_" d="M81.675,59.471V11.8a5.111,5.111,0,0,0-5.1-5.1H64.436V5.021a5.021,5.021,0,1,0-10.042,0V6.695H27.281V5.021a5.021,5.021,0,1,0-10.042,0V6.695H5.1A5.111,5.111,0,0,0,0,11.8V73.893A5.111,5.111,0,0,0,5.1,79H27.917a1.674,1.674,0,0,0,0-3.347H5.1a1.759,1.759,0,0,1-1.757-1.757V11.8A1.759,1.759,0,0,1,5.1,10.042H17.239v1.674a5.021,5.021,0,1,0,10.042,0V10.042H54.394v1.674a5.021,5.021,0,1,0,10.042,0V10.042H76.57A1.759,1.759,0,0,1,78.328,11.8v8.285H15.063a1.674,1.674,0,1,0,0,3.347H78.328V56.643a15.645,15.645,0,0,0-4.686-1.98V29.791a1.674,1.674,0,0,0-1.674-1.674H9.707a1.674,1.674,0,0,0-1.674,1.674v39.5a1.674,1.674,0,0,0,1.674,1.674H54.26a15.615,15.615,0,0,0,1.032,4.686H41.306a1.674,1.674,0,0,0,0,3.347H57.089A15.726,15.726,0,1,0,81.675,59.471ZM23.933,11.716a1.674,1.674,0,0,1-3.347,0V5.021a1.674,1.674,0,1,1,3.347,0Zm37.155,0a1.674,1.674,0,0,1-3.347,0V5.021a1.674,1.674,0,0,1,3.347,0Zm8.87,42.511a15.8,15.8,0,0,0-2.291.167H61.189V44.687h9.1v9.544C70.183,54.229,70.071,54.227,69.959,54.227ZM54.4,67.616H48.737V57.742h9.1v2.195A15.673,15.673,0,0,0,54.4,67.616ZM11.381,44.687h9.1v9.707h-9.1Zm12.452,0h9.1v9.707h-9.1Zm24.9,0h9.1v9.707h-9.1ZM45.39,54.394h-9.1V44.687h9.1ZM48.737,41.34V31.465h9.1V41.34Zm-3.347,0h-9.1V31.465h9.1Zm-12.452,0h-9.1V31.465h9.1Zm0,16.4v9.875h-9.1V57.742Zm3.347,0h9.1v9.875h-9.1V57.742Zm34.009-16.4h-9.1V31.465h9.1ZM20.486,31.465V41.34h-9.1V31.465Zm-9.1,26.277h9.1v9.875h-9.1Zm58.578,24.6A12.385,12.385,0,1,1,82.345,69.959,12.4,12.4,0,0,1,69.959,82.345Z" transform="translate(0)" fill="#fff"/>
    <path id="XMLID_1115_" d="M395.5,391.323l-5.176,5.177-2.3-2.3a1.674,1.674,0,0,0-2.367,2.367l3.487,3.487a1.674,1.674,0,0,0,2.367,0l6.36-6.36a1.674,1.674,0,1,0-2.367-2.367Z" transform="translate(-320.702 -325.421)" fill="#fff"/>
    <path id="XMLID_1116_" d="M198.474,452a1.674,1.674,0,1,0,1.183.49A1.686,1.686,0,0,0,198.474,452Z" transform="translate(-163.862 -376.35)" fill="#fff"/>
    <path id="XMLID_1120_" d="M42.857,122.857a1.673,1.673,0,1,0-1.183.49A1.686,1.686,0,0,0,42.857,122.857Z" transform="translate(-33.305 -99.916)" fill="#fff"/>
  </g>
</svg>
