<svg xmlns="http://www.w3.org/2000/svg" width="94.652" height="94.661" viewBox="0 0 94.652 94.661">
  <g id="food_2713553" transform="translate(-0.024)">
    <path id="Trazado_874056" data-name="Trazado 874056" d="M413.264,172.2a12.18,12.18,0,0,1,1.025,4.906,1.387,1.387,0,0,0,2.773,0,14.936,14.936,0,0,0-1.257-6.016l-.891-2.039a1.387,1.387,0,0,0-2.541,1.11Z" transform="translate(-336.012 -137.136)" fill="#fff"/>
    <path id="Trazado_874057" data-name="Trazado 874057" d="M132.425,377.622c0-2.451-2.836-4.3-6.6-4.3s-6.6,1.848-6.6,4.3,2.836,4.3,6.6,4.3S132.425,380.073,132.425,377.622Zm-6.6,1.525c-2.334,0-3.823-1-3.823-1.525s1.489-1.525,3.823-1.525,3.823,1,3.823,1.525S128.163,379.148,125.829,379.148Z" transform="translate(-97.169 -304.305)" fill="#fff"/>
    <path id="Trazado_874058" data-name="Trazado 874058" d="M92.1,70.475a9.043,9.043,0,0,0-5.5-4.244V39.967a20.448,20.448,0,0,0-1.721-8.237L80.843,22.5a17.693,17.693,0,0,1-1.489-7.127V10.441A3.426,3.426,0,0,0,82.7,7.022v-3.6A3.427,3.427,0,0,0,79.278,0H78.036a1.387,1.387,0,0,0,0,2.773h1.242a.651.651,0,0,1,.65.65v3.6a.651.651,0,0,1-.65.65H62.62a.651.651,0,0,1-.65-.65v-3.6a.651.651,0,0,1,.65-.65h8.047a1.387,1.387,0,0,0,0-2.773H62.62A3.427,3.427,0,0,0,59.2,3.424v3.6a3.426,3.426,0,0,0,3.347,3.42v4.936c0,3.967-1.591,7.36-3.138,10.9-1.937,4.434-4.1,8.716-4.1,13.691V60.936a23.682,23.682,0,0,1-5.145,1.776l-5.412-8.325a12.816,12.816,0,0,0-4.394-22.174,12.664,12.664,0,0,0-8.985-7.463A12.512,12.512,0,0,0,16.529,34.3a12.084,12.084,0,0,0-1.535.959A12.527,12.527,0,0,0,2.053,54.4,12.685,12.685,0,0,0,3.2,55.909a12.816,12.816,0,0,0,9.78,14.556,17.187,17.187,0,0,0-.16,2.794s-.075,8.053.009,8.775a11.6,11.6,0,0,0,3.315,6.7c4.422,4.5,11.35,5.925,17.43,5.925,8.8,0,17.347-3.1,24.883-7.461a9.42,9.42,0,0,0,4.08,4.88,16.856,16.856,0,0,0,8.939,2.576c4.627,0,8.232-2.072,9.838-5.353a9.24,9.24,0,0,0,3.931.862c5.549,0,9.424-4.421,9.424-10.752a16.854,16.854,0,0,0-2.576-8.94ZM76.581,10.445v4.932A23.861,23.861,0,0,0,79.1,25.445H62.8a23.862,23.862,0,0,0,2.521-10.068V10.445Zm-17.017,22.4,2.02-4.622h18.73c1.665,3.809,3.509,7.473,3.509,11.749V66.252a8.847,8.847,0,0,0-5.054,3.69,16.374,16.374,0,0,0-2.694,6.651,12.758,12.758,0,0,0-3.527-.743c1.239-1.628,2.234-3.467,2.131-5.3l.007-8.04a4.628,4.628,0,0,0-1.742-3.727c-3.142-2.567-8.111-2.3-14.769.8l-.1-19.618a17.7,17.7,0,0,1,1.489-7.127ZM23.438,28.824a9.771,9.771,0,0,1,13.486,2.835,12.91,12.91,0,0,0-8.23,2.741,12.8,12.8,0,0,0-8.87-1.3,9.755,9.755,0,0,1,3.615-4.274ZM7.229,39.362a9.759,9.759,0,0,1,5.16-1.568A12.808,12.808,0,0,0,9.78,46.687a12.894,12.894,0,0,0-5.57,5.927A9.783,9.783,0,0,1,7.229,39.362Zm.2,24.084a10.143,10.143,0,0,1,4.4-14.674,1.387,1.387,0,0,0,.814-1.5,10.014,10.014,0,0,1,15.423-10.01,1.386,1.386,0,0,0,1.712-.141A10.142,10.142,0,0,1,45.037,39,10.033,10.033,0,0,1,42.11,52.88,1.387,1.387,0,0,0,41.7,54.8l5.386,8.284a55.872,55.872,0,0,1-10.5-.835,9.09,9.09,0,0,0,1.926-3.976,1.387,1.387,0,0,0-2.714-.572,6.313,6.313,0,0,1-1.67,3.13l-3.8-5.848a13.112,13.112,0,0,0,4.6-7.533,1.387,1.387,0,0,0-2.714-.572,10.36,10.36,0,0,1-3.407,5.763l-4.229-6.5a1.387,1.387,0,0,0-2.325,1.512l4.229,6.5a10.361,10.361,0,0,1-6.65.776,1.387,1.387,0,0,0-.578,2.712,13.359,13.359,0,0,0,8.751-1.145l3.35,5.152a32.866,32.866,0,0,0-5.729.011C20.333,62.179,16,64.49,14,67.844a9.992,9.992,0,0,1-6.571-4.4ZM56.564,85.1c-5.7,3.249-13.985,6.793-22.982,6.792-6.456,0-17.058-2.173-17.994-10.177a20.477,20.477,0,0,1,.009-2.079C18.532,83.036,23,84.8,27.325,85.6a1.387,1.387,0,0,0,.5-2.727c-2.9-.535-6.929-1.765-9.7-4.585-2.229-2.266-3.475-6.043-1.772-8.975,1.5-2.588,5.161-4.465,9.547-4.9,4.2-.414,8.424.332,12.574.891,4.11.554,8.874,1.045,13.4-.144A45,45,0,0,0,59.347,62.1c5.532-2.576,9.627-2.981,11.843-1.17,2.172,1.773-1.195,5.247-2.3,6.454a51.9,51.9,0,0,1-12.324,9.209c-7.3,4.157-14.8,6.494-21.692,6.759a1.389,1.389,0,0,0,.106,2.771c7.337-.282,15.276-2.744,22.958-7.121,5.107-2.91,10.174-6.315,13.976-10.861L71.9,70.584c.147,1.177-.866,2.961-3.011,5.3a17.61,17.61,0,0,0-6.345,2.5c-2.291,1.736-3.9,3.559-4.285,5.715C57.7,84.436,57.138,84.769,56.564,85.1Zm14.918,6.788c-5.426,0-10.557-3.232-10.557-6.65s5.13-6.65,10.557-6.65c4.772,0,7.979,2.672,7.979,6.65S76.255,91.884,71.483,91.884Zm13.77-4.491a6.3,6.3,0,0,1-3.114-.788,9.922,9.922,0,0,0,.1-1.371A8.811,8.811,0,0,0,78.679,78c.511-4.9,3.542-9.138,6.574-9.138,3.418,0,6.651,5.13,6.651,10.556,0,4.772-2.673,7.978-6.651,7.978Z" transform="translate(0)" fill="#fff"/>
    <path id="Trazado_874059" data-name="Trazado 874059" d="M395.171,436.159a1.387,1.387,0,0,0-1.207,2.5,2.127,2.127,0,0,1,1.327,2.056,1.387,1.387,0,0,0,2.773,0A4.915,4.915,0,0,0,395.171,436.159Z" transform="translate(-320.487 -355.402)" fill="#fff"/>
  </g>
</svg>
