<svg id="Page-1" xmlns="http://www.w3.org/2000/svg" width="42.625" height="58.125" viewBox="0 0 42.625 58.125">
  <g id="_031---Carton" data-name="031---Carton" transform="translate(0 0)">
    <g id="Icons_copy" transform="translate(0.969 0.969)">
      <path id="Path" d="M33.914,5,27.656,15.724a3.244,3.244,0,0,0-.291.649v.01c-.039.1-.068.184-.1.281l-.136-.039H.976L.24,16.373a3.244,3.244,0,0,1,.291-.649L6.789,5Z" transform="translate(-0.007 -0.156)" fill="#02a9f4" fill-rule="evenodd"/>
      <path id="Path-2" data-name="Path" d="M31.786,5,25.528,15.724a3.244,3.244,0,0,0-.291.649v.01c-.033.083-.058.161-.083.242h2.757l.136.039c.029-.1.058-.184.1-.281v-.01a3.244,3.244,0,0,1,.291-.649L34.692,5Z" transform="translate(-0.786 -0.156)" fill="#0377bc" fill-rule="evenodd"/>
      <path id="Path-3" data-name="Path" d="M27.261,17.031a3.888,3.888,0,0,0-.136,1.008V54.773a1.943,1.943,0,0,1-1.937,1.938H1.937A1.943,1.943,0,0,1,0,54.773V18.038a3.705,3.705,0,0,1,.233-1.3l.736.252H27.125Z" transform="translate(0 -0.523)" fill="#02a9f4" fill-rule="evenodd"/>
      <g id="Grupo_1102204" data-name="Grupo 1102204" transform="translate(0.164 4.844)">
        <path id="Path-4" data-name="Path" d="M27.844,17H24.938l.136.039a3.888,3.888,0,0,0-.136,1.008V54.781A1.943,1.943,0,0,1,23,56.719h2.906a1.943,1.943,0,0,0,1.938-1.937V18.046a3.888,3.888,0,0,1,.136-1.008Z" transform="translate(-0.882 -5.375)" fill="#0377bc" fill-rule="evenodd"/>
        <path id="Path-5" data-name="Path" d="M.974,16.992.238,16.74c-.031.082-.045.169-.069.252Z" transform="translate(-0.169 -5.367)" fill="#0377bc" fill-rule="evenodd"/>
        <path id="Path-6" data-name="Path" d="M41.5,18.038V54.773a1.943,1.943,0,0,1-1.937,1.938H26a1.943,1.943,0,0,0,1.938-1.937V18.038a3.888,3.888,0,0,1,.136-1.008c.029-.1.058-.184.1-.281l.736.242H40.531l.736-.252A3.706,3.706,0,0,1,41.5,18.038Z" transform="translate(-0.976 -5.367)" fill="#0377bc" fill-rule="evenodd"/>
        <path id="Path-7" data-name="Path" d="M41.338,16.373l-.736.252H28.976l-.736-.242v-.01a3.244,3.244,0,0,1,.291-.649L34.789,5l6.258,10.724A3.244,3.244,0,0,1,41.338,16.373Z" transform="translate(-1.046 -5)" fill="#0377bc" fill-rule="evenodd"/>
      </g>
      <path id="Path-8" data-name="Path" d="M34.125,1.938V4.844H7V1.938A1.943,1.943,0,0,1,8.938,0h23.25A1.943,1.943,0,0,1,34.125,1.938Z" transform="translate(-0.219)" fill="#02a9f4" fill-rule="evenodd"/>
      <path id="Path-9" data-name="Path" d="M32.906,0H30a1.943,1.943,0,0,1,1.938,1.938V4.844h2.906V1.938A1.943,1.943,0,0,0,32.906,0Z" transform="translate(-0.937)" fill="#0377bc" fill-rule="evenodd"/>
      <ellipse id="Oval" cx="2.781" cy="1.854" rx="2.781" ry="1.854" transform="translate(13.862 8.957)" fill="#f5f5f5"/>
      <path id="Rectangle" d="M0,25H27.125V49.219H0Z" transform="translate(0 -0.781)" fill="#f5f5f5" fill-rule="evenodd"/>
      <path id="Rectangle-2" data-name="Rectangle" d="M25,25h2.906V49.219H25Z" transform="translate(-0.781 -0.781)" fill="#cfd8dc" fill-rule="evenodd"/>
    </g>
    <g id="Icons">
      <path id="Shape" d="M0,25.188V55.219a2.906,2.906,0,0,0,2.906,2.906H39.719a2.906,2.906,0,0,0,2.906-2.906V18.486a4.844,4.844,0,0,0-.66-2.441L35.844,5.551V2.906A2.906,2.906,0,0,0,32.938,0H9.688A2.906,2.906,0,0,0,6.781,2.906V5.551L.66,16.044A4.844,4.844,0,0,0,0,18.486Zm24.219,31H2.906a.969.969,0,0,1-.969-.969V50.375H27.125v4.844a.969.969,0,0,1-.969.969ZM1.938,18.486c0-.027.01-.052.011-.079H27.13c0,.026,0,.052,0,.079v5.733H1.938Zm6.369-11.7H33.188l-5.4,9.263c-.079.137-.145.281-.211.424H2.655ZM39.97,16.469H29.78l5.095-8.733ZM1.938,26.156H27.125V48.438H1.938Zm38.75,29.062a.969.969,0,0,1-.969.969H28.884a2.873,2.873,0,0,0,.178-.969V18.486c0-.027.01-.052.011-.079h11.6c0,.027.011.052.011.079ZM8.719,2.906a.969.969,0,0,1,.969-.969h23.25a.969.969,0,0,1,.969.969V4.844H8.719Z" transform="translate(0 0)"/>
      <path id="Shape-2" data-name="Shape" d="M17.875,14.813c2.173,0,3.875-1.277,3.875-2.906S20.048,9,17.875,9,14,10.277,14,11.906,15.7,14.813,17.875,14.813Zm0-3.875c1.183,0,1.937.573,1.937.969s-.755.969-1.937.969-1.938-.573-1.938-.969S16.692,10.938,17.875,10.938Z" transform="translate(-0.438 -0.281)"/>
      <path id="Path-10" data-name="Path" d="M22.469,30H6.969a.969.969,0,1,0,0,1.938h15.5a.969.969,0,1,0,0-1.937Z" transform="translate(-0.188 -0.938)" fill-rule="evenodd"/>
      <path id="Path-11" data-name="Path" d="M22.469,35H6.969a.969.969,0,1,0,0,1.938h15.5a.969.969,0,1,0,0-1.937Z" transform="translate(-0.188 -1.094)" fill-rule="evenodd"/>
      <path id="Path-12" data-name="Path" d="M22.469,40H6.969a.969.969,0,0,0,0,1.938h15.5a.969.969,0,0,0,0-1.938Z" transform="translate(-0.188 -1.25)" fill-rule="evenodd"/>
      <path id="Path-13" data-name="Path" d="M22.469,45H6.969a.969.969,0,0,0,0,1.938h15.5a.969.969,0,0,0,0-1.938Z" transform="translate(-0.188 -1.406)" fill-rule="evenodd"/>
    </g>
  </g>
</svg>
