<svg xmlns="http://www.w3.org/2000/svg" width="55.697" height="68.142" viewBox="0 0 55.697 68.142">
  <g id="vending-machine_1020393" transform="translate(-46.751)">
    <path id="Trazado_875465" data-name="Trazado 875465" d="M263.419,73.665H234.912V7.527h28.507a1.147,1.147,0,0,1,1.147,1.147V72.518A1.146,1.146,0,0,1,263.419,73.665Z" transform="translate(-163.119 -6.525)" fill="#6186e4"/>
    <path id="Trazado_875466" data-name="Trazado 875466" d="M263.416,7.527h-5.431V55.283a12.072,12.072,0,0,1-12.072,12.072h-11v6.31h28.5a1.151,1.151,0,0,0,1.151-1.151V8.678A1.151,1.151,0,0,0,263.416,7.527Z" transform="translate(-163.12 -6.525)" fill="#5779dc"/>
    <path id="Trazado_875467" data-name="Trazado 875467" d="M282.367,149.066H267.295a3.419,3.419,0,0,1-3.419-3.419V133.727a3.419,3.419,0,0,1,3.419-3.419h15.072a3.419,3.419,0,0,1,3.419,3.419v11.921A3.419,3.419,0,0,1,282.367,149.066Z" transform="translate(-188.228 -112.965)" fill="#edeff2"/>
    <g id="Grupo_1102208" data-name="Grupo 1102208" transform="translate(47.753 1.002)">
      <path id="Trazado_875468" data-name="Trazado 875468" d="M408.267,130.914v18.6a3.432,3.432,0,0,0,2.693-3.35v-11.9A3.432,3.432,0,0,0,408.267,130.914Z" transform="translate(-361.155 -114.493)" fill="#cfd2dc"/>
      <path id="Trazado_875469" data-name="Trazado 875469" d="M78.318,73.665H55.425a1.147,1.147,0,0,1-1.147-1.147V8.674a1.147,1.147,0,0,1,1.147-1.147H78.318V73.665Z" transform="translate(-54.278 -7.527)" fill="#cfd2dc"/>
    </g>
    <path id="Trazado_875470" data-name="Trazado 875470" d="M54.278,448.429v6.308a1.151,1.151,0,0,0,1.151,1.151h22.89V449.58H55.429A1.151,1.151,0,0,1,54.278,448.429Z" transform="translate(-6.525 -388.748)" fill="#c5c8d3"/>
    <path id="Trazado_875471" data-name="Trazado 875471" d="M100.268,165.313H85.726a.65.65,0,0,1-.65-.65V133.068a.65.65,0,0,1,.65-.65h14.542a.65.65,0,0,1,.65.65v31.594A.65.65,0,0,1,100.268,165.313Z" transform="translate(-33.224 -114.795)" fill="#7a8593"/>
    <path id="Trazado_875472" data-name="Trazado 875472" d="M100.267,132.418H85.729a.652.652,0,0,0-.652.652v2.849h0a12.5,12.5,0,0,1,12.5,12.5v16.888h2.685a.652.652,0,0,0,.652-.652v-31.59A.653.653,0,0,0,100.267,132.418Z" transform="translate(-33.225 -114.795)" fill="#737e8c"/>
    <path id="Trazado_875473" data-name="Trazado 875473" d="M268.889,334.711h-4.051a.96.96,0,0,0-.96.96v4.051a.96.96,0,0,0,.96.96h4.051a.96.96,0,0,0,.96-.96v-4.051A.96.96,0,0,0,268.889,334.711Z" transform="translate(-188.23 -290.165)" fill="#edeff2"/>
    <path id="Trazado_875474" data-name="Trazado 875474" d="M119.884,180.6v-3.874a.535.535,0,0,0-.535-.535h-2.58a.535.535,0,0,0-.535.535V180.6a5.287,5.287,0,0,1-1.124,3.259h0a5.287,5.287,0,0,0-1.124,3.259v15.21a.93.93,0,0,0,.931.931H121.2a.931.931,0,0,0,.931-.931v-15.21a5.287,5.287,0,0,0-1.124-3.259h0A5.287,5.287,0,0,1,119.884,180.6Z" transform="translate(-58.286 -152.741)" fill="#fff"/>
    <path id="Trazado_875475" data-name="Trazado 875475" d="M141.012,183.858h0a5.287,5.287,0,0,1-1.124-3.259v-3.874a.535.535,0,0,0-.535-.535H137.06a.535.535,0,0,1,.535.535V180.6a5.287,5.287,0,0,0,1.124,3.259h0a5.287,5.287,0,0,1,1.124,3.259v15.21a.93.93,0,0,1-.931.931h2.293a.93.93,0,0,0,.931-.931v-15.21A5.286,5.286,0,0,0,141.012,183.858Z" transform="translate(-78.29 -152.74)" fill="#f2f4f7"/>
    <path id="Trazado_875476" data-name="Trazado 875476" d="M129.319,46.472a2.771,2.771,0,0,1-5.541,0c0-1.53,2.771-5.022,2.771-5.022S129.319,44.942,129.319,46.472Z" transform="translate(-66.776 -35.933)" fill="#fff"/>
    <path id="Trazado_875477" data-name="Trazado 875477" d="M138.07,41.449s-.458.577-1,1.365c.793,1.15,1.769,2.749,1.769,3.656a2.769,2.769,0,0,1-1.769,2.581,2.766,2.766,0,0,0,3.772-2.581C140.84,44.941,138.07,41.449,138.07,41.449Z" transform="translate(-78.297 -35.933)" fill="#f2f4f7"/>
    <circle id="Elipse_11593" data-name="Elipse 11593" cx="1.002" cy="1.002" r="1.002" transform="translate(79.036 22.659)"/>
    <path id="Trazado_875478" data-name="Trazado 875478" d="M321.616,172.26h8.7a1,1,0,0,0,0-2h-8.7a1,1,0,1,0,0,2Z" transform="translate(-237.415 -147.597)"/>
    <circle id="Elipse_11594" data-name="Elipse 11594" cx="1.002" cy="1.002" r="1.002" transform="translate(79.036 28.781)"/>
    <circle id="Elipse_11595" data-name="Elipse 11595" cx="1.002" cy="1.002" r="1.002" transform="translate(86.159 43.544)"/>
    <circle id="Elipse_11596" data-name="Elipse 11596" cx="1.002" cy="1.002" r="1.002" transform="translate(90.511 43.544)"/>
    <path id="Trazado_875479" data-name="Trazado 875479" d="M321.616,218.257h8.7a1,1,0,0,0,0-2h-8.7a1,1,0,1,0,0,2Z" transform="translate(-237.415 -187.472)"/>
    <path id="Trazado_875480" data-name="Trazado 875480" d="M343.857,374.058h8.7a1,1,0,0,0,0-2h-8.7a1,1,0,0,0,0,2Z" transform="translate(-256.696 -322.539)"/>
    <path id="Trazado_875481" data-name="Trazado 875481" d="M258.314,327.184a1.968,1.968,0,0,0-1.965,1.965v4.044a1.968,1.968,0,0,0,1.965,1.965h4.044a1.968,1.968,0,0,0,1.965-1.965v-4.044a1.968,1.968,0,0,0-1.965-1.965Zm4.006,5.972h-3.968v-3.968h3.968Z" transform="translate(-181.703 -283.639)"/>
    <path id="Trazado_875482" data-name="Trazado 875482" d="M94.393,124.891H78.551a1,1,0,0,0-1,1v32.895a1,1,0,0,0,1,1H94.393a1,1,0,0,0,1-1V125.893A1,1,0,0,0,94.393,124.891Zm-1,32.895H91.548V142.646a6.317,6.317,0,0,0-1.337-3.877,4.3,4.3,0,0,1-.911-2.642v-3.874a1.539,1.539,0,0,0-1.537-1.537h-2.58a1.539,1.539,0,0,0-1.537,1.537v3.874a4.305,4.305,0,0,1-.911,2.642,6.317,6.317,0,0,0-1.337,3.877v8.988a1,1,0,1,0,2,0v-8.988A4.3,4.3,0,0,1,84.312,140a6.317,6.317,0,0,0,1.337-3.877V132.72H87.3v3.408A6.317,6.317,0,0,0,88.633,140a4.3,4.3,0,0,1,.911,2.642v15.139H83.4V155.8a1,1,0,0,0-2,0v1.984H79.553V126.895h5.936a1,1,0,0,0,1.968,0h5.936v30.891Z" transform="translate(-26.699 -108.269)"/>
    <path id="Trazado_875483" data-name="Trazado 875483" d="M100.3,0H79.21a1,1,0,0,0,0,2H100.3a.149.149,0,0,1,.149.149V65.989a.149.149,0,0,1-.149.149h-27.5V2h2.19a1,1,0,0,0,0-2H48.9a2.155,2.155,0,0,0-2.152,2.152V65.989A2.155,2.155,0,0,0,48.9,68.141H100.3a2.155,2.155,0,0,0,2.152-2.153V2.152A2.155,2.155,0,0,0,100.3,0ZM48.755,65.989V2.152A.149.149,0,0,1,48.9,2H70.791V66.138H48.9A.149.149,0,0,1,48.755,65.989Z" transform="translate(0)"/>
    <path id="Trazado_875484" data-name="Trazado 875484" d="M265.27,46.231a.434.434,0,0,0,.257.4,1.423,1.423,0,0,0,1.23,0,.434.434,0,0,0,.257-.4v-4.3l1.062,1.945a.571.571,0,0,0,.548.324.629.629,0,0,0,.581-.324l1.073-1.834v4.192a.434.434,0,0,0,.257.4,1.423,1.423,0,0,0,1.23,0,.434.434,0,0,0,.257-.4V39.467a.816.816,0,0,0-.252-.66.93.93,0,0,0-.62-.212,1.563,1.563,0,0,0-.766.151,1.943,1.943,0,0,0-.587.721l-1.151,2.012-1.151-2.012a1.947,1.947,0,0,0-.587-.721,1.563,1.563,0,0,0-.766-.151.93.93,0,0,0-.621.212.816.816,0,0,0-.252.66Z" transform="translate(-189.437 -33.458)"/>
    <path id="Trazado_875485" data-name="Trazado 875485" d="M325.95,46.767a1.269,1.269,0,0,0,.615-.14.434.434,0,0,0,.257-.4V39.12a.423.423,0,0,0-.257-.391,1.476,1.476,0,0,0-1.23,0,.423.423,0,0,0-.257.391v7.11a.434.434,0,0,0,.257.4A1.268,1.268,0,0,0,325.95,46.767Z" transform="translate(-241.285 -33.458)"/>
    <path id="Trazado_875486" data-name="Trazado 875486" d="M348.74,38.729a1.476,1.476,0,0,0-1.23,0,.423.423,0,0,0-.257.391v7.11a.442.442,0,0,0,.224.4.991.991,0,0,0,.537.14h3.533a.412.412,0,0,0,.369-.224,1.14,1.14,0,0,0,0-1.073.412.412,0,0,0-.369-.224H349V39.12A.422.422,0,0,0,348.74,38.729Z" transform="translate(-260.509 -33.458)"/>
    <path id="Trazado_875487" data-name="Trazado 875487" d="M390.068,38.729a1.476,1.476,0,0,0-1.23,0,.423.423,0,0,0-.257.391v7.11a.434.434,0,0,0,.257.4,1.423,1.423,0,0,0,1.23,0,.434.434,0,0,0,.257-.4V44.207l.47-.6,1.912,2.907a.664.664,0,0,0,.6.324,1.113,1.113,0,0,0,.715-.274.776.776,0,0,0,.335-.6.551.551,0,0,0-.089-.291l-2.314-3.544,1.834-2.3a.567.567,0,0,0,.112-.335.8.8,0,0,0-.341-.609,1.072,1.072,0,0,0-.688-.285.527.527,0,0,0-.458.246L390.325,41.8V39.12A.423.423,0,0,0,390.068,38.729Z" transform="translate(-296.336 -33.458)"/>
    <path id="Trazado_875488" data-name="Trazado 875488" d="M120.024,43.719a3.777,3.777,0,0,0,3.772-3.772c0-1.744-2.287-4.761-2.988-5.644a1,1,0,0,0-1.569,0c-.7.883-2.987,3.9-2.987,5.644A3.776,3.776,0,0,0,120.024,43.719Zm0-7.12a9.752,9.752,0,0,1,1.769,3.347,1.769,1.769,0,1,1-3.538,0A9.754,9.754,0,0,1,120.024,36.6Z" transform="translate(-60.251 -29.408)"/>
    <path id="Trazado_875489" data-name="Trazado 875489" d="M105.524,416.468H94.3a1,1,0,1,0,0,2h11.219a1,1,0,1,0,0-2Z" transform="translate(-40.356 -361.041)"/>
    <path id="Trazado_875490" data-name="Trazado 875490" d="M119.236,450.549h-6.246a1,1,0,1,0,0,2h6.246a1,1,0,1,0,0-2Z" transform="translate(-56.556 -390.586)"/>
    <path id="Trazado_875491" data-name="Trazado 875491" d="M256.349,127.215v11.9a4.438,4.438,0,0,0,4.433,4.433h8.082a1,1,0,0,0,0-2h-8.082a2.432,2.432,0,0,1-2.429-2.429v-11.9a2.432,2.432,0,0,1,2.429-2.429h15.047a2.432,2.432,0,0,1,2.429,2.429v11.9a2.432,2.432,0,0,1-2.429,2.429h-2.613a1,1,0,0,0,0,2h2.613a4.438,4.438,0,0,0,4.433-4.433v-11.9a4.438,4.438,0,0,0-4.433-4.433H260.782A4.438,4.438,0,0,0,256.349,127.215Z" transform="translate(-181.703 -106.441)"/>
  </g>
</svg>
