<svg id="filling-machine_1799881" xmlns="http://www.w3.org/2000/svg" width="63.801" height="63.801" viewBox="0 0 63.801 63.801">
  <path id="Trazado_875492" data-name="Trazado 875492" d="M282.553,99.5H259.5l17.446,13.084h5.608Zm0,0" transform="translate(-227.163 -87.101)" fill="#9cb5bb"/>
  <path id="Trazado_875493" data-name="Trazado 875493" d="M67.5,99.5h41.371v13.084H67.5Zm0,0" transform="translate(-59.089 -87.101)" fill="#b9d8dd"/>
  <path id="Trazado_875494" data-name="Trazado 875494" d="M429.5,114.5h3.738v14.953H429.5Zm0,0" transform="translate(-375.979 -100.232)" fill="#809399"/>
  <path id="Trazado_875495" data-name="Trazado 875495" d="M241,114.5h3.738v14.953H241Zm0,0" transform="translate(-210.969 -100.232)" fill="#9cb5bb"/>
  <path id="Trazado_875496" data-name="Trazado 875496" d="M52.5,114.5h3.738v14.953H52.5Zm0,0" transform="translate(-45.958 -100.232)" fill="#9cb5bb"/>
  <path id="Trazado_875497" data-name="Trazado 875497" d="M394.484,70.092h3.738a5.608,5.608,0,0,0,5.608-5.608L389.5,59.5Zm0,0" transform="translate(-340.964 -52.086)" fill="#809399"/>
  <path id="Trazado_875498" data-name="Trazado 875498" d="M400.092,7.5,389.5,18.964h14.33V7.5Zm0,0" transform="translate(-340.964 -6.565)" fill="#9cb5bb"/>
  <path id="Trazado_875499" data-name="Trazado 875499" d="M13.108,52.584H60.086a5.608,5.608,0,0,0,5.608-5.608L36.6,39.5,7.5,46.977A5.608,5.608,0,0,0,13.108,52.584Zm0,0" transform="translate(-6.565 -34.578)" fill="#9cb5bb"/>
  <path id="Trazado_875500" data-name="Trazado 875500" d="M7.5,7.5H65.694V18.964H7.5Zm0,0" transform="translate(-6.565 -6.565)" fill="#b9d8dd"/>
  <path id="Trazado_875501" data-name="Trazado 875501" d="M259.738,279.5H256v24.3l7.477-7.477C263.477,287.911,259.738,287.911,259.738,279.5Zm0,0" transform="translate(-224.099 -244.671)" fill="#ffebbe"/>
  <path id="Trazado_875502" data-name="Trazado 875502" d="M260.289,416.1l3.2,9.612h3.738V414.5A14.081,14.081,0,0,0,260.289,416.1Zm0,0" transform="translate(-227.854 -362.848)" fill="#ffd87c"/>
  <path id="Trazado_875503" data-name="Trazado 875503" d="M196,421.022V428.5h11.215V417.68h-9.969Zm0,0" transform="translate(-171.576 -365.632)" fill="#ffebbe"/>
  <path id="Trazado_875504" data-name="Trazado 875504" d="M207.215,296.323c0-8.411-3.738-8.411-3.738-16.823h-3.738c0,8.411-3.738,8.411-3.738,16.823v3.738c5.967,0,7.172-2.381,11.215-3.342Zm0,0" transform="translate(-171.576 -244.671)" fill="#fff"/>
  <path id="Trazado_875505" data-name="Trazado 875505" d="M71.238,279.5H67.5v16.823l3.738,11.215h3.738V296.323C74.977,287.911,71.238,287.911,71.238,279.5Zm0,0" transform="translate(-59.089 -244.671)" fill="#ffebbe"/>
  <path id="Trazado_875506" data-name="Trazado 875506" d="M14.977,279.5H11.238c0,8.411-3.738,8.411-3.738,16.823v11.215H18.715V296.323C18.715,287.911,14.977,287.911,14.977,279.5Zm0,0" transform="translate(-6.565 -244.671)" fill="#fff"/>
  <path id="Trazado_875507" data-name="Trazado 875507" d="M448.238,279.5H444.5v16.823l3.738,11.215h3.738V296.323C451.977,287.911,448.238,287.911,448.238,279.5Zm0,0" transform="translate(-389.11 -244.671)" fill="#ffd87c"/>
  <path id="Trazado_875508" data-name="Trazado 875508" d="M391.977,279.5h-3.738c0,8.411-3.738,8.411-3.738,16.823v11.215h11.215V296.323C395.715,287.911,391.977,287.911,391.977,279.5Zm0,0" transform="translate(-336.587 -244.671)" fill="#ffebbe"/>
  <path id="Trazado_875509" data-name="Trazado 875509" d="M57.259,30.156a.934.934,0,0,0,.935-.935V18.873A6.552,6.552,0,0,0,63.8,12.4V.935A.934.934,0,0,0,62.867,0H.935A.935.935,0,0,0,0,.935V12.4a6.552,6.552,0,0,0,5.608,6.474V29.221a.935.935,0,0,0,.935.935h.935v3.738h-2.8a.935.935,0,0,0-.935.935,16.96,16.96,0,0,1-1.789,8.032A18.764,18.764,0,0,0,0,51.652V62.867a.935.935,0,0,0,.935.935H15.888a.935.935,0,0,0,.935-.935V51.652a18.764,18.764,0,0,0-1.949-8.791,16.96,16.96,0,0,1-1.789-8.032.935.935,0,0,0-.935-.935h-2.8V30.156h.935a.935.935,0,0,0,.935-.935v-2.8H29.1v2.8a.935.935,0,0,0,.935.935h.935v3.738h-2.8a.935.935,0,0,0-.935.935,16.96,16.96,0,0,1-1.789,8.032,18.764,18.764,0,0,0-1.949,8.791V62.867a.935.935,0,0,0,.935.935H39.377a.934.934,0,0,0,.935-.935V51.652a18.764,18.764,0,0,0-1.949-8.791,16.96,16.96,0,0,1-1.789-8.032.934.934,0,0,0-.935-.935h-2.8V30.156h.935a.934.934,0,0,0,.935-.935v-2.8H52.586v2.8a.934.934,0,0,0,.935.935h.935v3.738h-2.8a.934.934,0,0,0-.935.935,16.96,16.96,0,0,1-1.789,8.032,18.764,18.764,0,0,0-1.949,8.791V62.867a.934.934,0,0,0,.935.935H62.867a.934.934,0,0,0,.935-.935V51.652a18.764,18.764,0,0,0-1.949-8.791,16.96,16.96,0,0,1-1.789-8.032.934.934,0,0,0-.935-.935h-2.8V30.156ZM13.165,43.62a16.96,16.96,0,0,1,1.789,8.032v10.28H1.869V51.652A16.96,16.96,0,0,1,3.658,43.62a18.548,18.548,0,0,0,1.934-7.856h5.639A18.548,18.548,0,0,0,13.165,43.62ZM25.359,61.932V56.3a15.2,15.2,0,0,0,6.96-1.948,13.453,13.453,0,0,1,6.124-1.748v9.324Zm11.3-18.312a16.759,16.759,0,0,1,1.772,7.118,14.329,14.329,0,0,0-5.591,1.294V38.567a.935.935,0,0,0-1.869,0V52.942a12.87,12.87,0,0,1-5.608,1.492V51.652a16.96,16.96,0,0,1,1.789-8.032,18.548,18.548,0,0,0,1.934-7.856H34.72a18.548,18.548,0,0,0,1.934,7.856Zm23.489,0a16.96,16.96,0,0,1,1.789,8.032v10.28H48.848V51.652a16.96,16.96,0,0,1,1.789-8.032,18.54,18.54,0,0,0,1.934-7.856h5.639A18.548,18.548,0,0,0,60.143,43.62ZM54.455,28.287V18.941h1.869v9.346ZM1.963,13.333h8.317a.935.935,0,0,0,0-1.869H1.869v-9.6H61.932v9.6H14.019a.935.935,0,0,0,0,1.869H61.838a4.681,4.681,0,0,1-4.579,3.738H6.542a4.681,4.681,0,0,1-4.579-3.738ZM9.346,28.287H7.477V18.941H9.346Zm1.869-3.738V18.941H29.1v5.608Zm21.62,3.738H30.966V18.941h1.869ZM34.7,24.549V18.941H52.586v5.608Zm0,0"/>
  <path id="Trazado_875510" data-name="Trazado 875510" d="M60,302.935V323.5a.935.935,0,1,0,1.869,0V302.935a.935.935,0,0,0-1.869,0Zm0,0" transform="translate(-52.523 -264.367)"/>
</svg>
