<svg xmlns="http://www.w3.org/2000/svg" width="55.342" height="78.014" viewBox="0 0 55.342 78.014">
  <g id="aromatherapy_6225895" transform="translate(-69.749)">
    <path id="Trazado_875511" data-name="Trazado 875511" d="M113.018,105.151h.813a2.6,2.6,0,0,0,2.6-2.6V100.6a2.6,2.6,0,0,0-2.6-2.6H85.875a2.6,2.6,0,0,0-2.6,2.6v1.95a2.6,2.6,0,0,0,2.6,2.6h.813c-.07,8.087-8.939,4.746-8.939,17.01v31.423a5.2,5.2,0,0,0,5.2,5.2h33.806a5.2,5.2,0,0,0,5.2-5.2V122.162C121.957,109.9,113.088,113.239,113.018,105.151Z" transform="translate(-6.7 -82.072)" fill="#cbe3fa"/>
    <path id="Trazado_875512" data-name="Trazado 875512" d="M95.074,195.635H82.951a5.2,5.2,0,0,1-5.2-5.2V159.01c0-12.264,8.869-8.923,8.939-17.01H100.13c-.031,7.328-3.7,5.273-4.392,13.947a1.3,1.3,0,0,1-1.588,1.16,24.377,24.377,0,0,0-8.209-.522,2.6,2.6,0,0,0-2.34,2.587v27.035a1.3,1.3,0,0,0,1.3,1.3h9.427a1.3,1.3,0,0,1,1.3,1.3,11.489,11.489,0,0,0,.616,4.962A1.3,1.3,0,0,1,95.074,195.635Z" transform="translate(-6.701 -118.921)" fill="#eef7ff"/>
    <path id="Trazado_875513" data-name="Trazado 875513" d="M157.417,144.6h-23.9a1.3,1.3,0,0,1-1.29-1.46A9.517,9.517,0,0,0,132.3,142h26.33a9.514,9.514,0,0,0,.076,1.141A1.3,1.3,0,0,1,157.417,144.6Z" transform="translate(-52.312 -118.921)" fill="#b5d5f5"/>
    <path id="Trazado_875514" data-name="Trazado 875514" d="M142.477,98.006a1.219,1.219,0,0,1-.118,2.432H127.353a2.6,2.6,0,0,0-2.6,2.6v.9a1.218,1.218,0,0,1-1.219,1.218H114.35a2.6,2.6,0,0,1-2.6-2.6V100.6a2.6,2.6,0,0,1,2.6-2.6s28.07,0,28.126.006Z" transform="translate(-35.175 -82.072)" fill="#eef7ff"/>
    <path id="Trazado_875515" data-name="Trazado 875515" d="M146.255,237.4v23.253a1.3,1.3,0,0,1-1.3,1.3H115.049a1.3,1.3,0,0,1-1.3-1.3V233.619a2.6,2.6,0,0,1,2.34-2.587c11.8-1.235,17,6.327,26.936,3.847A2.6,2.6,0,0,1,146.255,237.4Z" transform="translate(-36.849 -193.367)" fill="#f8f7ee"/>
    <path id="Trazado_875516" data-name="Trazado 875516" d="M125.781,232.944c-.011,1.565,0,6.325,0,27.71a1.3,1.3,0,0,1-1.3,1.3H115.05a1.3,1.3,0,0,1-1.3-1.3V233.62a2.6,2.6,0,0,1,2.34-2.587,24.531,24.531,0,0,1,8.7.64,1.3,1.3,0,0,1,.987,1.271Z" transform="translate(-36.85 -193.368)" fill="#fff"/>
    <path id="Trazado_875517" data-name="Trazado 875517" d="M272.613,330.876c1.578,4.858-2.856,5.884-5.828,6.046,2.311,1.879,5.294,5.315,1.162,8.317s-6.478-.9-7.551-3.675c-1.073,2.778-3.418,6.677-7.551,3.675s-1.147-6.438,1.162-8.317c-2.973-.163-7.406-1.188-5.828-6.046s5.768-3.082,8.268-1.464c-.764-2.878-1.159-7.411,3.949-7.411s4.713,4.533,3.95,7.411C266.845,327.794,271.035,326.019,272.613,330.876Z" transform="translate(-149.153 -269.665)" fill="#f8f7ee"/>
    <path id="Trazado_875518" data-name="Trazado 875518" d="M256.181,373.583a1.3,1.3,0,0,1-1.246,2.106,5.59,5.59,0,0,1-2.09-1c-4.132-3-1.147-6.438,1.162-8.317-2.973-.163-7.406-1.188-5.828-6.046.836-2.572,2.4-3.284,4.066-3.144a1.292,1.292,0,0,1,1.014,1.911,6.753,6.753,0,0,0-.529,1.233c-1.169,3.6.962,5.095,3.354,5.694a1.3,1.3,0,0,1,.669,2.1C255.192,369.992,254.806,371.9,256.181,373.583Z" transform="translate(-149.153 -299.112)" fill="#fff"/>
    <path id="Trazado_875519" data-name="Trazado 875519" d="M299.914,327.9a2.217,2.217,0,0,1-1.721-2.416c.3-2.446,1.906-3.488,4.379-3.484a1.014,1.014,0,0,1,.83,1.581,4.564,4.564,0,0,0-.695,2.3A2.236,2.236,0,0,1,299.914,327.9Z" transform="translate(-191.301 -269.666)" fill="#f8f7ee"/>
    <g id="Grupo_1102209" data-name="Grupo 1102209" transform="translate(69.749)">
      <path id="Trazado_875520" data-name="Trazado 875520" d="M207.049,12.567a1.3,1.3,0,0,0,1.3-1.3v-.7a1.79,1.79,0,0,1,1.788-1.788h21.779a4.388,4.388,0,0,0,0-8.777H217.194a1.3,1.3,0,1,0,0,2.6h14.722a1.788,1.788,0,0,1,0,3.576H210.137a4.393,4.393,0,0,0-4.388,4.388v.7A1.3,1.3,0,0,0,207.049,12.567Z" transform="translate(-183.645)"/>
      <path id="Trazado_875521" data-name="Trazado 875521" d="M147.274,12.515a1.3,1.3,0,0,0,1.3-1.3v-.953a3.309,3.309,0,0,1,1.292-2.744l1.943-1.326A5.931,5.931,0,0,0,154.237,1.3a1.3,1.3,0,0,0-2.6,0,3.308,3.308,0,0,1-1.292,2.744L148.4,5.369a5.931,5.931,0,0,0-2.427,4.892v.953A1.3,1.3,0,0,0,147.274,12.515Z" transform="translate(-133.585)"/>
      <path id="Trazado_875522" data-name="Trazado 875522" d="M97.552,150.786H76.25a3.905,3.905,0,0,1-3.9-3.9V115.463c0-6.124,2.244-7.79,4.619-9.554,1.791-1.33,3.795-2.821,4.232-6.157H99.869a1.3,1.3,0,1,0,0-2.6H79.176a1.3,1.3,0,0,1-1.3-1.3V93.9a1.3,1.3,0,0,1,1.3-1.3h27.955a1.3,1.3,0,0,1,1.3,1.3v1.95a1.3,1.3,0,0,1-1.3,1.3h-.812a1.3,1.3,0,0,0-1.3,1.311c.037,4.265,2.312,5.955,4.32,7.446,2.375,1.764,4.619,3.43,4.619,9.554v7.175a1.3,1.3,0,1,0,2.6,0v-7.175c0-7.432-3.143-9.766-5.669-11.642-1.587-1.178-2.8-2.082-3.161-4.114a3.907,3.907,0,0,0,3.3-3.855V93.9a3.905,3.905,0,0,0-3.9-3.9H79.176a3.905,3.905,0,0,0-3.9,3.9v1.95a3.907,3.907,0,0,0,3.3,3.855c-.359,2.033-1.574,2.936-3.161,4.114-2.526,1.876-5.669,4.21-5.669,11.642v31.423a6.509,6.509,0,0,0,6.5,6.5h21.3a1.3,1.3,0,0,0,0-2.6Z" transform="translate(-69.749 -75.372)"/>
      <path id="Trazado_875523" data-name="Trazado 875523" d="M154.846,247.467c-1.219-3.753-4.113-4.905-7.78-3.438.262-3.943-1.73-6.337-5.674-6.337s-5.937,2.394-5.674,6.337c-4-1.6-6.845-.012-7.907,3.863a1.3,1.3,0,0,0,2.508.688,3.4,3.4,0,0,1,1.745-2.447c1.068-.379,2.727.1,4.673,1.363a1.3,1.3,0,0,0,1.962-1.426c-.6-2.24-.543-3.967.148-4.865a4.008,4.008,0,0,1,5.089,0c.69.9.743,2.626.148,4.865a1.3,1.3,0,0,0,1.963,1.426c1.946-1.258,3.607-1.742,4.673-1.363a4.008,4.008,0,0,1,1.573,4.84c-.64.934-2.267,1.518-4.581,1.644a1.3,1.3,0,0,0-.75,2.307c1.8,1.462,2.771,2.891,2.74,4.023a4.008,4.008,0,0,1-4.117,2.991c-1.086-.32-2.144-1.688-2.979-3.849a1.3,1.3,0,0,0-2.426,0c-.835,2.162-1.893,3.529-2.979,3.849a3.053,3.053,0,0,1-2.594-.758,3.175,3.175,0,0,1-1.515-2.1,4.333,4.333,0,0,1,1.429-2.947,1.3,1.3,0,0,0-.847-2.18c-.1-.008-9.4-.005-25.324-.005V226.911a1.3,1.3,0,0,1,1.176-1.3c11.431-1.2,16.667,6.425,27.115,3.816a1.3,1.3,0,0,1,1.614,1.261v1.385a1.3,1.3,0,0,0,2.6,0v-1.385a3.9,3.9,0,0,0-4.844-3.784c-9.4,2.346-14.625-5.149-26.756-3.879a3.9,3.9,0,0,0-3.506,3.881v28.335a1.3,1.3,0,0,0,1.3,1.3h24.013c-1.275,2.6-.4,4.984,2.015,6.737,3.133,2.276,6.169,1.618,8.315-1.791,2.1,3.342,5.122,4.111,8.315,1.791s3.393-5.429.866-8.461c3.836-.97,5.491-3.608,4.273-7.354Z" transform="translate(-99.898 -186.658)"/>
    </g>
  </g>
</svg>
