<svg xmlns="http://www.w3.org/2000/svg" width="65" height="65" viewBox="0 0 65 65">
  <g id="Grupo_1102215" data-name="Grupo 1102215" transform="translate(-663.051 -7247)">
    <g id="Grupo_1102211" data-name="Grupo 1102211" transform="translate(663.051 7247)">
      <circle id="Elipse_11559" data-name="Elipse 11559" cx="32.5" cy="32.5" r="32.5" fill="#5f6e62"/>
    </g>
    <g id="clock_15103950" transform="translate(671.41 7254.881)">
      <circle id="Elipse_11600" data-name="Elipse 11600" cx="21" cy="21" r="21" transform="translate(3.641 3.641)" fill="#fa1228"/>
      <g id="Grupo_1102225" data-name="Grupo 1102225" transform="translate(2 2)">
        <path id="Trazado_875565" data-name="Trazado 875565" d="M30.774,8A3.774,3.774,0,1,1,27,11.774,3.774,3.774,0,0,1,30.774,8Zm.755,3.774a.755.755,0,1,0-.755.755A.755.755,0,0,0,31.528,11.774Z" transform="translate(-8.132 -3.472)" fill-rule="evenodd"/>
        <path id="Trazado_875566" data-name="Trazado 875566" d="M34.547,49.774a3.774,3.774,0,1,0-3.774,3.774A3.774,3.774,0,0,0,34.547,49.774Zm-3.774-.755a.755.755,0,1,1-.755.755A.755.755,0,0,1,30.774,49.019Z" transform="translate(-8.132 -12.793)" fill-rule="evenodd"/>
        <path id="Trazado_875567" data-name="Trazado 875567" d="M53.547,30.774A3.774,3.774,0,1,1,49.774,27,3.774,3.774,0,0,1,53.547,30.774Zm-3.774.755a.755.755,0,1,0-.755-.755A.755.755,0,0,0,49.774,31.528Z" transform="translate(-12.793 -8.132)" fill-rule="evenodd"/>
        <path id="Trazado_875568" data-name="Trazado 875568" d="M11.774,34.547A3.774,3.774,0,1,0,8,30.774,3.774,3.774,0,0,0,11.774,34.547Zm.755-3.774a.755.755,0,1,1-.755-.755A.755.755,0,0,1,12.528,30.774Z" transform="translate(-3.472 -8.132)" fill-rule="evenodd"/>
        <path id="Trazado_875569" data-name="Trazado 875569" d="M46.877,14.67a3.774,3.774,0,1,1-5.337,0,3.774,3.774,0,0,1,5.337,0Zm-2.135,3.2a.755.755,0,1,0-1.067,0,.755.755,0,0,0,1.067,0Z" transform="translate(-11.428 -4.837)" fill-rule="evenodd"/>
        <path id="Trazado_875570" data-name="Trazado 875570" d="M20.007,46.877a3.774,3.774,0,1,0-5.337,0,3.774,3.774,0,0,0,5.337,0Zm-2.135-3.2a.755.755,0,1,1-1.067,0A.755.755,0,0,1,17.872,43.675Z" transform="translate(-4.837 -11.428)" fill-rule="evenodd"/>
        <path id="Trazado_875571" data-name="Trazado 875571" d="M46.877,46.877a3.774,3.774,0,1,1,0-5.337,3.774,3.774,0,0,1,0,5.337Zm-3.2-2.135a.755.755,0,1,0,0-1.067A.755.755,0,0,0,43.675,44.742Z" transform="translate(-11.428 -11.428)" fill-rule="evenodd"/>
        <path id="Trazado_875572" data-name="Trazado 875572" d="M14.67,20.007a3.774,3.774,0,1,0,0-5.337A3.774,3.774,0,0,0,14.67,20.007Zm3.2-2.135a.755.755,0,1,1,0-1.067.755.755,0,0,1,0,1.067Z" transform="translate(-4.837 -4.837)" fill-rule="evenodd"/>
        <path id="Trazado_875573" data-name="Trazado 875573" d="M24.641,2A22.641,22.641,0,1,1,2,24.641,22.641,22.641,0,0,1,24.641,2ZM44.263,24.641A19.622,19.622,0,1,0,24.641,44.263,19.622,19.622,0,0,0,44.263,24.641Z" transform="translate(-2 -2)" fill-rule="evenodd"/>
      </g>
    </g>
  </g>
</svg>
