<svg xmlns="http://www.w3.org/2000/svg" width="65" height="65" viewBox="0 0 65 65">
  <g id="Grupo_1102214" data-name="Grupo 1102214" transform="translate(-872.051 -7247)">
    <g id="Grupo_1102213" data-name="Grupo 1102213" transform="translate(872.051 7247)">
      <circle id="Elipse_11559" data-name="Elipse 11559" cx="32.5" cy="32.5" r="32.5" fill="#5f6e62"/>
    </g>
    <g id="breathe_1726427" transform="translate(884.703 7259.453)">
      <path id="Trazado_875524" data-name="Trazado 875524" d="M100.663,28.931a6.765,6.765,0,0,1-4.894,6.552,6.466,6.466,0,0,1-1.736.235H89.957a7.405,7.405,0,0,1-7.5,0H78.38a6.8,6.8,0,0,1-.952-13.5l.078,1.054C76.965,14.173,82.342,7,82.342,7H90.1a27.4,27.4,0,0,1,4.868,15.532l.018-.318a6.739,6.739,0,0,1,5.678,6.717Zm0,0" transform="translate(-66.12 -6.451)" fill="#fcd0b9"/>
      <path id="Trazado_875525" data-name="Trazado 875525" d="M230.358,22.214l-.018.318A27.4,27.4,0,0,0,225.472,7h-6.823c3.751,3.5,6.3,10.406,6.3,18.36A32.859,32.859,0,0,1,223.069,36.6a6.329,6.329,0,0,0,2.26-.88h4.076a6.466,6.466,0,0,0,1.736-.235,6.822,6.822,0,0,0-.785-13.269Zm0,0" transform="translate(-201.493 -6.451)" fill="#edc2b0"/>
      <path id="Trazado_875526" data-name="Trazado 875526" d="M142.149,306.112c-1.093-.352-2.168-.052-2.4.671s.466,1.592,1.559,1.944,2.168.052,2.4-.671S143.242,306.464,142.149,306.112Zm0,0" transform="translate(-128.743 -281.958)" fill="#4f4c4d"/>
      <path id="Trazado_875527" data-name="Trazado 875527" d="M324.709,306.783c-.232-.722-1.307-1.022-2.4-.671s-1.791,1.222-1.559,1.944,1.307,1.022,2.4.671S324.941,307.5,324.709,306.783Zm0,0" transform="translate(-295.542 -281.958)" fill="#4f4c4d"/>
      <path id="Trazado_875528" data-name="Trazado 875528" d="M14.839,399.693a1.725,1.725,0,0,0,.164-.732A2.136,2.136,0,0,0,12.728,397a2.136,2.136,0,0,0-2.275,1.962,1.71,1.71,0,0,0,.073.494,3.608,3.608,0,0,0-.858-.1c-1.473,0-2.668.861-2.668,1.922,0,.949.955,1.737,2.21,1.893a1.975,1.975,0,0,0-.013.225,2.04,2.04,0,1,0,4.08,0,1.964,1.964,0,0,0-.012-.212c.12.01.241.016.365.016,1.538,0,2.785-.825,2.785-1.844,0-.732-.643-1.364-1.576-1.662Zm0,0" transform="translate(-6.451 -365.85)" fill="#a8b3cc"/>
      <path id="Trazado_875529" data-name="Trazado 875529" d="M10.452,400.923a3.6,3.6,0,0,1,.858.1,1.71,1.71,0,0,1-.073-.494,2.136,2.136,0,0,1,2.275-1.962,2.487,2.487,0,0,1,1.488.479c0-.029,0-.058,0-.086A2.136,2.136,0,0,0,12.728,397a2.136,2.136,0,0,0-2.275,1.962,1.71,1.71,0,0,0,.073.494,3.6,3.6,0,0,0-.858-.1c-1.473,0-2.668.861-2.668,1.922a1.707,1.707,0,0,0,.8,1.371,2.5,2.5,0,0,1,2.654-1.724Zm0,0" transform="translate(-6.451 -365.85)" fill="#4c5770"/>
      <path id="Trazado_875530" data-name="Trazado 875530" d="M391.572,419.55c0-.888-1.054-1.609-2.354-1.609a3.04,3.04,0,0,0-1.553.4A2.081,2.081,0,0,0,385.609,417a1.966,1.966,0,0,0-2.118,1.765,1.615,1.615,0,0,0,.57,1.2c-1.194.185-2.061.735-2.061,1.385,0,.8,1.317,1.452,2.942,1.452a5.325,5.325,0,0,0,1.572-.225,1.918,1.918,0,0,0,1.723,1.245,2.1,2.1,0,0,0,1.922-2.236,2.566,2.566,0,0,0-.059-.549C390.964,420.8,391.572,420.225,391.572,419.55Zm0,0" transform="translate(-352.027 -384.281)" fill="#4c5770"/>
      <path id="Trazado_875531" data-name="Trazado 875531" d="M406.728,417.942a3.04,3.04,0,0,0-1.553.4A2.081,2.081,0,0,0,403.118,417,1.97,1.97,0,0,0,401,418.753a2.455,2.455,0,0,1,.942-.184A2.081,2.081,0,0,1,404,419.911a3.039,3.039,0,0,1,1.553-.4,2.2,2.2,0,0,1,2.34,1.437,1.629,1.629,0,0,0,1.19-1.4C409.082,418.662,408.028,417.942,406.728,417.942Zm0,0" transform="translate(-369.537 -384.281)" fill="#a8b3cc"/>
      <path id="Trazado_875532" data-name="Trazado 875532" d="M87.582,29.816a.549.549,0,1,1,0-1.1,6.168,6.168,0,0,0,6.081-6.238,6.327,6.327,0,0,0-1.5-4.106,6.062,6.062,0,0,0-3.105-1.947q-.022.555-.073,1.121a.549.549,0,0,1-1.1-.082l.082-1.42A27.013,27.013,0,0,0,83.364,1.1H76.175a27.017,27.017,0,0,0-2.508,4.639A25.008,25.008,0,0,0,71.6,16.724l.054.733a.549.549,0,0,1-1.095.091q-.034-.378-.055-.752l-.028-.374a6.062,6.062,0,0,0-3.123,1.952,6.327,6.327,0,0,0-1.5,4.106,6.168,6.168,0,0,0,6.081,6.238.549.549,0,1,1,0,1.1A7.267,7.267,0,0,1,64.75,22.48a7.427,7.427,0,0,1,1.766-4.82A7.152,7.152,0,0,1,70.469,15.3a26.706,26.706,0,0,1,2.2-10.018A26.312,26.312,0,0,1,75.452.22a.55.55,0,0,1,.44-.22h7.756a.55.55,0,0,1,.44.22A26.3,26.3,0,0,1,86.87,5.277a26.7,26.7,0,0,1,2.2,10.025A7.152,7.152,0,0,1,93,17.66a7.427,7.427,0,0,1,1.766,4.82,7.268,7.268,0,0,1-7.179,7.336Zm0,0" transform="translate(-59.669 0)"/>
      <path id="Trazado_875533" data-name="Trazado 875533" d="M151.974,300.163a1.741,1.741,0,0,0-1.252-1.1,3.241,3.241,0,0,0-1.839.074c-1.4.451-2.244,1.608-1.914,2.635a1.467,1.467,0,0,0,.2.393.535.535,0,0,0-.009.1c0,1.616-2.192,2.982-4.786,2.982s-4.786-1.365-4.786-2.982a.541.541,0,0,0-.009-.1,1.467,1.467,0,0,0,.2-.393c.33-1.026-.51-2.184-1.913-2.635a3.248,3.248,0,0,0-1.839-.074,1.742,1.742,0,0,0-1.252,1.1c-.33,1.026.511,2.184,1.914,2.635a3.538,3.538,0,0,0,1.076.173,2.847,2.847,0,0,0,.762-.1l.028-.009a3.813,3.813,0,0,0,1.747,2.354,7.943,7.943,0,0,0,8.152,0,3.814,3.814,0,0,0,1.747-2.354l.028.009a2.848,2.848,0,0,0,.762.1,3.538,3.538,0,0,0,1.076-.173c1.4-.452,2.244-1.609,1.914-2.635Zm-16.956,1.589c-.834-.268-1.323-.883-1.2-1.253a.682.682,0,0,1,.5-.377,1.753,1.753,0,0,1,.465-.059,2.449,2.449,0,0,1,.742.12c.834.268,1.323.883,1.2,1.253a.681.681,0,0,1-.5.377A2.178,2.178,0,0,1,135.018,301.753Zm14.706,0a2.172,2.172,0,0,1-1.207.061.683.683,0,0,1-.5-.377c-.119-.37.371-.985,1.2-1.253a2.449,2.449,0,0,1,.742-.12,1.753,1.753,0,0,1,.465.059.684.684,0,0,1,.5.377C151.047,300.869,150.558,301.484,149.724,301.753Zm0,0" transform="translate(-122.284 -275.507)"/>
      <path id="Trazado_875534" data-name="Trazado 875534" d="M293.912,95.844a.549.549,0,0,1-.549-.545,43.2,43.2,0,0,0-1.175-10.209,16.817,16.817,0,0,0-1.116-3.272.549.549,0,0,1,.972-.511c.1.181,2.339,4.543,2.417,13.983a.549.549,0,0,1-.545.554Zm0,0" transform="translate(-268.176 -74.659)"/>
      <path id="Trazado_875535" data-name="Trazado 875535" d="M147.55,398.257a.549.549,0,0,1-.4-.93c1.538-1.6,1.657-6.136,1.573-7.751a.549.549,0,1,1,1.1-.057,24.768,24.768,0,0,1-.1,3.368c-.247,2.482-.846,4.231-1.779,5.2A.548.548,0,0,1,147.55,398.257Zm0,0" transform="translate(-135.467 -358.477)"/>
      <path id="Trazado_875536" data-name="Trazado 875536" d="M193.549,402.619a.55.55,0,0,1-.524-.715,16.879,16.879,0,0,0,.819-5.226,9.63,9.63,0,0,0-.2-2.006.549.549,0,1,1,1.064-.272,15.333,15.333,0,0,1-.636,7.834A.549.549,0,0,1,193.549,402.619Zm0,0" transform="translate(-177.856 -363.074)"/>
      <path id="Trazado_875537" data-name="Trazado 875537" d="M230.551,405.593a.549.549,0,0,1-.511-.751c1.1-2.79.218-7.1.209-7.139a.549.549,0,0,1,1.075-.226c.04.189.961,4.669-.262,7.769A.549.549,0,0,1,230.551,405.593Zm0,0" transform="translate(-211.956 -365.891)"/>
      <path id="Trazado_875538" data-name="Trazado 875538" d="M4.786,399.494a2.578,2.578,0,0,1-2.579-2.32A2.616,2.616,0,0,1,0,394.825c0-1.386,1.413-2.472,3.217-2.472.08,0,.161,0,.24.007A2.708,2.708,0,0,1,6.277,390,2.685,2.685,0,0,1,9.1,392.511a2.268,2.268,0,0,1-.037.41,2.273,2.273,0,0,1,1.45,1.983c0,1.3-1.376,2.328-3.163,2.39a2.581,2.581,0,0,1-2.565,2.2Zm-1.569-6.042c-1.148,0-2.118.629-2.118,1.373,0,.646.743,1.226,1.729,1.349a.549.549,0,0,1,.478.607,1.444,1.444,0,0,0-.01.163,1.491,1.491,0,0,0,2.982,0,1.428,1.428,0,0,0-.008-.154.549.549,0,0,1,.593-.606c.109.009.215.014.317.014,1.191,0,2.236-.6,2.236-1.295,0-.46-.469-.907-1.194-1.138a.55.55,0,0,1-.331-.755,1.172,1.172,0,0,0,.113-.5A1.6,1.6,0,0,0,6.277,391.1a1.6,1.6,0,0,0-1.726,1.412,1.165,1.165,0,0,0,.05.336.549.549,0,0,1-.656.692A3.062,3.062,0,0,0,3.217,393.452Zm0,0" transform="translate(0 -359.4)"/>
      <path id="Trazado_875539" data-name="Trazado 875539" d="M368,384.525c0-1.21-1.275-2.158-2.9-2.158a3.815,3.815,0,0,0-1.293.222,2.761,2.761,0,0,0-2.316-1.163,2.95,2.95,0,0,0-1.458.378,3.625,3.625,0,0,1-.817-2.262.549.549,0,0,0-1.1,0,4.742,4.742,0,0,0,1.1,2.994,2.08,2.08,0,0,0-.39,1.2,2.049,2.049,0,0,0,.19.861,3.464,3.464,0,0,0-.921.452A7.088,7.088,0,0,1,357,380.215a.549.549,0,0,0-1.07-.25,8.119,8.119,0,0,0,1.447,6.015,1.29,1.29,0,0,0-.05.349c0,1.141,1.5,2,3.492,2a6.188,6.188,0,0,0,1.29-.133,2.376,2.376,0,0,0,2.005,1.153,2.646,2.646,0,0,0,2.472-2.785c0-.06,0-.12-.005-.181A2.107,2.107,0,0,0,368,384.525Zm-2.167.962a.549.549,0,0,0-.39.646,2.053,2.053,0,0,1,.046.432,1.556,1.556,0,0,1-1.373,1.687,1.368,1.368,0,0,1-1.218-.911.549.549,0,0,0-.669-.309,4.792,4.792,0,0,1-1.408.2c-1.484,0-2.393-.584-2.393-.9,0-.25.554-.681,1.6-.842a.549.549,0,0,0,.282-.953,1.072,1.072,0,0,1-.386-.794,1.429,1.429,0,0,1,1.569-1.216,1.552,1.552,0,0,1,1.53.948.549.549,0,0,0,.809.315,2.5,2.5,0,0,1,1.27-.322c.961,0,1.8.495,1.8,1.059,0,.4-.429.785-1.068.962Zm0,0" transform="translate(-327.908 -349.256)"/>
      <path id="Trazado_875540" data-name="Trazado 875540" d="M321.511,395.649a.548.548,0,0,1-.426-.2c-1.106-1.356-1.519-3.309-1.228-5.805a15.84,15.84,0,0,1,.745-3.283.549.549,0,0,1,1.032.377c-.019.053-1.9,5.315.3,8.017a.549.549,0,0,1-.425.9Zm0,0" transform="translate(-294.676 -355.711)"/>
      <g id="Grupo_1102212" data-name="Grupo 1102212" transform="translate(6.591 25.847)">
        <path id="Trazado_875541" data-name="Trazado 875541" d="M85.177,444.588a.588.588,0,1,1-.588-.588A.589.589,0,0,1,85.177,444.588Zm0,0" transform="translate(-84 -435.009)" fill="#fff"/>
        <path id="Trazado_875542" data-name="Trazado 875542" d="M452.1,465.51a.551.551,0,1,0-.549.51A.531.531,0,0,0,452.1,465.51Zm0,0" transform="translate(-422.204 -454.362)" fill="#fff"/>
        <path id="Trazado_875543" data-name="Trazado 875543" d="M260.734,329.973a1.234,1.234,0,1,0-.751,1.357A1.109,1.109,0,0,0,260.734,329.973Zm0,0" transform="translate(-244.753 -329.416)" fill="#fff"/>
      </g>
    </g>
  </g>
</svg>
