<svg xmlns="http://www.w3.org/2000/svg" width="65" height="65" viewBox="0 0 65 65">
  <g id="Grupo_1102216" data-name="Grupo 1102216" transform="translate(-872.051 -7247)">
    <g id="Grupo_1102213" data-name="Grupo 1102213" transform="translate(872.051 7247)">
      <circle id="Elipse_11559" data-name="Elipse 11559" cx="32.5" cy="32.5" r="32.5" fill="#5f6e62"/>
    </g>
    <g id="meat_2152015" transform="translate(886.412 7258.765)">
      <path id="Trazado_875549" data-name="Trazado 875549" d="M22.911,16.271v1.944a10.465,10.465,0,0,0,5.38,9.147l1.79.994a10.464,10.464,0,0,1,5.38,9.146,8.245,8.245,0,1,0,16.491,0V16.271a14.521,14.521,0,0,0-29.042,0Z" transform="translate(-22.293 -1.132)" fill="#d3643d"/>
      <path id="Trazado_875550" data-name="Trazado 875550" d="M54.843,22.647V43.879a4.594,4.594,0,0,1-.025.495,4.748,4.748,0,0,1-1.668,3.138,4.475,4.475,0,0,1-1.064.682,4.7,4.7,0,0,1-2,.445,4.767,4.767,0,0,1-4.764-4.76,13.929,13.929,0,0,0-.268-2.72,13.635,13.635,0,0,0-.742-2.489,13.927,13.927,0,0,0-6.16-6.983l-1.788-1a6.977,6.977,0,0,1-3.591-6.1V22.647c0-.106,0-.212,0-.318a11.224,11.224,0,0,1,.163-1.59A10.87,10.87,0,0,1,34.208,17.2a10.135,10.135,0,0,1,.689-1.064,11.038,11.038,0,0,1,2.4-2.4,10.468,10.468,0,0,1,1.06-.689,10.959,10.959,0,0,1,3.534-1.276,11.121,11.121,0,0,1,1.587-.163c.11,0,.219,0,.329,0A11.049,11.049,0,0,1,54.843,22.647Z" transform="translate(-28.667 -7.507)" fill="#ff738d"/>
      <path id="Trazado_875551" data-name="Trazado 875551" d="M103.957,68.377a.618.618,0,0,0-.618.618v.647a.618.618,0,0,0,1.237,0V69A.618.618,0,0,0,103.957,68.377Z" transform="translate(-74.297 -44.213)"/>
      <path id="Trazado_875552" data-name="Trazado 875552" d="M36.3,0A15.156,15.156,0,0,0,21.161,15.139v1.944a11.089,11.089,0,0,0,5.7,9.687l1.789.994a9.852,9.852,0,0,1,5.062,8.606,8.865,8.865,0,1,0,17.729,0v-8.04a.618.618,0,1,0-1.237,0v8.04a7.628,7.628,0,1,1-15.255,0,11.09,11.09,0,0,0-5.7-9.687l-1.789-.994A9.852,9.852,0,0,1,22.4,17.083V15.14a13.9,13.9,0,0,1,27.8,0v6.743a.618.618,0,1,0,1.237,0V15.139A15.157,15.157,0,0,0,36.3,0Z" transform="translate(-21.161)"/>
      <path id="Trazado_875553" data-name="Trazado 875553" d="M54.331,22.712v-1.2a11.645,11.645,0,0,0-17.974-9.785l-.02.012a11.744,11.744,0,0,0-3.43,3.428c-.01.014-.019.029-.028.044a11.579,11.579,0,0,0-1.857,6.3v1.944a.618.618,0,0,0,1.237,0V21.812L53.094,42.647v.1a4.135,4.135,0,0,1-1.511,3.2l-7.4-7.405a14.569,14.569,0,0,0-6.861-8.525l-1.789-.994a.619.619,0,1,0-.6,1.081l1.789.994a13.338,13.338,0,0,1,6.856,11.652,5.372,5.372,0,0,0,8.266,4.532l.029-.018a5.377,5.377,0,0,0,2.465-4.514V22.712ZM44.808,42.747a14.579,14.579,0,0,0-.133-1.962l5.808,5.808a4.135,4.135,0,0,1-5.676-3.845Zm-3.5-31.556L53.094,22.977v4.81L37.682,12.376A10.341,10.341,0,0,1,41.307,11.191Zm11.779,10.03L42.971,11.106A10.425,10.425,0,0,1,53.086,21.221ZM36.611,13.055,53.094,29.538v4.806L34.211,15.456A10.506,10.506,0,0,1,36.611,13.055Zm-4.261,7.1a10.337,10.337,0,0,1,1.183-3.627L53.094,36.091V40.9Z" transform="translate(-27.537 -6.376)"/>
    </g>
  </g>
</svg>
