<svg xmlns="http://www.w3.org/2000/svg" width="65" height="65" viewBox="0 0 65 65">
  <g id="Grupo_1102222" data-name="Grupo 1102222" transform="translate(-663.051 -7247)">
    <g id="Grupo_1102211" data-name="Grupo 1102211" transform="translate(663.051 7247)">
      <circle id="Elipse_11559" data-name="Elipse 11559" cx="32.5" cy="32.5" r="32.5" fill="#5f6e62"/>
    </g>
    <g id="turkey-leg_3759198" transform="translate(672.553 7211.469)">
      <g id="Grupo_1102226" data-name="Grupo 1102226" transform="translate(4.102 62.923)">
        <path id="Trazado_875589" data-name="Trazado 875589" d="M81.434,204.474a6.766,6.766,0,0,1,.556.75,13.271,13.271,0,0,1,2.03,6.088l.358,5.04H48.632a3.043,3.043,0,0,1-3.016-2.5,3,3,0,0,1,1.757-3.251l5.079-2.224a1.029,1.029,0,0,0,.537-.548,14.688,14.688,0,0,1,13.563-9.051h2.586a16.116,16.116,0,0,1,12.3,5.7Z" transform="translate(-45.573 -198.775)" fill="#f7d8a4"/>
      </g>
      <path id="Trazado_875590" data-name="Trazado 875590" d="M372.116,104.6l2.083-2.85c.025.021.049.042.076.062a1.928,1.928,0,1,0,.589-3.4.17.17,0,0,1-.219-.16,1.927,1.927,0,1,0-3.063,1.6h0l-2.08,2.846-3.1,3.7,3.338,2.01Z" transform="translate(-333.431 -42.658)" fill="#fcf6ed"/>
      <g id="Grupo_1102227" data-name="Grupo 1102227" transform="translate(0.675 50.859)">
        <path id="Trazado_875591" data-name="Trazado 875591" d="M152.871,354.784l.132-.419a1.743,1.743,0,0,0-2.23-2.171,1.743,1.743,0,0,1-1.741-.36l-.529-.482a1.743,1.743,0,0,0-2.4.045l-.37.363a1.743,1.743,0,0,1-1.524.473l-.25-.044A1.743,1.743,0,0,0,142,354.438l.123.382,1.058,3.018h8.677Z" transform="translate(-129.819 -325.143)" fill="#72bb95"/>
        <path id="Trazado_875592" data-name="Trazado 875592" d="M374.7,354.784l.132-.419a1.743,1.743,0,0,0-2.23-2.171,1.743,1.743,0,0,1-1.741-.36l-.529-.482a1.743,1.743,0,0,0-2.4.045l-.37.363a1.743,1.743,0,0,1-1.524.473l-.25-.044a1.743,1.743,0,0,0-1.962,2.249l.123.382,1.216,3.573h8.285Z" transform="translate(-331.688 -325.143)" fill="#72bb95"/>
        <path id="Trazado_875593" data-name="Trazado 875593" d="M51.139,394.084H8.5a1,1,0,0,0-.916,1.4l1.495,3.4a1,1,0,0,0,.916.6H49.645a1,1,0,0,0,.916-.6l1.495-3.4A1,1,0,0,0,51.139,394.084Z" transform="translate(-7.495 -364.443)" fill="#c9a291"/>
        <path id="Trazado_875594" data-name="Trazado 875594" d="M80.4,203.365a16.115,16.115,0,0,0-11.009-4.587h0c-.084,0-.168,0-.252,0H66.552a14.688,14.688,0,0,0-13.563,9.051,1.029,1.029,0,0,1-.537.548L47.373,210.6a3,3,0,0,0-1.757,3.251,3.036,3.036,0,0,0,2.767,2.493,2.928,2.928,0,0,1-.122-.476,3,3,0,0,1,1.757-3.251l5.079-2.224a1.029,1.029,0,0,0,.537-.548,14.685,14.685,0,0,1,9.74-8.543,1.429,1.429,0,0,1,1.786,1.577,6.659,6.659,0,0,0,6.588,7.6h0a6.662,6.662,0,0,0,6.65-7.114Z" transform="translate(-42.147 -186.711)" fill="#f5cd8b"/>
        <path id="Trazado_875595" data-name="Trazado 875595" d="M303,172.285a5.3,5.3,0,0,1,4.132-2.381,1.419,1.419,0,0,0,.937-.417l2-2.047a.842.842,0,0,1,.538-.251l-1.85-1.352a.844.844,0,0,0-1.1.091l-2,2.047a1.419,1.419,0,0,1-.937.417,5.311,5.311,0,0,0-1.207,10.395A5.332,5.332,0,0,1,303,172.285Z" transform="translate(-273.416 -156.59)" fill="#f7d8a4"/>
        <path id="Trazado_875596" data-name="Trazado 875596" d="M88.642,65.064v2.379a3.862,3.862,0,0,1-3.862,3.862H70.243a1.994,1.994,0,0,0-1.487,3.322l1.272,1.425a1.935,1.935,0,0,1,.492,1.289v1.306a1.5,1.5,0,0,1-.264.849l-2.262,3.281a.231.231,0,0,1-.421-.131V80.34a4.869,4.869,0,0,0-1.2-3.2L65.287,75.9a5.527,5.527,0,0,1,4.165-9.161H81.628a1.717,1.717,0,0,0,1.717-1.717.286.286,0,0,1,.286-.286h4.681a.331.331,0,0,1,.331.33Z" transform="translate(-58.836 -64.733)" fill="#fcf6ed"/>
      </g>
      <g id="Grupo_1102228" data-name="Grupo 1102228" transform="translate(26.974 59.944)">
        <path id="Trazado_875597" data-name="Trazado 875597" d="M310.28,171.355l1.342-2.531a.844.844,0,0,0-.248-1.077l-2.613-1.91a.844.844,0,0,0-1.1.091l-2,2.047a1.419,1.419,0,0,1-.937.417,5.312,5.312,0,1,0,5.447,3.978A1.414,1.414,0,0,1,310.28,171.355Z" transform="translate(-299.716 -165.675)" fill="#f8deb6"/>
        <path id="Trazado_875598" data-name="Trazado 875598" d="M303,172.285a5.3,5.3,0,0,1,4.132-2.381,1.419,1.419,0,0,0,.937-.417l2-2.047a.842.842,0,0,1,.538-.251l-1.85-1.352a.844.844,0,0,0-1.1.091l-2,2.047a1.419,1.419,0,0,1-.937.417,5.311,5.311,0,0,0-1.207,10.395A5.332,5.332,0,0,1,303,172.285Z" transform="translate(-299.715 -165.675)" fill="#f7d8a4"/>
      </g>
      <g id="Grupo_1102229" data-name="Grupo 1102229" transform="translate(0 49.487)">
        <path id="Trazado_875599" data-name="Trazado 875599" d="M45.723,241.591a1.669,1.669,0,0,0-1.161-.742,2.417,2.417,0,0,0-3.187-2.571,1.067,1.067,0,0,1-1.067-.22l-.529-.482a2.418,2.418,0,0,0-3.323.062l-.37.363a1.07,1.07,0,0,1-.934.29l-.25-.044a2.418,2.418,0,0,0-2.829,2.585H29.893a.675.675,0,0,0,0,1.35H44.319a.326.326,0,0,1,.3.458l-1.495,3.4a.326.326,0,0,1-.3.195H3.172a.326.326,0,0,1-.3-.195l-1.495-3.4a.326.326,0,0,1,.3-.457s11.441.026,11.51,0c0,0,13.656,0,13.656,0a.675.675,0,0,0,0-1.35H24.6a2.417,2.417,0,0,0-3.19-2.553,1.067,1.067,0,0,1-1.067-.221l-.529-.482a2.418,2.418,0,0,0-3.323.062l-.37.363a1.07,1.07,0,0,1-.934.29l-.25-.044a2.418,2.418,0,0,0-2.829,2.585h-5a2.329,2.329,0,0,1-.934-4.461l5.079-2.224a1.7,1.7,0,0,0,.89-.907,14.039,14.039,0,0,1,4.254-5.618.675.675,0,0,0-.837-1.059,15.393,15.393,0,0,0-4.664,6.159.353.353,0,0,1-.185.189L5.63,235.133a3.684,3.684,0,0,0-1.376,5.7H1.677a1.676,1.676,0,0,0-1.534,2.351l1.495,3.4a1.676,1.676,0,0,0,1.534,1H42.824a1.676,1.676,0,0,0,1.534-1l1.495-3.4A1.671,1.671,0,0,0,45.723,241.591Zm-12.045-1.666a1.046,1.046,0,0,1,.99-.35l.25.044a2.421,2.421,0,0,0,2.114-.656l.37-.363a1.068,1.068,0,0,1,1.468-.027l.529.482a2.417,2.417,0,0,0,2.416.5,1.067,1.067,0,0,1,1.381,1.276h-9.76A1.042,1.042,0,0,1,33.677,239.925Zm-19.965,0a1.046,1.046,0,0,1,.99-.35l.25.044a2.422,2.422,0,0,0,2.114-.656l.37-.363a1.068,1.068,0,0,1,1.467-.027l.529.482a2.417,2.417,0,0,0,2.416.5,1.067,1.067,0,0,1,1.381,1.276h-9.76a1.042,1.042,0,0,1,.243-.906Z" transform="translate(0 -210.493)"/>
        <path id="Trazado_875600" data-name="Trazado 875600" d="M439.853,258.289a.675.675,0,0,0-.174.939,12.663,12.663,0,0,1,2.2,6.187.675.675,0,0,0,.672.623l.053,0a.675.675,0,0,0,.621-.725,14.015,14.015,0,0,0-2.43-6.847A.675.675,0,0,0,439.853,258.289Z" transform="translate(-400.001 -239.389)"/>
        <path id="Trazado_875601" data-name="Trazado 875601" d="M205.938,192.625a.675.675,0,0,0,0-1.35h-.975a15.433,15.433,0,0,0-6.918,1.646.675.675,0,1,0,.608,1.205,14.076,14.076,0,0,1,6.31-1.5h.975Z" transform="translate(-179.883 -178.514)"/>
        <path id="Trazado_875602" data-name="Trazado 875602" d="M297.935,97.838a5.944,5.944,0,0,0-4.657,2.683,5.986,5.986,0,0,0,5,9.28q.131,0,.262-.006a.675.675,0,0,0-.059-1.349,4.636,4.636,0,0,1-.464-9.26,2.092,2.092,0,0,0,1.38-.619l2-2.047a.17.17,0,0,1,.22-.018l2.613,1.91a.17.17,0,0,1,.05.216l-1.342,2.531a2.086,2.086,0,0,0-.171,1.5,4.637,4.637,0,0,1-1.9,5,.675.675,0,1,0,.753,1.121,5.987,5.987,0,0,0,2.458-6.461.741.741,0,0,1,.056-.532l1.342-2.531a1.525,1.525,0,0,0,0-1.41l1.47-2.012a2.614,2.614,0,0,0,1.511.169,2.581,2.581,0,0,0,1.715-1.159,2.6,2.6,0,0,0-2.364-3.994,2.6,2.6,0,0,0-4.524-1.039A2.581,2.581,0,0,0,302.7,91.8a2.612,2.612,0,0,0,.556,1.312l-1.484,2.031a1.525,1.525,0,0,0-1.342.432l-2,2.047A.746.746,0,0,1,297.935,97.838Zm6.758-4.4a.676.676,0,0,0-.148-.944,1.253,1.253,0,0,1-.221-1.814A1.259,1.259,0,0,1,306,90.449a1.24,1.24,0,0,1,.54,1.006.845.845,0,0,0,1.086.794,1.24,1.24,0,0,1,1.123.209,1.259,1.259,0,0,1,.291,1.663,1.253,1.253,0,0,1-1.794.342l-.052-.043a.675.675,0,0,0-.971.126l-1.738,2.378-1.523-1.113Z" transform="translate(-265.997 -85.337)"/>
        <path id="Trazado_875603" data-name="Trazado 875603" d="M193.014,267.467a.675.675,0,0,0-.675.675v.315a.675.675,0,0,0,1.35,0v-.315A.675.675,0,0,0,193.014,267.467Z" transform="translate(-175.029 -247.849)"/>
        <path id="Trazado_875604" data-name="Trazado 875604" d="M239.933,268.142v.315a.675.675,0,1,0,1.35,0v-.315a.675.675,0,0,0-1.35,0Z" transform="translate(-218.339 -247.849)"/>
        <path id="Trazado_875605" data-name="Trazado 875605" d="M216.866,303.371v.315a.675.675,0,0,0,1.35,0v-.315a.675.675,0,1,0-1.35,0Z" transform="translate(-197.348 -279.908)"/>
        <path id="Trazado_875606" data-name="Trazado 875606" d="M29.077,64.473a.675.675,0,0,0,.508-1.119,7.552,7.552,0,0,1,5.691-12.517.675.675,0,0,0,0-1.35,8.9,8.9,0,0,0-6.708,14.754A.673.673,0,0,0,29.077,64.473Z" transform="translate(-23.986 -49.487)"/>
        <path id="Trazado_875607" data-name="Trazado 875607" d="M56.979,62.872a6.136,6.136,0,0,0,.973,6.644l1.084,1.243a4.193,4.193,0,0,1,1.034,2.757v3.046a.675.675,0,1,0,1.35,0V73.516a5.543,5.543,0,0,0-1.367-3.645l-1.084-1.243a4.852,4.852,0,0,1,3.656-8.042H74.8A2.394,2.394,0,0,0,77.192,58.2v-.286a.675.675,0,1,0-1.35,0V58.2A1.043,1.043,0,0,1,74.8,59.237H62.625A6.136,6.136,0,0,0,56.979,62.872Z" transform="translate(-51.335 -56.537)"/>
        <path id="Trazado_875608" data-name="Trazado 875608" d="M288.935,93.906a.675.675,0,0,0,0,1.35,7.245,7.245,0,0,0,7.237-7.237.675.675,0,0,0-1.35,0A5.894,5.894,0,0,1,288.935,93.906Z" transform="translate(-262.317 -83.937)"/>
        <path id="Trazado_875609" data-name="Trazado 875609" d="M104.575,66.476a2.666,2.666,0,0,0,.678,1.777l1.272,1.425a1.259,1.259,0,0,1,.32.839v1.771a.675.675,0,0,0,1.35,0V70.518a2.607,2.607,0,0,0-.663-1.738l-1.272-1.425a1.319,1.319,0,0,1,.984-2.2h14.537a4.542,4.542,0,0,0,4.537-4.537V57.91a.675.675,0,0,0-1.35,0v2.71a3.191,3.191,0,0,1-3.187,3.187H107.244a2.672,2.672,0,0,0-2.669,2.669Z" transform="translate(-95.163 -56.538)"/>
        <path id="Trazado_875610" data-name="Trazado 875610" d="M155.471,50.837h1.2a.675.675,0,1,0,0-1.35h-1.2a.675.675,0,0,0,0,1.35Z" transform="translate(-140.865 -49.487)"/>
      </g>
    </g>
  </g>
</svg>
