<svg xmlns="http://www.w3.org/2000/svg" width="65" height="63" viewBox="0 0 65 63">
  <g id="Grupo_1102223" data-name="Grupo 1102223" transform="translate(-663.051 -7247)">
    <g id="Grupo_1102211" data-name="Grupo 1102211" transform="translate(662.894 7247)">
      <ellipse id="Elipse_11559" data-name="Elipse 11559" cx="32.5" cy="31.5" rx="32.5" ry="31.5" transform="translate(0.157)" fill="#5f6e62"/>
    </g>
    <g id="food_13257316" transform="translate(670.96 7254.016)">
      <g id="Grupo_1102230" data-name="Grupo 1102230" transform="translate(5.481 6.046)">
        <path id="Trazado_875611" data-name="Trazado 875611" d="M31.759,29.189a3.133,3.133,0,0,0-3.133,3.133v.008C24.16,33.655,16.288,30.085,11,24.8,4.808,18.6,5.7,13.578,9.36,9.93a9.469,9.469,0,0,1,7.474-2.556,8.629,8.629,0,0,0,2.775,6.773c2.658,2.658,6.219,3.523,8.526,2.245C31.1,20.92,32.71,25.939,31.759,29.189Z" transform="translate(-5.702 -6.563)" fill="#fda45c"/>
        <path id="Trazado_875612" data-name="Trazado 875612" d="M26.343,33.16c-4.694,0-11.263-3.179-16.111-8.028C7.078,21.978,5.48,18.872,5.481,15.9A9.441,9.441,0,0,1,8.588,9.158a10.234,10.234,0,0,1,8.084-2.782.78.78,0,0,1,.715.867,7.889,7.889,0,0,0,2.552,6.131c2.357,2.358,5.553,3.247,7.6,2.114a.778.778,0,0,1,1.03.255c3.262,4.986,4.687,10.138,3.72,13.444a.78.78,0,0,1-.748.56A2.357,2.357,0,0,0,29.182,32.1a.788.788,0,0,1-.558.754A7.945,7.945,0,0,1,26.343,33.16ZM15.767,7.9A8.5,8.5,0,0,0,9.69,10.26,7.951,7.951,0,0,0,7.041,15.9c0,2.543,1.444,5.277,4.294,8.128,5.031,5.032,12.19,8.267,16.341,7.456a3.923,3.923,0,0,1,3.237-3.247c.518-2.75-.731-6.968-3.289-11.076-2.63,1.008-6.133-.032-8.786-2.686A9.853,9.853,0,0,1,15.8,7.9Z" transform="translate(-5.481 -6.342)"/>
      </g>
      <g id="Grupo_1102233" data-name="Grupo 1102233" transform="translate(9.798 6.046)" opacity="0.15">
        <g id="Grupo_1102231" data-name="Grupo 1102231" transform="translate(16.322 22.682)">
          <path id="Trazado_875613" data-name="Trazado 875613" d="M32.962,39a6.924,6.924,0,0,0,1.506-.246v-.008a3.116,3.116,0,0,1,1.017-2.3A3.124,3.124,0,0,0,32.962,39Z" transform="translate(-32.183 -35.665)" fill="#fda45c"/>
          <path id="Trazado_875614" data-name="Trazado 875614" d="M32.741,39.555a.78.78,0,0,1-.768-.91,3.915,3.915,0,0,1,3.153-3.188.78.78,0,0,1,.666,1.341,2.325,2.325,0,0,0-.766,1.725.789.789,0,0,1-.558.755,7.628,7.628,0,0,1-1.675.276A.4.4,0,0,1,32.741,39.555Z" transform="translate(-31.962 -35.445)" fill="#fff"/>
        </g>
        <g id="Grupo_1102232" data-name="Grupo 1102232">
          <path id="Trazado_875615" data-name="Trazado 875615" d="M29.356,16.392c-2.307,1.278-5.869.413-8.526-2.245a8.629,8.629,0,0,1-2.775-6.773,9.9,9.9,0,0,0-6.037,1.419,10.338,10.338,0,0,1,4.478-.64,8.629,8.629,0,0,0,2.775,6.773c2.658,2.658,6.219,3.523,8.526,2.245,2.844,4.348,4.438,9.144,3.718,12.4a3.1,3.1,0,0,1,1.464-.379c.951-3.25-.662-8.269-3.624-12.8Z" transform="translate(-11.24 -6.563)" fill="#fda45c"/>
          <path id="Trazado_875616" data-name="Trazado 875616" d="M31.3,30.127a.779.779,0,0,1-.761-.948c.613-2.772-.627-7.033-3.248-11.236-2.63,1.007-6.133-.033-8.786-2.686a9.856,9.856,0,0,1-3.04-6.576,9.469,9.469,0,0,0-3.382.618.779.779,0,0,1-.7-1.385,10.672,10.672,0,0,1,6.513-1.538.78.78,0,0,1,.715.867,7.888,7.888,0,0,0,2.552,6.131c2.357,2.358,5.553,3.247,7.6,2.114a.778.778,0,0,1,1.03.255c3.262,4.986,4.687,10.138,3.72,13.444a.78.78,0,0,1-.748.56,2.31,2.31,0,0,0-1.1.288.766.766,0,0,1-.366.093Zm-2.62-12.9a21.586,21.586,0,0,1,3.566,10.053c.119-2.718-1.121-6.46-3.4-10.116l-.17.062ZM17.03,8.23A8.012,8.012,0,0,0,19.6,14.155,10.03,10.03,0,0,0,20.965,15.3a11.98,11.98,0,0,1-.906-.818A10.016,10.016,0,0,1,17.03,8.23Z" transform="translate(-11.02 -6.342)" fill="#fff"/>
        </g>
      </g>
      <g id="Grupo_1102235" data-name="Grupo 1102235" transform="translate(5.481 6.717)" opacity="0.15">
        <g id="Grupo_1102234" data-name="Grupo 1102234">
          <path id="Trazado_875617" data-name="Trazado 875617" d="M12.563,24.212c-6.2-6.2-5.3-11.223-1.644-14.871A8.252,8.252,0,0,1,12.355,8.2a8.494,8.494,0,0,0-3,1.916C5.7,13.768,4.808,18.8,11,24.991c5.284,5.284,13.156,8.854,17.622,7.529v-.008a3.149,3.149,0,0,1,.053-.525c-4.578.306-11.382-3.04-16.116-7.775Z" transform="translate(-5.702 -7.424)" fill="#fda45c"/>
          <path id="Trazado_875618" data-name="Trazado 875618" d="M26.343,33.35c-4.694,0-11.263-3.179-16.111-8.028C7.078,22.168,5.48,19.062,5.481,16.09A9.443,9.443,0,0,1,8.588,9.348a9.247,9.247,0,0,1,3.266-2.092.779.779,0,0,1,.7,1.386,7.409,7.409,0,0,0-1.3,1.029A7.952,7.952,0,0,0,8.6,15.313c0,2.543,1.444,5.277,4.294,8.128,4.587,4.587,11.256,7.832,15.513,7.549a.763.763,0,0,1,.631.256.777.777,0,0,1,.189.654,2.33,2.33,0,0,0-.042.393.788.788,0,0,1-.558.754A8.076,8.076,0,0,1,26.343,33.35ZM7.051,15.727c-.007.121-.01.242-.011.364,0,2.543,1.444,5.277,4.294,8.128A29.539,29.539,0,0,0,14.9,27.25a30.283,30.283,0,0,1-3.111-2.708c-3.007-3.007-4.6-5.969-4.74-8.815Z" transform="translate(-5.481 -7.203)"/>
        </g>
      </g>
      <g id="Grupo_1102236" data-name="Grupo 1102236" transform="translate(21.202 5)">
        <path id="Trazado_875619" data-name="Trazado 875619" d="M46.043,17.656a.777.777,0,0,1-.551-.228L36.479,8.414,32.773,12.12a.8.8,0,0,1-1.1,0l-5.79-5.79a.779.779,0,1,1,1.1-1.1l5.239,5.239,3.706-3.706a.8.8,0,0,1,1.1,0l9.564,9.564a.78.78,0,0,1-.551,1.331Z" transform="translate(-25.653 -5)"/>
      </g>
      <g id="Grupo_1102237" data-name="Grupo 1102237" transform="translate(36.602 11.576)">
        <path id="Trazado_875620" data-name="Trazado 875620" d="M50.4,19.518H46.191a.779.779,0,0,1,0-1.559h3.432V14.216a.779.779,0,1,1,1.559,0v4.522A.779.779,0,0,1,50.4,19.518Z" transform="translate(-45.412 -13.437)"/>
      </g>
      <g id="Grupo_1102238" data-name="Grupo 1102238" transform="translate(27.626 27.893)">
        <path id="Trazado_875621" data-name="Trazado 875621" d="M48.627,45.178a3,3,0,0,1-3.577.351,3,3,0,0,1-.351,3.577,3.373,3.373,0,0,1-4.731-4.731,4.527,4.527,0,0,1,.436-.351l-5.51-5.51v-.008a3.133,3.133,0,0,1,3.133-3.133l5.518,5.51a2.93,2.93,0,0,1,4.793-.148,3.16,3.16,0,0,1,.288,4.442Z" transform="translate(-34.115 -34.594)" fill="#fda45c"/>
        <path id="Trazado_875622" data-name="Trazado 875622" d="M42.52,50.449c-.083,0-.168,0-.253-.008a4.329,4.329,0,0,1-2.782-1.284,3.985,3.985,0,0,1-.44-5.389l-4.922-4.922a.779.779,0,0,1-.228-.551,3.919,3.919,0,0,1,3.913-3.92.78.78,0,0,1,.551.228l4.929,4.922a3.988,3.988,0,0,1,5.38.439,4.35,4.35,0,0,1,1.293,2.786,3.519,3.519,0,0,1-1,2.761,3.559,3.559,0,0,1-2.945.983,3.551,3.551,0,0,1-.983,2.945,3.5,3.5,0,0,1-2.51,1.012ZM35.471,37.99l5.264,5.263a.779.779,0,0,1-.089,1.178,3.657,3.657,0,0,0-.362.289,2.4,2.4,0,0,0,.3,3.333,2.776,2.776,0,0,0,1.778.831,1.992,1.992,0,0,0,1.563-.551,2.221,2.221,0,0,0,.217-2.653A.78.78,0,0,1,45.2,44.622a2.219,2.219,0,0,0,2.653-.217,1.981,1.981,0,0,0,.549-1.559,2.793,2.793,0,0,0-.838-1.782,2.4,2.4,0,0,0-3.342-.287,2.32,2.32,0,0,0-.26.33.781.781,0,0,1-.57.33.769.769,0,0,1-.62-.225L37.5,35.95a2.363,2.363,0,0,0-2.033,2.04Z" transform="translate(-33.895 -34.374)"/>
      </g>
      <g id="Grupo_1102239" data-name="Grupo 1102239" transform="translate(8.591 10.836)">
        <path id="Trazado_875623" data-name="Trazado 875623" d="M13.866,24.51a.777.777,0,0,1-.551-.228c-5.92-5.92-3.774-9.436-1.644-11.565a.779.779,0,0,1,1.1,1.1c-1.252,1.252-3.858,3.859,1.644,9.361a.779.779,0,0,1-.551,1.33Z" transform="translate(-9.471 -12.488)"/>
      </g>
      <g id="Grupo_1102240" data-name="Grupo 1102240" transform="translate(5.481 6.046)">
        <path id="Trazado_875624" data-name="Trazado 875624" d="M26.343,33.16c-4.694,0-11.263-3.179-16.111-8.028C7.078,21.978,5.48,18.872,5.481,15.9A9.441,9.441,0,0,1,8.588,9.158a10.234,10.234,0,0,1,8.084-2.782.78.78,0,0,1,.715.867,7.889,7.889,0,0,0,2.552,6.131c2.357,2.358,5.553,3.247,7.6,2.114a.778.778,0,0,1,1.03.255c3.262,4.986,4.687,10.138,3.72,13.444a.78.78,0,0,1-.748.56A2.357,2.357,0,0,0,29.182,32.1a.788.788,0,0,1-.558.754A7.945,7.945,0,0,1,26.343,33.16ZM15.767,7.9A8.5,8.5,0,0,0,9.69,10.26,7.951,7.951,0,0,0,7.041,15.9c0,2.543,1.444,5.277,4.294,8.128,5.031,5.032,12.19,8.267,16.341,7.456a3.923,3.923,0,0,1,3.237-3.247c.518-2.75-.731-6.968-3.289-11.076-2.63,1.008-6.133-.032-8.786-2.686A9.853,9.853,0,0,1,15.8,7.9Z" transform="translate(-5.481 -6.342)"/>
      </g>
    </g>
  </g>
</svg>
