<svg xmlns="http://www.w3.org/2000/svg" width="65" height="65" viewBox="0 0 65 65">
  <g id="Grupo_1102246" data-name="Grupo 1102246" transform="translate(-663.051 -7247)">
    <g id="Grupo_1102211" data-name="Grupo 1102211" transform="translate(663.051 7247)">
      <circle id="Elipse_11559" data-name="Elipse 11559" cx="32.5" cy="32.5" r="32.5" fill="#5f6e62"/>
    </g>
    <g id="pescado" transform="translate(670.364 7250.876)">
      <g id="Grupo_1102259" data-name="Grupo 1102259" transform="translate(1 13.87)">
        <g id="Grupo_1102249" data-name="Grupo 1102249" transform="translate(0.734 3.85)">
          <path id="Trazado_875625" data-name="Trazado 875625" d="M48.255,29.144a10.57,10.57,0,0,1-3.473,1.287,11.143,11.143,0,0,0,2.559.827,1.371,1.371,0,0,1,.7,2.265,24.717,24.717,0,0,1-6.39,5.1,18.284,18.284,0,0,1-8.838,2.3c-8.591,0-18.844-6.1-23.461-9.179-1.439,1.756-3.831,4.236-5.873,4.236-3.179,0-.238-2.662-.238-5.961S.3,24.066,3.479,24.066c2.043,0,4.435,2.48,5.873,4.236,4.618-3.076,14.87-9.179,23.461-9.179a17.874,17.874,0,0,1,7.049,1.446,24.117,24.117,0,0,1,8.726,6.589,1.305,1.305,0,0,1-.334,1.987Z" transform="translate(-2.002 -19.123)" fill="#d9defb"/>
        </g>
        <g id="Grupo_1102250" data-name="Grupo 1102250" transform="translate(0.736 12.606)">
          <path id="Trazado_875626" data-name="Trazado 875626" d="M48.044,36.714a24.552,24.552,0,0,1-6.391,5.1,18.235,18.235,0,0,1-8.839,2.309c-8.59,0-18.844-6.105-23.461-9.184C7.916,36.7,5.519,39.176,3.482,39.176c-2.631,0-1.07-1.825-.454-4.324a4.191,4.191,0,0,0,.454.022c1.876,0,4.06-2.1,5.519-3.8.125.147.242.286.352.425.205-.132.418-.279.645-.425,4.874,3.174,14.607,8.751,22.816,8.751a18.314,18.314,0,0,0,8.839-2.3,23.74,23.74,0,0,0,4.632-3.342c.308.1.667.183,1.055.271a1.372,1.372,0,0,1,.7,2.265Z" transform="translate(-2.004 -31.07)" fill="#c5cced"/>
        </g>
        <g id="Grupo_1102251" data-name="Grupo 1102251" transform="translate(0.734 8.793)">
          <path id="Trazado_875627" data-name="Trazado 875627" d="M9.352,30.1c-1.439-1.756-3.831-4.236-5.873-4.236-3.179,0-.238,2.67-.238,5.961S.3,37.789,3.479,37.789c2.043,0,4.435-2.48,5.873-4.236Z" transform="translate(-2.002 -25.867)" fill="#445a66"/>
        </g>
        <g id="Grupo_1102252" data-name="Grupo 1102252" transform="translate(0.734 8.795)">
          <path id="Trazado_875628" data-name="Trazado 875628" d="M4.852,37.458a3.294,3.294,0,0,1-1.371.33c-3.181,0-.242-2.661-.242-5.959S.3,25.87,3.481,25.87a3.294,3.294,0,0,1,1.371.33c-.821.806,1.026,3.02,1.026,5.629S4.038,36.651,4.852,37.458Z" transform="translate(-2.002 -25.87)" fill="#3b515b"/>
        </g>
        <g id="Grupo_1102254" data-name="Grupo 1102254" transform="translate(23.71 0.734)">
          <path id="Trazado_875629" data-name="Trazado 875629" d="M46.708,18.8a17.656,17.656,0,0,0-5.309-.811,24.329,24.329,0,0,0-6.2.89c-1.248-2.329-2.1-4.006,1.756-4.006,4.133,0,7.749,1.574,9.752,3.926Z" transform="translate(-33.564 -14.872)" fill="#445a66"/>
          <g id="Grupo_1102253" data-name="Grupo 1102253" transform="translate(0 24.065)">
            <path id="Trazado_875630" data-name="Trazado 875630" d="M45.708,47.984a13.033,13.033,0,0,1-9.553,3.7c-4.546,0-2.543-1.47-1.065-3.974a24.56,24.56,0,0,0,6.1.858,17.921,17.921,0,0,0,4.522-.58Z" transform="translate(-33.35 -47.706)" fill="#445a66"/>
          </g>
        </g>
        <g id="Grupo_1102255" data-name="Grupo 1102255" transform="translate(10.237 18.767)">
          <path id="Trazado_875631" data-name="Trazado 875631" d="M24.474,43.545a9.521,9.521,0,0,1-7.439.834c-3.155-.922-2.162-3.044-.564-4.9A65.123,65.123,0,0,0,24.474,43.545Z" transform="translate(-14.967 -39.476)" fill="#445a66"/>
        </g>
        <g id="Grupo_1102256" data-name="Grupo 1102256" transform="translate(36.561 5.296)">
          <path id="Trazado_875632" data-name="Trazado 875632" d="M61.094,34.048a24.679,24.679,0,0,1-6.388,5.1A15.794,15.794,0,0,1,52.918,21.1a24.121,24.121,0,0,1,8.73,6.592,1.311,1.311,0,0,1-.341,1.987,10.653,10.653,0,0,1-3.47,1.284,11.336,11.336,0,0,0,2.559.83,1.367,1.367,0,0,1,.7,2.26Z" transform="translate(-50.883 -21.096)" fill="#d9defb"/>
        </g>
        <g id="Grupo_1102257" data-name="Grupo 1102257" transform="translate(36.558 5.299)">
          <path id="Trazado_875633" data-name="Trazado 875633" d="M57.388,37.43a23.057,23.057,0,0,1-2.683,1.722A15.773,15.773,0,0,1,52.918,21.1a20.38,20.38,0,0,1,3.152,1.671A15.787,15.787,0,0,0,57.388,37.43Z" transform="translate(-50.88 -21.1)" fill="#c5cced"/>
        </g>
        <path id="Trazado_875634" data-name="Trazado 875634" d="M57.9,29.075a1.466,1.466,0,1,1-1.463-1.463A1.465,1.465,0,0,1,57.9,29.075Z" transform="translate(-15.414 -17.54)" fill="#2297f3"/>
        <g id="Grupo_1102258" data-name="Grupo 1102258">
          <path id="Trazado_875635" data-name="Trazado 875635" d="M49.344,26.96a2.044,2.044,0,0,0-.469-1.686,23.907,23.907,0,0,0-10.613-7.381A13.719,13.719,0,0,0,28.1,13.87c-1.81,0-2.829.352-3.3,1.136-.528.88-.132,1.957.462,3.13A63.3,63.3,0,0,0,9.224,25.927C7.567,24,5.3,21.932,3.214,21.932a2.27,2.27,0,0,0-1.95.733c-.528.748-.169,1.715.242,2.829.987,2.687.97,3.6,0,6.267-.41,1.114-.762,2.074-.242,2.829a2.284,2.284,0,0,0,1.95.726c2.089,0,4.354-2.067,6.01-3.994.726.476,1.539.989,2.411,1.524-2.02,2.713-1.2,4.625,1.466,5.4a10.121,10.121,0,0,0,7.659-.726,43.84,43.84,0,0,0,4.537,1.6c-.868,1.3-1.674,2.288-1.165,3.24.44.843,1.671,1.019,3.386,1.019a13.871,13.871,0,0,0,9.924-3.767l.007-.007a23.186,23.186,0,0,0,10.869-6.992,2.1,2.1,0,0,0,.447-2.074,2.06,2.06,0,0,0-1.539-1.4c-.1-.015-.191-.037-.279-.059a12.6,12.6,0,0,0,1.407-.7A2.021,2.021,0,0,0,49.344,26.96ZM8.351,30.082c-2,2.4-3.87,3.767-5.138,3.767a2.117,2.117,0,0,1-.74-.088,4.809,4.809,0,0,1,.4-1.5C4,29.237,3.96,27.937,2.884,24.988a5.2,5.2,0,0,1-.425-1.473c0-.007.139-.117.755-.117,1.268,0,3.137,1.371,5.138,3.767ZM26.066,15.754c.044-.066.337-.418,2.038-.418a13.694,13.694,0,0,1,6.977,1.825,18.354,18.354,0,0,0-2.536-.176,24.948,24.948,0,0,0-5.827.762c-.4-.784-.828-1.693-.652-1.994ZM13.511,36.84c-1.716-.5-2.112-1.287-.608-3.247,1.81,1.055,3.848,2.14,6,3.122a8.456,8.456,0,0,1-5.394.125Zm14.006,5.072a5.242,5.242,0,0,1-2.067-.235,18.938,18.938,0,0,1,1.334-2.162,22.041,22.041,0,0,0,7.586.66A13.743,13.743,0,0,1,27.517,41.912ZM32.545,38.8c-8.311,0-18.44-6.017-22.728-8.846V27.3c4.288-2.829,14.417-8.846,22.728-8.846a16.947,16.947,0,0,1,6.017,1.1,16.51,16.51,0,0,0,1.686,17.436A17.376,17.376,0,0,1,32.545,38.8ZM47.9,26.711a.553.553,0,0,1-.279.4,9.962,9.962,0,0,1-3.232,1.2.731.731,0,0,0-.213,1.371,11.919,11.919,0,0,0,2.741.894.613.613,0,0,1,.454.41.65.65,0,0,1-.139.645,24.27,24.27,0,0,1-5.673,4.654,15.044,15.044,0,0,1-1.642-16.168,23.745,23.745,0,0,1,7.85,6.12.586.586,0,0,1,.132.476Z" transform="translate(-1 -13.87)"/>
          <path id="Trazado_875636" data-name="Trazado 875636" d="M56.174,26.612a2.2,2.2,0,1,0,2.2,2.2A2.2,2.2,0,0,0,56.174,26.612Zm0,2.925a.733.733,0,0,1-.736-.729.733.733,0,1,1,.736.729Z" transform="translate(-15.147 -17.273)"/>
          <path id="Trazado_875637" data-name="Trazado 875637" d="M41.5,29.342a.734.734,0,0,0-1.036-.023c-2.228,2.133-2.344,4.51,0,6.754a.733.733,0,1,0,1.013-1.059c-1.678-1.605-1.678-3.03,0-4.635A.733.733,0,0,0,41.5,29.342Z" transform="translate(-11.082 -17.942)"/>
          <path id="Trazado_875638" data-name="Trazado 875638" d="M36.163,29.342a.734.734,0,0,0-1.036-.023c-2.228,2.133-2.344,4.51,0,6.754a.733.733,0,1,0,1.013-1.059c-1.678-1.605-1.678-3.03,0-4.635A.733.733,0,0,0,36.163,29.342Z" transform="translate(-9.656 -17.942)"/>
          <path id="Trazado_875639" data-name="Trazado 875639" d="M30.824,29.342a.734.734,0,0,0-1.036-.023c-2.228,2.133-2.344,4.51,0,6.754A.733.733,0,1,0,30.8,35.013c-1.678-1.605-1.678-3.03,0-4.635A.733.733,0,0,0,30.824,29.342Z" transform="translate(-8.23 -17.942)"/>
        </g>
      </g>
    </g>
  </g>
</svg>
