<svg xmlns="http://www.w3.org/2000/svg" width="65" height="63" viewBox="0 0 65 63">
  <g id="Grupo_1102247" data-name="Grupo 1102247" transform="translate(-663.051 -7247)">
    <g id="Grupo_1102211" data-name="Grupo 1102211" transform="translate(662.894 7247)">
      <ellipse id="Elipse_11559" data-name="Elipse 11559" cx="32.5" cy="31.5" rx="32.5" ry="31.5" transform="translate(0.157)" fill="#5f6e62"/>
    </g>
    <g id="pollution_7866000_1_" data-name="pollution_7866000 (1)" transform="translate(674.119 7257.098)">
      <circle id="Elipse_11602" data-name="Elipse 11602" cx="10.546" cy="10.546" r="10.546" transform="translate(10.886 1.644)" fill="#474747"/>
      <path id="Trazado_875654" data-name="Trazado 875654" d="M26.553,31.633a22.08,22.08,0,0,1,6.789,4.175l.295.264,7.909-4.614V49.913L33.637,45.3l-.293.264A22.082,22.082,0,0,1,6.323,47.523L5.29,46.834a7.389,7.389,0,0,1,0-12.3l1.033-.689a22.08,22.08,0,0,1,8.792-3.437,10.555,10.555,0,0,0,11.435,1.221Z" transform="translate(-0.341 -10.042)" fill="#f6b940"/>
      <path id="Trazado_875655" data-name="Trazado 875655" d="M11.183,50.475a22.047,22.047,0,0,1-4.859-2.435L5.29,47.351a7.389,7.389,0,0,1,0-12.3l1.033-.689a22.047,22.047,0,0,1,4.859-2.439l.271.271a12.734,12.734,0,0,1,0,18.006Z" transform="translate(-0.341 -10.558)" fill="#fbe1ca"/>
      <path id="Trazado_875656" data-name="Trazado 875656" d="M14.18,39.225l-.932-.932L11.736,39.8l-1.511-1.511-.932.932L10.8,40.736,9.293,42.248l.932.932,1.511-1.511,1.511,1.511.932-.932-1.511-1.511Z" transform="translate(-2.827 -12.729)" fill="#d23f34"/>
      <path id="Trazado_875657" data-name="Trazado 875657" d="M51,41h5.273v1.318H51Z" transform="translate(-17.045 -13.651)" fill="#f4a93c"/>
      <path id="Trazado_875658" data-name="Trazado 875658" d="M51,45h5.273v1.318H51Z" transform="translate(-17.045 -15.015)" fill="#f4a93c"/>
      <path id="Trazado_875659" data-name="Trazado 875659" d="M51,49h5.273v1.318H51Z" transform="translate(-17.045 -16.379)" fill="#f4a93c"/>
      <path id="Trazado_875660" data-name="Trazado 875660" d="M35.182,12.586a6.591,6.591,0,1,0-10.546,5.264v1.327A1.318,1.318,0,0,0,25.954,20.5h5.273a1.318,1.318,0,0,0,1.318-1.318V17.849a6.573,6.573,0,0,0,2.636-5.264Z" transform="translate(-7.159 -1.715)" fill="#b5b5b5"/>
      <ellipse id="Elipse_11603" data-name="Elipse 11603" cx="1.318" cy="1.977" rx="1.318" ry="1.977" transform="translate(17.477 8.894)" fill="#939393"/>
      <ellipse id="Elipse_11604" data-name="Elipse 11604" cx="1.318" cy="1.977" rx="1.318" ry="1.977" transform="translate(22.75 8.894)" fill="#939393"/>
      <path id="Trazado_875661" data-name="Trazado 875661" d="M29,24h1.318v2.636H29Z" transform="translate(-9.545 -7.856)" fill="#939393"/>
      <path id="Trazado_875662" data-name="Trazado 875662" d="M33,24h1.318v2.636H33Z" transform="translate(-10.909 -7.856)" fill="#939393"/>
      <g id="Grupo_1102260" data-name="Grupo 1102260" transform="translate(16.818 25.564)">
        <path id="Trazado_875663" data-name="Trazado 875663" d="M31.125,48.452l-.932-.932.852-.852a.933.933,0,0,0,0-1.318l-.386-.386a2.251,2.251,0,0,1,0-3.183l.386-.386a.933.933,0,0,0,0-1.318l-.852-.852.932-.932.852.852a2.251,2.251,0,0,1,0,3.183l-.386.386a.933.933,0,0,0,0,1.318l.386.386a2.251,2.251,0,0,1,0,3.183Z" transform="translate(-26.705 -38.293)" fill="#f4a93c"/>
        <path id="Trazado_875664" data-name="Trazado 875664" d="M26.125,48.452l-.932-.932.852-.852a.933.933,0,0,0,0-1.318l-.386-.386a2.251,2.251,0,0,1,0-3.183l.386-.386a.933.933,0,0,0,0-1.318l-.852-.852.932-.932.852.852a2.251,2.251,0,0,1,0,3.183l-.386.386a.933.933,0,0,0,0,1.318l.386.386a2.251,2.251,0,0,1,0,3.183Z" transform="translate(-25 -38.293)" fill="#f4a93c"/>
        <path id="Trazado_875665" data-name="Trazado 875665" d="M36.125,48.452l-.932-.932.852-.852a.933.933,0,0,0,0-1.318l-.386-.386a2.251,2.251,0,0,1,0-3.183l.386-.386a.933.933,0,0,0,0-1.318l-.852-.852.932-.932.852.852a2.251,2.251,0,0,1,0,3.183l-.386.386a.933.933,0,0,0,0,1.318l.386.386a2.251,2.251,0,0,1,0,3.183Z" transform="translate(-28.409 -38.293)" fill="#f4a93c"/>
        <path id="Trazado_875666" data-name="Trazado 875666" d="M41.125,48.452l-.932-.932.852-.852a.933.933,0,0,0,0-1.318l-.386-.386a2.251,2.251,0,0,1,0-3.183l.386-.386a.933.933,0,0,0,0-1.318l-.852-.852.932-.932.852.852a2.251,2.251,0,0,1,0,3.183l-.386.386a.933.933,0,0,0,0,1.318l.386.386a2.251,2.251,0,0,1,0,3.183Z" transform="translate(-30.114 -38.293)" fill="#f4a93c"/>
      </g>
      <path id="Trazado_875667" data-name="Trazado 875667" d="M13.248,43.18l.932-.932-1.511-1.511,1.511-1.511-.932-.932L11.736,39.8l-1.511-1.511-.932.932L10.8,40.736,9.293,42.248l.932.932,1.511-1.511Z" transform="translate(-2.827 -12.729)"/>
      <path id="Trazado_875668" data-name="Trazado 875668" d="M51,41h5.273v1.318H51Z" transform="translate(-17.045 -13.651)"/>
      <path id="Trazado_875669" data-name="Trazado 875669" d="M51,45h5.273v1.318H51Z" transform="translate(-17.045 -15.015)"/>
      <path id="Trazado_875670" data-name="Trazado 875670" d="M51,49h5.273v1.318H51Z" transform="translate(-17.045 -16.379)"/>
      <path id="Trazado_875671" data-name="Trazado 875671" d="M23.634,17.825v1.008a1.977,1.977,0,0,0,1.977,1.977h5.273a1.977,1.977,0,0,0,1.977-1.977V17.825a7.251,7.251,0,1,0-9.227,0Zm-1.26-6.43A5.965,5.965,0,0,1,27.551,6.35a6.353,6.353,0,0,1,.7-.04A5.861,5.861,0,0,1,32.2,7.816a5.922,5.922,0,0,1-.392,9.161.659.659,0,0,0-.264.527v1.328a.659.659,0,0,1-.659.659h-.658V17.515H28.906v1.977H27.588V17.515H26.27v1.977h-.659a.659.659,0,0,1-.659-.659V17.506a.659.659,0,0,0-.264-.527A5.891,5.891,0,0,1,22.374,11.4Z" transform="translate(-6.815 -1.371)"/>
      <path id="Trazado_875672" data-name="Trazado 875672" d="M26.977,17.273c1.109,0,1.977-1.158,1.977-2.636S28.087,12,26.977,12,25,13.158,25,14.636,25.868,17.273,26.977,17.273Zm0-3.955c.269,0,.659.513.659,1.318s-.39,1.318-.659,1.318-.659-.513-.659-1.318S26.708,13.318,26.977,13.318Z" transform="translate(-8.182 -3.765)"/>
      <path id="Trazado_875673" data-name="Trazado 875673" d="M34.977,17.273c1.109,0,1.977-1.158,1.977-2.636S36.087,12,34.977,12,33,13.158,33,14.636,33.868,17.273,34.977,17.273Zm0-3.955c.269,0,.659.513.659,1.318s-.39,1.318-.659,1.318-.659-.513-.659-1.318S34.708,13.318,34.977,13.318Z" transform="translate(-10.909 -3.765)"/>
      <path id="Trazado_875674" data-name="Trazado 875674" d="M31.977,42.328a2.251,2.251,0,0,0,0-3.183l-.852-.852-.932.932.852.852a.933.933,0,0,1,0,1.318l-.386.386a2.251,2.251,0,0,0,0,3.183l.386.386a.933.933,0,0,1,0,1.318l-.852.852.932.932.852-.852a2.251,2.251,0,0,0,0-3.183l-.386-.386a.933.933,0,0,1,0-1.318Z" transform="translate(-9.886 -12.729)"/>
      <path id="Trazado_875675" data-name="Trazado 875675" d="M26.977,42.328a2.251,2.251,0,0,0,0-3.183l-.852-.852-.932.932.852.852a.933.933,0,0,1,0,1.318l-.386.386a2.251,2.251,0,0,0,0,3.183l.386.386a.933.933,0,0,1,0,1.318l-.852.852.932.932.852-.852a2.251,2.251,0,0,0,0-3.183l-.386-.386a.933.933,0,0,1,0-1.318Z" transform="translate(-8.182 -12.729)"/>
      <path id="Trazado_875676" data-name="Trazado 875676" d="M36.977,42.328a2.251,2.251,0,0,0,0-3.183l-.852-.852-.932.932.852.852a.933.933,0,0,1,0,1.318l-.386.386a2.251,2.251,0,0,0,0,3.183l.386.386a.933.933,0,0,1,0,1.318l-.852.852.932.932.852-.852a2.251,2.251,0,0,0,0-3.183l-.386-.386a.933.933,0,0,1,0-1.318Z" transform="translate(-11.591 -12.729)"/>
      <path id="Trazado_875677" data-name="Trazado 875677" d="M41.977,42.328a2.251,2.251,0,0,0,0-3.183l-.852-.852-.932.932.852.852a.933.933,0,0,1,0,1.318l-.386.386a2.251,2.251,0,0,0,0,3.183l.386.386a.933.933,0,0,1,0,1.318l-.852.852.932.932.852-.852a2.251,2.251,0,0,0,0-3.183l-.386-.386a.933.933,0,0,1,0-1.318Z" transform="translate(-13.295 -12.729)"/>
      <path id="Trazado_875678" data-name="Trazado 875678" d="M41.534,20.845a.659.659,0,0,0-.659,0l-7.494,4.372a22.626,22.626,0,0,0-5.712-3.725,11.213,11.213,0,1,0-14.288-1.525,22.555,22.555,0,0,0-7.764,3.3l-1.033.685a8.048,8.048,0,0,0,0,13.393l1.033.689a22.739,22.739,0,0,0,27.762-1.96l7.5,4.372a.659.659,0,0,0,.989-.569V21.417A.659.659,0,0,0,41.534,20.845ZM21.432,2.3a9.886,9.886,0,1,1-9.886,9.886A9.886,9.886,0,0,1,21.432,2.3ZM5.315,36.246a6.73,6.73,0,0,1,0-11.2l1.033-.689a21.35,21.35,0,0,1,4.324-2.218,12.061,12.061,0,0,1,0,17.013,21.45,21.45,0,0,1-4.324-2.218Zm35.231,2.478-6.921-4.036a.659.659,0,0,0-.773.08l-.293.264a21.442,21.442,0,0,1-20.534,4.584,13.327,13.327,0,0,0,.009-17.935,21.614,21.614,0,0,1,2.591-.61,11.1,11.1,0,0,0,11.592,1.236,21.342,21.342,0,0,1,6.346,3.95l.293.264a.659.659,0,0,0,.773.08l6.918-4.036Z"/>
    </g>
  </g>
</svg>
