<svg xmlns="http://www.w3.org/2000/svg" width="81" height="81" viewBox="0 0 81 81">
  <g id="Grupo_1101880" data-name="Grupo 1101880" transform="translate(-1255.333 -197)">
    <g id="Trazado_874101" data-name="Trazado 874101" transform="translate(1255.333 197)" fill="#fcfbe7">
      <path d="M 40.5 78.5 C 35.36893844604492 78.5 30.39267539978027 77.49563598632812 25.70944976806641 75.51480102539062 C 21.18473815917969 73.60099792480469 17.1205997467041 70.86072540283203 13.62994956970215 67.37006378173828 C 10.1392879486084 63.87939834594727 7.39900016784668 59.81526184082031 5.485199928283691 55.29055023193359 C 3.5043625831604 50.60732650756836 2.5 45.63107681274414 2.5 40.5 C 2.5 35.36893844604492 3.5043625831604 30.39267539978027 5.485199928283691 25.70944976806641 C 7.39900016784668 21.18473815917969 10.1392879486084 17.12061309814453 13.62994956970215 13.62994956970215 C 17.12061309814453 10.1392879486084 21.18473815917969 7.39900016784668 25.70944976806641 5.485199928283691 C 30.39267539978027 3.5043625831604 35.36893844604492 2.5 40.5 2.5 C 45.63107681274414 2.5 50.60732650756836 3.5043625831604 55.29055023193359 5.485199928283691 C 59.81526184082031 7.39900016784668 63.87939834594727 10.1392879486084 67.37006378173828 13.62994956970215 C 70.86072540283203 17.1205997467041 73.60099792480469 21.18473815917969 75.51480102539062 25.70944976806641 C 77.49563598632812 30.39267539978027 78.5 35.36893844604492 78.5 40.5 C 78.5 45.63107681274414 77.49563598632812 50.60732650756836 75.51480102539062 55.29055023193359 C 73.60099792480469 59.81526184082031 70.86072540283203 63.87939834594727 67.37006378173828 67.37006378173828 C 63.87939834594727 70.86072540283203 59.81526184082031 73.60099792480469 55.29055023193359 75.51480102539062 C 50.60732650756836 77.49563598632812 45.63107681274414 78.5 40.5 78.5 Z" stroke="none"/>
      <path d="M 40.5 5 C 35.705322265625 5 31.05672454833984 5.937919616699219 26.68332290649414 7.787704467773438 C 22.45661544799805 9.575462341308594 18.65958404541016 12.13583374023438 15.397705078125 15.397705078125 C 12.13583374023438 18.65958404541016 9.575462341308594 22.45661544799805 7.787704467773438 26.68332290649414 C 5.937919616699219 31.05672454833984 5 35.705322265625 5 40.5 C 5 45.294677734375 5.937919616699219 49.94326019287109 7.787704467773438 54.3166618347168 C 9.575462341308594 58.54338455200195 12.13583374023438 62.34041595458984 15.397705078125 65.602294921875 C 18.65958404541016 68.86415100097656 22.45661544799805 71.42453765869141 26.68332290649414 73.21229553222656 C 31.05672454833984 75.06208038330078 35.705322265625 76 40.5 76 C 45.294677734375 76 49.94326019287109 75.06208038330078 54.3166618347168 73.21229553222656 C 58.54338455200195 71.42453765869141 62.34041595458984 68.86415100097656 65.602294921875 65.602294921875 C 68.86415100097656 62.34041595458984 71.42453765869141 58.54338455200195 73.21229553222656 54.3166618347168 C 75.06208038330078 49.94326019287109 76 45.294677734375 76 40.5 C 76 35.705322265625 75.06208038330078 31.05672454833984 73.21229553222656 26.68332290649414 C 71.42453765869141 22.45661544799805 68.86415100097656 18.65958404541016 65.602294921875 15.397705078125 C 62.34041595458984 12.13583374023438 58.54338455200195 9.575462341308594 54.3166618347168 7.787704467773438 C 49.94326019287109 5.937919616699219 45.294677734375 5 40.5 5 M 40.5 0 C 62.86752319335938 0 81 18.13246154785156 81 40.5 C 81 62.86752319335938 62.86752319335938 81 40.5 81 C 18.13246154785156 81 0 62.86752319335938 0 40.5 C 0 18.13246154785156 18.13246154785156 0 40.5 0 Z" stroke="none" fill="#869a8a"/>
    </g>
    <g id="pollution_7866000" transform="translate(1270.538 208.232)">
      <circle id="Elipse_11582" data-name="Elipse 11582" cx="12.54" cy="12.54" r="12.54" transform="translate(12.756 1.774)" fill="#474747"/>
      <path id="Trazado_874139" data-name="Trazado 874139" d="M31.2,31.864a26.255,26.255,0,0,1,8.072,4.965l.35.313,9.4-5.486V53.6l-9.4-5.486-.348.313a26.257,26.257,0,0,1-32.13,2.33l-1.229-.819a8.786,8.786,0,0,1,0-14.621L7.141,34.5A26.255,26.255,0,0,1,17.6,30.412a12.551,12.551,0,0,0,13.6,1.451Z" transform="translate(-0.216 -6.371)" fill="#f6b940"/>
      <path id="Trazado_874140" data-name="Trazado 874140" d="M12.919,53.982a26.216,26.216,0,0,1-5.778-2.9l-1.229-.819a8.786,8.786,0,0,1,0-14.621l1.229-.819a26.217,26.217,0,0,1,5.778-2.9l.322.322a15.141,15.141,0,0,1,0,21.41Z" transform="translate(-0.216 -6.698)" fill="#fbe1ca"/>
      <path id="Trazado_874141" data-name="Trazado 874141" d="M15.1,39.4,14,38.293l-1.8,1.8-1.8-1.8L9.293,39.4l1.8,1.8L9.293,43,10.4,44.1l1.8-1.8L14,44.1,15.1,43l-1.8-1.8Z" transform="translate(-1.794 -8.075)" fill="#d23f34"/>
      <path id="Trazado_874142" data-name="Trazado 874142" d="M51,41h6.27v1.567H51Z" transform="translate(-10.814 -8.661)" fill="#f4a93c"/>
      <path id="Trazado_874143" data-name="Trazado 874143" d="M51,45h6.27v1.567H51Z" transform="translate(-10.814 -9.526)" fill="#f4a93c"/>
      <path id="Trazado_874144" data-name="Trazado 874144" d="M51,49h6.27v1.567H51Z" transform="translate(-10.814 -10.391)" fill="#f4a93c"/>
      <path id="Trazado_874145" data-name="Trazado 874145" d="M37.674,13.834a7.837,7.837,0,1,0-12.54,6.259v1.578A1.567,1.567,0,0,0,26.7,23.239h6.27a1.567,1.567,0,0,0,1.567-1.567V20.093a7.815,7.815,0,0,0,3.135-6.259Z" transform="translate(-4.542 -1.088)" fill="#b5b5b5"/>
      <ellipse id="Elipse_11583" data-name="Elipse 11583" cx="1.567" cy="2.351" rx="1.567" ry="2.351" transform="translate(20.593 10.395)" fill="#939393"/>
      <ellipse id="Elipse_11584" data-name="Elipse 11584" cx="1.567" cy="2.351" rx="1.567" ry="2.351" transform="translate(26.863 10.395)" fill="#939393"/>
      <path id="Trazado_874146" data-name="Trazado 874146" d="M29,24h1.567v3.135H29Z" transform="translate(-6.056 -4.984)" fill="#939393"/>
      <path id="Trazado_874147" data-name="Trazado 874147" d="M33,24h1.567v3.135H33Z" transform="translate(-6.921 -4.984)" fill="#939393"/>
      <g id="Grupo_1101876" data-name="Grupo 1101876" transform="translate(19.809 30.218)">
        <path id="Trazado_874148" data-name="Trazado 874148" d="M31.338,50.373,30.23,49.265l1.013-1.013a1.109,1.109,0,0,0,0-1.567l-.459-.459a2.676,2.676,0,0,1,0-3.785l.459-.458a1.109,1.109,0,0,0,0-1.567L30.23,39.4l1.108-1.108,1.013,1.013a2.676,2.676,0,0,1,0,3.785l-.459.458a1.109,1.109,0,0,0,0,1.567l.459.459a2.676,2.676,0,0,1,0,3.785Z" transform="translate(-26.081 -38.293)" fill="#f4a93c"/>
        <path id="Trazado_874149" data-name="Trazado 874149" d="M26.338,50.373,25.23,49.265l1.013-1.013a1.109,1.109,0,0,0,0-1.567l-.459-.459a2.676,2.676,0,0,1,0-3.785l.459-.458a1.109,1.109,0,0,0,0-1.567L25.23,39.4l1.108-1.108,1.013,1.013a2.676,2.676,0,0,1,0,3.785l-.459.458a1.109,1.109,0,0,0,0,1.567l.459.459a2.676,2.676,0,0,1,0,3.785Z" transform="translate(-25 -38.293)" fill="#f4a93c"/>
        <path id="Trazado_874150" data-name="Trazado 874150" d="M36.338,50.373,35.23,49.265l1.013-1.013a1.109,1.109,0,0,0,0-1.567l-.459-.459a2.676,2.676,0,0,1,0-3.785l.459-.458a1.109,1.109,0,0,0,0-1.567L35.23,39.4l1.108-1.108,1.013,1.013a2.676,2.676,0,0,1,0,3.785l-.459.458a1.109,1.109,0,0,0,0,1.567l.459.459a2.676,2.676,0,0,1,0,3.785Z" transform="translate(-27.163 -38.293)" fill="#f4a93c"/>
        <path id="Trazado_874151" data-name="Trazado 874151" d="M41.338,50.373,40.23,49.265l1.013-1.013a1.109,1.109,0,0,0,0-1.567l-.459-.459a2.676,2.676,0,0,1,0-3.785l.459-.458a1.109,1.109,0,0,0,0-1.567L40.23,39.4l1.108-1.108,1.013,1.013a2.676,2.676,0,0,1,0,3.785l-.459.458a1.109,1.109,0,0,0,0,1.567l.459.459a2.676,2.676,0,0,1,0,3.785Z" transform="translate(-28.244 -38.293)" fill="#f4a93c"/>
      </g>
      <path id="Trazado_874152" data-name="Trazado 874152" d="M14,44.1,15.1,43l-1.8-1.8,1.8-1.8L14,38.293l-1.8,1.8-1.8-1.8L9.293,39.4l1.8,1.8L9.293,43,10.4,44.1l1.8-1.8Z" transform="translate(-1.794 -8.075)"/>
      <path id="Trazado_874153" data-name="Trazado 874153" d="M51,41h6.27v1.567H51Z" transform="translate(-10.814 -8.661)"/>
      <path id="Trazado_874154" data-name="Trazado 874154" d="M51,45h6.27v1.567H51Z" transform="translate(-10.814 -9.526)"/>
      <path id="Trazado_874155" data-name="Trazado 874155" d="M51,49h6.27v1.567H51Z" transform="translate(-10.814 -10.391)"/>
      <path id="Trazado_874156" data-name="Trazado 874156" d="M24.133,20.255v1.2A2.351,2.351,0,0,0,26.484,23.8h6.27a2.351,2.351,0,0,0,2.351-2.351v-1.2a8.622,8.622,0,1,0-10.972,0Zm-1.5-7.646a7.093,7.093,0,0,1,6.156-6,7.554,7.554,0,0,1,.837-.047,6.969,6.969,0,0,1,4.687,1.791,7.042,7.042,0,0,1-.466,10.894.784.784,0,0,0-.313.627v1.579a.784.784,0,0,1-.784.784H31.97V19.886H30.4v2.351H28.835V19.886H27.268v2.351h-.784a.784.784,0,0,1-.784-.784V19.875a.784.784,0,0,0-.313-.627A7,7,0,0,1,22.635,12.609Z" transform="translate(-4.324 -0.87)"/>
      <path id="Trazado_874157" data-name="Trazado 874157" d="M27.351,18.27c1.319,0,2.351-1.377,2.351-3.135S28.67,12,27.351,12,25,13.377,25,15.135,26.032,18.27,27.351,18.27Zm0-4.7c.32,0,.784.611.784,1.567s-.464,1.567-.784,1.567-.784-.611-.784-1.567S27.031,13.567,27.351,13.567Z" transform="translate(-5.191 -2.389)"/>
      <path id="Trazado_874158" data-name="Trazado 874158" d="M35.351,18.27c1.319,0,2.351-1.377,2.351-3.135S36.67,12,35.351,12,33,13.377,33,15.135,34.032,18.27,35.351,18.27Zm0-4.7c.32,0,.784.611.784,1.567s-.464,1.567-.784,1.567-.784-.611-.784-1.567S35.031,13.567,35.351,13.567Z" transform="translate(-6.921 -2.389)"/>
      <path id="Trazado_874159" data-name="Trazado 874159" d="M32.351,43.091a2.676,2.676,0,0,0,0-3.785l-1.013-1.013L30.23,39.4l1.013,1.013a1.109,1.109,0,0,1,0,1.567l-.459.458a2.676,2.676,0,0,0,0,3.785l.459.459a1.109,1.109,0,0,1,0,1.567L30.23,49.265l1.108,1.108,1.013-1.013a2.676,2.676,0,0,0,0-3.785l-.459-.459a1.109,1.109,0,0,1,0-1.567Z" transform="translate(-6.272 -8.075)"/>
      <path id="Trazado_874160" data-name="Trazado 874160" d="M27.351,43.091a2.676,2.676,0,0,0,0-3.785l-1.013-1.013L25.23,39.4l1.013,1.013a1.109,1.109,0,0,1,0,1.567l-.459.458a2.676,2.676,0,0,0,0,3.785l.459.459a1.109,1.109,0,0,1,0,1.567L25.23,49.265l1.108,1.108,1.013-1.013a2.676,2.676,0,0,0,0-3.785l-.459-.459a1.109,1.109,0,0,1,0-1.567Z" transform="translate(-5.191 -8.075)"/>
      <path id="Trazado_874161" data-name="Trazado 874161" d="M37.351,43.091a2.676,2.676,0,0,0,0-3.785l-1.013-1.013L35.23,39.4l1.013,1.013a1.109,1.109,0,0,1,0,1.567l-.459.458a2.676,2.676,0,0,0,0,3.785l.459.459a1.109,1.109,0,0,1,0,1.567L35.23,49.265l1.108,1.108,1.013-1.013a2.676,2.676,0,0,0,0-3.785l-.459-.459a1.109,1.109,0,0,1,0-1.567Z" transform="translate(-7.353 -8.075)"/>
      <path id="Trazado_874162" data-name="Trazado 874162" d="M42.351,43.091a2.676,2.676,0,0,0,0-3.785l-1.013-1.013L40.23,39.4l1.013,1.013a1.109,1.109,0,0,1,0,1.567l-.459.458a2.676,2.676,0,0,0,0,3.785l.459.459a1.109,1.109,0,0,1,0,1.567L40.23,49.265l1.108,1.108,1.013-1.013a2.676,2.676,0,0,0,0-3.785l-.459-.459a1.109,1.109,0,0,1,0-1.567Z" transform="translate(-8.435 -8.075)"/>
      <path id="Trazado_874163" data-name="Trazado 874163" d="M49.2,24.606a.784.784,0,0,0-.784,0L39.5,29.8a26.9,26.9,0,0,0-6.793-4.43,13.333,13.333,0,1,0-16.99-1.814A26.82,26.82,0,0,0,6.49,27.48L5.261,28.3a9.57,9.57,0,0,0,0,15.925l1.229.819A27.038,27.038,0,0,0,39.5,42.709l8.914,5.2a.784.784,0,0,0,1.176-.677V25.286A.784.784,0,0,0,49.2,24.606ZM25.3,2.558A11.756,11.756,0,1,1,13.54,14.314,11.756,11.756,0,0,1,25.3,2.558ZM6.131,42.92a8,8,0,0,1,0-13.317l1.228-.819A25.387,25.387,0,0,1,12.5,26.146a14.342,14.342,0,0,1,0,20.229,25.507,25.507,0,0,1-5.142-2.637Zm41.892,2.946-8.229-4.8a.784.784,0,0,0-.919.095l-.348.313A25.5,25.5,0,0,1,14.11,46.926,15.847,15.847,0,0,0,14.12,25.6a25.7,25.7,0,0,1,3.081-.726,13.2,13.2,0,0,0,13.783,1.47,25.377,25.377,0,0,1,7.546,4.7l.348.313a.784.784,0,0,0,.919.095l8.226-4.8Z" transform="translate(0 0)"/>
    </g>
  </g>
</svg>
